<?xml version="1.0" encoding="UTF-8" standalone="no"?>
<!-- Created with Inkscape (http://www.inkscape.org/) -->

<svg
   xmlns:svg="http://www.w3.org/2000/svg"
   xmlns="http://www.w3.org/2000/svg"
   version="1.1"
   width="200"
   height="246"
   id="svg10669">
  <defs
     id="defs10671" />
  <g
     transform="translate(0,-806.36218)"
     id="layer1">
    <g
       transform="matrix(7.2366755,0,0,-7.2314657,-1467.1129,3678.1869)"
       id="g6805">
      <g
         transform="scale(1,-1)"
         id="g3283">
        <path
           d="m 230.37,-365.025 c 0,1.056 -0.854,1.914 -1.912,1.914 0,0 -23.812,0 -23.812,0 -1.057,0 -1.913,-0.858 -1.913,-1.914 0,0 0,-30.19 0,-30.19 0,-1.057 0.856,-1.914 1.913,-1.914 0,0 23.812,0 23.812,0 1.058,0 1.912,0.857 1.912,1.914 0,0 0,30.19 0,30.19 z"
           id="path3285"
           style="fill:#ffffff;fill-opacity:1;fill-rule:nonzero;stroke:none" />
      </g>
      <g
         transform="scale(1,-1)"
         id="g3287">
        <path
           d="m 204.861,-386.283 c 0,0 0,18.919 0,18.919 0,1.174 0.952,2.126 2.125,2.126 0,0 19.134,0 19.134,0 1.175,0 2.125,-0.952 2.125,-2.126 0,0 0,-18.919 0,-18.919 0,0 -23.384,0 -23.384,0 z"
           id="path3289"
           style="fill:#000000;fill-opacity:1;fill-rule:nonzero;stroke:none" />
      </g>
      <g
         transform="scale(1,-1)"
         id="g3291">
        <path
           d="m 204.861,-386.283 c 0,0 0,18.919 0,18.919 0,1.174 0.952,2.126 2.125,2.126 0,0 19.134,0 19.134,0 1.175,0 2.125,-0.952 2.125,-2.126 0,0 0,-18.919 0,-18.919 0,0 -23.384,0 -23.384,0 z"
           id="path3293"
           style="fill:none;stroke:#000000;stroke-width:0.56260997;stroke-linecap:butt;stroke-linejoin:miter;stroke-miterlimit:4;stroke-opacity:1;stroke-dasharray:none" />
      </g>
      <g
         transform="scale(1,-1)"
         id="g3295">
        <path
           d="m 228.245,-392.876 c 0,-1.175 -0.95,-2.126 -2.125,-2.126 0,0 -19.134,0 -19.134,0 -1.173,0 -2.125,0.951 -2.125,2.126 0,0 0,5.562 0,5.562 0,0 23.384,0 23.384,0 0,0 0,-5.562 0,-5.562 z"
           id="path3297"
           style="fill:#000000;fill-opacity:1;fill-rule:nonzero;stroke:none" />
      </g>
      <g
         transform="scale(1,-1)"
         id="g3299">
        <path
           d="m 228.245,-392.876 c 0,-1.175 -0.95,-2.126 -2.125,-2.126 0,0 -19.134,0 -19.134,0 -1.173,0 -2.125,0.951 -2.125,2.126 0,0 0,5.562 0,5.562 0,0 23.384,0 23.384,0 0,0 0,-5.562 0,-5.562 z"
           id="path3301"
           style="fill:none;stroke:#000000;stroke-width:0.56260997;stroke-linecap:butt;stroke-linejoin:miter;stroke-miterlimit:4;stroke-opacity:1;stroke-dasharray:none" />
      </g>
      <g
         transform="scale(1,-1)"
         id="g3303">
        <path
           d="m 209.071,-383.862 c -0.085,0.121 -0.122,0.166 -0.166,0.204 0,0 -0.238,0 -0.238,0 0,0 0,-0.204 0,-0.204 0,0 0.404,0 0.404,0 z m -1.054,2.594 c -0.093,0 -0.579,0.013 -0.708,0.013 0.311,-0.16 0.441,-0.236 0.528,-0.288 0,0 0.635,0 0.635,0 -0.064,0.064 -0.109,0.115 -0.136,0.141 -0.103,0.089 -0.116,0.102 -0.145,0.128 -0.095,0.006 -0.108,0.006 -0.174,0.006 m 4.011,-1.987 c 0.008,0.192 0.022,0.619 -0.209,1.233 -0.058,-0.122 -0.189,-0.377 -0.319,-0.837 0.044,-0.071 0.103,-0.166 0.217,-0.396 0,0 0.311,0 0.311,0 m -2.066,0.799 c 0,0 -0.875,0 -0.875,0 0.058,-0.052 0.108,-0.103 0.217,-0.211 0,0 0.542,0 0.542,0 0,0 0.116,0.211 0.116,0.211 m 0.505,3.399 c 0.268,-0.14 0.716,-0.383 1.287,-0.876 0.391,0.429 0.779,0.703 1.054,0.882 0,0 0.817,-1.207 0.817,-1.207 -0.23,-0.097 -0.6,-0.256 -1.033,-0.665 0.282,-0.447 0.55,-1.226 0.629,-2.332 0,0 0.266,0 0.266,0 0,0 0,-1.215 0,-1.215 0,0 -1.379,0 -1.379,0 0.065,-0.261 0.086,-0.434 0.122,-0.651 0,0 -1.256,-0.045 -1.256,-0.045 -0.081,0.588 -0.283,1.163 -0.594,1.693 0,0 0,-0.185 0,-0.185 0,0 -0.252,0 -0.252,0 0.296,-0.403 0.476,-0.702 0.656,-1.01 0,0 -1.076,-0.466 -1.076,-0.466 -0.059,0.121 -0.095,0.192 -0.18,0.345 0,0 -0.709,0 -0.709,0 0,0 0,-0.377 0,-0.377 0,0 -1.228,0 -1.228,0 0,0 0,0.377 0,0.377 0,0 -0.889,0 -0.889,0 0,0 0,0.965 0,0.965 0,0 0.897,0 0.897,0 0,0 0,0.166 0,0.166 0,0 -0.999,0 -0.999,0 0,0 0,0.991 0,0.991 0,0 0.948,0 0.948,0 -0.551,0.345 -0.86,0.44 -1.077,0.505 0,0 0.526,0.913 0.526,0.913 0,0 -0.461,0 -0.461,0 0,0 0.064,1.067 0.064,1.067 0.348,0 0.658,-0.012 1.411,-0.05 0,0.083 0,0.095 -0.008,0.108 -0.022,0.038 -0.116,0.07 -0.195,0.07 0,0 -0.695,0 -0.695,0 0,0 0.196,1.003 0.196,1.003 0,0 1.431,0 1.431,0 0.087,0 0.296,-0.089 0.382,-0.236 0.087,-0.128 0.087,-0.325 0.087,-0.422 0,0 0,-0.601 0,-0.601 0.152,-0.012 0.824,-0.057 0.962,-0.063 0.058,-0.007 0.095,-0.007 0.13,-0.013 -0.26,0.141 -0.471,0.211 -0.664,0.269 0,0 0.83,1.06 0.83,1.06 m 0.015,-2.466 c 0.115,-0.122 0.144,-0.154 0.209,-0.224 0.152,0.46 0.283,0.703 0.355,0.831 -0.275,0.262 -0.5,0.402 -0.701,0.511 0,0 0,-0.978 0,-0.978 -0.253,0.02 -0.47,0.038 -0.759,0.051 0.325,-0.211 0.352,-0.249 0.418,-0.325 0,0 0,-0.723 0,-0.723 0,0 0.478,0.857 0.478,0.857"
           id="path3305"
           style="fill:#ffffff;fill-opacity:1;fill-rule:nonzero;stroke:none" />
      </g>
      <g
         transform="scale(1,-1)"
         id="g3307">
        <path
           d="m 218.188,-383.888 c 0.129,0.064 0.18,0.089 0.311,0.159 -0.377,0.02 -0.853,0.033 -1.078,0.033 0.138,-0.179 0.166,-0.211 0.238,-0.287 0,0 0.761,0 0.761,0 0,0 -0.232,0.095 -0.232,0.095 z m 1.091,1.988 c 0,0 0,0.178 0,0.178 0,0 -2.558,0 -2.558,0 0,0 0,-0.178 0,-0.178 0,0 2.558,0 2.558,0 m -3.932,-0.748 c 0,0 0,3.597 0,3.597 0,0 1.374,0 1.374,0 0,0 0,-1.131 0,-1.131 0,0 2.558,0 2.558,0 0,0.128 0,0.166 -0.151,0.166 0,0 -0.962,0 -0.962,0 0,0 0.209,0.965 0.209,0.965 0,0 1.678,0 1.678,0 0.396,0 0.606,-0.191 0.606,-0.536 0,0 0,-3.061 0,-3.061 0,0 -0.238,0 -0.238,0 0,0 0.983,-0.563 0.983,-0.563 -0.334,-0.262 -0.513,-0.377 -1.186,-0.772 0,0 1.228,0 1.228,0 0,0 0,-0.959 0,-0.959 0,0 -2.746,0 -2.746,0 0,0 0,-0.244 0,-0.244 0,0 -1.394,0 -1.394,0 0,0 0,0.244 0,0.244 0,0 -2.746,0 -2.746,0 0,0 0,0.959 0,0.959 0,0 1.619,0 1.619,0 -0.059,0.083 -0.073,0.101 -0.209,0.287 0,0 -0.891,0 -0.891,0 -0.079,0 -0.15,0 -0.367,-0.006 0,0 0.071,0.977 0.071,0.977 0.463,-0.019 2.689,-0.051 2.884,-0.064 0.57,-0.025 1.488,-0.076 2.066,-0.102 0.167,0.147 0.211,0.192 0.262,0.243 0,0 -4.648,0 -4.648,0 m 3.932,1.61 c 0,0 0,0.179 0,0.179 0,0 -2.558,0 -2.558,0 0,0 0,-0.179 0,-0.179 0,0 2.558,0 2.558,0"
           id="path3309"
           style="fill:#ffffff;fill-opacity:1;fill-rule:nonzero;stroke:none" />
      </g>
      <g
         transform="scale(1,-1)"
         id="g3311">
        <path
           d="m 225.554,-382.118 c 0,-0.613 -0.571,-1.118 -1.264,-1.118 -0.702,0 -1.266,0.505 -1.266,1.118 0,0.62 0.564,1.119 1.266,1.119 0.693,0 1.264,-0.499 1.264,-1.119 z"
           id="path3313"
           style="fill:#ffffff;fill-opacity:1;fill-rule:nonzero;stroke:none" />
      </g>
      <g
         transform="scale(1,-1)"
         id="g3315">
        <path
           d="m 212.303,-377.526 c -0.044,-0.199 -0.233,-0.787 -0.318,-0.958 0,0 0.664,-0.065 0.664,-0.065 0.094,0.18 0.188,0.397 0.326,0.94 0,0 -0.672,0.083 -0.672,0.083 z m 0.303,0.959 c 0,0 0,1.169 0,1.169 0,0 -2.21,0 -2.21,0 0,0 0,0.109 0,0.109 0,0.108 -0.075,0.728 -0.276,1.149 -0.311,0.646 -0.883,1.004 -1.77,1.285 -0.499,0.16 -0.846,0.217 -1.158,0.275 0,0 -0.577,-1.138 -0.577,-1.138 1.352,-0.179 1.922,-0.415 2.125,-0.875 0.093,-0.218 0.172,-0.555 0.181,-0.69 0,0 0.007,-0.115 0.007,-0.115 0,0 -2.516,0 -2.516,0 0,0 0,-1.169 0,-1.169 0,0 6.194,0 6.194,0 m -1.279,-0.953 c -0.052,-0.326 -0.173,-0.69 -0.268,-0.926 0,0 0.636,-0.058 0.636,-0.058 0.146,0.294 0.246,0.595 0.312,0.907 0,0 -0.68,0.077 -0.68,0.077 m -0.398,-0.639 c 0.058,0.16 0.175,0.531 0.203,0.825 0,0 0.65,-0.07 0.65,-0.07 0,0 0,0.382 0,0.382 0,0 -4.863,0 -4.863,0 0,0 0,-1.137 0,-1.137 0,0 4.01,0 4.01,0"
           id="path3317"
           style="fill:#ffffff;fill-opacity:1;fill-rule:nonzero;stroke:none" />
      </g>
      <g
         transform="scale(1,-1)"
         id="g3319">
        <path
           d="m 219.85,-376.14 c 0,0 0,1.291 0,1.291 0,0 -6.354,0 -6.354,0 0,0 0,-1.291 0,-1.291 0,0 6.354,0 6.354,0 z"
           id="path3321"
           style="fill:#ffffff;fill-opacity:1;fill-rule:nonzero;stroke:none" />
      </g>
      <g
         transform="scale(1,-1)"
         id="g3323">
        <path
           d="m 223.342,-376.114 c 0.615,0.211 0.94,0.351 1.36,0.594 0.223,-0.3 0.368,-0.568 0.541,-1.022 0,0 -1.771,0 -1.771,0 -0.924,0.965 -1.568,1.278 -1.972,1.47 0,0 -0.883,-0.888 -0.883,-0.888 1.331,-0.652 1.952,-1.387 2.407,-2.461 0,0 1.583,0.135 1.583,0.135 -0.1,0.281 -0.145,0.37 -0.268,0.606 0,0 2.64,0 2.64,0 -0.087,0.665 -0.276,2.039 -1.518,3.311 -0.905,0.92 -2.212,1.489 -3.673,1.796 0,0 -0.788,-1.138 -0.788,-1.138 0.434,-0.045 1.468,-0.141 2.725,-0.933 -0.31,-0.192 -0.867,-0.434 -1.314,-0.632 0,0 0.931,-0.838 0.931,-0.838 z"
           id="path3325"
           style="fill:#ffffff;fill-opacity:1;fill-rule:nonzero;stroke:none" />
      </g>
      <g
         transform="scale(1,-1)"
         id="g3327">
        <path
           d="m 212.642,-371.325 c -0.174,-0.276 -0.521,-0.64 -0.738,-0.812 0,0 -0.621,0.313 -0.621,0.313 0.282,0.243 0.556,0.607 0.716,0.863 0,0 0.643,-0.364 0.643,-0.364 z m -5.672,3.323 c 0.079,-0.09 0.187,-0.198 0.325,-0.371 0.028,-0.032 0.714,-0.907 0.809,-1.023 0.389,-0.498 0.425,-0.517 0.542,-0.517 0.116,0 0.209,0.096 0.369,0.262 0.021,0.019 2.298,2.504 2.739,2.978 0,0 1.075,-1.215 1.075,-1.215 -0.137,-0.121 -0.266,-0.236 -0.446,-0.415 -0.349,-0.344 -2.038,-2.07 -2.429,-2.454 -0.644,-0.645 -0.846,-0.779 -1.243,-0.779 -0.571,0 -0.816,0.274 -1.792,1.342 -0.485,0.537 -0.818,0.849 -0.998,1.035 0,0 1.049,1.157 1.049,1.157 m 4.725,-2.844 c -0.203,-0.326 -0.499,-0.652 -0.715,-0.856 0,0 -0.593,0.294 -0.593,0.294 0.304,0.364 0.585,0.786 0.679,0.927 0,0 0.629,-0.365 0.629,-0.365"
           id="path3329"
           style="fill:#ffffff;fill-opacity:1;fill-rule:nonzero;stroke:none" />
      </g>
      <g
         transform="scale(1,-1)"
         id="g3331">
        <path
           d="m 219.923,-369.881 c 0,0 0,1.291 0,1.291 0,0 -6.354,0 -6.354,0 0,0 0,-1.291 0,-1.291 0,0 6.354,0 6.354,0 z"
           id="path3333"
           style="fill:#ffffff;fill-opacity:1;fill-rule:nonzero;stroke:none" />
      </g>
      <g
         transform="scale(1,-1)"
         id="g3335">
        <path
           d="m 220.72,-367.37 c 0.353,-0.109 1.234,-0.377 2.363,-1.38 0.925,-0.831 1.221,-1.489 1.388,-1.859 0,0 -3.296,0 -3.296,0 0,0 0,-1.183 0,-1.183 0,0 5.188,0 5.188,0 -0.151,0.837 -0.396,1.662 -1.235,2.786 0.83,0.499 1.597,1.074 2.305,1.713 0,0 -1.207,1.028 -1.207,1.028 -0.738,-0.759 -1.459,-1.38 -1.981,-1.795 -1.3,1.202 -2.283,1.572 -2.745,1.745 0,0 -0.78,-1.055 -0.78,-1.055 z"
           id="path3337"
           style="fill:#ffffff;fill-opacity:1;fill-rule:nonzero;stroke:none" />
      </g>
      <g
         transform="scale(1,-1)"
         id="g3339">
        <path
           d="m 210.691,-392.906 c -0.424,-0.286 -0.925,-0.45 -1.445,-0.45 -1.186,0 -1.524,0.95 -1.524,1.998 0,1.196 0.581,2.165 1.87,2.165 0.675,0 1.29,-0.25 1.87,-0.563 0,0 -0.433,1.264 -0.433,1.264 -0.562,0.156 -1.142,0.209 -1.723,0.209 -0.882,0 -1.627,-0.151 -2.32,-0.744 -0.666,-0.565 -1.022,-1.379 -1.022,-2.261 0,-0.797 0.339,-1.636 0.944,-2.175 0.658,-0.561 1.568,-0.769 2.416,-0.769 0,0 1.309,0.113 1.309,0.113 0,0 0.058,1.213 0.058,1.213 z"
           id="path3341"
           style="fill:#ffffff;fill-opacity:1;fill-rule:nonzero;stroke:none" />
      </g>
      <g
         transform="scale(1,-1)"
         id="g3343">
        <path
           d="m 213.592,-389.359 c 0.287,0.116 0.606,0.13 0.909,0.13 0.485,0 0.937,-0.078 1.265,-0.476 0,0 0.043,0 0.043,0 0,0 -0.347,1.307 -0.347,1.307 0,0 -3.833,0 -3.833,0 0,0 0,-0.026 0,-0.026 0.421,-0.267 0.362,-0.754 0.362,-1.201 0,0 0,-3.24 0,-3.24 0,-0.45 0.059,-0.943 -0.362,-1.201 0,0 0,-0.028 0,-0.028 0,0 3.029,0 3.029,0 0.129,0 0.27,0 0.363,-0.043 0,0 0.025,0 0.025,0 0,0 0,1.255 0,1.255 0,0 -0.025,0 -0.025,0 -0.234,-0.407 -0.726,-0.363 -1.151,-0.363 0,0 -0.278,0 -0.278,0 0,0 0,1.401 0,1.401 0,0 0.804,0 0.804,0 0.124,0 0.245,-0.007 0.322,-0.042 0,0 0.044,0 0.044,0 0,0 0,1.212 0,1.212 0,0 -0.044,0 -0.044,0 -0.122,-0.348 -0.52,-0.312 -0.839,-0.312 0,0 -0.287,0 -0.287,0 0,0 0,1.627 0,1.627 z"
           id="path3345"
           style="fill:#ffffff;fill-opacity:1;fill-rule:nonzero;stroke:none" />
      </g>
      <g
         transform="scale(1,-1)"
         id="g3347">
        <path
           d="m 217.924,-390.837 c 0,0 1.001,1.886 1.001,1.886 0.301,0.535 0.58,0.615 1.162,0.582 0,0 1.193,-0.078 1.193,-0.078 -0.347,-0.286 -0.597,-0.651 -0.831,-1.041 0,0 -1.03,-1.723 -1.03,-1.723 0.572,-0.244 1.03,-0.717 1.03,-1.367 0,-0.582 -0.261,-1.039 -0.77,-1.318 -0.389,-0.208 -0.735,-0.198 -1.159,-0.198 0,0 -2.565,0 -2.565,0 0,0 0,0.028 0,0.028 0.425,0.267 0.365,0.759 0.365,1.209 0,0 0,3.221 0,3.221 0,0.451 0.06,0.945 -0.365,1.212 0,0 0,0.026 0,0.026 0,0 2.329,0 2.329,0 0,0 0,-0.026 0,-0.026 -0.424,-0.267 -0.36,-0.761 -0.36,-1.212 0,0 0,-1.201 0,-1.201 z m 0.084,-2.417 c 0.171,0 0.354,0.018 0.503,0.12 0.232,0.165 0.346,0.458 0.346,0.738 0,0.545 -0.4,1.002 -0.933,1.097 0,0 0,-1.955 0,-1.955 0,0 0.084,0 0.084,0"
           id="path3349"
           style="fill:#ffffff;fill-opacity:1;fill-rule:nonzero;stroke:none" />
      </g>
      <g
         transform="scale(1,-1)"
         id="g3351">
        <path
           d="m 220.816,-391.264 c 0,1.828 1.376,2.981 3.152,2.981 1.758,0 3.256,-1.101 3.256,-2.988 0,-1.904 -1.333,-2.961 -3.153,-2.961 -1.758,0 -3.255,1.127 -3.255,2.968 z m 1.681,-0.232 c 0,-0.893 0.449,-1.871 1.471,-1.871 1.186,0 1.577,1.411 1.577,2.4 0,0.423 -0.062,0.863 -0.323,1.211 -0.276,0.372 -0.692,0.607 -1.151,0.607 -0.492,0 -0.925,-0.33 -1.167,-0.748 -0.245,-0.431 -0.407,-1.098 -0.407,-1.599"
           id="path3353"
           style="fill:#ffffff;fill-opacity:1;fill-rule:nonzero;stroke:none" />
      </g>
    </g>
  </g>
</svg>
