<?xml version="1.0" encoding="UTF-8"?>
<svg width="101px" height="101px" viewBox="0 0 101 101" version="1.1" xmlns="http://www.w3.org/2000/svg" xmlns:xlink="http://www.w3.org/1999/xlink">
    <!-- Generator: Sketch Beta 50.1 (55040) - http://www.bohemiancoding.com/sketch -->
    <title>rpegi0</title>
    <desc>Created with Sketch Beta.</desc>
    <defs></defs>
    <g id="Page-1" stroke="none" stroke-width="1" fill="none" fill-rule="evenodd">
        <g id="rpegi0">
            <path d="M74.051376,9.28 C72.303376,7.532 70.098376,7 67.590376,7 L33.686376,7 C31.177376,7 28.973376,7.532 27.225376,9.28 L9.96837605,26.765 C7.91637605,28.817 7.00437605,31.249 7.00437605,34.063 L7.00437605,67.585 C6.92837605,70.399 7.84137605,72.45 9.81637605,74.427 L26.768376,91.379 C28.745376,93.356 30.949376,94.269 33.686376,94.269 L67.590376,94.269 C70.326376,94.269 72.531376,93.356 74.507376,91.379 L91.459376,74.427 C93.435376,72.527 94.272376,70.399 94.272376,67.585 L94.272376,56.031 C94.196376,55.044 93.664376,54.512 92.675376,54.512 L87.582376,54.512 L87.582376,58.084 C87.582376,60.744 87.202376,62.113 84.922376,62.113 L82.642376,62.113 C80.361376,62.113 79.981376,60.744 79.981376,58.084 L79.981376,54.512 L76.408376,54.512 C73.747376,54.512 72.379376,54.131 72.379376,51.851 L72.379376,49.418 C72.379376,47.138 73.747376,46.757 76.408376,46.757 L79.981376,46.757 L79.981376,43.185 C79.981376,40.525 80.361376,39.155 82.642376,39.155 L84.922376,39.155 C87.202376,39.155 87.582376,40.525 87.582376,43.185 L87.582376,46.757 L92.675376,46.757 C93.739376,46.757 94.272376,46.15 94.272376,45.009 L94.272376,34.063 C94.272376,31.249 93.284376,28.817 91.306376,26.765 L74.051376,9.28" id="Fill-56-Copy" fill="#FFFFFE"></path>
            <path d="M57.578,55.419 C57.578,63.249 57.274,66.517 50.28,66.517 C43.286,66.517 42.982,63.324 42.982,55.571 L42.982,45.08 C42.982,37.25 43.286,33.983 50.28,33.983 C57.274,33.983 57.578,37.174 57.578,44.927 L57.578,55.419 Z M50.28,26 C35.457,26 35,33.145 35,52.53 C35,67.658 36.673,74.499 50.28,74.499 C64.571,74.499 65.56,66.896 65.56,50.021 C65.56,33.221 64.571,26 50.28,26 Z" id="Fill-57-Copy" fill="#1A1919"></path>
            <path d="M93.882,44.546 C93.882,45.687 93.349,46.294 92.285,46.294 L87.192,46.294 L87.192,42.722 C87.192,40.062 86.812,38.692 84.532,38.692 L82.252,38.692 C79.971,38.692 79.591,40.062 79.591,42.722 L79.591,46.294 L76.018,46.294 C73.357,46.294 71.989,46.675 71.989,48.955 L71.989,51.388 C71.989,53.668 73.357,54.049 76.018,54.049 L79.591,54.049 L79.591,57.621 C79.591,60.281 79.971,61.65 82.252,61.65 L84.532,61.65 C86.812,61.65 87.192,60.281 87.192,57.621 L87.192,54.049 L92.285,54.049 C93.274,54.049 93.806,54.581 93.882,55.568 L93.882,67.122 C93.882,69.936 93.045,72.064 91.069,73.964 L74.117,90.916 C72.141,92.893 69.936,93.806 67.2,93.806 L33.296,93.806 C30.559,93.806 28.355,92.893 26.378,90.916 L9.426,73.964 C7.451,71.987 6.538,69.936 6.614,67.122 L6.614,33.6 C6.614,30.786 7.526,28.354 9.578,26.302 L26.835,8.817 C28.583,7.069 30.787,6.537 33.296,6.537 L67.2,6.537 C69.708,6.537 71.913,7.069 73.661,8.817 L90.916,26.302 C92.894,28.354 93.882,30.786 93.882,33.6 L93.882,44.546 Z M78.298,4.408 C75.333,1.521 71.609,0 67.124,0 L33.372,0 C28.887,0 25.086,1.521 22.198,4.408 L4.333,22.197 C1.521,25.01 0,28.734 0,32.84 L0,67.122 C0,71.835 1.597,75.484 4.789,78.602 L21.742,95.553 C25.086,98.898 28.811,100.418 33.6,100.343 L66.896,100.343 C71.532,100.343 75.333,98.974 78.754,95.553 L95.706,78.602 C98.823,75.484 100.495,71.76 100.495,67.122 L100.495,32.84 C100.495,28.734 98.975,25.01 96.162,22.197 L78.298,4.408 Z" id="Fill-58-Copy" fill="#1A1919"></path>
        </g>
    </g>
</svg>