<?xml version="1.0" encoding="UTF-8"?>
<svg width="101px" height="101px" viewBox="0 0 101 101" version="1.1" xmlns="http://www.w3.org/2000/svg" xmlns:xlink="http://www.w3.org/1999/xlink">
    <!-- Generator: Sketch Beta 50.1 (55040) - http://www.bohemiancoding.com/sketch -->
    <title>rpegi12</title>
    <desc>Created with Sketch Beta.</desc>
    <defs></defs>
    <g id="Page-1" stroke="none" stroke-width="1" fill="none" fill-rule="evenodd">
        <g id="rpegi12">
            <path d="M74.052376,9.28 C72.303376,7.531 70.099376,7 67.591376,7 L33.686376,7 C31.178376,7 28.973376,7.531 27.225376,9.28 L9.96937599,26.765 C7.91737599,28.817 7.00437599,31.249 7.00437599,34.063 L7.00437599,67.585 C6.92837599,70.399 7.84137599,72.45 9.81737599,74.427 L26.769376,91.378 C28.745376,93.355 30.950376,94.268 33.686376,94.268 L67.591376,94.268 C70.326376,94.268 72.531376,93.355 74.508376,91.378 L91.459376,74.427 C93.435376,72.527 94.272376,70.399 94.272376,67.585 L94.272376,56.03 C94.196376,55.043 93.664376,54.511 92.676376,54.511 L87.583376,54.511 L87.583376,58.084 C87.583376,60.743 87.202376,62.112 84.922376,62.112 L82.641376,62.112 C80.361376,62.112 79.980376,60.743 79.980376,58.084 L79.980376,54.511 L76.408376,54.511 C73.748376,54.511 72.379376,54.131 72.379376,51.851 L72.379376,49.418 C72.379376,47.138 73.748376,46.757 76.408376,46.757 L79.980376,46.757 L79.980376,43.184 C79.980376,40.524 80.361376,39.155 82.641376,39.155 L84.922376,39.155 C87.202376,39.155 87.583376,40.524 87.583376,43.184 L87.583376,46.757 L92.676376,46.757 C93.740376,46.757 94.272376,46.149 94.272376,45.009 L94.272376,34.063 C94.272376,31.249 93.283376,28.817 91.307376,26.765 L74.052376,9.28" id="Fill-26-Copy" fill="#FFFFFE"></path>
            <path d="M31.947,27 L25.029,27 C22.369,27 21,27.456 21,29.661 L21,32.168 C21,34.374 22.369,34.829 25.029,34.829 L26.626,34.829 C27.614,34.829 28.07,35.361 28.07,36.881 L28.07,69.722 C28.07,72.382 28.526,73.75 30.731,73.75 L33.315,73.75 C35.52,73.75 35.976,72.382 35.976,69.722 L35.976,29.661 C35.976,27.456 34.607,27 31.947,27" id="Fill-27-Copy" fill="#1A1919"></path>
            <path d="M93.881,44.547 C93.881,45.687 93.349,46.295 92.285,46.295 L87.192,46.295 L87.192,42.722 C87.192,40.062 86.811,38.693 84.531,38.693 L82.25,38.693 C79.97,38.693 79.589,40.062 79.589,42.722 L79.589,46.295 L76.017,46.295 C73.357,46.295 71.988,46.676 71.988,48.956 L71.988,51.389 C71.988,53.669 73.357,54.049 76.017,54.049 L79.589,54.049 L79.589,57.622 C79.589,60.281 79.97,61.65 82.25,61.65 L84.531,61.65 C86.811,61.65 87.192,60.281 87.192,57.622 L87.192,54.049 L92.285,54.049 C93.273,54.049 93.805,54.581 93.881,55.568 L93.881,67.123 C93.881,69.937 93.044,72.065 91.068,73.965 L74.117,90.916 C72.14,92.893 69.935,93.806 67.2,93.806 L33.295,93.806 C30.559,93.806 28.354,92.893 26.378,90.916 L9.426,73.965 C7.45,71.988 6.537,69.937 6.613,67.123 L6.613,33.601 C6.613,30.787 7.526,28.355 9.578,26.303 L26.834,8.818 C28.582,7.069 30.787,6.538 33.295,6.538 L67.2,6.538 C69.708,6.538 71.912,7.069 73.661,8.818 L90.916,26.303 C92.892,28.355 93.881,30.787 93.881,33.601 L93.881,44.547 Z M78.296,4.409 C75.333,1.522 71.609,0 67.122,0 L33.371,0 C28.886,0 25.085,1.522 22.197,4.409 L4.332,22.197 C1.52,25.011 0,28.735 0,32.841 L0,67.123 C0,71.836 1.597,75.485 4.788,78.603 L21.741,95.554 C25.085,98.899 28.81,100.419 33.6,100.344 L66.896,100.344 C71.533,100.344 75.333,98.975 78.753,95.554 L95.706,78.603 C98.822,75.485 100.496,71.761 100.496,67.123 L100.496,32.841 C100.496,28.735 98.974,25.011 96.162,22.197 L78.296,4.409 Z" id="Fill-28-Copy" fill="#1A1919"></path>
            <path d="M69.138,41.355 C69.138,30.941 68.15,26 55.379,26 C46.485,26 42.609,28.053 42.609,37.251 C42.609,39.303 43.445,39.836 45.573,39.836 L47.398,39.836 C49.146,39.836 50.21,39.532 50.21,38.009 C50.21,34.21 51.654,33.83 55.379,33.83 C59.257,33.83 61.156,34.21 61.156,39.607 C61.156,47.893 55.075,48.122 49.45,50.477 C42.989,53.213 42,58.155 42,65.3 L42,69.862 C42,73.207 43.445,73.738 46.257,73.738 L64.73,73.738 C67.542,73.738 68.987,73.282 68.987,70.775 L68.987,68.494 C68.987,66.137 67.542,65.681 64.73,65.681 L51.275,65.681 C50.21,65.681 49.905,65.149 49.905,63.933 L49.905,61.424 C49.905,53.291 69.138,58.383 69.138,41.355" id="Fill-29-Copy" fill="#1A1919"></path>
        </g>
    </g>
</svg>