<?xml version="1.0" encoding="UTF-8"?>
<svg width="101px" height="101px" viewBox="0 0 101 101" version="1.1" xmlns="http://www.w3.org/2000/svg" xmlns:xlink="http://www.w3.org/1999/xlink">
    <!-- Generator: Sketch Beta 50.1 (55040) - http://www.bohemiancoding.com/sketch -->
    <title>rpegi21</title>
    <desc>Created with Sketch Beta.</desc>
    <defs></defs>
    <g id="Page-1" stroke="none" stroke-width="1" fill="none" fill-rule="evenodd">
        <g id="rpegi21">
            <path d="M67.894376,70.399 C67.894376,73.059 67.439376,74.427 65.234376,74.427 L62.649376,74.427 C60.445376,74.427 59.988376,73.059 59.988376,70.399 L59.988376,37.558 C59.988376,36.038 59.532376,35.506 58.544376,35.506 L56.948376,35.506 C54.287376,35.506 52.920376,35.051 52.920376,32.845 L52.920376,30.338 C52.920376,28.133 54.287376,27.677 56.948376,27.677 L63.865376,27.677 C66.525376,27.677 67.894376,28.133 67.894376,30.338 L67.894376,70.399 Z M74.051376,9.28 C72.302376,7.531 70.098376,7 67.591376,7 L33.686376,7 C31.177376,7 28.973376,7.531 27.224376,9.28 L9.96937599,26.765 C7.91737599,28.817 7.00437599,31.249 7.00437599,34.063 L7.00437599,67.585 C6.92837599,70.399 7.84137599,72.45 9.81737599,74.427 L26.769376,91.378 C28.746376,93.355 30.949376,94.268 33.686376,94.268 L67.591376,94.268 C70.326376,94.268 72.531376,93.355 74.508376,91.378 L91.459376,74.427 C93.435376,72.527 94.272376,70.399 94.272376,67.585 L94.272376,56.03 C94.197376,55.043 93.665376,54.511 92.675376,54.511 L87.583376,54.511 L87.583376,58.084 C87.583376,60.743 87.203376,62.112 84.922376,62.112 L82.641376,62.112 C80.360376,62.112 79.981376,60.743 79.981376,58.084 L79.981376,54.511 L76.408376,54.511 C73.748376,54.511 72.379376,54.131 72.379376,51.851 L72.379376,49.418 C72.379376,47.138 73.748376,46.757 76.408376,46.757 L79.981376,46.757 L79.981376,43.184 C79.981376,40.524 80.360376,39.155 82.641376,39.155 L84.922376,39.155 C87.203376,39.155 87.583376,40.524 87.583376,43.184 L87.583376,46.757 L92.675376,46.757 C93.740376,46.757 94.272376,46.149 94.272376,45.009 L94.272376,34.063 C94.272376,31.249 93.284376,28.817 91.307376,26.765 L74.051376,9.28 Z" id="Fill-22-Copy" fill="#FFFFFE"></path>
            <path d="M50.139,41.356 C50.139,30.941 49.151,26 36.379,26 C27.486,26 23.609,28.054 23.609,37.251 C23.609,39.304 24.445,39.836 26.574,39.836 L28.398,39.836 C30.146,39.836 31.21,39.532 31.21,38.011 C31.21,34.211 32.655,33.831 36.379,33.831 C40.257,33.831 42.158,34.211 42.158,39.607 C42.158,47.894 36.076,48.121 30.45,50.478 C23.989,53.214 23,58.155 23,65.301 L23,69.862 C23,73.207 24.445,73.738 27.258,73.738 L45.731,73.738 C48.542,73.738 49.988,73.283 49.988,70.775 L49.988,68.494 C49.988,66.138 48.542,65.682 45.731,65.682 L32.275,65.682 C31.21,65.682 30.907,65.149 30.907,63.934 L30.907,61.425 C30.907,53.291 50.139,58.385 50.139,41.356" id="Fill-23-Copy" fill="#1A1919"></path>
            <path d="M62.945,27 L56.028,27 C53.367,27 52,27.456 52,29.661 L52,32.168 C52,34.374 53.367,34.829 56.028,34.829 L57.624,34.829 C58.612,34.829 59.068,35.361 59.068,36.881 L59.068,69.722 C59.068,72.382 59.525,73.75 61.729,73.75 L64.314,73.75 C66.519,73.75 66.974,72.382 66.974,69.722 L66.974,29.661 C66.974,27.456 65.605,27 62.945,27" id="Fill-24-Copy" fill="#1A1919"></path>
            <path d="M93.882,44.547 C93.882,45.687 93.35,46.295 92.285,46.295 L87.193,46.295 L87.193,42.722 C87.193,40.062 86.813,38.693 84.532,38.693 L82.251,38.693 C79.97,38.693 79.591,40.062 79.591,42.722 L79.591,46.295 L76.018,46.295 C73.358,46.295 71.989,46.676 71.989,48.956 L71.989,51.389 C71.989,53.669 73.358,54.049 76.018,54.049 L79.591,54.049 L79.591,57.622 C79.591,60.281 79.97,61.65 82.251,61.65 L84.532,61.65 C86.813,61.65 87.193,60.281 87.193,57.622 L87.193,54.049 L92.285,54.049 C93.275,54.049 93.807,54.581 93.882,55.568 L93.882,67.123 C93.882,69.937 93.045,72.065 91.069,73.965 L74.118,90.916 C72.141,92.893 69.936,93.806 67.201,93.806 L33.296,93.806 C30.559,93.806 28.356,92.893 26.379,90.916 L9.427,73.965 C7.451,71.988 6.538,69.937 6.614,67.123 L6.614,33.601 C6.614,30.787 7.527,28.355 9.579,26.303 L26.834,8.818 C28.583,7.069 30.787,6.538 33.296,6.538 L67.201,6.538 C69.708,6.538 71.912,7.069 73.661,8.818 L90.917,26.303 C92.894,28.355 93.882,30.787 93.882,33.601 L93.882,44.547 Z M96.162,22.197 L78.298,4.409 C75.334,1.522 71.609,0 67.124,0 L33.372,0 C28.887,0 25.086,1.522 22.198,4.409 L4.333,22.197 C1.522,25.011 0,28.735 0,32.841 L0,67.123 C0,71.836 1.597,75.485 4.79,78.603 L21.742,95.554 C25.086,98.899 28.811,100.419 33.6,100.344 L66.896,100.344 C71.533,100.344 75.334,98.975 78.754,95.554 L95.706,78.603 C98.823,75.485 100.495,71.761 100.495,67.123 L100.495,32.841 C100.495,28.735 98.975,25.011 96.162,22.197 Z" id="Fill-25-Copy" fill="#1A1919"></path>
        </g>
    </g>
</svg>