<?xml version="1.0" encoding="UTF-8"?>
<svg width="101px" height="101px" viewBox="0 0 101 101" version="1.1" xmlns="http://www.w3.org/2000/svg" xmlns:xlink="http://www.w3.org/1999/xlink">
    <!-- Generator: Sketch Beta 50.1 (55040) - http://www.bohemiancoding.com/sketch -->
    <title>rpegi6</title>
    <desc>Created with Sketch Beta.</desc>
    <defs></defs>
    <g id="Page-1" stroke="none" stroke-width="1" fill="none" fill-rule="evenodd">
        <g id="rpegi6">
            <path d="M73.0513846,9.28 C71.3023846,7.532 69.0983846,7 66.5893846,7 L32.6853846,7 C30.1783846,7 27.9723846,7.532 26.2233846,9.28 L8.96838462,26.765 C6.91638462,28.817 6.00438462,31.249 6.00438462,34.063 L6.00438462,67.585 C5.92838462,70.399 6.83938462,72.45 8.81538462,74.427 L25.7683846,91.379 C27.7453846,93.356 29.9493846,94.269 32.6853846,94.269 L66.5893846,94.269 C69.3253846,94.269 71.5313846,93.356 73.5083846,91.379 L90.4593846,74.427 C92.4353846,72.527 93.2713846,70.399 93.2713846,67.585 L93.2713846,56.031 C93.1953846,55.044 92.6633846,54.512 91.6763846,54.512 L86.5823846,54.512 L86.5823846,58.084 C86.5823846,60.744 86.2023846,62.113 83.9223846,62.113 L81.6403846,62.113 C79.3603846,62.113 78.9803846,60.744 78.9803846,58.084 L78.9803846,54.512 L75.4073846,54.512 C72.7463846,54.512 71.3793846,54.131 71.3793846,51.851 L71.3793846,49.418 C71.3793846,47.138 72.7463846,46.757 75.4073846,46.757 L78.9803846,46.757 L78.9803846,43.185 C78.9803846,40.525 79.3603846,39.155 81.6403846,39.155 L83.9223846,39.155 C86.2023846,39.155 86.5823846,40.525 86.5823846,43.185 L86.5823846,46.757 L91.6763846,46.757 C92.7393846,46.757 93.2713846,46.15 93.2713846,45.009 L93.2713846,34.063 C93.2713846,31.249 92.2843846,28.817 90.3073846,26.765 L73.0513846,9.28" id="Fill-53-Copy" fill="#FFFFFE"></path>
            <path d="M93.882,44.546 C93.882,45.687 93.35,46.294 92.287,46.294 L87.193,46.294 L87.193,42.722 C87.193,40.062 86.813,38.692 84.533,38.692 L82.251,38.692 C79.971,38.692 79.591,40.062 79.591,42.722 L79.591,46.294 L76.018,46.294 C73.357,46.294 71.99,46.675 71.99,48.955 L71.99,51.388 C71.99,53.668 73.357,54.049 76.018,54.049 L79.591,54.049 L79.591,57.621 C79.591,60.281 79.971,61.65 82.251,61.65 L84.533,61.65 C86.813,61.65 87.193,60.281 87.193,57.621 L87.193,54.049 L92.287,54.049 C93.274,54.049 93.806,54.581 93.882,55.568 L93.882,67.122 C93.882,69.936 93.046,72.064 91.07,73.964 L74.119,90.916 C72.142,92.893 69.936,93.806 67.2,93.806 L33.296,93.806 C30.56,93.806 28.356,92.893 26.379,90.916 L9.426,73.964 C7.45,71.987 6.539,69.936 6.615,67.122 L6.615,33.6 C6.615,30.786 7.527,28.354 9.579,26.302 L26.834,8.817 C28.583,7.069 30.789,6.537 33.296,6.537 L67.2,6.537 C69.709,6.537 71.913,7.069 73.662,8.817 L90.918,26.302 C92.895,28.354 93.882,30.786 93.882,33.6 L93.882,44.546 Z M78.298,4.408 C75.333,1.521 71.609,0 67.125,0 L33.373,0 C28.887,0 25.086,1.521 22.198,4.408 L4.333,22.197 C1.522,25.01 0,28.734 0,32.84 L0,67.122 C0,71.835 1.597,75.484 4.791,78.602 L21.742,95.553 C25.086,98.898 28.811,100.418 33.6,100.343 L66.896,100.343 C71.533,100.343 75.333,98.974 78.754,95.553 L95.707,78.602 C98.823,75.484 100.496,71.76 100.496,67.122 L100.496,32.84 C100.496,28.734 98.975,25.01 96.163,22.197 L78.298,4.408 Z" id="Fill-54-Copy" fill="#1A1919"></path>
            <path d="M49.823,66.594 C44.426,66.594 42.829,65.074 42.829,60.588 L42.829,53.366 C44.73,52.91 46.782,52.455 48.986,52.455 C54.84,52.455 56.132,53.976 56.132,59.296 C56.132,64.161 55.448,66.594 49.823,66.594 Z M49.975,45.613 C48.075,45.613 46.174,45.765 44.197,46.146 C43.438,46.298 42.829,45.994 42.829,45.081 L42.829,43.562 C42.829,36.414 43.361,33.832 49.367,33.832 C54.536,33.832 55.676,34.134 55.676,37.86 C55.676,39.379 56.739,39.837 58.489,39.837 L60.314,39.837 C62.442,39.837 63.278,39.304 63.278,37.251 C63.278,28.281 59.401,26 50.508,26 C36.596,26 35,31.626 35,49.414 C35.075,66.594 34.087,74.196 49.671,74.196 C59.554,74.196 63.962,70.927 63.962,58.385 C63.962,48.046 59.174,45.613 49.975,45.613 Z" id="Fill-55-Copy" fill="#1A1919"></path>
        </g>
    </g>
</svg>