<?xml version="1.0" encoding="UTF-8"?>
<svg width="101px" height="101px" viewBox="0 0 101 101" version="1.1" xmlns="http://www.w3.org/2000/svg" xmlns:xlink="http://www.w3.org/1999/xlink">
    <!-- Generator: Sketch Beta 50.1 (55040) - http://www.bohemiancoding.com/sketch -->
    <title>rpegi18</title>
    <desc>Created with Sketch Beta.</desc>
    <defs></defs>
    <g id="Page-1" stroke="none" stroke-width="1" fill="none" fill-rule="evenodd">
        <g id="rpegi18">
            <path d="M54.852,46.229 C59.034,46.229 60.707,44.555 60.707,39.614 C60.707,34.522 59.034,33 54.852,33 C50.673,33 49,34.522 49,39.614 C49,44.555 50.673,46.229 54.852,46.229" id="Fill-16-Copy" fill="#FFFFFE"></path>
            <path d="M54.613,54 C49.749,54 48,56.203 48,60.993 C48,65.783 49.749,67.683 54.613,67.683 C59.478,67.683 61.227,65.783 61.227,60.993 C61.227,56.203 59.478,54 54.613,54" id="Fill-17-Copy" fill="#FFFFFE"></path>
            <path d="M55.3505955,75.036 C43.8725955,74.807 40.9085955,70.627 40.9085955,62.188 C40.9085955,56.488 41.2885955,52.154 46.3805955,50.178 C42.1245955,47.062 42.0475955,43.868 42.0475955,41.284 L42.0475955,38.699 C42.5045955,30.109 45.3935955,26.84 55.3505955,26.84 C65.3095955,26.84 68.1975955,30.109 68.6535955,38.699 L68.6535955,41.284 C68.6535955,43.868 68.5775955,47.062 64.3205955,50.178 C69.4155955,52.154 69.7955955,56.488 69.7955955,62.188 C69.7955955,70.627 66.8295955,74.807 55.3505955,75.036 Z M74.0515955,9.28 C72.3025955,7.531 70.0985955,7 67.5905955,7 L33.6855955,7 C31.1775955,7 28.9735955,7.531 27.2245955,9.28 L9.96959549,26.765 C7.91759549,28.817 7.00459549,31.249 7.00459549,34.063 L7.00459549,67.585 C6.92659549,70.399 7.84059549,72.45 9.81759549,74.427 L26.7685955,91.378 C28.7455955,93.355 30.9495955,94.268 33.6855955,94.268 L67.5905955,94.268 C70.3265955,94.268 72.5305955,93.355 74.5075955,91.378 L91.4595955,74.427 C93.4355955,72.527 94.2725955,70.399 94.2725955,67.585 L94.2725955,56.03 C94.1965955,55.043 93.6645955,54.511 92.6755955,54.511 L87.5835955,54.511 L87.5835955,58.084 C87.5835955,60.743 87.2025955,62.112 84.9215955,62.112 L82.6405955,62.112 C80.3615955,62.112 79.9805955,60.743 79.9805955,58.084 L79.9805955,54.511 L76.4085955,54.511 C73.7485955,54.511 72.3795955,54.131 72.3795955,51.851 L72.3795955,49.418 C72.3795955,47.138 73.7485955,46.757 76.4085955,46.757 L79.9805955,46.757 L79.9805955,43.184 C79.9805955,40.524 80.3615955,39.155 82.6405955,39.155 L84.9215955,39.155 C87.2025955,39.155 87.5835955,40.524 87.5835955,43.184 L87.5835955,46.757 L92.6755955,46.757 C93.7395955,46.757 94.2725955,46.149 94.2725955,45.009 L94.2725955,34.063 C94.2725955,31.249 93.2835955,28.817 91.3075955,26.765 L74.0515955,9.28 Z" id="Fill-18-Copy" fill="#FFFFFE"></path>
            <path d="M30.946,27 L24.028,27 C21.369,27 20,27.456 20,29.661 L20,32.168 C20,34.374 21.369,34.829 24.028,34.829 L25.625,34.829 C26.613,34.829 27.068,35.361 27.068,36.881 L27.068,69.722 C27.068,72.382 27.525,73.75 29.73,73.75 L32.313,73.75 C34.518,73.75 34.976,72.382 34.976,69.722 L34.976,29.661 C34.976,27.456 33.606,27 30.946,27" id="Fill-19-Copy" fill="#1A1919"></path>
            <path d="M93.882,44.547 C93.882,45.687 93.349,46.295 92.285,46.295 L87.193,46.295 L87.193,42.722 C87.193,40.062 86.812,38.693 84.531,38.693 L82.25,38.693 C79.971,38.693 79.59,40.062 79.59,42.722 L79.59,46.295 L76.018,46.295 C73.358,46.295 71.989,46.676 71.989,48.956 L71.989,51.389 C71.989,53.669 73.358,54.049 76.018,54.049 L79.59,54.049 L79.59,57.622 C79.59,60.281 79.971,61.65 82.25,61.65 L84.531,61.65 C86.812,61.65 87.193,60.281 87.193,57.622 L87.193,54.049 L92.285,54.049 C93.274,54.049 93.806,54.581 93.882,55.568 L93.882,67.123 C93.882,69.937 93.045,72.065 91.069,73.965 L74.117,90.916 C72.14,92.893 69.936,93.806 67.2,93.806 L33.295,93.806 C30.559,93.806 28.355,92.893 26.378,90.916 L9.427,73.965 C7.45,71.988 6.536,69.937 6.614,67.123 L6.614,33.601 C6.614,30.787 7.527,28.355 9.579,26.303 L26.834,8.818 C28.583,7.069 30.787,6.538 33.295,6.538 L67.2,6.538 C69.708,6.538 71.912,7.069 73.661,8.818 L90.917,26.303 C92.893,28.355 93.882,30.787 93.882,33.601 L93.882,44.547 Z M78.297,4.409 C75.333,1.522 71.609,0 67.123,0 L33.371,0 C28.886,0 25.085,1.522 22.197,4.409 L4.332,22.197 C1.521,25.011 0,28.735 0,32.841 L0,67.123 C0,71.836 1.597,75.485 4.789,78.603 L21.741,95.554 C25.085,98.899 28.81,100.419 33.6,100.344 L66.896,100.344 C71.532,100.344 75.333,98.975 78.754,95.554 L95.706,78.603 C98.822,75.485 100.495,71.761 100.495,67.123 L100.495,32.841 C100.495,28.735 98.975,25.011 96.162,22.197 L78.297,4.409 Z" id="Fill-20-Copy" fill="#1A1919"></path>
            <path d="M55.442,66.974 C50.578,66.974 48.829,65.074 48.829,60.284 C48.829,55.494 50.578,53.291 55.442,53.291 C60.307,53.291 62.056,55.494 62.056,60.284 C62.056,65.074 60.307,66.974 55.442,66.974 Z M55.442,32.993 C59.624,32.993 61.297,34.515 61.297,39.607 C61.297,44.548 59.624,46.222 55.442,46.222 C51.263,46.222 49.59,44.548 49.59,39.607 C49.59,34.515 51.263,32.993 55.442,32.993 Z M64.412,49.338 C68.669,46.222 68.745,43.028 68.745,40.444 L68.745,37.859 C68.289,29.269 65.401,26 55.442,26 C45.485,26 42.596,29.269 42.139,37.859 L42.139,40.444 C42.139,43.028 42.216,46.222 46.472,49.338 C41.38,51.314 41,55.648 41,61.348 C41,69.787 43.964,73.967 55.442,74.196 C66.921,73.967 69.887,69.787 69.887,61.348 C69.887,55.648 69.507,51.314 64.412,49.338 Z" id="Fill-21-Copy" fill="#1A1919"></path>
        </g>
    </g>
</svg>