<?xml version="1.0" encoding="UTF-8" standalone="no"?>
<!-- Created with Inkscape (http://www.inkscape.org/) -->

<svg
   xmlns:svg="http://www.w3.org/2000/svg"
   xmlns="http://www.w3.org/2000/svg"
   version="1.1"
   width="200"
   height="246"
   id="svg11087">
  <defs
     id="defs11089" />
  <g
     transform="translate(0,-806.36218)"
     id="layer1">
    <g
       transform="matrix(7.1867476,0,0,-7.1870983,-2135.657,3663.0469)"
       id="g6869">
      <g
         transform="scale(1,-1)"
         id="g3403">
        <path
           d="m 324.995,-365.691 c 0,1.351 -1.132,2.445 -2.529,2.445 0,0 -22.771,0 -22.771,0 -1.397,0 -2.529,-1.094 -2.529,-2.445 0,0 0,-29.338 0,-29.338 0,-1.35 1.132,-2.445 2.529,-2.445 0,0 22.771,0 22.771,0 1.397,0 2.529,1.095 2.529,2.445 0,0 0,29.338 0,29.338 z"
           id="path3405"
           style="fill:#ffffff;fill-opacity:1;fill-rule:nonzero;stroke:none" />
      </g>
      <g
         transform="scale(1,-1)"
         id="g3407">
        <path
           d="m 323.041,-393.138 c 0,-1.175 -0.952,-2.127 -2.126,-2.127 0,0 -19.134,0 -19.134,0 -1.175,0 -2.125,0.952 -2.125,2.127 0,0 0,5.561 0,5.561 0,0 23.385,0 23.385,0 0,0 0,-5.561 0,-5.561 z"
           id="path3409"
           style="fill:#ffffff;fill-opacity:1;fill-rule:nonzero;stroke:none" />
      </g>
      <g
         transform="scale(1,-1)"
         id="g3411">
        <path
           d="m 323.041,-393.138 c 0,-1.175 -0.952,-2.127 -2.126,-2.127 0,0 -19.134,0 -19.134,0 -1.175,0 -2.125,0.952 -2.125,2.127 0,0 0,5.561 0,5.561 0,0 23.385,0 23.385,0 0,0 0,-5.561 0,-5.561 z"
           id="path3413"
           style="fill:none;stroke:#000000;stroke-width:0.75010997;stroke-linecap:butt;stroke-linejoin:miter;stroke-miterlimit:4;stroke-opacity:1;stroke-dasharray:none" />
      </g>
      <g
         transform="scale(1,-1)"
         id="g3415">
        <path
           d="m 305.487,-393.168 c -0.424,-0.286 -0.926,-0.45 -1.446,-0.45 -1.186,0 -1.524,0.951 -1.524,1.998 0,1.197 0.58,2.165 1.87,2.165 0.676,0 1.289,-0.251 1.869,-0.563 0,0 -0.432,1.265 -0.432,1.265 -0.562,0.155 -1.142,0.208 -1.722,0.208 -0.882,0 -1.627,-0.15 -2.321,-0.745 -0.666,-0.564 -1.022,-1.378 -1.022,-2.26 0,-0.797 0.339,-1.636 0.944,-2.175 0.658,-0.561 1.569,-0.769 2.416,-0.769 0,0 1.309,0.113 1.309,0.113 0,0 0.059,1.213 0.059,1.213 z"
           id="path3417"
           style="fill:#000000;fill-opacity:1;fill-rule:nonzero;stroke:none" />
      </g>
      <g
         transform="scale(1,-1)"
         id="g3419">
        <path
           d="m 308.388,-389.621 c 0.286,0.116 0.604,0.131 0.909,0.131 0.484,0 0.935,-0.078 1.264,-0.476 0,0 0.043,0 0.043,0 0,0 -0.347,1.306 -0.347,1.306 0,0 -3.833,0 -3.833,0 0,0 0,-0.026 0,-0.026 0.422,-0.267 0.363,-0.753 0.363,-1.201 0,0 0,-3.24 0,-3.24 0,-0.45 0.059,-0.942 -0.363,-1.202 0,0 0,-0.026 0,-0.026 0,0 3.029,0 3.029,0 0.129,0 0.27,0 0.363,-0.044 0,0 0.026,0 0.026,0 0,0 0,1.255 0,1.255 0,0 -0.026,0 -0.026,0 -0.234,-0.407 -0.726,-0.363 -1.152,-0.363 0,0 -0.276,0 -0.276,0 0,0 0,1.402 0,1.402 0,0 0.803,0 0.803,0 0.123,0 0.245,-0.007 0.322,-0.042 0,0 0.044,0 0.044,0 0,0 0,1.211 0,1.211 0,0 -0.044,0 -0.044,0 -0.122,-0.347 -0.521,-0.312 -0.839,-0.312 0,0 -0.286,0 -0.286,0 0,0 0,1.627 0,1.627 z"
           id="path3421"
           style="fill:#000000;fill-opacity:1;fill-rule:nonzero;stroke:none" />
      </g>
      <g
         transform="scale(1,-1)"
         id="g3423">
        <path
           d="m 312.718,-391.099 c 0,0 1.003,1.886 1.003,1.886 0.301,0.536 0.58,0.615 1.16,0.583 0,0 1.195,-0.079 1.195,-0.079 -0.346,-0.286 -0.598,-0.651 -0.832,-1.041 0,0 -1.031,-1.722 -1.031,-1.722 0.573,-0.245 1.031,-0.718 1.031,-1.368 0,-0.582 -0.26,-1.039 -0.769,-1.317 -0.391,-0.208 -0.737,-0.198 -1.161,-0.198 0,0 -2.564,0 -2.564,0 0,0 0,0.026 0,0.026 0.426,0.268 0.365,0.761 0.365,1.21 0,0 0,3.222 0,3.222 0,0.451 0.061,0.944 -0.365,1.211 0,0 0,0.026 0,0.026 0,0 2.331,0 2.331,0 0,0 0,-0.026 0,-0.026 -0.427,-0.267 -0.363,-0.76 -0.363,-1.211 0,0 0,-1.202 0,-1.202 z m 0.085,-2.417 c 0.172,0 0.355,0.018 0.502,0.12 0.233,0.166 0.347,0.459 0.347,0.739 0,0.545 -0.401,1.002 -0.934,1.097 0,0 0,-1.956 0,-1.956 0,0 0.085,0 0.085,0 z"
           id="path3425"
           style="fill:#000000;fill-opacity:1;fill-rule:nonzero;stroke:none" />
      </g>
      <g
         transform="scale(1,-1)"
         id="g3427">
        <path
           d="m 315.611,-391.525 c 0,1.828 1.377,2.98 3.153,2.98 1.758,0 3.255,-1.101 3.255,-2.987 0,-1.905 -1.333,-2.962 -3.152,-2.962 -1.758,0 -3.256,1.126 -3.256,2.969 z m 1.682,-0.233 c 0,-0.892 0.447,-1.87 1.471,-1.87 1.185,0 1.574,1.41 1.574,2.399 0,0.423 -0.061,0.864 -0.32,1.211 -0.278,0.372 -0.692,0.607 -1.151,0.607 -0.494,0 -0.928,-0.33 -1.169,-0.747 -0.243,-0.432 -0.405,-1.099 -0.405,-1.6 z"
           id="path3429"
           style="fill:#000000;fill-opacity:1;fill-rule:nonzero;stroke:none" />
      </g>
      <g
         transform="scale(1,-1)"
         id="g3431">
        <path
           d="m 299.654,-373.226 c 0,0 0,-13.14 0,-13.14 0,0 23.387,0 23.387,0 0,0 0,13.14 0,13.14 0,0 -23.387,0 -23.387,0 z"
           id="path3433"
           style="fill:#000000;fill-opacity:1;fill-rule:nonzero;stroke:none" />
      </g>
      <g
         transform="scale(1,-1)"
         id="g3435">
        <path
           d="m 299.654,-373.226 c 0,0 0,-13.14 0,-13.14 0,0 23.387,0 23.387,0 0,0 0,13.14 0,13.14 0,0 -23.387,0 -23.387,0 z"
           id="path3437"
           style="fill:none;stroke:#000000;stroke-width:0.75010997;stroke-linecap:butt;stroke-linejoin:miter;stroke-miterlimit:4;stroke-opacity:1;stroke-dasharray:none" />
      </g>
      <g
         transform="scale(1,-1)"
         id="g3439">
        <path
           d="m 299.602,-372.107 c 0,0 0,4.333 0,4.333 0,1.206 0.953,2.184 2.13,2.184 0,0 19.182,0 19.182,0 1.176,0 2.13,-0.978 2.13,-2.184 0,0 0,-4.333 0,-4.333 0,0 -23.442,0 -23.442,0 z"
           id="path3441"
           style="fill:#ffffff;fill-opacity:1;fill-rule:nonzero;stroke:none" />
      </g>
      <g
         transform="scale(1,-1)"
         id="g3443">
        <path
           d="m 299.602,-372.107 c 0,0 0,4.333 0,4.333 0,1.206 0.953,2.184 2.13,2.184 0,0 19.182,0 19.182,0 1.176,0 2.13,-0.978 2.13,-2.184 0,0 0,-4.333 0,-4.333 0,0 -23.442,0 -23.442,0 z"
           id="path3445"
           style="fill:none;stroke:#000000;stroke-width:0.76120001;stroke-linecap:butt;stroke-linejoin:miter;stroke-miterlimit:4;stroke-opacity:1;stroke-dasharray:none" />
      </g>
      <g
         transform="scale(1,-1)"
         id="g3447">
        <path
           d="m 304.228,-369.271 c -0.251,0.441 -0.567,0.841 -0.949,1.2 -0.498,0.467 -1.161,0.925 -1.988,1.374 -0.01,0.003 -0.033,0.023 -0.073,0.061 -0.04,0.041 -0.067,0.062 -0.081,0.062 -0.032,0 -0.073,-0.034 -0.12,-0.098 0,0 -0.416,-0.538 -0.416,-0.538 -0.048,-0.069 -0.075,-0.111 -0.075,-0.129 0,-0.013 0.012,-0.045 0.034,-0.097 0.022,-0.055 0.032,-0.117 0.032,-0.184 0,0 0.027,-2.887 0.027,-2.887 0.004,-0.157 -0.014,-0.353 -0.051,-0.589 0,0 0.814,0.117 0.814,0.117 0.095,0.01 0.141,0.045 0.141,0.103 0,0.014 -0.013,0.045 -0.039,0.092 -0.028,0.048 -0.043,0.107 -0.043,0.174 0,0.148 -0.002,0.582 -0.008,1.302 -0.006,0.718 -0.007,1.078 -0.007,1.083 0,0.146 0.035,0.22 0.107,0.22 0.042,0 0.16,-0.062 0.352,-0.185 0.217,-0.133 0.432,-0.286 0.644,-0.456 0.217,-0.174 0.431,-0.394 0.643,-0.656 0.191,-0.24 0.341,-0.458 0.446,-0.656 0,0 0.61,0.687 0.61,0.687 z"
           id="path3449"
           style="fill:#000000;fill-opacity:1;fill-rule:nonzero;stroke:none" />
      </g>
      <g
         transform="scale(1,-1)"
         id="g3451">
        <path
           d="m 307.131,-367.849 c -0.03,-0.004 -0.065,-0.006 -0.1,-0.006 0,0 -2.9,0 -2.9,0 -0.053,0 -0.102,0.005 -0.143,0.011 0,0 0,-0.815 0,-0.815 0.041,0.006 0.09,0.011 0.143,0.011 0,0 2.9,0 2.9,0 0.035,0 0.07,-0.002 0.1,-0.006 0,0 0,0.805 0,0.805 z"
           id="path3453"
           style="fill:#000000;fill-opacity:1;fill-rule:nonzero;stroke:none" />
      </g>
      <g
         transform="scale(1,-1)"
         id="g3455">
        <path
           d="m 311.357,-368.962 c 0,0 -1.538,0.037 -1.538,0.037 0.008,0.187 0.011,0.31 0.011,0.369 0,0.587 -0.176,1.06 -0.527,1.419 -0.247,0.254 -0.621,0.504 -1.125,0.755 0,0 -0.621,-0.81 -0.621,-0.81 0.447,-0.134 0.777,-0.307 0.988,-0.519 0.276,-0.287 0.407,-0.691 0.393,-1.214 0,0 -1.583,0.092 -1.583,0.092 0,0 -0.022,-0.882 -0.022,-0.882 0,0 3.983,-0.139 3.983,-0.139 0,0 0.041,0.892 0.041,0.892 z m -0.609,-1.296 c 0,0 -2.825,0.082 -2.825,0.082 0,0 -0.009,-0.837 -0.009,-0.837 0,0 2.802,-0.066 2.802,-0.066 0,0 0.032,0.821 0.032,0.821 z"
           id="path3457"
           style="fill:#000000;fill-opacity:1;fill-rule:nonzero;stroke:none" />
      </g>
      <g
         transform="scale(1,-1)"
         id="g3459">
        <path
           d="m 314.082,-369.46 c 0,0.028 -0.025,0.05 -0.078,0.067 -0.066,0.025 -0.108,0.046 -0.131,0.063 -0.185,0.204 -0.436,0.433 -0.758,0.686 0,0 0,2.241 0,2.241 0,0 -0.646,-0.006 -0.646,-0.006 0,0 0,-1.768 0,-1.768 -0.402,0.258 -0.77,0.453 -1.099,0.589 0,0 -0.39,-0.589 -0.39,-0.589 0.439,-0.173 0.875,-0.395 1.305,-0.671 0.575,-0.369 1.002,-0.751 1.282,-1.147 0,0 0.437,0.43 0.437,0.43 0.053,0.052 0.078,0.087 0.078,0.105 z"
           id="path3461"
           style="fill:#000000;fill-opacity:1;fill-rule:nonzero;stroke:none" />
      </g>
      <g
         transform="scale(1,-1)"
         id="g3463">
        <path
           d="m 318.053,-369.372 c -0.534,0.663 -1.104,1.232 -1.707,1.708 -0.585,0.461 -1.147,0.792 -1.683,0.995 -0.017,0.01 -0.042,0.042 -0.073,0.096 -0.03,0.059 -0.058,0.088 -0.082,0.088 -0.043,0 -0.079,-0.039 -0.109,-0.119 0,0 -0.367,-0.902 -0.367,-0.902 0.516,-0.061 1.105,-0.35 1.767,-0.866 0.607,-0.476 1.194,-1.075 1.754,-1.8 0,0 0.5,0.8 0.5,0.8 z m -2.183,-0.702 c 0,0 -0.416,0.743 -0.416,0.743 -0.141,-0.139 -0.36,-0.318 -0.662,-0.533 -0.287,-0.205 -0.527,-0.362 -0.722,-0.472 0,0 0.393,-0.743 0.393,-0.743 0.317,0.178 0.785,0.513 1.407,1.005 z"
           id="path3465"
           style="fill:#000000;fill-opacity:1;fill-rule:nonzero;stroke:none" />
      </g>
      <g
         transform="scale(1,-1)"
         id="g3467">
        <path
           d="m 322.215,-370.251 c 0,0.026 -0.016,0.051 -0.049,0.081 -0.033,0.027 -0.054,0.055 -0.062,0.085 -0.381,0.821 -0.797,1.539 -1.25,2.151 -0.419,0.575 -0.93,1.131 -1.536,1.67 0,0 -0.671,-0.606 -0.671,-0.606 0.542,-0.46 1.032,-0.97 1.471,-1.531 0.443,-0.564 0.747,-1.059 0.913,-1.488 0,0 -1.118,0.127 -1.118,0.127 -0.418,0.67 -0.867,1.21 -1.345,1.622 0,0 -0.586,-0.601 -0.586,-0.601 0.274,-0.227 0.563,-0.546 0.87,-0.958 0.392,-0.533 0.697,-1.09 0.91,-1.668 0,0 0.779,0.307 0.779,0.307 0.059,0.022 0.089,0.056 0.089,0.103 0,0.028 -0.026,0.057 -0.077,0.089 -0.066,0.047 -0.123,0.125 -0.171,0.235 0,0 0.942,-0.101 0.942,-0.101 0.03,-0.005 0.061,-0.025 0.096,-0.063 0.039,-0.037 0.066,-0.053 0.082,-0.053 0.037,0 0.097,0.035 0.182,0.11 0,0 0.063,0.052 0.063,0.052 -0.076,-0.111 -0.153,-0.227 -0.234,-0.344 0,0 0.248,-0.208 0.248,-0.208 0.085,0.104 0.226,0.308 0.426,0.613 0,0 -0.177,0.164 -0.177,0.164 0,0 0.102,0.085 0.102,0.085 0.07,0.06 0.103,0.102 0.103,0.127 z m 0.342,-0.674 c 0,0 -0.249,0.233 -0.249,0.233 -0.088,-0.152 -0.228,-0.365 -0.425,-0.637 0,0 0.252,-0.213 0.252,-0.213 0.08,0.106 0.22,0.311 0.422,0.617 z"
           id="path3469"
           style="fill:#000000;fill-opacity:1;fill-rule:nonzero;stroke:none" />
      </g>
      <g
         transform="scale(1,-1)"
         id="g3471">
        <path
           d="m 304.268,-378.055 c 0,0 0,0.18 0,0.18 0,0 -0.903,0 -0.903,0 0,0 0,-0.18 0,-0.18 0,0 0.903,0 0.903,0 z m -1.489,0 c 0,0 0,0.18 0,0.18 0,0 -0.902,0 -0.902,0 0,0 0,-0.18 0,-0.18 0,0 0.902,0 0.902,0 z m 1.489,-0.722 c 0,0 0,0.181 0,0.181 0,0 -0.903,0 -0.903,0 0,0 0,-0.181 0,-0.181 0,0 0.903,0 0.903,0 z m -1.489,0 c 0,0 0,0.181 0,0.181 0,0 -0.902,0 -0.902,0 0,0 0,-0.181 0,-0.181 0,0 0.902,0 0.902,0 z m -0.046,-1.06 c 0,0 0,0.451 0,0.451 0,0 0.632,0 0.632,0 0,0 0,-0.429 0,-0.429 0.165,0.151 0.362,0.316 0.587,0.497 0,0 -1.85,0 -1.85,0 0.21,-0.136 0.42,-0.309 0.631,-0.519 z m 0,-1.083 c 0,0 0,0.428 0,0.428 0,0 -0.405,0 -0.405,0 -0.06,-0.134 -0.144,-0.27 -0.25,-0.405 0.257,0 0.475,-0.008 0.655,-0.023 z m 1.242,-0.045 c -0.016,0.09 -0.046,0.18 -0.092,0.271 -0.029,0.06 -0.067,0.128 -0.112,0.202 0,0 -0.406,0 -0.406,0 0,0 0,-0.451 0,-0.451 0.196,0 0.399,-0.007 0.61,-0.022 z m 0.789,-0.203 c 0,0 -0.272,-0.384 -0.272,-0.384 0,0 0.406,0 0.406,0 0,0 0,0.542 0,0.542 0,0 0.633,0 0.633,0 0,0 0,-1.083 0,-1.083 0,0 -2.142,0 -2.142,0 0,0 0,-0.203 0,-0.203 0.043,-0.03 0.074,-0.06 0.089,-0.091 0.03,-0.074 -0.03,-0.112 -0.181,-0.112 0,0 -0.586,0 -0.586,0 0,0 0,0.406 0,0.406 0,0 -2.121,0 -2.121,0 0,0 0,1.15 0,1.15 0,0 0.632,0 0.632,0 0,0 0,-0.36 0,-0.36 0,0 0.091,0.428 0.091,0.428 0,0 0.472,0 0.472,0 0,0 -0.293,0.136 -0.293,0.136 0.061,0.09 0.113,0.173 0.158,0.247 0,0 -1.127,0 -1.127,0 0,0 0,0.542 0,0.542 0,0 1.512,0 1.512,0 -0.362,0.331 -0.799,0.579 -1.31,0.744 -0.12,0.046 -0.241,0.084 -0.36,0.113 0,0 0.225,0.61 0.225,0.61 0.226,-0.091 0.444,-0.197 0.655,-0.317 0,0 0,1.692 0,1.692 0,0 0.632,0 0.632,0 0,0 0,-0.226 0,-0.226 0,0 2.391,0 2.391,0 0,0 0,0.113 0,0.113 0,0 0.63,0 0.63,0 0,0 0,-1.579 0,-1.579 0.182,0.091 0.415,0.174 0.701,0.248 0,0 0.202,-0.631 0.202,-0.631 -0.826,-0.195 -1.406,-0.451 -1.737,-0.767 0,0 1.557,0 1.557,0 0,0 0,-0.542 0,-0.542 0,0 -1.218,0 -1.218,0 0.03,-0.074 0.068,-0.142 0.113,-0.202 0.029,0 0.051,-0.007 0.068,-0.023 0.074,-0.045 0.053,-0.097 -0.068,-0.158 0,0 -0.294,-0.112 -0.294,-0.112 0,0 0.362,-0.069 0.362,-0.069 0.089,0.046 0.148,0.053 0.18,0.023 0.045,-0.03 0.045,-0.074 0,-0.135 z m -3.542,-0.384 c 0,0 3.158,0 3.158,0 -0.978,0.136 -2.03,0.181 -3.158,0.136 0,0 0,-0.136 0,-0.136 z"
           id="path3473"
           style="fill:#ffffff;fill-opacity:1;fill-rule:nonzero;stroke:none" />
      </g>
      <g
         transform="scale(1,-1)"
         id="g3475">
        <path
           d="m 309.502,-378.101 c 0,0 0,0.249 0,0.249 0,0 -1.715,0 -1.715,0 0,0 0,-0.249 0,-0.249 0,0 1.715,0 1.715,0 z m 0,-0.721 c 0,0 0,0.18 0,0.18 0,0 -1.715,0 -1.715,0 0,0 0,-0.18 0,-0.18 0,0 1.715,0 1.715,0 z m 0,-0.722 c 0,0 0,0.18 0,0.18 0,0 -1.715,0 -1.715,0 0,0 0,-0.18 0,-0.18 0,0 1.715,0 1.715,0 z m -0.631,-2.91 c 0,0 -0.542,0 -0.542,0 0,0 0,0.541 0,0.541 0,0 -2.075,0 -2.075,0 0,0 0,0.587 0,0.587 0,0 1.85,0 1.85,0 -0.557,0.556 -1.28,0.992 -2.166,1.308 0,0 0.27,0.587 0.27,0.587 0.376,-0.135 0.692,-0.293 0.948,-0.474 0,0 0,2.053 0,2.053 0,0 -1.015,0 -1.015,0 0,0 0,0.541 0,0.541 0,0 5.076,0 5.076,0 0,0 0,-0.541 0,-0.541 0,0 -1.083,0 -1.083,0 0,0 0,-2.166 0,-2.166 0.346,0.196 0.684,0.354 1.014,0.474 0,0 0.227,-0.631 0.227,-0.631 -0.543,-0.151 -1.083,-0.399 -1.625,-0.745 -0.195,-0.136 -0.36,-0.27 -0.496,-0.406 0,0 1.782,0 1.782,0 0,0 0,-0.587 0,-0.587 0,0 -2.075,0 -2.075,0 0,0 0,-0.36 0,-0.36 0.119,-0.106 0.09,-0.165 -0.09,-0.181 z m 0.09,1.579 c 0.346,0.316 0.684,0.58 1.015,0.79 0,0 -2.527,0 -2.527,0 0.33,-0.226 0.623,-0.467 0.88,-0.723 0,0 0,0.655 0,0.655 0,0 0.632,0 0.632,0 0,0 0,-0.722 0,-0.722 z"
           id="path3477"
           style="fill:#ffffff;fill-opacity:1;fill-rule:nonzero;stroke:none" />
      </g>
      <g
         transform="scale(1,-1)"
         id="g3479">
        <path
           d="m 315.93,-381.923 c 0.121,0.135 0.092,0.195 -0.089,0.18 0,0 -1.265,0.835 -1.265,0.835 0.092,0.06 0.182,0.12 0.272,0.18 0,0 -0.272,0.181 -0.272,0.181 0,0 1.4,0 1.4,0 0,0 0.135,-0.135 0.135,-0.135 0,0 0.407,0.406 0.407,0.406 0.074,0.089 0.105,0.15 0.089,0.18 -0.015,0.03 -0.037,0.038 -0.068,0.023 -0.465,0.466 -0.962,0.932 -1.488,1.398 0,0 -0.475,-0.406 -0.475,-0.406 0.468,-0.377 0.814,-0.67 1.039,-0.88 0,0 -1.195,0 -1.195,0 0,0 0,2.211 0,2.211 0,0.061 -0.009,0.121 -0.023,0.181 -0.061,0.195 -0.203,0.293 -0.428,0.293 0,0 -0.655,0 -0.655,0 0,0 -0.068,-0.632 -0.068,-0.632 0,0 0.406,0 0.406,0 0.061,0 0.098,-0.015 0.114,-0.045 0.013,-0.029 0.021,-0.068 0.021,-0.113 0,0 0,-1.895 0,-1.895 0,0 -2.142,0 -2.142,0 0,0 0,-0.586 0,-0.586 0,0 2.3,0 2.3,0 -0.345,-0.211 -0.715,-0.422 -1.104,-0.632 0,0 0.428,-0.451 0.428,-0.451 0,0 0.767,0.406 0.767,0.406 0,0 0.698,-0.473 0.698,-0.473 0,0 -2.661,0 -2.661,0 0,0 0,-0.588 0,-0.588 0,0 3.293,0 3.293,0 0,0 0.113,-0.112 0.113,-0.112 0,0 0.451,0.474 0.451,0.474 z"
           id="path3481"
           style="fill:#ffffff;fill-opacity:1;fill-rule:nonzero;stroke:none" />
      </g>
      <g
         transform="scale(1,-1)"
         id="g3483">
        <path
           d="m 320.968,-380.156 c 0,0 -1.31,0 -1.31,0 0,0 0,0.676 0,0.676 0,0 1.579,0 1.579,0 0,0 0,0.587 0,0.587 0,0 -1.579,0 -1.579,0 0,0 0,0.925 0,0.925 0.091,0.015 0.203,0.03 0.338,0.045 0,0 1.852,0 1.852,0 0,0 -0.09,0.632 -0.09,0.632 0,0 -1.805,0 -1.805,0 -0.151,0 -0.295,-0.016 -0.43,-0.045 -0.525,-0.121 -0.976,-0.399 -1.353,-0.835 -0.211,0.436 -0.557,0.796 -1.037,1.083 0,0 -0.43,-0.541 -0.43,-0.541 0.438,-0.226 0.737,-0.513 0.902,-0.858 0.167,-0.361 0.264,-0.82 0.293,-1.376 0,0 0.588,0.18 0.588,0.18 0.044,0.016 0.082,0.038 0.114,0.068 0.013,0.03 0.021,0.052 0.021,0.068 -0.015,0.029 -0.053,0.06 -0.113,0.09 -0.045,0.256 -0.09,0.503 -0.135,0.744 0.029,0.046 0.068,0.09 0.113,0.136 0.15,0.151 0.33,0.278 0.541,0.384 0,0 0,-1.963 0,-1.963 0,0 -1.399,0 -1.399,0 0,0 0,-0.587 0,-0.587 0,0 3.34,0 3.34,0 0,0 0,0.587 0,0.587 z m -1.241,-2.211 c -0.016,0.03 -0.045,0.06 -0.09,0.091 0,0 0,0.451 0,0.451 0,0 2.076,0 2.076,0 0,0 0,1.285 0,1.285 0,0 -0.633,0 -0.633,0 0,0 0,-0.699 0,-0.699 0,0 -3.564,0 -3.564,0 0,0 0,0.744 0,0.744 0,0 -0.632,0 -0.632,0 0,0 0,-1.33 0,-1.33 0,0 2.075,0 2.075,0 0,0 0,-0.655 0,-0.655 0,0 0.586,0 0.586,0 0.151,0 0.211,0.039 0.182,0.113 z"
           id="path3485"
           style="fill:#ffffff;fill-opacity:1;fill-rule:nonzero;stroke:none" />
      </g>
    </g>
  </g>
</svg>
