<?xml version="1.0" standalone="no"?>
<!DOCTYPE svg PUBLIC "-//W3C//DTD SVG 1.1//EN" "http://www.w3.org/Graphics/SVG/1.1/DTD/svg11.dtd" >
<svg xmlns="http://www.w3.org/2000/svg" xmlns:xlink="http://www.w3.org/1999/xlink" version="1.1">
<metadata>
Created by FontForge 20170104 at Thu Dec 15 19:24:15 2016
 By myTaste
Copyright 2011 The Alice Project Authors (contact@cyreal.org) with Reserved Font Name "Alice"
</metadata>
<defs>
<font id="Alice-Regular" horiz-adv-x="0" >
  <font-face 
    font-family="Alice"
    font-weight="400"
    font-stretch="normal"
    units-per-em="1000"
    panose-1="0 0 5 0 0 0 0 0 0 0"
    ascent="800"
    descent="-200"
    x-height="456"
    cap-height="634"
    bbox="-435 -321.6 1094 868"
    underline-thickness="50"
    underline-position="-100"
    unicode-range="U+000D-2212"
  />
<missing-glyph horiz-adv-x="267" 
 />
    <glyph glyph-name=".notdef" horiz-adv-x="267" 
 />
    <glyph glyph-name="NULL" 
 />
    <glyph glyph-name="nonmarkingreturn" unicode="&#xd;" horiz-adv-x="600" 
 />
    <glyph glyph-name="space" unicode=" " horiz-adv-x="223" 
 />
    <glyph glyph-name="A" unicode="A" horiz-adv-x="653" 
d="M-7.5 3.5q-4.5 6.5 -4.5 15.5q1 15 6 18t12 3h9q30 0 44 15.5t22.5 35t11.5 26.5l175 414q6 15 6 24q0 18 -14 26t-39 13q-17 3 -21 6t-4 17q0 12 6.5 16t20.5 4q50 0 79.5 -7.5t51.5 -30t41 -68.5l168 -414q15 -38 29 -57t42 -20h6q10 0 14 -3.5t5 -17.5
q0 -9 -4.5 -15.5t-13.5 -6.5q-64 3 -110 3q-60 0 -124 -3q-9 0 -13.5 6.5t-4.5 15.5q1 14 5 17.5t14 3.5q34 0 48 6.5t14 23.5q0 13 -12 47l-34 83h-247q-25 -62 -28.5 -72t-3.5 -11q-12 -38 -12 -49q0 -17 15 -22.5t57 -5.5h6q10 0 14 -3.5t5 -17.5q0 -9 -4.5 -15.5
t-13.5 -6.5q-64 3 -109 3q-32 0 -97 -3q-9 0 -13.5 6.5zM196 243h210l-101 257h-3z" />
    <glyph glyph-name="Aacute" unicode="&#xc1;" horiz-adv-x="653" 
d="M-7.5 3.5q-4.5 6.5 -4.5 15.5q1 15 6 18t12 3h9q30 0 44 15.5t22.5 35t11.5 26.5l175 414q6 15 6 24q0 18 -14 26t-39 13q-17 3 -21 6t-4 17q0 12 6.5 16t20.5 4q50 0 79.5 -7.5t51.5 -30t41 -68.5l168 -414q15 -38 29 -57t42 -20h6q10 0 14 -3.5t5 -17.5
q0 -9 -4.5 -15.5t-13.5 -6.5q-64 3 -110 3q-60 0 -124 -3q-9 0 -13.5 6.5t-4.5 15.5q1 14 5 17.5t14 3.5q34 0 48 6.5t14 23.5q0 13 -12 47l-34 83h-247q-25 -62 -28.5 -72t-3.5 -11q-12 -38 -12 -49q0 -17 15 -22.5t57 -5.5h6q10 0 14 -3.5t5 -17.5q0 -9 -4.5 -15.5
t-13.5 -6.5q-64 3 -109 3q-32 0 -97 -3q-9 0 -13.5 6.5zM196 243h210l-101 257h-3zM287 690q-10 0 -17.5 7.5t-7.5 16.5q0 7 5 12t39.5 40t66.5 59q16 12 27 18t21 6q15 0 26 -14q10 -11 10 -23q0 -21 -37 -46q-76 -49 -124 -74q-3 -2 -9 -2z" />
    <glyph glyph-name="Acircumflex" unicode="&#xc2;" horiz-adv-x="653" 
d="M-7.5 3.5q-4.5 6.5 -4.5 15.5q1 15 6 18t12 3h9q30 0 44 15.5t22.5 35t11.5 26.5l175 414q6 15 6 24q0 18 -14 26t-39 13q-17 3 -21 6t-4 17q0 12 6.5 16t20.5 4q50 0 79.5 -7.5t51.5 -30t41 -68.5l168 -414q15 -38 29 -57t42 -20h6q10 0 14 -3.5t5 -17.5
q0 -9 -4.5 -15.5t-13.5 -6.5q-64 3 -110 3q-60 0 -124 -3q-9 0 -13.5 6.5t-4.5 15.5q1 14 5 17.5t14 3.5q34 0 48 6.5t14 23.5q0 13 -12 47l-34 83h-247q-25 -62 -28.5 -72t-3.5 -11q-12 -38 -12 -49q0 -17 15 -22.5t57 -5.5h6q10 0 14 -3.5t5 -17.5q0 -9 -4.5 -15.5
t-13.5 -6.5q-64 3 -109 3q-32 0 -97 -3q-9 0 -13.5 6.5zM196 243h210l-101 257h-3zM152 686q-12 0 -20 8q-6 6 -6 14t10 17l132 104q14 11 29 11t29 -11l132 -104q10 -9 10 -18q0 -7 -6 -13q-8 -8 -20 -8q-8 0 -15 4l-130 64l-130 -64q-7 -4 -15 -4z" />
    <glyph glyph-name="Adieresis" unicode="&#xc4;" horiz-adv-x="653" 
d="M-7.5 3.5q-4.5 6.5 -4.5 15.5q1 15 6 18t12 3h9q30 0 44 15.5t22.5 35t11.5 26.5l175 414q6 15 6 24q0 18 -14 26t-39 13q-17 3 -21 6t-4 17q0 12 6.5 16t20.5 4q50 0 79.5 -7.5t51.5 -30t41 -68.5l168 -414q15 -38 29 -57t42 -20h6q10 0 14 -3.5t5 -17.5
q0 -9 -4.5 -15.5t-13.5 -6.5q-64 3 -110 3q-60 0 -124 -3q-9 0 -13.5 6.5t-4.5 15.5q1 14 5 17.5t14 3.5q34 0 48 6.5t14 23.5q0 13 -12 47l-34 83h-247q-25 -62 -28.5 -72t-3.5 -11q-12 -38 -12 -49q0 -17 15 -22.5t57 -5.5h6q10 0 14 -3.5t5 -17.5q0 -9 -4.5 -15.5
t-13.5 -6.5q-64 3 -109 3q-32 0 -97 -3q-9 0 -13.5 6.5zM196 243h210l-101 257h-3zM157.5 729q-18.5 18 -18.5 42q0 26 18 43t45 17q26 0 43 -17t17 -43q0 -24 -17.5 -42t-43.5 -18q-25 0 -43.5 18zM349.5 729q-18.5 18 -18.5 42q0 26 18 43t45 17q26 0 43 -17t17 -43
q0 -24 -17.5 -42t-43.5 -18q-25 0 -43.5 18z" />
    <glyph glyph-name="Agrave" unicode="&#xc0;" horiz-adv-x="653" 
d="M-7.5 3.5q-4.5 6.5 -4.5 15.5q1 15 6 18t12 3h9q30 0 44 15.5t22.5 35t11.5 26.5l175 414q6 15 6 24q0 18 -14 26t-39 13q-17 3 -21 6t-4 17q0 12 6.5 16t20.5 4q50 0 79.5 -7.5t51.5 -30t41 -68.5l168 -414q15 -38 29 -57t42 -20h6q10 0 14 -3.5t5 -17.5
q0 -9 -4.5 -15.5t-13.5 -6.5q-64 3 -110 3q-60 0 -124 -3q-9 0 -13.5 6.5t-4.5 15.5q1 14 5 17.5t14 3.5q34 0 48 6.5t14 23.5q0 13 -12 47l-34 83h-247q-25 -62 -28.5 -72t-3.5 -11q-12 -38 -12 -49q0 -17 15 -22.5t57 -5.5h6q10 0 14 -3.5t5 -17.5q0 -9 -4.5 -15.5
t-13.5 -6.5q-64 3 -109 3q-32 0 -97 -3q-9 0 -13.5 6.5zM196 243h210l-101 257h-3zM176 750q-37 25 -37 46q0 12 10 23q11 14 26 14q10 0 21.5 -6t26.5 -18q32 -24 66.5 -59t39.5 -40t5 -12q0 -9 -8 -17t-17 -8q-5 0 -9 3q-48 25 -124 74z" />
    <glyph glyph-name="Aring" unicode="&#xc5;" horiz-adv-x="653" 
d="M-7.5 3.5q-4.5 6.5 -4.5 15.5q1 15 6 18t12 3h9q30 0 44 15.5t22.5 35t11.5 26.5l175 414q6 15 6 24q0 18 -14 26t-39 13q-17 3 -21 6t-4 17q0 12 6.5 16t20.5 4q50 0 79.5 -7.5t51.5 -30t41 -68.5l168 -414q15 -38 29 -57t42 -20h6q10 0 14 -3.5t5 -17.5
q0 -9 -4.5 -15.5t-13.5 -6.5q-64 3 -110 3q-60 0 -124 -3q-9 0 -13.5 6.5t-4.5 15.5q1 14 5 17.5t14 3.5q34 0 48 6.5t14 23.5q0 13 -12 47l-34 83h-247q-25 -62 -28.5 -72t-3.5 -11q-12 -38 -12 -49q0 -17 15 -22.5t57 -5.5h6q10 0 14 -3.5t5 -17.5q0 -9 -4.5 -15.5
t-13.5 -6.5q-64 3 -109 3q-32 0 -97 -3q-9 0 -13.5 6.5zM196 243h210l-101 257h-3zM218 675q-30 26 -30 69q0 48 27.5 73t82.5 25q52 0 80 -26t28 -72q0 -44 -29.5 -69.5t-78.5 -25.5q-50 0 -80 26zM331.5 701q9.5 15 9.5 43q0 31 -10 47t-33 16q-22 0 -33.5 -17.5
t-11.5 -45.5q0 -58 45 -58q24 0 33.5 15z" />
    <glyph glyph-name="Atilde" unicode="&#xc3;" horiz-adv-x="653" 
d="M-7.5 3.5q-4.5 6.5 -4.5 15.5q1 15 6 18t12 3h9q30 0 44 15.5t22.5 35t11.5 26.5l175 414q6 15 6 24q0 18 -14 26t-39 13q-17 3 -21 6t-4 17q0 12 6.5 16t20.5 4q50 0 79.5 -7.5t51.5 -30t41 -68.5l168 -414q15 -38 29 -57t42 -20h6q10 0 14 -3.5t5 -17.5
q0 -9 -4.5 -15.5t-13.5 -6.5q-64 3 -110 3q-60 0 -124 -3q-9 0 -13.5 6.5t-4.5 15.5q1 14 5 17.5t14 3.5q34 0 48 6.5t14 23.5q0 13 -12 47l-34 83h-247q-25 -62 -28.5 -72t-3.5 -11q-12 -38 -12 -49q0 -17 15 -22.5t57 -5.5h6q10 0 14 -3.5t5 -17.5q0 -9 -4.5 -15.5
t-13.5 -6.5q-64 3 -109 3q-32 0 -97 -3q-9 0 -13.5 6.5zM196 243h210l-101 257h-3zM324.5 703.5q-16.5 8.5 -36.5 24.5q-15 12 -25 18t-21 6q-14 0 -32.5 -10.5t-36.5 -31.5q-8 -8 -18 -8q-9 0 -15 7.5t-2 18.5q15 38 45.5 64.5t70.5 26.5q22 -1 37.5 -9t37.5 -25
q14 -12 24 -18t21 -6q14 0 33 10.5t37 31.5q8 8 16 8t13.5 -5t5.5 -13q0 -6 -3 -12q-16 -36 -45.5 -61.5t-67.5 -25.5q-22 1 -38.5 9.5z" />
    <glyph glyph-name="AE" unicode="&#xc6;" horiz-adv-x="902" 
d="M-5.5 3.5q-4.5 6.5 -4.5 15.5q1 15 6 18.5t12.5 3t10.5 -0.5q26 0 48.5 22.5t37.5 54.5l213 414q6 15 6 24q0 16 -12.5 22t-40.5 11q-3 1 -11.5 2.5t-11 5t-2.5 11.5q0 13 5 18t14.5 5.5t20.5 0.5h515q26 0 26 -24l3 -140q0 -9 -9 -14.5t-18 -5.5q-12 0 -21 4.5t-10 13.5
q-8 49 -17.5 74.5t-28 38t-52.5 13.5h-134v-254h181q7 -1 11 -7.5t4 -15.5q0 -8 -4 -14t-11 -6h-181v-189q2 -21 5 -33.5t18 -22.5t47 -9h92q35 1 53 11.5t28.5 32.5t25.5 72q7 18 34 14q10 -2 17.5 -8t6.5 -15l-20 -126q-3 -13 -9 -17t-20 -4h-330q-54 0 -120 -3
q-8 0 -12.5 6.5t-4.5 15.5q1 15 6 18t19 3q29 0 43 10.5t17.5 26t4.5 40.5v131h-217l-67 -131q-19 -40 -19 -53q0 -14 15 -19t54 -5h6q10 0 14 -3.5t5 -17.5q0 -9 -4.5 -15.5t-13.5 -6.5q-64 3 -109 3q-32 0 -97 -3q-9 0 -13.5 6.5zM441 291v300h-23q-14 1 -20.5 -4.5
t-14.5 -21.5l-138 -274h196z" />
    <glyph glyph-name="B" unicode="B" horiz-adv-x="621" 
d="M46.5 3.5q-4.5 6.5 -4.5 15.5q1 15 6 18t19 3q29 0 43 10.5t17.5 26t4.5 40.5v397q-1 25 -4.5 40.5t-17.5 26t-43 10.5h-6q-10 0 -14 3.5t-5 17.5q0 9 4.5 15.5t13.5 6.5q65 -3 118 -3h141q55 0 89 -8t61 -25q26 -17 41 -46.5t15 -64.5q0 -62 -40.5 -98.5t-94.5 -49.5v-3
q52 0 94.5 -20.5t66 -55t23.5 -74.5q0 -68 -41.5 -110t-104 -59.5t-129.5 -17.5l-120 1q-54 0 -119 -3q-9 0 -13.5 6.5zM273 356q40 0 69.5 6t52.5 32t23 81q0 119 -117 119h-70v-238h42zM421.5 75.5q44.5 35.5 44.5 116.5q-5 54 -50.5 89t-143.5 35h-41v-199
q0 -34 6.5 -50.5t21 -22t44.5 -5.5q74 1 118.5 36.5z" />
    <glyph glyph-name="C" unicode="C" horiz-adv-x="639" 
d="M202.5 20.5q-70.5 40.5 -112 115.5t-41.5 175q0 101 40 178t114 119.5t173 42.5q86 0 153 -34.5t67 -106.5q1 -45 -27 -76.5t-75 -31.5q-18 0 -30.5 6.5t-18.5 15.5t-5 14q0 2 14 11t25 25t11 39q0 45 -30.5 71.5t-84.5 26.5q-61 0 -108.5 -34.5t-74 -101t-26.5 -158.5
q0 -80 28.5 -145.5t80.5 -104t119 -38.5q54 0 92.5 22.5t69.5 72.5q5 9 14 9q8 0 18 -6q16 -11 16 -22q0 -6 -4 -10q-38 -48 -71.5 -72.5t-72.5 -33.5t-98 -9q-85 0 -155.5 40.5z" />
    <glyph glyph-name="Ccedilla" unicode="&#xc7;" horiz-adv-x="639" 
d="M604 105q0 -6 -4 -10q-37 -47 -69.5 -71t-69.5 -33.5t-92 -10.5v-21q41 -1 69 -17.5t28 -52.5q0 -50 -49 -73.5t-135 -23.5q-9 0 -14.5 7t-5.5 17q0 13 5 17.5t15 4.5q55 0 83 6t28 30q0 15 -14 21t-43 9q-8 1 -12 5t-4 18v55q-76 9 -138 51.5t-97.5 114t-35.5 163.5
q0 101 40 178t114 119.5t173 42.5q86 0 153 -34.5t67 -106.5q1 -45 -27 -76.5t-75 -31.5q-18 0 -30.5 6.5t-18.5 15.5t-5 14q0 2 14 11t25 25t11 39q0 45 -30.5 71.5t-84.5 26.5q-61 0 -108.5 -34.5t-74 -101t-26.5 -158.5q0 -80 28.5 -145.5t80.5 -104t119 -38.5
q54 0 92.5 22.5t69.5 72.5q5 9 14 9q8 0 18 -6q16 -11 16 -22z" />
    <glyph glyph-name="D" unicode="D" horiz-adv-x="728" 
d="M47.5 3.5q-4.5 6.5 -4.5 15.5q1 15 6 18t19 3q29 0 43 10.5t17.5 26t4.5 40.5v397q-1 25 -4.5 40.5t-17.5 26t-43 10.5h-6q-10 0 -14 3.5t-5 17.5q0 9 4.5 15.5t12.5 6.5q66 -3 119 -3h156q96 0 174.5 -38.5t124 -110.5t45.5 -170q0 -102 -51.5 -172.5t-134 -105
t-176.5 -34.5h-138q-53 0 -119 -3q-8 0 -12.5 6.5zM503.5 109.5q54.5 72.5 54.5 202.5q0 82 -29.5 146.5t-85.5 100.5t-133 36l-78 -1v-489q0 -39 23.5 -53.5t76.5 -14.5q117 0 171.5 72.5z" />
    <glyph glyph-name="Eth" unicode="&#xd0;" horiz-adv-x="728" 
d="M47.5 3.5q-4.5 6.5 -4.5 15.5q1 15 6 18t19 3q29 0 43 10.5t17.5 26t4.5 40.5v194h-55q-10 0 -14.5 6.5t-4.5 14.5q0 22 19 22h55v160q-1 25 -4.5 40.5t-17.5 26t-43 10.5h-6q-10 0 -14 3.5t-5 17.5q0 9 4.5 15.5t12.5 6.5q66 -3 119 -3h156q96 0 174.5 -38.5t124 -110.5
t45.5 -170q0 -102 -51.5 -172.5t-134 -105t-176.5 -34.5h-138q-53 0 -119 -3q-8 0 -12.5 6.5zM503.5 109.5q54.5 72.5 54.5 202.5q0 82 -29.5 146.5t-85.5 100.5t-133 36l-78 -1v-240h115q19 0 19 -22q0 -8 -4.5 -14.5t-14.5 -6.5h-115v-206q0 -39 23.5 -53.5t76.5 -14.5
q117 0 171.5 72.5z" />
    <glyph glyph-name="E" unicode="E" horiz-adv-x="594" 
d="M47.5 3.5q-4.5 6.5 -4.5 15.5q1 15 6 18t19 3q29 0 43 10.5t17.5 26t4.5 40.5v397q-1 25 -4.5 40.5t-17.5 26t-43 10.5h-6q-10 0 -14 3.5t-5 17.5q0 9 4.5 15.5t12.5 6.5q66 -3 119 -3h314q26 0 26 -24l3 -140q0 -9 -9 -14.5t-18 -5.5q-12 0 -21 4.5t-10 13.5
q-8 49 -17.5 74.5t-28 38t-52.5 13.5h-134v-254h181q7 -1 11 -7.5t4 -15.5q0 -8 -4 -14t-11 -6h-181v-189q2 -21 5 -33.5t18 -22.5t47 -9h92q35 1 53 11.5t28.5 32.5t25.5 72q7 18 34 14q10 -2 17.5 -8t6.5 -15l-20 -126q-3 -13 -9 -17t-20 -4h-330q-54 0 -120 -3
q-8 0 -12.5 6.5z" />
    <glyph glyph-name="Eacute" unicode="&#xc9;" horiz-adv-x="594" 
d="M47.5 3.5q-4.5 6.5 -4.5 15.5q1 15 6 18t19 3q29 0 43 10.5t17.5 26t4.5 40.5v397q-1 25 -4.5 40.5t-17.5 26t-43 10.5h-6q-10 0 -14 3.5t-5 17.5q0 9 4.5 15.5t12.5 6.5q66 -3 119 -3h314q26 0 26 -24l3 -140q0 -9 -9 -14.5t-18 -5.5q-12 0 -21 4.5t-10 13.5
q-8 49 -17.5 74.5t-28 38t-52.5 13.5h-134v-254h181q7 -1 11 -7.5t4 -15.5q0 -8 -4 -14t-11 -6h-181v-189q2 -21 5 -33.5t18 -22.5t47 -9h92q35 1 53 11.5t28.5 32.5t25.5 72q7 18 34 14q10 -2 17.5 -8t6.5 -15l-20 -126q-3 -13 -9 -17t-20 -4h-330q-54 0 -120 -3
q-8 0 -12.5 6.5zM308 690q-10 0 -17.5 7.5t-7.5 16.5q0 7 5 12t39.5 40t66.5 59q16 12 27 18t21 6q15 0 26 -14q10 -11 10 -23q0 -21 -37 -46q-76 -49 -124 -74q-3 -2 -9 -2z" />
    <glyph glyph-name="Ecircumflex" unicode="&#xca;" horiz-adv-x="594" 
d="M47.5 3.5q-4.5 6.5 -4.5 15.5q1 15 6 18t19 3q29 0 43 10.5t17.5 26t4.5 40.5v397q-1 25 -4.5 40.5t-17.5 26t-43 10.5h-6q-10 0 -14 3.5t-5 17.5q0 9 4.5 15.5t12.5 6.5q66 -3 119 -3h314q26 0 26 -24l3 -140q0 -9 -9 -14.5t-18 -5.5q-12 0 -21 4.5t-10 13.5
q-8 49 -17.5 74.5t-28 38t-52.5 13.5h-134v-254h181q7 -1 11 -7.5t4 -15.5q0 -8 -4 -14t-11 -6h-181v-189q2 -21 5 -33.5t18 -22.5t47 -9h92q35 1 53 11.5t28.5 32.5t25.5 72q7 18 34 14q10 -2 17.5 -8t6.5 -15l-20 -126q-3 -13 -9 -17t-20 -4h-330q-54 0 -120 -3
q-8 0 -12.5 6.5zM173 686q-12 0 -20 8q-6 6 -6 14t10 17l132 104q14 11 29 11t29 -11l132 -104q10 -9 10 -18q0 -7 -6 -13q-8 -8 -20 -8q-8 0 -15 4l-130 64l-130 -64q-7 -4 -15 -4z" />
    <glyph glyph-name="Edieresis" unicode="&#xcb;" horiz-adv-x="594" 
d="M47.5 3.5q-4.5 6.5 -4.5 15.5q1 15 6 18t19 3q29 0 43 10.5t17.5 26t4.5 40.5v397q-1 25 -4.5 40.5t-17.5 26t-43 10.5h-6q-10 0 -14 3.5t-5 17.5q0 9 4.5 15.5t12.5 6.5q66 -3 119 -3h314q26 0 26 -24l3 -140q0 -9 -9 -14.5t-18 -5.5q-12 0 -21 4.5t-10 13.5
q-8 49 -17.5 74.5t-28 38t-52.5 13.5h-134v-254h181q7 -1 11 -7.5t4 -15.5q0 -8 -4 -14t-11 -6h-181v-189q2 -21 5 -33.5t18 -22.5t47 -9h92q35 1 53 11.5t28.5 32.5t25.5 72q7 18 34 14q10 -2 17.5 -8t6.5 -15l-20 -126q-3 -13 -9 -17t-20 -4h-330q-54 0 -120 -3
q-8 0 -12.5 6.5zM178.5 729q-18.5 18 -18.5 42q0 26 18 43t45 17q26 0 43 -17t17 -43q0 -24 -17.5 -42t-43.5 -18q-25 0 -43.5 18zM370.5 729q-18.5 18 -18.5 42q0 26 18 43t45 17q26 0 43 -17t17 -43q0 -24 -17.5 -42t-43.5 -18q-25 0 -43.5 18z" />
    <glyph glyph-name="Egrave" unicode="&#xc8;" horiz-adv-x="594" 
d="M47.5 3.5q-4.5 6.5 -4.5 15.5q1 15 6 18t19 3q29 0 43 10.5t17.5 26t4.5 40.5v397q-1 25 -4.5 40.5t-17.5 26t-43 10.5h-6q-10 0 -14 3.5t-5 17.5q0 9 4.5 15.5t12.5 6.5q66 -3 119 -3h314q26 0 26 -24l3 -140q0 -9 -9 -14.5t-18 -5.5q-12 0 -21 4.5t-10 13.5
q-8 49 -17.5 74.5t-28 38t-52.5 13.5h-134v-254h181q7 -1 11 -7.5t4 -15.5q0 -8 -4 -14t-11 -6h-181v-189q2 -21 5 -33.5t18 -22.5t47 -9h92q35 1 53 11.5t28.5 32.5t25.5 72q7 18 34 14q10 -2 17.5 -8t6.5 -15l-20 -126q-3 -13 -9 -17t-20 -4h-330q-54 0 -120 -3
q-8 0 -12.5 6.5zM197 750q-37 25 -37 46q0 12 10 23q11 14 26 14q10 0 21.5 -6t26.5 -18q32 -24 66.5 -59t39.5 -40t5 -12q0 -9 -8 -17t-17 -8q-5 0 -9 3q-48 25 -124 74z" />
    <glyph glyph-name="F" unicode="F" horiz-adv-x="525" 
d="M47.5 3.5q-4.5 6.5 -4.5 15.5q1 15 6 18t19 3q29 0 43 10.5t17.5 26t4.5 40.5v397q-1 25 -4.5 40.5t-17.5 26t-43 10.5h-6q-10 0 -14 3.5t-5 17.5q0 9 4.5 15.5t12.5 6.5q65 -3 119 -3h289q26 0 26 -24l3 -140q0 -9 -9 -14.5t-18 -5.5q-12 0 -21.5 4.5t-10.5 13.5
q-7 49 -16.5 74.5t-28 38t-52.5 13.5h-109v-260h179q8 -1 12 -7.5t4 -15.5q0 -8 -4 -14t-12 -6h-179v-171q1 -25 4.5 -40.5t17.5 -26t43 -10.5h6q9 0 13.5 -3.5t5.5 -17.5q0 -9 -4.5 -15.5t-13.5 -6.5q-64 3 -124 3q-55 0 -120 -3q-8 0 -12.5 6.5z" />
    <glyph glyph-name="G" unicode="G" horiz-adv-x="692" 
d="M201.5 16.5q-70.5 36.5 -111.5 111t-41 183.5q0 101 44.5 178t123.5 119.5t181 42.5q50 0 99 -15t81 -47t32 -79q0 -44 -26 -76t-69 -32q-21 0 -40.5 10t-20.5 26q0 1 13.5 11t25 27t11.5 41q0 42 -33 68t-85 26q-62 0 -112 -34.5t-79 -101t-29 -158.5q0 -89 28.5 -154
t80 -99.5t119.5 -34.5q32 0 56 3.5t52 12.5v102q0 35 -2.5 49t-16 21t-45.5 7q-11 0 -16 3.5t-6 17.5q0 9 5.5 15.5t15.5 6.5q63 -3 110 -3q45 0 108 3q9 0 14 -6.5t5 -15.5q-1 -14 -6 -17.5t-16 -3.5q-30 0 -43 -8t-16 -22.5t-3 -46.5v-118q-59 -28 -108 -38.5t-123 -10.5
q-87 0 -157.5 36.5z" />
    <glyph glyph-name="H" unicode="H" horiz-adv-x="777" 
d="M47.5 3.5q-4.5 6.5 -4.5 15.5q1 15 6 18t19 3q29 0 43 10.5t17.5 26t4.5 40.5v397q-1 25 -4.5 40.5t-17.5 26t-43 10.5h-6q-10 0 -14 3.5t-5 17.5q0 9 4.5 15.5t13.5 6.5q65 -3 118 -3q60 0 125 3q9 0 13.5 -6.5t4.5 -15.5q-1 -15 -6 -18t-19 -3q-29 0 -43 -10.5
t-17.5 -26t-4.5 -40.5v-177h314v177q-1 25 -4.5 40.5t-17.5 26t-43 10.5h-6q-10 0 -14.5 3.5t-5.5 17.5q0 9 5 15.5t13 6.5q65 -3 125 -3q55 0 119 3q9 0 13.5 -6.5t4.5 -15.5q-1 -15 -6.5 -18t-18.5 -3q-29 0 -43.5 -10.5t-18 -26t-4.5 -40.5v-397q1 -25 4.5 -40.5t18 -26
t43.5 -10.5h6q9 0 13.5 -3.5t5.5 -17.5q0 -9 -4.5 -15.5t-13.5 -6.5q-64 3 -120 3q-59 0 -124 -3q-8 0 -13 6.5t-5 15.5q1 15 6.5 18t19.5 3q29 0 43 10.5t17.5 26t4.5 40.5v177h-314v-177q1 -25 4.5 -40.5t17.5 -26t43 -10.5h6q10 0 14 -3.5t5 -17.5q0 -9 -4.5 -15.5
t-13.5 -6.5q-64 3 -124 3q-54 0 -119 -3q-9 0 -13.5 6.5z" />
    <glyph glyph-name="I" unicode="I" horiz-adv-x="364" 
d="M46.5 3.5q-4.5 6.5 -4.5 15.5q1 15 6.5 18t18.5 3q29 0 43 10.5t18 25.5t5 41v397q-1 26 -5 41t-18 25.5t-43 10.5h-6q-9 0 -13.5 3.5t-5.5 17.5q0 9 4.5 15.5t13.5 6.5q65 -3 119 -3q60 0 125 3q9 0 13.5 -6.5t4.5 -15.5q-1 -15 -6.5 -18t-19.5 -3q-29 0 -43 -10.5
t-17.5 -26t-4.5 -40.5v-397q1 -25 4.5 -40.5t17.5 -26t43 -10.5h6q10 0 14.5 -3.5t5.5 -17.5q0 -9 -4.5 -15.5t-13.5 -6.5q-64 3 -124 3q-55 0 -120 -3q-9 0 -13.5 6.5z" />
    <glyph glyph-name="Iacute" unicode="&#xcd;" horiz-adv-x="364" 
d="M46.5 3.5q-4.5 6.5 -4.5 15.5q1 15 6.5 18t18.5 3q29 0 43 10.5t18 25.5t5 41v397q-1 26 -5 41t-18 25.5t-43 10.5h-6q-9 0 -13.5 3.5t-5.5 17.5q0 9 4.5 15.5t13.5 6.5q65 -3 119 -3q60 0 125 3q9 0 13.5 -6.5t4.5 -15.5q-1 -15 -6.5 -18t-19.5 -3q-29 0 -43 -10.5
t-17.5 -26t-4.5 -40.5v-397q1 -25 4.5 -40.5t17.5 -26t43 -10.5h6q10 0 14.5 -3.5t5.5 -17.5q0 -9 -4.5 -15.5t-13.5 -6.5q-64 3 -124 3q-55 0 -120 -3q-9 0 -13.5 6.5zM172 690q-10 0 -17.5 7.5t-7.5 16.5q0 7 5 12t39.5 40t66.5 59q16 12 27 18t21 6q15 0 26 -14
q10 -11 10 -23q0 -21 -37 -46q-76 -49 -124 -74q-3 -2 -9 -2z" />
    <glyph glyph-name="Icircumflex" unicode="&#xce;" horiz-adv-x="364" 
d="M46.5 3.5q-4.5 6.5 -4.5 15.5q1 15 6.5 18t18.5 3q29 0 43 10.5t18 25.5t5 41v397q-1 26 -5 41t-18 25.5t-43 10.5h-6q-9 0 -13.5 3.5t-5.5 17.5q0 9 4.5 15.5t13.5 6.5q65 -3 119 -3q60 0 125 3q9 0 13.5 -6.5t4.5 -15.5q-1 -15 -6.5 -18t-19.5 -3q-29 0 -43 -10.5
t-17.5 -26t-4.5 -40.5v-397q1 -25 4.5 -40.5t17.5 -26t43 -10.5h6q10 0 14.5 -3.5t5.5 -17.5q0 -9 -4.5 -15.5t-13.5 -6.5q-64 3 -124 3q-55 0 -120 -3q-9 0 -13.5 6.5zM37 686q-12 0 -20 8q-6 6 -6 14t10 17l132 104q14 11 29 11t29 -11l132 -104q10 -9 10 -18q0 -7 -6 -13
q-8 -8 -20 -8q-8 0 -15 4l-130 64l-130 -64q-7 -4 -15 -4z" />
    <glyph glyph-name="Idieresis" unicode="&#xcf;" horiz-adv-x="364" 
d="M46.5 3.5q-4.5 6.5 -4.5 15.5q1 15 6.5 18t18.5 3q29 0 43 10.5t18 25.5t5 41v397q-1 26 -5 41t-18 25.5t-43 10.5h-6q-9 0 -13.5 3.5t-5.5 17.5q0 9 4.5 15.5t13.5 6.5q65 -3 119 -3q60 0 125 3q9 0 13.5 -6.5t4.5 -15.5q-1 -15 -6.5 -18t-19.5 -3q-29 0 -43 -10.5
t-17.5 -26t-4.5 -40.5v-397q1 -25 4.5 -40.5t17.5 -26t43 -10.5h6q10 0 14.5 -3.5t5.5 -17.5q0 -9 -4.5 -15.5t-13.5 -6.5q-64 3 -124 3q-55 0 -120 -3q-9 0 -13.5 6.5zM42.5 729q-18.5 18 -18.5 42q0 26 18 43t45 17q26 0 43 -17t17 -43q0 -24 -17.5 -42t-43.5 -18
q-25 0 -43.5 18zM234.5 729q-18.5 18 -18.5 42q0 26 18 43t45 17q26 0 43 -17t17 -43q0 -24 -17.5 -42t-43.5 -18q-25 0 -43.5 18z" />
    <glyph glyph-name="Igrave" unicode="&#xcc;" horiz-adv-x="364" 
d="M46.5 3.5q-4.5 6.5 -4.5 15.5q1 15 6.5 18t18.5 3q29 0 43 10.5t18 25.5t5 41v397q-1 26 -5 41t-18 25.5t-43 10.5h-6q-9 0 -13.5 3.5t-5.5 17.5q0 9 4.5 15.5t13.5 6.5q65 -3 119 -3q60 0 125 3q9 0 13.5 -6.5t4.5 -15.5q-1 -15 -6.5 -18t-19.5 -3q-29 0 -43 -10.5
t-17.5 -26t-4.5 -40.5v-397q1 -25 4.5 -40.5t17.5 -26t43 -10.5h6q10 0 14.5 -3.5t5.5 -17.5q0 -9 -4.5 -15.5t-13.5 -6.5q-64 3 -124 3q-55 0 -120 -3q-9 0 -13.5 6.5zM61 750q-37 25 -37 46q0 12 10 23q11 14 26 14q10 0 21.5 -6t26.5 -18q32 -24 66.5 -59t39.5 -40t5 -12
q0 -9 -8 -17t-17 -8q-5 0 -9 3q-48 25 -124 74z" />
    <glyph glyph-name="J" unicode="J" horiz-adv-x="361" 
d="M35 -192q-14 0 -19 17q-1 3 -1 9q0 12 11 16q50 21 74 60t31 96.5t7 155.5v352q-1 25 -4.5 40.5t-17.5 26t-43 10.5h-6q-10 0 -14.5 3.5t-5.5 17.5q0 9 5 15.5t13 6.5q64 -3 119 -3q61 0 125 3q9 0 13.5 -6.5t4.5 -15.5q-1 -15 -6.5 -18t-19.5 -3q-29 0 -43 -10.5
t-17.5 -26t-4.5 -40.5v-386q0 -129 -45.5 -211.5t-151.5 -108.5h-4z" />
    <glyph glyph-name="K" unicode="K" horiz-adv-x="700" 
d="M47.5 3.5q-4.5 6.5 -4.5 15.5q1 15 6 18t19 3q29 0 43 10.5t17.5 26t4.5 40.5v397q-1 25 -4.5 40.5t-17.5 26t-43 10.5h-6q-10 0 -14 3.5t-5 17.5q0 9 4.5 15.5t13.5 6.5q65 -3 118 -3q60 0 125 3q9 0 13.5 -6.5t4.5 -15.5q-1 -15 -6 -18t-19 -3q-29 0 -43 -10.5
t-17.5 -26t-4.5 -40.5v-181q16 3 36 17t49 39q56 52 141 153q18 20 18 32q0 15 -27 16q-7 1 -9.5 5.5t-4.5 15.5q0 9 5 16t13 7q35 -3 110 -3q24 0 70 2l21 1q9 0 14 -6.5t5 -16.5q-1 -14 -6 -17.5t-14 -3.5q-40 2 -75.5 -13t-74.5 -54l-162 -169q35 -43 72 -82t89 -91
q26 -26 62 -64q11 -11 15 -16q32 -32 50.5 -45t45.5 -16q2 0 9 -0.5t11.5 -5.5t4.5 -15q0 -9 -4.5 -15.5t-13.5 -6.5q-12 1 -29 1q-36 2 -56 2h-64q-132 147 -236 267q-32 37 -65 40v-190q1 -25 4.5 -40.5t17.5 -26t43 -10.5h6q10 0 14 -3.5t5 -17.5q0 -9 -4.5 -15.5
t-13.5 -6.5q-64 3 -124 3q-54 0 -119 -3q-9 0 -13.5 6.5z" />
    <glyph glyph-name="L" unicode="L" horiz-adv-x="571" 
d="M47.5 3.5q-4.5 6.5 -4.5 15.5q1 15 6 18t19 3q29 0 43 10.5t17.5 26t4.5 40.5v397q-1 25 -4.5 40.5t-17.5 26t-43 10.5h-6q-10 0 -14 3.5t-5 17.5q0 9 4.5 15.5t12.5 6.5q66 -3 119 -3q60 0 125 3q9 0 13.5 -6.5t4.5 -15.5q-1 -15 -6.5 -18t-18.5 -3q-29 0 -43 -10.5
t-17.5 -26t-4.5 -40.5v-412q2 -21 5 -32.5t18 -21t47 -8.5h90q35 1 53 11.5t28.5 32.5t25.5 72q7 18 34 14q9 -2 17 -8t7 -15l-20 -126q-3 -13 -9 -17t-20 -4h-328q-54 0 -120 -3q-8 0 -12.5 6.5z" />
    <glyph glyph-name="M" unicode="M" horiz-adv-x="889" 
d="M407 5l-225 509h-3l2 -397q1 -27 4 -41.5t16.5 -25t42.5 -10.5h6q10 0 14.5 -3.5t5.5 -17.5q0 -9 -4.5 -15.5t-13.5 -6.5l-25 1q-46 2 -66 2q-34 0 -99 -3q-9 0 -13.5 6.5t-4.5 15.5q1 15 6 18t19 3q29 0 42.5 10.5t16.5 25t4 41.5l2 397q0 31 -7 46.5t-20.5 22
t-39.5 11.5q-4 1 -12 2.5t-10.5 6t-2.5 14.5q0 12 6.5 16t20.5 4q59 0 97 -7.5t66.5 -30.5t47.5 -68l172 -386h3l197 486h57q55 0 119 3q9 0 13.5 -6.5t4.5 -15.5q-1 -15 -6.5 -18t-18.5 -3q-29 0 -43 -10.5t-17.5 -26t-4.5 -40.5v-397q1 -25 4.5 -40.5t17.5 -26t43 -10.5h6
q9 0 13.5 -3.5t5.5 -17.5q0 -9 -4.5 -15.5t-13.5 -6.5q-64 3 -120 3q-58 0 -123 -3q-9 0 -13.5 6.5t-4.5 15.5q1 15 6 18t19 3q29 0 43 10.5t17.5 26t4.5 40.5v397h-3l-206 -509q-4 -10 -20 -10q-15 0 -21 10z" />
    <glyph glyph-name="N" unicode="N" horiz-adv-x="737" 
d="M48.5 3.5q-4.5 6.5 -4.5 15.5q1 15 6 18t19 3q29 0 42.5 10.5t16.5 25t4 41.5l2 397q0 30 -6.5 45.5t-20.5 22.5t-40 12q-17 3 -21 6t-4 17q0 12 6.5 16t20.5 4q62 0 98 -8.5t63.5 -30.5t60.5 -67l274 -360h3l-2 343q-1 27 -4 41.5t-16.5 25t-42.5 10.5h-6
q-10 0 -14.5 3.5t-5.5 17.5q0 9 5 15.5t13 6.5q64 -3 96 -3q19 0 73 2l21 1q9 0 13.5 -6.5t4.5 -15.5q-1 -15 -6 -18t-19 -3q-29 0 -42.5 -10.5t-16.5 -25t-4 -41.5l-2 -504q-1 -13 -25 -13q-19 0 -29 13l-377 504h-3l2 -397q1 -27 4 -41.5t16.5 -25t42.5 -10.5h6
q10 0 14.5 -3.5t5.5 -17.5q0 -9 -4.5 -15.5t-13.5 -6.5q-64 3 -97 3q-20 0 -70 -2l-23 -1q-9 0 -13.5 6.5z" />
    <glyph glyph-name="Ntilde" unicode="&#xd1;" horiz-adv-x="737" 
d="M48.5 3.5q-4.5 6.5 -4.5 15.5q1 15 6 18t19 3q29 0 42.5 10.5t16.5 25t4 41.5l2 397q0 30 -6.5 45.5t-20.5 22.5t-40 12q-17 3 -21 6t-4 17q0 12 6.5 16t20.5 4q62 0 98 -8.5t63.5 -30.5t60.5 -67l274 -360h3l-2 343q-1 27 -4 41.5t-16.5 25t-42.5 10.5h-6
q-10 0 -14.5 3.5t-5.5 17.5q0 9 5 15.5t13 6.5q64 -3 96 -3q19 0 73 2l21 1q9 0 13.5 -6.5t4.5 -15.5q-1 -15 -6 -18t-19 -3q-29 0 -42.5 -10.5t-16.5 -25t-4 -41.5l-2 -504q-1 -13 -25 -13q-19 0 -29 13l-377 504h-3l2 -397q1 -27 4 -41.5t16.5 -25t42.5 -10.5h6
q10 0 14.5 -3.5t5.5 -17.5q0 -9 -4.5 -15.5t-13.5 -6.5q-64 3 -97 3q-20 0 -70 -2l-23 -1q-9 0 -13.5 6.5zM396.5 703.5q-16.5 8.5 -36.5 24.5q-15 12 -25 18t-21 6q-14 0 -32.5 -10.5t-36.5 -31.5q-8 -8 -18 -8q-9 0 -15 7.5t-2 18.5q15 38 45.5 64.5t70.5 26.5
q22 -1 37.5 -9t37.5 -25q14 -12 24 -18t21 -6q14 0 33 10.5t37 31.5q8 8 16 8t13.5 -5t5.5 -13q0 -6 -3 -12q-16 -36 -45.5 -61.5t-67.5 -25.5q-22 1 -38.5 9.5z" />
    <glyph glyph-name="O" unicode="O" horiz-adv-x="735" 
d="M198.5 25.5q-72.5 45.5 -112 120.5t-39.5 161q0 105 47.5 183t121.5 119.5t150 41.5q96 0 169.5 -45.5t113 -120t39.5 -160.5q0 -105 -48 -183.5t-123 -120t-151 -41.5q-95 0 -167.5 45.5zM478.5 64.5q45.5 40.5 68 109t22.5 151.5q0 77 -23 141.5t-69 103t-112 38.5
q-100 0 -150.5 -84.5t-50.5 -213.5q0 -78 22.5 -143t67.5 -104t111 -39q68 0 113.5 40.5z" />
    <glyph glyph-name="Oacute" unicode="&#xd3;" horiz-adv-x="735" 
d="M198.5 25.5q-72.5 45.5 -112 120.5t-39.5 161q0 105 47.5 183t121.5 119.5t150 41.5q96 0 169.5 -45.5t113 -120t39.5 -160.5q0 -105 -48 -183.5t-123 -120t-151 -41.5q-95 0 -167.5 45.5zM478.5 64.5q45.5 40.5 68 109t22.5 151.5q0 77 -23 141.5t-69 103t-112 38.5
q-100 0 -150.5 -84.5t-50.5 -213.5q0 -78 22.5 -143t67.5 -104t111 -39q68 0 113.5 40.5zM358 690q-10 0 -17.5 7.5t-7.5 16.5q0 7 5 12t39.5 40t66.5 59q16 12 27 18t21 6q15 0 26 -14q10 -11 10 -23q0 -21 -37 -46q-76 -49 -124 -74q-3 -2 -9 -2z" />
    <glyph glyph-name="Ocircumflex" unicode="&#xd4;" horiz-adv-x="735" 
d="M198.5 25.5q-72.5 45.5 -112 120.5t-39.5 161q0 105 47.5 183t121.5 119.5t150 41.5q96 0 169.5 -45.5t113 -120t39.5 -160.5q0 -105 -48 -183.5t-123 -120t-151 -41.5q-95 0 -167.5 45.5zM478.5 64.5q45.5 40.5 68 109t22.5 151.5q0 77 -23 141.5t-69 103t-112 38.5
q-100 0 -150.5 -84.5t-50.5 -213.5q0 -78 22.5 -143t67.5 -104t111 -39q68 0 113.5 40.5zM223 686q-12 0 -20 8q-6 6 -6 14t10 17l132 104q14 11 29 11t29 -11l132 -104q10 -9 10 -18q0 -7 -6 -13q-8 -8 -20 -8q-8 0 -15 4l-130 64l-130 -64q-7 -4 -15 -4z" />
    <glyph glyph-name="Odieresis" unicode="&#xd6;" horiz-adv-x="735" 
d="M198.5 25.5q-72.5 45.5 -112 120.5t-39.5 161q0 105 47.5 183t121.5 119.5t150 41.5q96 0 169.5 -45.5t113 -120t39.5 -160.5q0 -105 -48 -183.5t-123 -120t-151 -41.5q-95 0 -167.5 45.5zM478.5 64.5q45.5 40.5 68 109t22.5 151.5q0 77 -23 141.5t-69 103t-112 38.5
q-100 0 -150.5 -84.5t-50.5 -213.5q0 -78 22.5 -143t67.5 -104t111 -39q68 0 113.5 40.5zM228.5 729q-18.5 18 -18.5 42q0 26 18 43t45 17q26 0 43 -17t17 -43q0 -24 -17.5 -42t-43.5 -18q-25 0 -43.5 18zM420.5 729q-18.5 18 -18.5 42q0 26 18 43t45 17q26 0 43 -17t17 -43
q0 -24 -17.5 -42t-43.5 -18q-25 0 -43.5 18z" />
    <glyph glyph-name="Ograve" unicode="&#xd2;" horiz-adv-x="735" 
d="M198.5 25.5q-72.5 45.5 -112 120.5t-39.5 161q0 105 47.5 183t121.5 119.5t150 41.5q96 0 169.5 -45.5t113 -120t39.5 -160.5q0 -105 -48 -183.5t-123 -120t-151 -41.5q-95 0 -167.5 45.5zM478.5 64.5q45.5 40.5 68 109t22.5 151.5q0 77 -23 141.5t-69 103t-112 38.5
q-100 0 -150.5 -84.5t-50.5 -213.5q0 -78 22.5 -143t67.5 -104t111 -39q68 0 113.5 40.5zM247 750q-37 25 -37 46q0 12 10 23q11 14 26 14q10 0 21.5 -6t26.5 -18q32 -24 66.5 -59t39.5 -40t5 -12q0 -9 -8 -17t-17 -8q-5 0 -9 3q-48 25 -124 74z" />
    <glyph glyph-name="Oslash" unicode="&#xd8;" horiz-adv-x="735" 
d="M157 56l-54 -61q-6 -6 -14 -6t-15 5q-6 4 -6 13q0 8 4 12l57 65q-40 45 -61 103t-21 120q0 105 47.5 183t121.5 119.5t150 41.5q118 0 204 -71l57 64q6 6 14 6t15 -5q6 -4 6 -13q0 -8 -4 -12l-59 -66q43 -46 66 -105.5t23 -123.5q0 -105 -48 -183.5t-123 -120t-151 -41.5
q-122 0 -209 76zM519 522q-55 86 -154 86q-100 0 -150.5 -84.5t-50.5 -213.5q0 -88 27 -157zM478.5 64.5q45.5 40.5 68 109t22.5 151.5q0 92 -31 160l-328 -370q26 -43 65 -67t90 -24q68 0 113.5 40.5z" />
    <glyph glyph-name="Otilde" unicode="&#xd5;" horiz-adv-x="735" 
d="M198.5 25.5q-72.5 45.5 -112 120.5t-39.5 161q0 105 47.5 183t121.5 119.5t150 41.5q96 0 169.5 -45.5t113 -120t39.5 -160.5q0 -105 -48 -183.5t-123 -120t-151 -41.5q-95 0 -167.5 45.5zM478.5 64.5q45.5 40.5 68 109t22.5 151.5q0 77 -23 141.5t-69 103t-112 38.5
q-100 0 -150.5 -84.5t-50.5 -213.5q0 -78 22.5 -143t67.5 -104t111 -39q68 0 113.5 40.5zM395.5 703.5q-16.5 8.5 -36.5 24.5q-15 12 -25 18t-21 6q-14 0 -32.5 -10.5t-36.5 -31.5q-8 -8 -18 -8q-9 0 -15 7.5t-2 18.5q15 38 45.5 64.5t70.5 26.5q22 -1 37.5 -9t37.5 -25
q14 -12 24 -18t21 -6q14 0 33 10.5t37 31.5q8 8 16 8t13.5 -5t5.5 -13q0 -6 -3 -12q-16 -36 -45.5 -61.5t-67.5 -25.5q-22 1 -38.5 9.5z" />
    <glyph glyph-name="OE" unicode="&#x152;" horiz-adv-x="1008" 
d="M216.5 39q-77.5 39 -122.5 111t-45 169q0 102 51 172.5t132.5 105t171.5 34.5h503q26 0 26 -24l3 -140q0 -9 -9 -14.5t-18 -5.5q-12 0 -21 4.5t-10 13.5q-8 49 -17.5 74.5t-28 38t-52.5 13.5h-134v-254h181q7 -1 11 -7.5t4 -15.5q0 -8 -4 -14t-11 -6h-181v-189
q2 -21 5 -33.5t18 -22.5t47 -9h92q35 1 53 11.5t28.5 32.5t25.5 72q7 18 34 14q10 -2 17.5 -8t6.5 -15l-20 -126q-3 -13 -9 -17t-20 -4h-535q-95 0 -172.5 39zM482 40q29 0 43 10.5t17.5 26t4.5 40.5v397q-1 25 -4.5 40.5t-17.5 26t-43 10.5h-79q-105 0 -170.5 -65.5
t-65.5 -207.5q0 -83 30.5 -146t85.5 -97.5t128 -34.5h71z" />
    <glyph glyph-name="P" unicode="P" horiz-adv-x="604" 
d="M47 3.5q-5 6.5 -5 15.5q1 15 6.5 18t19.5 3q29 0 43 10.5t17.5 26t4.5 40.5v397q-1 25 -4.5 40.5t-17.5 26t-43 10.5h-6q-10 0 -14.5 3.5t-5.5 17.5q0 9 5 15.5t13 6.5q65 -3 120 -3h150q87 0 168.5 -36t81.5 -144q0 -60 -36 -107t-93.5 -73t-119.5 -26q-57 0 -100 16
v-144q1 -25 4.5 -40.5t17.5 -26t43 -10.5h6q10 0 14.5 -3.5t5.5 -17.5q0 -9 -4.5 -15.5t-13.5 -6.5q-64 3 -125 3q-54 0 -119 -3q-8 0 -13 6.5zM376.5 304.5q38.5 14.5 65.5 50t27 93.5q0 88 -56 117t-119 29q-26 0 -39 -5.5t-18.5 -21.5t-5.5 -50v-216q24 -11 71 -11
q36 0 74.5 14.5z" />
    <glyph glyph-name="Thorn" unicode="&#xde;" horiz-adv-x="606" 
d="M46.5 3.5q-4.5 6.5 -4.5 15.5q1 15 6.5 18t18.5 3q29 0 43 10.5t18 25.5t5 41v397q-1 26 -5 41t-18 25.5t-43 10.5h-6q-9 0 -13.5 3.5t-5.5 17.5q0 9 4.5 15.5t13.5 6.5q65 -3 119 -3q60 0 125 3q9 0 13.5 -6.5t4.5 -15.5q-1 -15 -6.5 -18t-19.5 -3q-40 0 -52 -18
t-13 -51h100q90 -1 169.5 -41.5t79.5 -145.5q0 -61 -35.5 -106.5t-93.5 -69t-122 -24.5q-54 0 -98 17v-35q1 -25 4.5 -40.5t17.5 -26t43 -10.5h6q10 0 14.5 -3.5t5.5 -17.5q0 -9 -4.5 -15.5t-13.5 -6.5q-64 3 -124 3q-55 0 -120 -3q-9 0 -13.5 6.5zM416.5 215
q52.5 34 52.5 117q0 139 -166 144h-72v-285q22 -10 71 -10q62 0 114.5 34z" />
    <glyph glyph-name="Q" unicode="Q" horiz-adv-x="737" 
d="M623 -189q-32 11 -56 27.5t-62 46.5q-30 25 -53.5 42t-50.5 31q-32 16 -76 26q-105 24 -153 61q-59 46 -91.5 115t-32.5 147q0 105 47.5 183t121.5 119.5t150 41.5q96 0 170 -45.5t113.5 -120t39.5 -160.5q0 -112 -56.5 -195.5t-149.5 -120.5q-16 -7 -41 -8v-2
q27 -3 49 -14q39 -19 105 -67q49 -35 79 -51.5t59 -16.5q18 2 26.5 11.5t8.5 23.5q0 24 -18.5 44.5t-47.5 21.5q-3 16 12 31t45 15q13 0 29.5 -9t29 -27t12.5 -44q0 -30 -20.5 -56.5t-52 -43t-63.5 -17.5q-41 0 -73 11zM480 62.5q46 41.5 68.5 110.5t22.5 152
q0 77 -23 141.5t-69.5 103t-112.5 38.5q-100 0 -150 -84.5t-50 -213.5q0 -78 22.5 -144t67.5 -105.5t110 -39.5q68 0 114 41.5z" />
    <glyph glyph-name="R" unicode="R" horiz-adv-x="671" 
d="M47.5 3.5q-4.5 6.5 -4.5 15.5q1 15 6 18t19 3q29 0 43 10.5t17.5 26t4.5 40.5v396q-1 26 -4.5 41t-17.5 26t-43 11h-6q-10 0 -14 3.5t-5 17.5q0 9 4.5 15.5t13.5 6.5q65 -3 119 -3h172q77 -1 128.5 -24.5t75.5 -60t24 -78.5q0 -55 -43.5 -101t-118.5 -66l17 -27
q42 -68 76 -116.5t74 -90.5q28 -23 60 -27q2 0 9 -0.5t11.5 -5.5t4.5 -15q0 -9 -4.5 -15.5t-13.5 -6.5l-26 1q-44 2 -64 2q-40 8 -68.5 28.5t-56.5 58.5q-29 38 -81 124l-18 29q-15 23 -29 31.5t-48 8.5h-29v-163q1 -25 4.5 -40.5t17.5 -26t43 -10.5h6q9 0 13.5 -3.5
t5.5 -17.5q0 -9 -4.5 -15.5t-13.5 -6.5q-64 3 -125 3q-53 0 -118 -3q-9 0 -13.5 6.5zM320 319q149 0 149 140q0 57 -39 96t-128 39q-29 0 -44 -7t-20.5 -24t-5.5 -52v-192h88z" />
    <glyph glyph-name="S" unicode="S" horiz-adv-x="545" 
d="M104.5 16.5q-55.5 36.5 -55.5 107.5q0 36 24.5 59.5t63.5 23.5q23 -1 35 -11.5t12 -19.5q0 -1 -10 -7t-18 -18t-8 -33q0 -47 28.5 -72.5t88.5 -25.5q41 0 72 16t47.5 42.5t16.5 55.5q0 36 -20.5 62t-50.5 43.5t-82 40.5q-60 27 -97 49t-63 58.5t-26 90.5q0 87 59.5 130
t156.5 43q76 0 132.5 -32t56.5 -94q0 -36 -24.5 -59.5t-63.5 -23.5q-23 1 -35 11.5t-12 19.5q0 1 13.5 7t24 18t10.5 33q0 37 -28.5 58t-72.5 21q-61 0 -92.5 -28.5t-31.5 -70.5q0 -35 19 -58.5t61 -46.5q34 -18 74 -36q64 -29 101.5 -53t63 -63t25.5 -97q0 -50 -31.5 -90.5
t-85 -63.5t-117.5 -23q-105 0 -160.5 36.5z" />
    <glyph glyph-name="T" unicode="T" horiz-adv-x="600" 
d="M165.5 3.5q-4.5 6.5 -4.5 15.5q1 15 6 18t19 3q29 0 43 10.5t17.5 26t4.5 40.5v477h-69q-34 -1 -52.5 -14.5t-28 -40t-16.5 -75.5q-1 -8 -12 -13t-23 -5q-9 0 -16.5 5.5t-7.5 14.5l3 141q0 24 27 24h489q26 0 26 -24l4 -141q0 -9 -8 -14.5t-17 -5.5q-12 0 -22.5 5
t-11.5 13q-8 50 -17 76t-28 39.5t-53 14.5h-68v-477q1 -25 4.5 -40.5t17.5 -26t43 -10.5h6q9 0 13.5 -3.5t5.5 -17.5q0 -9 -4.5 -15.5t-13.5 -6.5q-64 3 -118 3q-60 0 -125 -3q-9 0 -13.5 6.5z" />
    <glyph glyph-name="U" unicode="U" horiz-adv-x="720" 
d="M227.5 7q-54.5 27 -82.5 71t-28 95v341q-1 25 -4.5 40.5t-17.5 26t-43 10.5h-6q-10 0 -14 3.5t-5 17.5q0 9 4.5 15.5t13.5 6.5q64 -3 118 -3q61 0 125 3q9 0 13.5 -6.5t4.5 -15.5q-1 -14 -5.5 -17.5t-14.5 -3.5q-32 0 -47 -10t-18.5 -25t-4.5 -42v-312q0 -69 32.5 -116
t126.5 -47q92 0 130.5 42.5t38.5 106.5v263q0 68 -5 96t-20 36t-52 8h-6q-9 0 -13.5 3.5t-5.5 17.5q0 9 4.5 15.5t13.5 6.5q65 -3 112 -3q48 0 112 3q9 0 13.5 -6.5t4.5 -15.5q-1 -14 -5.5 -17.5t-14.5 -3.5q-40 0 -55.5 -7t-21 -33.5t-5.5 -93.5v-279q0 -67 -37 -111.5
t-92.5 -65.5t-111.5 -21q-77 0 -131.5 27z" />
    <glyph glyph-name="Uacute" unicode="&#xda;" horiz-adv-x="720" 
d="M227.5 7q-54.5 27 -82.5 71t-28 95v341q-1 25 -4.5 40.5t-17.5 26t-43 10.5h-6q-10 0 -14 3.5t-5 17.5q0 9 4.5 15.5t13.5 6.5q64 -3 118 -3q61 0 125 3q9 0 13.5 -6.5t4.5 -15.5q-1 -14 -5.5 -17.5t-14.5 -3.5q-32 0 -47 -10t-18.5 -25t-4.5 -42v-312q0 -69 32.5 -116
t126.5 -47q92 0 130.5 42.5t38.5 106.5v263q0 68 -5 96t-20 36t-52 8h-6q-9 0 -13.5 3.5t-5.5 17.5q0 9 4.5 15.5t13.5 6.5q65 -3 112 -3q48 0 112 3q9 0 13.5 -6.5t4.5 -15.5q-1 -14 -5.5 -17.5t-14.5 -3.5q-40 0 -55.5 -7t-21 -33.5t-5.5 -93.5v-279q0 -67 -37 -111.5
t-92.5 -65.5t-111.5 -21q-77 0 -131.5 27zM369 709q-10 0 -17.5 7.5t-7.5 16.5q0 7 5 12t39.5 40t66.5 59q16 12 27 18t21 6q15 0 26 -14q10 -11 10 -23q0 -21 -37 -46q-76 -49 -124 -74q-3 -2 -9 -2z" />
    <glyph glyph-name="Ucircumflex" unicode="&#xdb;" horiz-adv-x="720" 
d="M227.5 7q-54.5 27 -82.5 71t-28 95v341q-1 25 -4.5 40.5t-17.5 26t-43 10.5h-6q-10 0 -14 3.5t-5 17.5q0 9 4.5 15.5t13.5 6.5q64 -3 118 -3q61 0 125 3q9 0 13.5 -6.5t4.5 -15.5q-1 -14 -5.5 -17.5t-14.5 -3.5q-32 0 -47 -10t-18.5 -25t-4.5 -42v-312q0 -69 32.5 -116
t126.5 -47q92 0 130.5 42.5t38.5 106.5v263q0 68 -5 96t-20 36t-52 8h-6q-9 0 -13.5 3.5t-5.5 17.5q0 9 4.5 15.5t13.5 6.5q65 -3 112 -3q48 0 112 3q9 0 13.5 -6.5t4.5 -15.5q-1 -14 -5.5 -17.5t-14.5 -3.5q-40 0 -55.5 -7t-21 -33.5t-5.5 -93.5v-279q0 -67 -37 -111.5
t-92.5 -65.5t-111.5 -21q-77 0 -131.5 27zM234 705q-12 0 -20 8q-6 6 -6 14t10 17l132 104q14 11 29 11t29 -11l132 -104q10 -9 10 -18q0 -7 -6 -13q-8 -8 -20 -8q-8 0 -15 4l-130 64l-130 -64q-7 -4 -15 -4z" />
    <glyph glyph-name="Udieresis" unicode="&#xdc;" horiz-adv-x="720" 
d="M227.5 7q-54.5 27 -82.5 71t-28 95v341q-1 25 -4.5 40.5t-17.5 26t-43 10.5h-6q-10 0 -14 3.5t-5 17.5q0 9 4.5 15.5t13.5 6.5q64 -3 118 -3q61 0 125 3q9 0 13.5 -6.5t4.5 -15.5q-1 -14 -5.5 -17.5t-14.5 -3.5q-32 0 -47 -10t-18.5 -25t-4.5 -42v-312q0 -69 32.5 -116
t126.5 -47q92 0 130.5 42.5t38.5 106.5v263q0 68 -5 96t-20 36t-52 8h-6q-9 0 -13.5 3.5t-5.5 17.5q0 9 4.5 15.5t13.5 6.5q65 -3 112 -3q48 0 112 3q9 0 13.5 -6.5t4.5 -15.5q-1 -14 -5.5 -17.5t-14.5 -3.5q-40 0 -55.5 -7t-21 -33.5t-5.5 -93.5v-279q0 -67 -37 -111.5
t-92.5 -65.5t-111.5 -21q-77 0 -131.5 27zM239.5 748q-18.5 18 -18.5 42q0 26 18 43t45 17q26 0 43 -17t17 -43q0 -24 -17.5 -42t-43.5 -18q-25 0 -43.5 18zM431.5 748q-18.5 18 -18.5 42q0 26 18 43t45 17q26 0 43 -17t17 -43q0 -24 -17.5 -42t-43.5 -18q-25 0 -43.5 18z
" />
    <glyph glyph-name="Ugrave" unicode="&#xd9;" horiz-adv-x="720" 
d="M227.5 7q-54.5 27 -82.5 71t-28 95v341q-1 25 -4.5 40.5t-17.5 26t-43 10.5h-6q-10 0 -14 3.5t-5 17.5q0 9 4.5 15.5t13.5 6.5q64 -3 118 -3q61 0 125 3q9 0 13.5 -6.5t4.5 -15.5q-1 -14 -5.5 -17.5t-14.5 -3.5q-32 0 -47 -10t-18.5 -25t-4.5 -42v-312q0 -69 32.5 -116
t126.5 -47q92 0 130.5 42.5t38.5 106.5v263q0 68 -5 96t-20 36t-52 8h-6q-9 0 -13.5 3.5t-5.5 17.5q0 9 4.5 15.5t13.5 6.5q65 -3 112 -3q48 0 112 3q9 0 13.5 -6.5t4.5 -15.5q-1 -14 -5.5 -17.5t-14.5 -3.5q-40 0 -55.5 -7t-21 -33.5t-5.5 -93.5v-279q0 -67 -37 -111.5
t-92.5 -65.5t-111.5 -21q-77 0 -131.5 27zM258 769q-37 25 -37 46q0 12 10 23q11 14 26 14q10 0 21.5 -6t26.5 -18q32 -24 66.5 -59t39.5 -40t5 -12q0 -9 -8 -17t-17 -8q-5 0 -9 3q-48 25 -124 74z" />
    <glyph glyph-name="V" unicode="V" horiz-adv-x="648" 
d="M209 251q-65 179 -95 259q-17 43 -33 60t-47 23q-4 1 -12 2.5t-10.5 6t-2.5 14.5q0 12 6.5 16t20.5 4q75 0 114 -23t62 -82l145 -390h3l138 401q6 17 6 26q0 14 -11.5 18.5t-38.5 4.5h-6q-10 0 -14 3.5t-5 17.5q0 9 4.5 15.5t12.5 6.5q65 -3 109 -3q19 0 73 2l21 1
q9 0 13.5 -6.5t4.5 -15.5q-1 -14 -5 -17.5t-14 -3.5q-43 0 -65.5 -14t-38.5 -54q-30 -82 -96.5 -265.5t-96.5 -267.5h-47q-30 82 -95 261z" />
    <glyph glyph-name="W" unicode="W" horiz-adv-x="934" 
d="M113 510q-17 43 -33 60t-47 23q-4 1 -12 2.5t-10.5 6t-2.5 14.5q0 12 6.5 16t20.5 4q75 0 114 -23t62 -82l114 -366h4l122 466h52l163 -466h3l113 377q4 15 4 26q0 14 -10 18.5t-38 4.5h-6q-10 0 -14 3.5t-5 17.5q0 9 4.5 15.5t12.5 6.5q65 -3 109 -3q19 0 73 2l21 1
q9 0 13.5 -6.5t4.5 -15.5q-1 -14 -5 -17.5t-14 -3.5q-44 0 -68.5 -14.5t-35.5 -53.5l-164 -533h-47l-162 477l-129 -477h-47z" />
    <glyph glyph-name="X" unicode="X" horiz-adv-x="653" 
d="M11.5 3.5q-4.5 6.5 -4.5 15.5q1 14 5 17.5t14 3.5q41 0 61.5 13t49.5 55l145 206l-128 201q-24 37 -47 54t-56 24q-4 1 -12 2.5t-10.5 6t-2.5 14.5q0 14 7.5 17t18.5 3h14q70 0 111.5 -23t81.5 -81l82 -134l99 144q12 20 12 29q0 12 -14 16t-42 4h-6q-10 0 -14 3.5
t-5 17.5q0 9 4.5 15.5t12.5 6.5q64 -3 109 -3q37 0 101 3q9 0 13.5 -6.5t4.5 -15.5q-1 -14 -5 -17.5t-14 -3.5q-41 0 -61.5 -13t-49.5 -55l-117 -166l174 -248q22 -33 42 -51t49 -18h6q10 0 14 -3.5t5 -17.5q0 -9 -4.5 -15.5t-12.5 -6.5q-64 3 -120 3q-57 0 -122 -3
q-9 0 -13.5 6.5t-4.5 15.5q1 15 6.5 18t18.5 3q20 0 30.5 7t10.5 19q0 11 -9 23l-128 183l-128 -183q-12 -16 -12 -29q0 -12 14 -16t42 -4h6q10 0 14 -3.5t5 -17.5q0 -9 -4.5 -15.5t-12.5 -6.5q-64 3 -109 3q-36 0 -101 -3q-9 0 -13.5 6.5z" />
    <glyph glyph-name="Y" unicode="Y" horiz-adv-x="621" 
d="M176.5 3.5q-4.5 6.5 -4.5 15.5q1 15 6.5 18t18.5 3q29 0 43 10.5t17.5 26t4.5 40.5v125q0 16 -49.5 116.5t-80.5 156.5q-20 36 -44 53.5t-59 24.5q-4 1 -12 2.5t-10.5 6t-2.5 14.5q0 12 6.5 16t20.5 4q80 0 125 -21.5t80 -82.5q17 -33 47 -95q44 -88 58 -114h3l111 219
q9 20 9 29q0 12 -12.5 16t-40.5 4h-6q-10 0 -14 3.5t-5 17.5q0 9 4.5 15.5t12.5 6.5q65 -3 109 -3q37 0 101 3q9 0 13.5 -6.5t4.5 -15.5q-1 -14 -5 -17.5t-14 -3.5q-41 0 -66 -15.5t-45 -52.5l-113 -213q-3 -6 -12 -24.5t-12 -34t-3 -37.5v-97q1 -25 4.5 -40.5t17.5 -26
t43 -10.5h6q10 0 14 -3.5t5 -17.5q0 -9 -4.5 -15.5t-12.5 -6.5q-64 3 -120 3q-59 0 -124 -3q-9 0 -13.5 6.5z" />
    <glyph glyph-name="Yacute" unicode="&#xdd;" horiz-adv-x="621" 
d="M176.5 3.5q-4.5 6.5 -4.5 15.5q1 15 6.5 18t18.5 3q29 0 43 10.5t17.5 26t4.5 40.5v125q0 16 -49.5 116.5t-80.5 156.5q-20 36 -44 53.5t-59 24.5q-4 1 -12 2.5t-10.5 6t-2.5 14.5q0 12 6.5 16t20.5 4q80 0 125 -21.5t80 -82.5q17 -33 47 -95q44 -88 58 -114h3l111 219
q9 20 9 29q0 12 -12.5 16t-40.5 4h-6q-10 0 -14 3.5t-5 17.5q0 9 4.5 15.5t12.5 6.5q65 -3 109 -3q37 0 101 3q9 0 13.5 -6.5t4.5 -15.5q-1 -14 -5 -17.5t-14 -3.5q-41 0 -66 -15.5t-45 -52.5l-113 -213q-3 -6 -12 -24.5t-12 -34t-3 -37.5v-97q1 -25 4.5 -40.5t17.5 -26
t43 -10.5h6q10 0 14 -3.5t5 -17.5q0 -9 -4.5 -15.5t-12.5 -6.5q-64 3 -120 3q-59 0 -124 -3q-9 0 -13.5 6.5zM295 709q-10 0 -17.5 7.5t-7.5 16.5q0 7 5 12t39.5 40t66.5 59q16 12 27 18t21 6q15 0 26 -14q10 -11 10 -23q0 -21 -37 -46q-76 -49 -124 -74q-3 -2 -9 -2z" />
    <glyph glyph-name="Z" unicode="Z" horiz-adv-x="621" 
d="M39 3.5q-5 6.5 -5 15.5q1 14 5.5 17.5t14.5 3.5q21 0 32 3.5t21.5 16t26.5 40.5l224 415q19 39 19 55q0 14 -12.5 17.5t-45.5 3.5h-109q-34 -1 -52 -11.5t-29 -32.5t-26 -72q-3 -9 -12 -12.5t-21 -1.5q-9 2 -15.5 8t-5.5 15l20 126q3 13 9 17t20 4h343q58 0 123 3
q9 0 13.5 -6.5t4.5 -15.5q-1 -14 -5 -17t-10.5 -3.5t-9.5 -0.5q-33 -2 -52 -22t-37 -54l-219 -415q-9 -20 -9 -30q0 -29 54 -30h118q35 1 53 11.5t29 32.5t26 72q5 18 33 14q9 -2 15.5 -8t5.5 -15l-20 -126q-3 -13 -9 -17t-20 -4h-353q-55 0 -120 -3q-8 0 -13 6.5z" />
    <glyph glyph-name="a" unicode="a" horiz-adv-x="501" 
d="M71 22q-37 34 -37 85q0 63 42 94.5t100 41t150 14.5v79q0 49 -24.5 74.5t-78.5 25.5q-31 0 -54 -19t-23 -51q0 -16 7.5 -26.5t16 -17.5t8.5 -8q0 -6 -12.5 -15.5t-30.5 -9.5q-30 0 -47.5 22t-17.5 52q0 52 46.5 77t112.5 25q82 0 133.5 -31t51.5 -115v-233q1 -21 13 -40
t39 -19q8 0 11.5 -3t3.5 -13q0 -12 -18.5 -17.5t-36.5 -5.5q-38 0 -67 22t-33 59q-21 -39 -64.5 -60t-93.5 -21q-60 0 -97 34zM263 59q29 17 46 46.5t17 65.5v57q-105 -8 -148 -34t-43 -84q0 -68 65 -68q34 0 63 17z" />
    <glyph glyph-name="aacute" unicode="&#xe1;" horiz-adv-x="501" 
d="M71 22q-37 34 -37 85q0 63 42 94.5t100 41t150 14.5v79q0 49 -24.5 74.5t-78.5 25.5q-31 0 -54 -19t-23 -51q0 -16 7.5 -26.5t16 -17.5t8.5 -8q0 -6 -12.5 -15.5t-30.5 -9.5q-30 0 -47.5 22t-17.5 52q0 52 46.5 77t112.5 25q82 0 133.5 -31t51.5 -115v-233q1 -21 13 -40
t39 -19q8 0 11.5 -3t3.5 -13q0 -12 -18.5 -17.5t-36.5 -5.5q-38 0 -67 22t-33 59q-21 -39 -64.5 -60t-93.5 -21q-60 0 -97 34zM263 59q29 17 46 46.5t17 65.5v57q-105 -8 -148 -34t-43 -84q0 -68 65 -68q34 0 63 17zM195 543.5q-3 5.5 -3 12.5q0 6 4 13l75 137q11 23 36 23
q7 0 19 -5q11 -6 18 -16t7 -21q0 -12 -9 -23l-102 -119q-11 -12 -24 -12q-7 0 -13 3q-5 2 -8 7.5z" />
    <glyph glyph-name="acircumflex" unicode="&#xe2;" horiz-adv-x="501" 
d="M71 22q-37 34 -37 85q0 63 42 94.5t100 41t150 14.5v79q0 49 -24.5 74.5t-78.5 25.5q-31 0 -54 -19t-23 -51q0 -16 7.5 -26.5t16 -17.5t8.5 -8q0 -6 -12.5 -15.5t-30.5 -9.5q-30 0 -47.5 22t-17.5 52q0 52 46.5 77t112.5 25q82 0 133.5 -31t51.5 -115v-233q1 -21 13 -40
t39 -19q8 0 11.5 -3t3.5 -13q0 -12 -18.5 -17.5t-36.5 -5.5q-38 0 -67 22t-33 59q-21 -39 -64.5 -60t-93.5 -21q-60 0 -97 34zM263 59q29 17 46 46.5t17 65.5v57q-105 -8 -148 -34t-43 -84q0 -68 65 -68q34 0 63 17zM95 543q0 6 4 13l102 148q9 13 24 13q17 0 26 -13
l102 -148q4 -7 4 -13q0 -11 -10 -17q-5 -3 -11 -3q-9 0 -23 10q-27 21 -87 98q-60 -77 -87 -98q-14 -10 -23 -10q-7 0 -11 3q-10 6 -10 17z" />
    <glyph glyph-name="adieresis" unicode="&#xe4;" horiz-adv-x="501" 
d="M71 22q-37 34 -37 85q0 63 42 94.5t100 41t150 14.5v79q0 49 -24.5 74.5t-78.5 25.5q-31 0 -54 -19t-23 -51q0 -16 7.5 -26.5t16 -17.5t8.5 -8q0 -6 -12.5 -15.5t-30.5 -9.5q-30 0 -47.5 22t-17.5 52q0 52 46.5 77t112.5 25q82 0 133.5 -31t51.5 -115v-233q1 -21 13 -40
t39 -19q8 0 11.5 -3t3.5 -13q0 -12 -18.5 -17.5t-36.5 -5.5q-38 0 -67 22t-33 59q-21 -39 -64.5 -60t-93.5 -21q-60 0 -97 34zM263 59q29 17 46 46.5t17 65.5v57q-105 -8 -148 -34t-43 -84q0 -68 65 -68q34 0 63 17zM101.5 572q-18.5 18 -18.5 42q0 26 18 43t45 17
q26 0 43 -17t17 -43q0 -24 -17.5 -42t-43.5 -18q-25 0 -43.5 18zM274.5 572q-18.5 18 -18.5 42q0 26 18 43t45 17q26 0 43 -17t17 -43q0 -24 -17.5 -42t-43.5 -18q-25 0 -43.5 18z" />
    <glyph glyph-name="agrave" unicode="&#xe0;" horiz-adv-x="501" 
d="M71 22q-37 34 -37 85q0 63 42 94.5t100 41t150 14.5v79q0 49 -24.5 74.5t-78.5 25.5q-31 0 -54 -19t-23 -51q0 -16 7.5 -26.5t16 -17.5t8.5 -8q0 -6 -12.5 -15.5t-30.5 -9.5q-30 0 -47.5 22t-17.5 52q0 52 46.5 77t112.5 25q82 0 133.5 -31t51.5 -115v-233q1 -21 13 -40
t39 -19q8 0 11.5 -3t3.5 -13q0 -12 -18.5 -17.5t-36.5 -5.5q-38 0 -67 22t-33 59q-21 -39 -64.5 -60t-93.5 -21q-60 0 -97 34zM263 59q29 17 46 46.5t17 65.5v57q-105 -8 -148 -34t-43 -84q0 -68 65 -68q34 0 63 17zM247 513q-14 0 -25 12l-102 119q-9 11 -9 23q0 11 7 21
t18 16q12 5 19 5q24 0 36 -23l75 -137q4 -7 4 -13q0 -7 -3 -12.5t-8 -7.5q-5 -3 -12 -3z" />
    <glyph glyph-name="aring" unicode="&#xe5;" horiz-adv-x="501" 
d="M71 22q-37 34 -37 85q0 63 42 94.5t100 41t150 14.5v79q0 49 -24.5 74.5t-78.5 25.5q-31 0 -54 -19t-23 -51q0 -16 7.5 -26.5t16 -17.5t8.5 -8q0 -6 -12.5 -15.5t-30.5 -9.5q-30 0 -47.5 22t-17.5 52q0 52 46.5 77t112.5 25q82 0 133.5 -31t51.5 -115v-233q1 -21 13 -40
t39 -19q8 0 11.5 -3t3.5 -13q0 -12 -18.5 -17.5t-36.5 -5.5q-38 0 -67 22t-33 59q-21 -39 -64.5 -60t-93.5 -21q-60 0 -97 34zM263 59q29 17 46 46.5t17 65.5v57q-105 -8 -148 -34t-43 -84q0 -68 65 -68q34 0 63 17zM152 558q-30 26 -30 69q0 48 27.5 73t82.5 25
q52 0 80 -26t28 -72q0 -44 -29.5 -69.5t-78.5 -25.5q-50 0 -80 26zM265.5 584q9.5 15 9.5 43q0 31 -10 47t-33 16q-22 0 -33.5 -17.5t-11.5 -45.5q0 -58 45 -58q24 0 33.5 15z" />
    <glyph glyph-name="atilde" unicode="&#xe3;" horiz-adv-x="501" 
d="M71 22q-37 34 -37 85q0 63 42 94.5t100 41t150 14.5v79q0 49 -24.5 74.5t-78.5 25.5q-31 0 -54 -19t-23 -51q0 -16 7.5 -26.5t16 -17.5t8.5 -8q0 -6 -12.5 -15.5t-30.5 -9.5q-30 0 -47.5 22t-17.5 52q0 52 46.5 77t112.5 25q82 0 133.5 -31t51.5 -115v-233q1 -21 13 -40
t39 -19q8 0 11.5 -3t3.5 -13q0 -12 -18.5 -17.5t-36.5 -5.5q-38 0 -67 22t-33 59q-21 -39 -64.5 -60t-93.5 -21q-60 0 -97 34zM263 59q29 17 46 46.5t17 65.5v57q-105 -8 -148 -34t-43 -84q0 -68 65 -68q34 0 63 17zM240 570q-15 8 -36 25q-26 24 -43 24q-13 0 -30.5 -10.5
t-35.5 -31.5q-6 -8 -17 -8q-7 0 -12 5t-5 13q0 5 1 8q14 38 43 64.5t67 26.5q21 -1 36 -9t36 -25q26 -24 43 -24q13 0 31 11t35 31q8 8 16 8q7 0 12.5 -5.5t5.5 -13.5q0 -5 -3 -11q-15 -37 -43 -62t-65 -25q-21 1 -36 9z" />
    <glyph glyph-name="ae" unicode="&#xe6;" horiz-adv-x="773" 
d="M70.5 23q-36.5 35 -36.5 84q0 58 44.5 90t99.5 42.5t121 15.5l27 2v79q0 49 -24.5 74.5t-78.5 25.5q-31 0 -54 -19t-23 -51q0 -16 7.5 -26.5t16 -17.5t8.5 -8q0 -6 -12.5 -15.5t-30.5 -9.5q-30 0 -47.5 22t-17.5 52q0 52 46.5 77t112.5 25q117 0 159 -57q29 27 66.5 42
t80.5 15q89 0 137 -45.5t55 -122.5q0 -33 -18 -45t-52 -12h-243q0 -93 38.5 -147.5t119.5 -54.5q43 0 73 18.5t57 62.5q5 5 10 5q7 0 12 -4q10 -6 10 -18q0 -6 -2 -9q-31 -50 -78.5 -77.5t-107.5 -27.5q-72 0 -123.5 29.5t-79.5 81.5q-14 -26 -22 -38q-23 -34 -71.5 -53.5
t-91.5 -19.5q-51 0 -87.5 35zM577 278q51 0 54 42q0 46 -25 78t-71 32q-51 0 -84 -40.5t-37 -111.5h163zM263 59q29 17 46 46.5t17 65.5v56q-103 -14 -147 -36t-44 -71q0 -33 18 -55.5t47 -22.5q34 0 63 17z" />
    <glyph glyph-name="b" unicode="b" horiz-adv-x="561" 
d="M83 -8.5q-5 5.5 -5 14.5v584q0 26 -1.5 38t-12.5 21t-37 9q-12 0 -18 3.5t-6 16.5q0 6 4 11.5t12 6.5q63 9 108 26q14 5 23 6h3q16 0 16 -19v-302h3q29 29 65.5 43.5t72.5 14.5q59 0 107 -30t75.5 -83.5t27.5 -121.5q0 -67 -31.5 -122.5t-84.5 -87.5t-113 -32
q-89 0 -154 49h-5q-4 -8 -9 -22t-11 -21.5t-15 -7.5t-14 5.5zM380.5 77.5q37.5 55.5 37.5 148.5q0 78 -36 133.5t-107 55.5q-63 0 -106 -46v-264q3 -16 17.5 -35.5t39 -33.5t56.5 -14q61 0 98.5 55.5z" />
    <glyph glyph-name="c" unicode="c" horiz-adv-x="475" 
d="M99 53q-58 65 -58 174q2 68 33.5 121.5t84.5 84t117 32.5q64 0 110.5 -24t46.5 -80q0 -31 -18.5 -54.5t-49.5 -23.5q-19 0 -32.5 10t-13.5 17q0 1 9 9t16.5 19.5t7.5 26.5q0 31 -22.5 47t-54.5 16q-77 0 -104.5 -56.5t-27.5 -141.5q0 -84 38 -138t101 -54q43 0 73.5 18.5
t55.5 56.5q3 5 10 5q5 0 11 -3q5 -2 8 -7t3 -10q0 -3 -3 -8q-33 -47 -82 -74.5t-99 -27.5q-102 0 -160 65z" />
    <glyph glyph-name="ccedilla" unicode="&#xe7;" horiz-adv-x="475" 
d="M140.5 -201q-5.5 7 -5.5 17q0 13 5 17.5t15 4.5q55 0 83 6t28 30q0 15 -14 21t-43 9q-8 1 -12 5t-4 18v70q-72 19 -112 79.5t-40 150.5q2 68 33.5 121.5t84.5 84t117 32.5q49 0 95.5 -16t59.5 -67q2 -7 2 -21q0 -31 -18.5 -54.5t-49.5 -23.5q-19 0 -32.5 10t-13.5 17
q0 1 9 9t16.5 19.5t7.5 26.5q0 31 -22.5 47t-54.5 16q-77 0 -104.5 -56.5t-27.5 -141.5q0 -84 38 -138t101 -54q43 0 73.5 18.5t55.5 56.5q3 5 10 5q5 0 11 -3q5 -2 8 -7t3 -10q0 -3 -3 -8q-33 -47 -82 -74.5t-99 -27.5q-12 0 -17 1v-30q41 -1 69 -17.5t28 -52.5
q0 -50 -49 -73.5t-135 -23.5q-9 0 -14.5 7z" />
    <glyph glyph-name="d" unicode="d" horiz-adv-x="580" 
d="M147 18.5q-48 30.5 -77 85t-29 123.5q0 62 30 117t83 88t118 33q31 0 62 -7.5t54 -20.5h3v153q0 26 -1.5 38t-12.5 21t-37 9q-12 0 -18 3.5t-6 16.5q0 6 4 11.5t12 6.5q63 9 108 26q14 5 23 6h3q16 0 16 -19v-617q0 -59 78 -59q17 0 17 -16q0 -14 -17 -17l-159 -11
q-7 0 -8 4.5t-1 15.5v40h-3q-26 -27 -63.5 -44t-74.5 -17q-56 0 -104 30.5zM344.5 51.5q24.5 13.5 46.5 36.5v264q-9 29 -37.5 53t-71.5 24q-39 0 -70.5 -24.5t-49.5 -71.5t-18 -111q0 -77 36.5 -130.5t104.5 -53.5q35 0 59.5 13.5z" />
    <glyph glyph-name="eth" unicode="&#xf0;" horiz-adv-x="563" 
d="M151 19q-52 31 -80.5 83.5t-28.5 112.5q0 74 33 128.5t85 83t107 28.5q44 0 69.5 -12t59.5 -38l4 1q-6 54 -27 100t-54 93l-97 -57q-8 -3 -15.5 7t-7.5 20q0 9 6 12l90 51q-23 30 -64 59q-8 6 -10.5 12t-0.5 13q4 12 14 12l8 -2q20 -10 50.5 -31.5t47.5 -37.5l86 52
q8 4 16 -6.5t8 -20.5q0 -8 -5 -11l-76 -44q61 -64 97 -162.5t36 -206.5q0 -20 -1 -30q-3 -76 -37.5 -130t-86.5 -82t-106 -28q-68 0 -120 31zM370.5 81q31.5 56 31.5 147q0 85 -32 137.5t-99 52.5q-70 0 -100.5 -55t-30.5 -146q0 -85 31.5 -138.5t99.5 -53.5t99.5 56z" />
    <glyph glyph-name="e" unicode="e" horiz-adv-x="502" 
d="M147.5 20q-52.5 32 -79.5 87t-27 122q0 59 27.5 113.5t78.5 88.5t117 34q89 0 137 -45.5t55 -122.5q0 -33 -18 -45t-52 -12h-243q0 -93 38.5 -147.5t119.5 -54.5q43 0 73 18.5t57 62.5q5 5 10 5q7 0 12 -4q10 -6 10 -18q0 -6 -2 -9q-31 -50 -78.5 -77.5t-107.5 -27.5
q-75 0 -127.5 32zM306 278q51 0 54 42q0 46 -25 78t-71 32q-51 0 -84 -40.5t-37 -111.5h163z" />
    <glyph glyph-name="eacute" unicode="&#xe9;" horiz-adv-x="502" 
d="M147.5 20q-52.5 32 -79.5 87t-27 122q0 59 27.5 113.5t78.5 88.5t117 34q89 0 137 -45.5t55 -122.5q0 -33 -18 -45t-52 -12h-243q0 -93 38.5 -147.5t119.5 -54.5q43 0 73 18.5t57 62.5q5 5 10 5q7 0 12 -4q10 -6 10 -18q0 -6 -2 -9q-31 -50 -78.5 -77.5t-107.5 -27.5
q-75 0 -127.5 32zM306 278q51 0 54 42q0 46 -25 78t-71 32q-51 0 -84 -40.5t-37 -111.5h163zM215 543.5q-3 5.5 -3 12.5q0 6 4 13l75 137q11 23 36 23q7 0 19 -5q11 -6 18 -16t7 -21q0 -12 -9 -23l-102 -119q-11 -12 -24 -12q-7 0 -13 3q-5 2 -8 7.5z" />
    <glyph glyph-name="ecircumflex" unicode="&#xea;" horiz-adv-x="502" 
d="M147.5 20q-52.5 32 -79.5 87t-27 122q0 59 27.5 113.5t78.5 88.5t117 34q89 0 137 -45.5t55 -122.5q0 -33 -18 -45t-52 -12h-243q0 -93 38.5 -147.5t119.5 -54.5q43 0 73 18.5t57 62.5q5 5 10 5q7 0 12 -4q10 -6 10 -18q0 -6 -2 -9q-31 -50 -78.5 -77.5t-107.5 -27.5
q-75 0 -127.5 32zM306 278q51 0 54 42q0 46 -25 78t-71 32q-51 0 -84 -40.5t-37 -111.5h163zM115 543q0 6 4 13l102 148q9 13 24 13q17 0 26 -13l102 -148q4 -7 4 -13q0 -11 -10 -17q-5 -3 -11 -3q-9 0 -23 10q-27 21 -87 98q-60 -77 -87 -98q-14 -10 -23 -10q-7 0 -11 3
q-10 6 -10 17z" />
    <glyph glyph-name="edieresis" unicode="&#xeb;" horiz-adv-x="502" 
d="M147.5 20q-52.5 32 -79.5 87t-27 122q0 59 27.5 113.5t78.5 88.5t117 34q89 0 137 -45.5t55 -122.5q0 -33 -18 -45t-52 -12h-243q0 -93 38.5 -147.5t119.5 -54.5q43 0 73 18.5t57 62.5q5 5 10 5q7 0 12 -4q10 -6 10 -18q0 -6 -2 -9q-31 -50 -78.5 -77.5t-107.5 -27.5
q-75 0 -127.5 32zM306 278q51 0 54 42q0 46 -25 78t-71 32q-51 0 -84 -40.5t-37 -111.5h163zM121.5 572q-18.5 18 -18.5 42q0 26 18 43t45 17q26 0 43 -17t17 -43q0 -24 -17.5 -42t-43.5 -18q-25 0 -43.5 18zM294.5 572q-18.5 18 -18.5 42q0 26 18 43t45 17q26 0 43 -17
t17 -43q0 -24 -17.5 -42t-43.5 -18q-25 0 -43.5 18z" />
    <glyph glyph-name="egrave" unicode="&#xe8;" horiz-adv-x="502" 
d="M147.5 20q-52.5 32 -79.5 87t-27 122q0 59 27.5 113.5t78.5 88.5t117 34q89 0 137 -45.5t55 -122.5q0 -33 -18 -45t-52 -12h-243q0 -93 38.5 -147.5t119.5 -54.5q43 0 73 18.5t57 62.5q5 5 10 5q7 0 12 -4q10 -6 10 -18q0 -6 -2 -9q-31 -50 -78.5 -77.5t-107.5 -27.5
q-75 0 -127.5 32zM306 278q51 0 54 42q0 46 -25 78t-71 32q-51 0 -84 -40.5t-37 -111.5h163zM267 513q-14 0 -25 12l-102 119q-9 11 -9 23q0 11 7 21t18 16q12 5 19 5q24 0 36 -23l75 -137q4 -7 4 -13q0 -7 -3 -12.5t-8 -7.5q-5 -3 -12 -3z" />
    <glyph glyph-name="f" unicode="f" horiz-adv-x="343" 
d="M46 3q-4 6 -4 14q1 13 5.5 15.5t17.5 2.5q26 0 37 9t12.5 20.5t1.5 38.5v311h-67q-8 0 -12.5 6t-4.5 14q1 14 6 16.5t18 2.5h60v42q0 103 48.5 167.5t136.5 66.5q49 0 88 -27.5t39 -70.5q0 -30 -17.5 -52.5t-48.5 -22.5q-18 0 -31 10t-13 16q0 1 9.5 10t17 21.5t7.5 29.5
q0 22 -16.5 37.5t-41.5 15.5q-40 0 -59 -31t-23 -67.5t-4 -84.5v-60h98h6q9 0 13.5 -3.5t5.5 -15.5q0 -8 -5 -14t-12 -6h-106v-311q0 -31 5 -44.5t19 -18.5t47 -5h6q9 0 12.5 -3t4.5 -15q0 -8 -4 -14t-11 -6q-58 3 -125 3q-47 0 -104 -3q-8 0 -12 6z" />
    <glyph glyph-name="g" unicode="g" horiz-adv-x="523" 
d="M27 -98q0 34 21.5 59t55.5 25q14 0 26 -5.5t19.5 -13t7.5 -11.5q0 -1 -8.5 -9.5t-15 -21t-6.5 -29.5q0 -77 132 -77q76 0 117 26.5t41 78.5q0 32 -24 48t-60 20.5t-94 5.5q-71 2 -101 7q-39 7 -60.5 25t-21.5 56q0 39 27.5 65.5t78.5 26.5q-59 23 -83 57.5t-24 77.5
t24.5 78t68.5 55t100 20q72 0 111 -20l137 26h2q17 0 17 -24q0 -14 -4.5 -26t-10.5 -12l-99 4v-2q17 -17 29 -45t12 -53q0 -46 -26.5 -81.5t-69.5 -54.5t-90 -19h-44q-52 0 -75.5 -10t-23.5 -33q0 -19 13 -28t45 -11l137 -5q105 -4 151.5 -33.5t46.5 -89.5q0 -78 -73 -122.5
t-195 -44.5q-211 0 -211 120zM323.5 221.5q28.5 33.5 28.5 92.5q0 55 -29.5 88t-75.5 33q-45 0 -74 -32t-29 -87q0 -60 29 -94t75 -34q47 0 75.5 33.5z" />
    <glyph glyph-name="h" unicode="h" horiz-adv-x="589" 
d="M27 3q-4 6 -4 14q1 13 5.5 15.5t17.5 2.5q26 0 37 9t13 21t2 38v488q0 26 -1.5 38t-12.5 21t-37 9q-12 0 -18 3.5t-6 16.5q0 6 4 11.5t12 6.5q50 7 75.5 15.5t29.5 9.5q19 7 26 7q19 0 19 -19v-322h2q29 27 47 41.5t46.5 25t67.5 10.5q68 0 108 -41t40 -108v-213
q0 -26 1.5 -38t12.5 -21t37 -9h6q9 0 12.5 -3t4.5 -15q0 -8 -4 -14t-11 -6q-59 3 -105 3q-47 0 -104 -3q-8 0 -12 6t-4 14q1 13 5.5 15.5t17.5 2.5q26 0 37 9t12.5 20.5t1.5 38.5v212q0 46 -28.5 70.5t-66.5 24.5q-46 0 -79.5 -23t-44.5 -46v-238q0 -26 1.5 -38t12.5 -21
t37 -9h6q9 0 12.5 -3t4.5 -15q0 -8 -4 -14t-11 -6q-58 3 -105 3q-45 0 -104 -3q-8 0 -12 6z" />
    <glyph glyph-name="i" unicode="i" horiz-adv-x="296" 
d="M37.5 3q-4.5 6 -4.5 14q1 13 6 15.5t18 2.5q26 0 37 9t12.5 21t1.5 38v229q0 26 -1.5 38t-12.5 21t-37 9q-12 0 -18 3.5t-6 16.5q0 6 4 11.5t12 6.5q63 9 108 26q14 5 23 6h3q16 0 16 -19v-348q0 -26 2 -38t13 -21t37 -9h6q8 0 12 -3t5 -15q0 -8 -4 -14t-12 -6
q-58 3 -105 3q-45 0 -104 -3q-7 0 -11.5 6zM101 598.5q-19 17.5 -19 43.5q0 23 23 41t52 18q25 0 41 -17.5t16 -44.5q0 -24 -19 -41t-47 -17t-47 17.5z" />
    <glyph glyph-name="dotlessi" unicode="&#x131;" horiz-adv-x="296" 
d="M37.5 3q-4.5 6 -4.5 14q1 13 6 15.5t18 2.5q26 0 37 9t12.5 21t1.5 38v229q0 26 -1.5 38t-12.5 21t-37 9q-12 0 -18 3.5t-6 16.5q0 6 4 11.5t12 6.5q63 9 108 26q14 5 23 6h3q16 0 16 -19v-348q0 -26 2 -38t13 -21t37 -9h6q8 0 12 -3t5 -15q0 -8 -4 -14t-12 -6
q-58 3 -105 3q-45 0 -104 -3q-7 0 -11.5 6z" />
    <glyph glyph-name="iacute" unicode="&#xed;" horiz-adv-x="296" 
d="M37.5 3q-4.5 6 -4.5 14q1 13 6 15.5t18 2.5q26 0 37 9t12.5 21t1.5 38v229q0 26 -1.5 38t-12.5 21t-37 9q-12 0 -18 3.5t-6 16.5q0 6 4 11.5t12 6.5q63 9 108 26q14 5 23 6h3q16 0 16 -19v-348q0 -26 2 -38t13 -21t37 -9h6q8 0 12 -3t5 -15q0 -8 -4 -14t-12 -6
q-58 3 -105 3q-45 0 -104 -3q-7 0 -11.5 6zM112 536.5q-3 5.5 -3 12.5q0 6 4 13l75 137q11 23 36 23q7 0 19 -5q11 -6 18 -16t7 -21q0 -12 -9 -23l-102 -119q-11 -12 -24 -12q-7 0 -13 3q-5 2 -8 7.5z" />
    <glyph glyph-name="icircumflex" unicode="&#xee;" horiz-adv-x="296" 
d="M37.5 3q-4.5 6 -4.5 14q1 13 6 15.5t18 2.5q26 0 37 9t12.5 21t1.5 38v229q0 26 -1.5 38t-12.5 21t-37 9q-12 0 -18 3.5t-6 16.5q0 6 4 11.5t12 6.5q63 9 108 26q14 5 23 6h3q16 0 16 -19v-348q0 -26 2 -38t13 -21t37 -9h6q8 0 12 -3t5 -15q0 -8 -4 -14t-12 -6
q-58 3 -105 3q-45 0 -104 -3q-7 0 -11.5 6zM12 536q0 6 4 13l102 148q9 13 24 13q17 0 26 -13l102 -148q4 -7 4 -13q0 -11 -10 -17q-5 -3 -11 -3q-9 0 -23 10q-27 21 -87 98q-60 -77 -87 -98q-14 -10 -23 -10q-7 0 -11 3q-10 6 -10 17z" />
    <glyph glyph-name="idieresis" unicode="&#xef;" horiz-adv-x="296" 
d="M37.5 3q-4.5 6 -4.5 14q1 13 6 15.5t18 2.5q26 0 37 9t12.5 21t1.5 38v229q0 26 -1.5 38t-12.5 21t-37 9q-12 0 -18 3.5t-6 16.5q0 6 4 11.5t12 6.5q63 9 108 26q14 5 23 6h3q16 0 16 -19v-348q0 -26 2 -38t13 -21t37 -9h6q8 0 12 -3t5 -15q0 -8 -4 -14t-12 -6
q-58 3 -105 3q-45 0 -104 -3q-7 0 -11.5 6zM18.5 565q-18.5 18 -18.5 42q0 26 18 43t45 17q26 0 43 -17t17 -43q0 -24 -17.5 -42t-43.5 -18q-25 0 -43.5 18zM191.5 565q-18.5 18 -18.5 42q0 26 18 43t45 17q26 0 43 -17t17 -43q0 -24 -17.5 -42t-43.5 -18q-25 0 -43.5 18z
" />
    <glyph glyph-name="igrave" unicode="&#xec;" horiz-adv-x="296" 
d="M37.5 3q-4.5 6 -4.5 14q1 13 6 15.5t18 2.5q26 0 37 9t12.5 21t1.5 38v229q0 26 -1.5 38t-12.5 21t-37 9q-12 0 -18 3.5t-6 16.5q0 6 4 11.5t12 6.5q63 9 108 26q14 5 23 6h3q16 0 16 -19v-348q0 -26 2 -38t13 -21t37 -9h6q8 0 12 -3t5 -15q0 -8 -4 -14t-12 -6
q-58 3 -105 3q-45 0 -104 -3q-7 0 -11.5 6zM164 506q-14 0 -25 12l-102 119q-9 11 -9 23q0 11 7 21t18 16q12 5 19 5q24 0 36 -23l75 -137q4 -7 4 -13q0 -7 -3 -12.5t-8 -7.5q-5 -3 -12 -3z" />
    <glyph glyph-name="j" unicode="j" horiz-adv-x="300" 
d="M33 -205q-9 0 -15 14q-1 3 -1 10q0 10 9 14q47 20 69.5 57.5t29.5 92.5t7 148v201q0 26 -1.5 38t-12.5 21t-37 9q-12 0 -18 3.5t-6 16.5q0 6 4 11.5t12 6.5q63 9 108 26q14 5 23 6h3q16 0 16 -19v-352q0 -123 -42.5 -201.5t-142.5 -102.5h-5zM123 598.5
q-19 17.5 -19 43.5q0 23 23 41t52 18q25 0 41 -17.5t16 -44.5q0 -24 -19 -41t-47 -17t-47 17.5z" />
    <glyph glyph-name="uni0237" unicode="&#x237;" horiz-adv-x="300" 
d="M33 -205q-9 0 -15 14q-1 3 -1 10q0 10 9 14q47 20 69.5 57.5t29.5 92.5t7 148v201q0 26 -1.5 38t-12.5 21t-37 9q-12 0 -18 3.5t-6 16.5q0 6 4 11.5t12 6.5q63 9 108 26q14 5 23 6h3q16 0 16 -19v-352q0 -123 -42.5 -201.5t-142.5 -102.5h-5z" />
    <glyph glyph-name="k" unicode="k" horiz-adv-x="567" 
d="M27 3q-4 6 -4 14q1 13 5.5 15.5t17.5 2.5q26 0 37 9t13 21t2 38v487q0 26 -1.5 38t-12.5 21t-37 9q-12 0 -18 3.5t-6 16.5q0 6 4 11.5t12 6.5q63 9 108 26q14 5 23 6h3q16 0 16 -19v-457q44 9 72 37l84 86q2 3 12 13.5t10 17.5q0 15 -46 12q-11 2 -12 18q0 8 4.5 14
t11.5 6q45 -3 110 -3q14 0 44 2l23 1q7 0 11.5 -6t4.5 -14q-1 -12 -5 -15t-12 -3q-37 0 -61 -13t-56 -46l-84 -86q26 -35 110 -128q38 -42 39 -44q36 -38 53.5 -51t43.5 -15q2 0 8.5 -0.5t10 -4.5t3.5 -13q0 -20 -16 -20q-9 0 -30 1.5t-103 1.5q-30 31 -139 158
q-34 40 -32 38q-29 31 -59 28v-121q0 -26 1.5 -38t12.5 -21t37 -9h6q9 0 13 -3t5 -15q0 -8 -4.5 -14t-11.5 -6q-58 3 -105 3q-45 0 -104 -3q-8 0 -12 6z" />
    <glyph glyph-name="l" unicode="l" horiz-adv-x="286" 
d="M27.5 3q-4.5 6 -4.5 14q1 13 5.5 15.5t17.5 2.5q26 0 37 9t13 21t2 38v488q0 26 -1.5 38t-12.5 21t-37 9q-12 0 -18 3.5t-6 16.5q0 6 4 11.5t12 6.5q63 9 108 26q14 5 23 6h3q16 0 16 -19v-607q0 -26 2 -38t13 -21t37 -9h6q8 0 12 -3t5 -15q0 -8 -4 -14t-12 -6
q-58 3 -105 3q-45 0 -104 -3q-7 0 -11.5 6z" />
    <glyph glyph-name="m" unicode="m" horiz-adv-x="896" 
d="M38.5 3q-4.5 6 -4.5 14q1 13 5.5 15.5t17.5 2.5q26 0 37 9t13 21t2 38v229q0 26 -1.5 38t-12.5 21t-37 9q-12 0 -18 3.5t-6 16.5q0 6 4 11.5t12 6.5q65 10 107 26q17 5 23 6h3q16 0 16 -19v-63h3q6 6 30 29.5t54.5 35.5t69.5 12q48 0 83 -20.5t52 -56.5h2q39 37 74.5 57
t91.5 20q68 0 108 -41t40 -108v-213q0 -26 2 -38t13 -21t37 -9h6q8 0 12 -3t5 -15q0 -8 -4.5 -14t-11.5 -6q-58 3 -105 3q-45 0 -104 -3q-8 0 -12 6t-4 14q1 13 5.5 15.5t17.5 2.5q26 0 37 9t13 21t2 38v212q0 46 -29 70.5t-67 24.5q-46 0 -75 -22t-41 -47v-238
q0 -6 -0.5 -27t11 -31t37.5 -10h6q9 0 12.5 -3t4.5 -15q0 -8 -4 -14t-12 -6q-59 3 -102 3q-41 0 -100 -3q-8 0 -12 6t-4 14q1 13 5.5 15.5t17.5 2.5q33 0 41 13.5t7.5 31t-0.5 23.5v212q0 46 -28.5 70.5t-66.5 24.5q-46 0 -75 -22t-42 -47v-238q0 -26 2 -38t13 -21t37 -9h6
q8 0 12 -3t5 -15q0 -8 -4 -14t-12 -6q-58 3 -105 3q-45 0 -104 -3q-7 0 -11.5 6z" />
    <glyph glyph-name="n" unicode="n" horiz-adv-x="599" 
d="M37.5 3q-4.5 6 -4.5 14q1 13 6 15.5t18 2.5q26 0 37 9t12.5 21t1.5 38v229q0 26 -1.5 38t-12.5 21t-37 9q-12 0 -18 3.5t-6 16.5q0 6 4 11.5t12 6.5q65 10 107 26q17 5 23 6h3q16 0 16 -19v-63h3q29 27 47 41.5t46.5 25t67.5 10.5q68 0 108 -41t40 -108v-213q0 -26 2 -38
t13 -21t37 -9h6q8 0 12 -3t5 -15q0 -8 -4.5 -14t-11.5 -6q-58 3 -105 3q-45 0 -104 -3q-7 0 -11.5 6t-4.5 14q1 13 5.5 15.5t17.5 2.5q26 0 37 9t13 21t2 38v212q0 46 -29 70.5t-67 24.5q-46 0 -79 -22.5t-45 -46.5v-238q0 -26 2 -38t13 -21t37 -9h6q8 0 12 -3t5 -15
q0 -8 -4 -14t-12 -6q-58 3 -105 3q-45 0 -104 -3q-7 0 -11.5 6z" />
    <glyph glyph-name="ntilde" unicode="&#xf1;" horiz-adv-x="599" 
d="M37.5 3q-4.5 6 -4.5 14q1 13 6 15.5t18 2.5q26 0 37 9t12.5 21t1.5 38v229q0 26 -1.5 38t-12.5 21t-37 9q-12 0 -18 3.5t-6 16.5q0 6 4 11.5t12 6.5q65 10 107 26q17 5 23 6h3q16 0 16 -19v-63h3q29 27 47 41.5t46.5 25t67.5 10.5q68 0 108 -41t40 -108v-213q0 -26 2 -38
t13 -21t37 -9h6q8 0 12 -3t5 -15q0 -8 -4.5 -14t-11.5 -6q-58 3 -105 3q-45 0 -104 -3q-7 0 -11.5 6t-4.5 14q1 13 5.5 15.5t17.5 2.5q26 0 37 9t13 21t2 38v212q0 46 -29 70.5t-67 24.5q-46 0 -79 -22.5t-45 -46.5v-238q0 -26 2 -38t13 -21t37 -9h6q8 0 12 -3t5 -15
q0 -8 -4 -14t-12 -6q-58 3 -105 3q-45 0 -104 -3q-7 0 -11.5 6zM309 563q-15 8 -36 25q-26 24 -43 24q-13 0 -30.5 -10.5t-35.5 -31.5q-6 -8 -17 -8q-7 0 -12 5t-5 13q0 5 1 8q14 38 43 64.5t67 26.5q21 -1 36 -9t36 -25q26 -24 43 -24q13 0 31 11t35 31q8 8 16 8
q7 0 12.5 -5.5t5.5 -13.5q0 -5 -3 -11q-15 -37 -43 -62t-65 -25q-21 1 -36 9z" />
    <glyph glyph-name="o" unicode="o" horiz-adv-x="548" 
d="M153 20.5q-53 32.5 -82.5 86t-29.5 113.5q0 75 35 130.5t89 85t109 29.5q68 0 121 -32.5t82.5 -86t29.5 -113.5q0 -75 -35.5 -130.5t-89.5 -85t-108 -29.5q-68 0 -121 32.5zM373.5 83q31.5 58 31.5 150q0 86 -32.5 140.5t-98.5 54.5q-69 0 -100 -57t-31 -149
q0 -86 32 -141.5t99 -55.5q68 0 99.5 58z" />
    <glyph glyph-name="oacute" unicode="&#xf3;" horiz-adv-x="548" 
d="M153 20.5q-53 32.5 -82.5 86t-29.5 113.5q0 75 35 130.5t89 85t109 29.5q68 0 121 -32.5t82.5 -86t29.5 -113.5q0 -75 -35.5 -130.5t-89.5 -85t-108 -29.5q-68 0 -121 32.5zM373.5 83q31.5 58 31.5 150q0 86 -32.5 140.5t-98.5 54.5q-69 0 -100 -57t-31 -149
q0 -86 32 -141.5t99 -55.5q68 0 99.5 58zM238 543.5q-3 5.5 -3 12.5q0 6 4 13l75 137q11 23 36 23q7 0 19 -5q11 -6 18 -16t7 -21q0 -12 -9 -23l-102 -119q-11 -12 -24 -12q-7 0 -13 3q-5 2 -8 7.5z" />
    <glyph glyph-name="ocircumflex" unicode="&#xf4;" horiz-adv-x="548" 
d="M153 20.5q-53 32.5 -82.5 86t-29.5 113.5q0 75 35 130.5t89 85t109 29.5q68 0 121 -32.5t82.5 -86t29.5 -113.5q0 -75 -35.5 -130.5t-89.5 -85t-108 -29.5q-68 0 -121 32.5zM373.5 83q31.5 58 31.5 150q0 86 -32.5 140.5t-98.5 54.5q-69 0 -100 -57t-31 -149
q0 -86 32 -141.5t99 -55.5q68 0 99.5 58zM138 543q0 6 4 13l102 148q9 13 24 13q17 0 26 -13l102 -148q4 -7 4 -13q0 -11 -10 -17q-5 -3 -11 -3q-9 0 -23 10q-27 21 -87 98q-60 -77 -87 -98q-14 -10 -23 -10q-7 0 -11 3q-10 6 -10 17z" />
    <glyph glyph-name="odieresis" unicode="&#xf6;" horiz-adv-x="548" 
d="M153 20.5q-53 32.5 -82.5 86t-29.5 113.5q0 75 35 130.5t89 85t109 29.5q68 0 121 -32.5t82.5 -86t29.5 -113.5q0 -75 -35.5 -130.5t-89.5 -85t-108 -29.5q-68 0 -121 32.5zM373.5 83q31.5 58 31.5 150q0 86 -32.5 140.5t-98.5 54.5q-69 0 -100 -57t-31 -149
q0 -86 32 -141.5t99 -55.5q68 0 99.5 58zM144.5 572q-18.5 18 -18.5 42q0 26 18 43t45 17q26 0 43 -17t17 -43q0 -24 -17.5 -42t-43.5 -18q-25 0 -43.5 18zM317.5 572q-18.5 18 -18.5 42q0 26 18 43t45 17q26 0 43 -17t17 -43q0 -24 -17.5 -42t-43.5 -18q-25 0 -43.5 18z
" />
    <glyph glyph-name="ograve" unicode="&#xf2;" horiz-adv-x="548" 
d="M153 20.5q-53 32.5 -82.5 86t-29.5 113.5q0 75 35 130.5t89 85t109 29.5q68 0 121 -32.5t82.5 -86t29.5 -113.5q0 -75 -35.5 -130.5t-89.5 -85t-108 -29.5q-68 0 -121 32.5zM373.5 83q31.5 58 31.5 150q0 86 -32.5 140.5t-98.5 54.5q-69 0 -100 -57t-31 -149
q0 -86 32 -141.5t99 -55.5q68 0 99.5 58zM290 513q-14 0 -25 12l-102 119q-9 11 -9 23q0 11 7 21t18 16q12 5 19 5q24 0 36 -23l75 -137q4 -7 4 -13q0 -7 -3 -12.5t-8 -7.5q-5 -3 -12 -3z" />
    <glyph glyph-name="oslash" unicode="&#xf8;" horiz-adv-x="547" 
d="M132 34l-35 -39q-6 -6 -14 -6t-15 5q-6 4 -6 13q0 8 4 12l37 42q-30 32 -46 73.5t-16 85.5q0 75 35 130.5t89 85t109 29.5q83 0 144 -48l47 53q6 6 14 6t15 -5q6 -4 6 -13q0 -8 -4 -12l-50 -56q29 -32 45 -73t16 -84q0 -75 -35.5 -130.5t-89.5 -85t-108 -29.5
q-82 0 -142 46zM375 369q-34 59 -101 59q-69 0 -100 -57t-31 -149q0 -58 13 -101zM373.5 83q31.5 58 31.5 150q0 55 -13 95l-218 -246q34 -57 100 -57q68 0 99.5 58z" />
    <glyph glyph-name="otilde" unicode="&#xf5;" horiz-adv-x="548" 
d="M153 20.5q-53 32.5 -82.5 86t-29.5 113.5q0 75 35 130.5t89 85t109 29.5q68 0 121 -32.5t82.5 -86t29.5 -113.5q0 -75 -35.5 -130.5t-89.5 -85t-108 -29.5q-68 0 -121 32.5zM373.5 83q31.5 58 31.5 150q0 86 -32.5 140.5t-98.5 54.5q-69 0 -100 -57t-31 -149
q0 -86 32 -141.5t99 -55.5q68 0 99.5 58zM283 570q-15 8 -36 25q-26 24 -43 24q-13 0 -30.5 -10.5t-35.5 -31.5q-6 -8 -17 -8q-7 0 -12 5t-5 13q0 5 1 8q14 38 43 64.5t67 26.5q21 -1 36 -9t36 -25q26 -24 43 -24q13 0 31 11t35 31q8 8 16 8q7 0 12.5 -5.5t5.5 -13.5
q0 -5 -3 -11q-15 -37 -43 -62t-65 -25q-21 1 -36 9z" />
    <glyph glyph-name="oe" unicode="&#x153;" horiz-adv-x="866" 
d="M153 20.5q-53 32.5 -82.5 86t-29.5 113.5q0 75 35 130.5t89 85t109 29.5q57 0 103.5 -23t78.5 -63q31 40 75 63t97 23q89 0 137 -45.5t55 -122.5q0 -33 -18 -45t-52 -12h-243q0 -93 38.5 -147.5t119.5 -54.5q43 0 73 18.5t57 62.5q5 5 10 5q7 0 12 -4q10 -6 10 -18
q0 -6 -2 -9q-31 -50 -78.5 -77.5t-107.5 -27.5q-63 0 -110.5 23.5t-77.5 65.5q-32 -41 -77.5 -65t-99.5 -24q-68 0 -121 32.5zM670 278q51 0 54 42q0 46 -25 78t-71 32q-52 0 -86.5 -41t-38.5 -111h167zM373.5 83q31.5 58 31.5 150q0 86 -32.5 140.5t-98.5 54.5
q-69 0 -100 -57t-31 -149q0 -86 32 -141.5t99 -55.5q68 0 99.5 58z" />
    <glyph glyph-name="p" unicode="p" horiz-adv-x="584" 
d="M27.5 -202q-4.5 6 -4.5 14q1 13 5.5 15.5t17.5 2.5q25 0 36 9t13.5 22t2.5 37v434q0 26 -1.5 38t-12.5 21t-37 9q-12 0 -18 3.5t-6 16.5q0 6 4 11.5t12 6.5q65 10 107 26q17 5 23 6h3q16 0 16 -19v-48h3q29 27 68 44.5t74 17.5q60 0 107.5 -30t74.5 -84.5t27 -123.5
q0 -70 -32 -124.5t-85 -84.5t-112 -30q-41 0 -69 8.5t-51 22.5h-4v-121q0 -24 2.5 -37t13.5 -22t36 -9h6q8 0 12 -3t5 -15q0 -8 -4 -14t-12 -6q-58 3 -105 3q-45 0 -104 -3q-7 0 -11.5 6zM407.5 84q32.5 62 32.5 140t-36 134.5t-107 56.5q-35 0 -59.5 -13.5t-48.5 -38.5
v-268q12 -30 42.5 -51.5t73.5 -21.5q70 0 102.5 62z" />
    <glyph glyph-name="thorn" unicode="&#xfe;" horiz-adv-x="561" 
d="M7.5 -202q-4.5 6 -4.5 14q1 13 5.5 15.5t17.5 2.5q25 0 36 9t13.5 22t2.5 37v692q0 26 -1.5 38t-12.5 21t-37 9q-12 0 -18 3.5t-6 16.5q0 6 4 11.5t12 6.5q63 9 108 26q14 5 23 6h3q16 0 16 -19v-302h3q29 29 65.5 43.5t72.5 14.5q59 0 107 -30t75.5 -83.5t27.5 -121.5
q0 -67 -31.5 -122.5t-84.5 -87.5t-113 -32q-65 0 -118 31h-4v-121q0 -24 2.5 -37t13.5 -22t36 -9h6q8 0 12 -3t5 -15q0 -8 -4 -14t-12 -6q-59 3 -105 3q-45 0 -104 -3q-7 0 -11.5 6zM380.5 77.5q37.5 55.5 37.5 148.5q0 78 -36 133.5t-107 55.5q-63 0 -106 -46v-264
q3 -16 17.5 -35.5t39 -33.5t56.5 -14q61 0 98.5 55.5z" />
    <glyph glyph-name="q" unicode="q" horiz-adv-x="559" 
d="M320 -202q-4 6 -4 14q1 13 5.5 15.5t17.5 2.5q24 0 35 9t13.5 22t2.5 37v147h-3q-21 -23 -56 -40t-77 -17q-58 0 -107 30t-77.5 86t-28.5 128q0 64 32 117.5t85.5 84.5t113.5 31q44 0 73.5 -10.5t47 -21t23.5 -13.5h5q3 6 10 21.5t15 25t17 9.5t14 -5.5t5 -14.5v-558
q0 -24 2 -37t13 -22t36 -9h6q9 0 12.5 -3t4.5 -15q0 -8 -4 -14t-12 -6q-59 3 -105 3q-45 0 -104 -3q-7 0 -11 6zM344.5 49.5q24.5 12.5 45.5 34.5v271q-10 30 -38 52.5t-75 22.5q-38 0 -69 -25.5t-48.5 -72.5t-17.5 -110q0 -79 35.5 -132t109.5 -53q33 0 57.5 12.5z" />
    <glyph glyph-name="r" unicode="r" horiz-adv-x="425" 
d="M37.5 3q-4.5 6 -4.5 14q1 13 6 15.5t18 2.5q26 0 37 9t12.5 21t1.5 38v229q0 26 -1.5 38t-12.5 21t-37 9q-12 0 -18 3.5t-6 16.5q0 6 4 11.5t12 6.5q65 10 107 26q17 5 23 6h3q16 0 16 -19v-62h3q35 35 71 55.5t65 20.5q33 0 52.5 -24.5t19.5 -56.5q0 -28 -17 -50
t-47 -22q-14 0 -24.5 6t-11.5 10q1 2 10 12.5t9 24.5q0 18 -9.5 29t-25.5 11q-17 0 -43 -16.5t-51 -41.5v-244q0 -26 2 -38t13 -21t37 -9h6q8 0 12 -3t5 -15q0 -8 -4 -14t-12 -6q-58 3 -105 3q-45 0 -104 -3q-7 0 -11.5 6z" />
    <glyph glyph-name="s" unicode="s" horiz-adv-x="443" 
d="M88 16q-50 28 -50 79q0 29 17.5 47t45.5 18q16 0 28.5 -9t12.5 -14q0 -1 -11.5 -13t-11.5 -34q0 -30 27.5 -47.5t79.5 -17.5q47 0 73.5 20.5t26.5 57.5q0 25 -15 41t-37.5 25t-62.5 21q-49 14 -80 28t-53 42t-22 73q0 42 26 72t67.5 45t87.5 15q59 0 102.5 -25t43.5 -70
q0 -27 -16.5 -46t-43.5 -19q-16 0 -28.5 9t-12.5 14q0 1 8 8t14.5 16.5t6.5 22.5q-2 27 -27 42t-59 15q-38 0 -66.5 -17.5t-28.5 -48.5q0 -28 12 -44.5t36 -26.5t76 -27q53 -17 83 -31.5t47.5 -39t17.5 -64.5q0 -41 -24 -74.5t-66 -52t-94 -18.5q-80 0 -130 28z" />
    <glyph glyph-name="germandbls" unicode="&#xdf;" horiz-adv-x="604" 
d="M295.5 18.5q-29.5 24.5 -29.5 60.5q1 27 17 46.5t43 19.5q15 0 25.5 -8.5t10.5 -13.5q0 -1 -13 -13t-14 -33q0 -21 10 -32.5t24 -11.5q31 0 51.5 30t29.5 70t9 70q0 88 -32 142.5t-95 55.5h-29q-10 0 -15 5.5t-5 13.5q0 7 5 12.5t15 6.5h29q37 1 62 39t25 86
q0 52 -25.5 87t-78.5 36q-68 0 -97 -37t-29 -104v-443q0 -6 0.5 -29t10.5 -31.5t33 -7.5h5q8 0 12 -3t5 -15q0 -8 -4 -14t-12 -6q-57 3 -96 3q-47 0 -104 -3q-8 0 -12 6t-4 14q1 13 5.5 15.5t17.5 2.5q26 0 37 9t12.5 20.5t1.5 38.5v425q0 95 55 147.5t155 52.5
q60 2 107.5 -20t74.5 -59t27 -79q0 -43 -27 -81t-85 -64v-3q76 -15 117 -65.5t41 -128.5q0 -71 -25.5 -124.5t-69.5 -81.5t-97 -28q-45 0 -74.5 24.5z" />
    <glyph glyph-name="t" unicode="t" horiz-adv-x="379" 
d="M132 19q-35 36 -35 103v294l-58 -2q-6 0 -10 5.5t-4 12.5q0 9 3.5 15.5t10.5 7.5q35 7 54.5 22.5t28.5 34t22 56.5q5 13 22 13q7 0 14 -3.5t7 -10.5l-7 -114l117 7h2q13 0 13 -19q0 -11 -3.5 -20.5t-8.5 -9.5l-112 3v-304q0 -33 13.5 -55t44.5 -22t55 11q13 5 16 5
q7 0 11 -5.5t8 -14.5q1 -2 1 -5q0 -4 -6 -9q-29 -19 -54.5 -25.5t-60.5 -6.5q-49 0 -84 36z" />
    <glyph glyph-name="u" unicode="u" horiz-adv-x="596" 
d="M132 29q-40 41 -40 108v185q0 26 -1.5 38t-12.5 21t-37 9q-12 0 -18 3.5t-6 16.5q0 6 4 11.5t12 6.5q63 9 108 26q14 5 23 6h3q16 0 16 -19v-303q0 -46 29 -70.5t67 -24.5q47 0 80 23t44 46v210q0 26 -1.5 38t-12.5 21t-37 9q-12 0 -18 3.5t-6 16.5q0 6 4 11.5t12 6.5
q63 9 108 26q14 5 23 6h3q16 0 16 -19v-346q0 -59 79 -59q17 0 17 -19q0 -14 -17 -17l-161 -11q-7 0 -8 4.5t-1 15.5v56h-2q-29 -27 -47 -41.5t-46.5 -25t-67.5 -10.5q-68 0 -108 41z" />
    <glyph glyph-name="uacute" unicode="&#xfa;" horiz-adv-x="596" 
d="M132 29q-40 41 -40 108v185q0 26 -1.5 38t-12.5 21t-37 9q-12 0 -18 3.5t-6 16.5q0 6 4 11.5t12 6.5q63 9 108 26q14 5 23 6h3q16 0 16 -19v-303q0 -46 29 -70.5t67 -24.5q47 0 80 23t44 46v210q0 26 -1.5 38t-12.5 21t-37 9q-12 0 -18 3.5t-6 16.5q0 6 4 11.5t12 6.5
q63 9 108 26q14 5 23 6h3q16 0 16 -19v-346q0 -59 79 -59q17 0 17 -19q0 -14 -17 -17l-161 -11q-7 0 -8 4.5t-1 15.5v56h-2q-29 -27 -47 -41.5t-46.5 -25t-67.5 -10.5q-68 0 -108 41zM262 536.5q-3 5.5 -3 12.5q0 6 4 13l75 137q11 23 36 23q7 0 19 -5q11 -6 18 -16t7 -21
q0 -12 -9 -23l-102 -119q-11 -12 -24 -12q-7 0 -13 3q-5 2 -8 7.5z" />
    <glyph glyph-name="ucircumflex" unicode="&#xfb;" horiz-adv-x="596" 
d="M132 29q-40 41 -40 108v185q0 26 -1.5 38t-12.5 21t-37 9q-12 0 -18 3.5t-6 16.5q0 6 4 11.5t12 6.5q63 9 108 26q14 5 23 6h3q16 0 16 -19v-303q0 -46 29 -70.5t67 -24.5q47 0 80 23t44 46v210q0 26 -1.5 38t-12.5 21t-37 9q-12 0 -18 3.5t-6 16.5q0 6 4 11.5t12 6.5
q63 9 108 26q14 5 23 6h3q16 0 16 -19v-346q0 -59 79 -59q17 0 17 -19q0 -14 -17 -17l-161 -11q-7 0 -8 4.5t-1 15.5v56h-2q-29 -27 -47 -41.5t-46.5 -25t-67.5 -10.5q-68 0 -108 41zM162 536q0 6 4 13l102 148q9 13 24 13q17 0 26 -13l102 -148q4 -7 4 -13q0 -11 -10 -17
q-5 -3 -11 -3q-9 0 -23 10q-27 21 -87 98q-60 -77 -87 -98q-14 -10 -23 -10q-7 0 -11 3q-10 6 -10 17z" />
    <glyph glyph-name="udieresis" unicode="&#xfc;" horiz-adv-x="596" 
d="M132 29q-40 41 -40 108v185q0 26 -1.5 38t-12.5 21t-37 9q-12 0 -18 3.5t-6 16.5q0 6 4 11.5t12 6.5q63 9 108 26q14 5 23 6h3q16 0 16 -19v-303q0 -46 29 -70.5t67 -24.5q47 0 80 23t44 46v210q0 26 -1.5 38t-12.5 21t-37 9q-12 0 -18 3.5t-6 16.5q0 6 4 11.5t12 6.5
q63 9 108 26q14 5 23 6h3q16 0 16 -19v-346q0 -59 79 -59q17 0 17 -19q0 -14 -17 -17l-161 -11q-7 0 -8 4.5t-1 15.5v56h-2q-29 -27 -47 -41.5t-46.5 -25t-67.5 -10.5q-68 0 -108 41zM168.5 565q-18.5 18 -18.5 42q0 26 18 43t45 17q26 0 43 -17t17 -43q0 -24 -17.5 -42
t-43.5 -18q-25 0 -43.5 18zM341.5 565q-18.5 18 -18.5 42q0 26 18 43t45 17q26 0 43 -17t17 -43q0 -24 -17.5 -42t-43.5 -18q-25 0 -43.5 18z" />
    <glyph glyph-name="ugrave" unicode="&#xf9;" horiz-adv-x="596" 
d="M132 29q-40 41 -40 108v185q0 26 -1.5 38t-12.5 21t-37 9q-12 0 -18 3.5t-6 16.5q0 6 4 11.5t12 6.5q63 9 108 26q14 5 23 6h3q16 0 16 -19v-303q0 -46 29 -70.5t67 -24.5q47 0 80 23t44 46v210q0 26 -1.5 38t-12.5 21t-37 9q-12 0 -18 3.5t-6 16.5q0 6 4 11.5t12 6.5
q63 9 108 26q14 5 23 6h3q16 0 16 -19v-346q0 -59 79 -59q17 0 17 -19q0 -14 -17 -17l-161 -11q-7 0 -8 4.5t-1 15.5v56h-2q-29 -27 -47 -41.5t-46.5 -25t-67.5 -10.5q-68 0 -108 41zM314 506q-14 0 -25 12l-102 119q-9 11 -9 23q0 11 7 21t18 16q12 5 19 5q24 0 36 -23
l75 -137q4 -7 4 -13q0 -7 -3 -12.5t-8 -7.5q-5 -3 -12 -3z" />
    <glyph glyph-name="v" unicode="v" horiz-adv-x="551" 
d="M178 169q-4 10 -27.5 72t-44.5 104q-17 39 -32 53.5t-44 18.5q-3 1 -11 2t-10 5t-2 14q0 12 6.5 15t16 3.5t12.5 0.5q61 3 96 -17.5t58 -71.5q1 -2 39 -96q46 -117 66 -159h3l99 262q5 17 5 24q0 11 -10 15t-33 4h-6q-8 0 -11.5 3t-4.5 15q0 7 3.5 13.5t10.5 6.5
q57 -3 97 -3q16 0 62 2l21 1q7 0 11 -6.5t4 -13.5q-1 -12 -5 -15t-12 -3q-37 0 -57 -12t-34 -47q-23 -58 -86 -213t-65 -156h-42q-26 56 -73 179z" />
    <glyph glyph-name="w" unicode="w" horiz-adv-x="798" 
d="M107 345q-17 39 -32 53.5t-44 18.5q-3 1 -11 2t-10 5t-2 14q0 12 6.5 15t16 3.5t12.5 0.5q61 3 96 -17.5t58 -71.5l92 -259h3q31 96 97 344h48l137 -344h3q17 52 33 118.5t19 76.5l18 71q3 12 3 20q0 14 -9 18.5t-32 4.5h-6q-8 0 -11.5 3t-4.5 15q0 7 3.5 13.5t10.5 6.5
q57 -3 98 -3q25 0 84 3q7 0 11 -6.5t4 -13.5q-1 -12 -5 -15t-12 -3q-41 0 -61.5 -12.5t-29.5 -46.5l-111 -369h-59l-127 327l-99 -327h-59z" />
    <glyph glyph-name="x" unicode="x" horiz-adv-x="541" 
d="M21 3.5q-4 6.5 -4 13.5q1 12 5 15t12 3q22 0 36 6t24 16t32 37q25 28 101 122l-114 161q-13 17 -27.5 26.5t-35.5 13.5q-3 1 -11 2t-10 5t-2 14q0 12 6.5 15t16 3.5t12.5 0.5q102 5 148 -56l19 -28q26 -44 57 -85l67 87q17 23 17 32q0 6 -9 8t-33 3h-6q-8 0 -11.5 3
t-4.5 15q0 7 3.5 13.5t10.5 6.5q57 -3 84 -3q28 0 86 3q7 0 11 -6.5t4 -13.5q-1 -11 -5 -14t-9.5 -3.5t-7.5 -0.5q-29 -1 -43.5 -11.5t-43.5 -47.5q-10 -11 -32 -40q-39 -49 -52 -65q82 -106 122 -160q19 -27 38 -43t42 -16h6q8 0 12 -3t5 -15q0 -8 -4.5 -14t-11.5 -6
q-59 3 -96 3q-47 0 -106 -3q-7 0 -11.5 6t-4.5 14q1 13 5.5 15.5t17.5 2.5q21 0 21 14q0 10 -14 29l-78 104l-86 -104q-17 -22 -17 -30q0 -7 10 -10t32 -3h6q8 0 11.5 -3t4.5 -15q0 -7 -3.5 -13.5t-10.5 -6.5q-57 3 -84 3t-86 -3q-7 0 -11 6.5z" />
    <glyph glyph-name="y" unicode="y" horiz-adv-x="552" 
d="M19.5 -190.5q-33.5 27.5 -33.5 65.5q0 45 25 57.5t39 12.5q17 0 28 -7t11 -13q0 -2 -8 -10t-8 -28t12.5 -35t35.5 -15q63 0 123 129q4 14 4 21q0 10 -5 25q-20 45 -67 167q-41 109 -67 166q-17 39 -32 53.5t-44 18.5q-3 1 -11 2t-10 5t-2 14q0 12 6.5 15t16 3.5t12.5 0.5
q61 3 96 -17.5t58 -71.5q22 -51 39 -97q40 -108 65 -158h3l98 262q5 17 5 24q0 11 -10 15t-33 4h-6q-8 0 -11.5 3t-4.5 15q0 7 3.5 13.5t10.5 6.5q57 -3 97 -3q16 0 62 2l21 1q7 0 11 -6.5t4 -13.5q-1 -12 -5 -15t-12 -3q-37 0 -57 -12t-34 -47q-23 -57 -74 -183t-76 -186
q-36 -86 -84 -147t-115 -61q-43 0 -76.5 27.5z" />
    <glyph glyph-name="yacute" unicode="&#xfd;" horiz-adv-x="552" 
d="M19.5 -190.5q-33.5 27.5 -33.5 65.5q0 45 25 57.5t39 12.5q17 0 28 -7t11 -13q0 -2 -8 -10t-8 -28t12.5 -35t35.5 -15q63 0 123 129q4 14 4 21q0 10 -5 25q-20 45 -67 167q-41 109 -67 166q-17 39 -32 53.5t-44 18.5q-3 1 -11 2t-10 5t-2 14q0 12 6.5 15t16 3.5t12.5 0.5
q61 3 96 -17.5t58 -71.5q22 -51 39 -97q40 -108 65 -158h3l98 262q5 17 5 24q0 11 -10 15t-33 4h-6q-8 0 -11.5 3t-4.5 15q0 7 3.5 13.5t10.5 6.5q57 -3 97 -3q16 0 62 2l21 1q7 0 11 -6.5t4 -13.5q-1 -12 -5 -15t-12 -3q-37 0 -57 -12t-34 -47q-23 -57 -74 -183t-76 -186
q-36 -86 -84 -147t-115 -61q-43 0 -76.5 27.5zM239 536.5q-3 5.5 -3 12.5q0 6 4 13l75 137q11 23 36 23q7 0 19 -5q11 -6 18 -16t7 -21q0 -12 -9 -23l-102 -119q-11 -12 -24 -12q-7 0 -13 3q-5 2 -8 7.5z" />
    <glyph glyph-name="ydieresis" unicode="&#xff;" horiz-adv-x="552" 
d="M19.5 -190.5q-33.5 27.5 -33.5 65.5q0 45 25 57.5t39 12.5q17 0 28 -7t11 -13q0 -2 -8 -10t-8 -28t12.5 -35t35.5 -15q63 0 123 129q4 14 4 21q0 10 -5 25q-20 45 -67 167q-41 109 -67 166q-17 39 -32 53.5t-44 18.5q-3 1 -11 2t-10 5t-2 14q0 12 6.5 15t16 3.5t12.5 0.5
q61 3 96 -17.5t58 -71.5q22 -51 39 -97q40 -108 65 -158h3l98 262q5 17 5 24q0 11 -10 15t-33 4h-6q-8 0 -11.5 3t-4.5 15q0 7 3.5 13.5t10.5 6.5q57 -3 97 -3q16 0 62 2l21 1q7 0 11 -6.5t4 -13.5q-1 -12 -5 -15t-12 -3q-37 0 -57 -12t-34 -47q-23 -57 -74 -183t-76 -186
q-36 -86 -84 -147t-115 -61q-43 0 -76.5 27.5zM145.5 565q-18.5 18 -18.5 42q0 26 18 43t45 17q26 0 43 -17t17 -43q0 -24 -17.5 -42t-43.5 -18q-25 0 -43.5 18zM318.5 565q-18.5 18 -18.5 42q0 26 18 43t45 17q26 0 43 -17t17 -43q0 -24 -17.5 -42t-43.5 -18
q-25 0 -43.5 18z" />
    <glyph glyph-name="z" unicode="z" horiz-adv-x="502" 
d="M40 3q-4 6 -4 14q1 12 4.5 15t12.5 3q23 0 34 3t19.5 12.5t20.5 32.5l138 287q12 26 12 36t-8.5 12.5t-29.5 2.5h-42q-34 0 -52.5 -8.5t-29.5 -33t-17 -74.5q-1 -8 -9.5 -12t-20.5 -4q-8 0 -15 5t-7 13l17 123q2 14 7.5 18.5t15.5 4.5h274q17 0 57 2l24 1q7 0 11.5 -6
t4.5 -14q-1 -12 -5 -15t-12 -3q-23 0 -34.5 -3t-20 -12.5t-20.5 -32.5l-137 -287q-12 -25 -12 -36q0 -10 8.5 -12.5t29.5 -2.5h56q34 0 52.5 8.5t29.5 33t17 74.5q1 8 9.5 12t20.5 4q8 0 15 -5t7 -13l-17 -123q-2 -14 -7.5 -18.5t-15.5 -4.5h-289q-16 0 -58 -2l-22 -1
q-8 0 -12 6z" />
    <glyph glyph-name="f_i" horiz-adv-x="615" 
d="M49 3q-4 6 -4 14q1 13 5.5 15.5t17.5 2.5q26 0 37 9t12.5 20.5t1.5 38.5v296h-77q-8 0 -12.5 6t-4.5 14q1 14 6 16.5t18 2.5h70q2 92 36 156.5t92.5 97t134.5 32.5q49 0 86.5 -26.5t37.5 -71.5q0 -31 -18.5 -54.5t-49.5 -23.5q-20 0 -33.5 10t-13.5 17q0 1 10 10t17.5 22
t7.5 31q0 27 -18 41t-52 14q-65 0 -106 -64.5t-39 -190.5h157l141 32h3q6 0 6 -7v-360q0 -26 2 -38t13 -21t37 -9h6q8 0 12 -3t5 -15q0 -8 -4 -14t-12 -6q-58 3 -105 3q-45 0 -104 -3q-7 0 -11.5 6t-4.5 14q1 13 6 15.5t18 2.5q26 0 37 9t12.5 21t1.5 38v228q0 26 -1.5 38
t-12.5 21t-37 9h-165v-296q0 -26 1.5 -38t12.5 -21t37 -9h6q9 0 12.5 -3t4.5 -15q0 -8 -4 -14t-11 -6q-59 3 -105 3q-47 0 -104 -3q-8 0 -12 6z" />
    <glyph glyph-name="f_j" horiz-adv-x="595" 
d="M329 -205q-11 0 -15 14q-2 8 -2 11q0 10 9 13q47 20 70 57.5t29.5 92t6.5 148.5v200q0 26 -1.5 38t-12.5 21t-37 9h-165v-296q0 -26 1.5 -38t12.5 -21t37 -9h6q9 0 12.5 -3t4.5 -15q0 -8 -4 -14t-11 -6q-59 3 -105 3q-47 0 -104 -3q-8 0 -12 6t-4 14q1 13 5.5 15.5
t17.5 2.5q26 0 37 9t12.5 20.5t1.5 38.5v296h-77q-8 0 -12.5 6t-4.5 14q1 14 6 16.5t18 2.5h70q2 92 36 156.5t92.5 97t134.5 32.5q49 0 86.5 -26.5t37.5 -71.5q0 -31 -18.5 -54.5t-49.5 -23.5q-20 0 -33.5 10t-13.5 17q0 1 10 10t17.5 22t7.5 31q0 27 -18 41t-52 14
q-65 0 -106 -64.5t-39 -190.5h157l141 32h3q6 0 6 -7v-364q0 -123 -42 -201.5t-142 -102.5h-5z" />
    <glyph glyph-name="ordfeminine" unicode="&#xaa;" horiz-adv-x="396" 
d="M68 320q-26 25 -26 61q0 59 56.5 80t131.5 26l16 1v53q0 66 -69 66q-20 0 -35.5 -12t-15.5 -33q0 -11 6.5 -20.5t15.5 -15.5q0 -4 -9.5 -12.5t-22.5 -8.5q-23 0 -36.5 16.5t-13.5 38.5q0 37 34 55t81 18q58 0 94.5 -22t36.5 -82v-162q1 -14 9 -26.5t25 -12.5q8 0 11 -2.5
t3 -11.5q0 -11 -13.5 -15t-27.5 -4q-25 0 -45 13.5t-26 36.5q-16 -24 -50 -37t-67 -13q-37 0 -63 25zM222.5 362q25.5 25 25.5 63v39q-72 -10 -101.5 -25t-29.5 -49q0 -23 11.5 -38t31.5 -15q37 0 62.5 25z" />
    <glyph glyph-name="ordmasculine" unicode="&#xba;" horiz-adv-x="407" 
d="M118 318q-38 23 -59 60.5t-21 80.5q0 53 25 92.5t63 60.5t78 21q48 0 86 -23t59 -60.5t21 -80.5q0 -53 -25.5 -93t-64 -60.5t-76.5 -20.5q-48 0 -86 23zM270.5 366.5q20.5 39.5 20.5 102.5q0 59 -21 96t-66 37q-47 0 -67.5 -39t-20.5 -102q0 -59 21 -96.5t67 -37.5
t66.5 39.5z" />
    <glyph glyph-name="uni0410" unicode="&#x410;" horiz-adv-x="653" 
d="M-7.5 3.5q-4.5 6.5 -4.5 15.5q1 15 6 18t12 3h9q30 0 44 15.5t22.5 35t11.5 26.5l175 414q6 15 6 24q0 18 -14 26t-39 13q-17 3 -21 6t-4 17q0 12 6.5 16t20.5 4q50 0 79.5 -7.5t51.5 -30t41 -68.5l168 -414q15 -38 29 -57t42 -20h6q10 0 14 -3.5t5 -17.5
q0 -9 -4.5 -15.5t-13.5 -6.5q-64 3 -110 3q-60 0 -124 -3q-9 0 -13.5 6.5t-4.5 15.5q1 14 5 17.5t14 3.5q34 0 48 6.5t14 23.5q0 13 -12 47l-34 83h-247q-25 -62 -28.5 -72t-3.5 -11q-12 -38 -12 -49q0 -17 15 -22.5t57 -5.5h6q10 0 14 -3.5t5 -17.5q0 -9 -4.5 -15.5
t-13.5 -6.5q-64 3 -109 3q-32 0 -97 -3q-9 0 -13.5 6.5zM196 243h210l-101 257h-3z" />
    <glyph glyph-name="uni0411" unicode="&#x411;" horiz-adv-x="645" 
d="M55.5 3.5q-4.5 6.5 -4.5 15.5q1 15 6 18t19 3q29 0 43 10.5t17.5 26t4.5 40.5v397q-1 25 -4.5 40.5t-17.5 26t-43 10.5h-6q-10 0 -14 3.5t-5 17.5q0 9 4.5 15.5t13.5 6.5q64 -3 118 -3h321q26 0 26 -24l3 -141q0 -9 -7.5 -14.5t-16.5 -5.5q-12 0 -22.5 5t-11.5 13
q-8 49 -17.5 75t-28 38.5t-52.5 13.5h-141v-223q55 9 103 9q79 0 134.5 -24t83.5 -66t28 -95q0 -70 -42 -113.5t-105 -61.5t-131 -18l-123 1q-54 0 -119 -3q-9 0 -13.5 6.5zM478 191q0 73 -51 107.5t-124 34.5q-39 0 -63 -6v-204q0 -49 15.5 -66t58.5 -17q164 2 164 151z
" />
    <glyph glyph-name="uni0412" unicode="&#x412;" horiz-adv-x="621" 
d="M46.5 3.5q-4.5 6.5 -4.5 15.5q1 15 6 18t19 3q29 0 43 10.5t17.5 26t4.5 40.5v397q-1 25 -4.5 40.5t-17.5 26t-43 10.5h-6q-10 0 -14 3.5t-5 17.5q0 9 4.5 15.5t13.5 6.5q65 -3 118 -3h141q55 0 89 -8t61 -25q26 -17 41 -46.5t15 -64.5q0 -62 -40.5 -98.5t-94.5 -49.5v-3
q52 0 94.5 -20.5t66 -55t23.5 -74.5q0 -68 -41.5 -110t-104 -59.5t-129.5 -17.5l-120 1q-54 0 -119 -3q-9 0 -13.5 6.5zM273 356q40 0 69.5 6t52.5 32t23 81q0 119 -117 119h-70v-238h42zM421.5 75.5q44.5 35.5 44.5 116.5q-5 54 -50.5 89t-143.5 35h-41v-199
q0 -34 6.5 -50.5t21 -22t44.5 -5.5q74 1 118.5 36.5z" />
    <glyph glyph-name="uni0413" unicode="&#x413;" horiz-adv-x="563" 
d="M55.5 3.5q-4.5 6.5 -4.5 15.5q1 15 6 18t19 3q29 0 43 10.5t17.5 26t4.5 40.5v397q-1 25 -4.5 40.5t-17.5 26t-43 10.5h-6q-10 0 -14 3.5t-5 17.5q0 9 4.5 15.5t12.5 6.5q64 -3 119 -3h309q26 0 26 -24l3 -141q0 -9 -7.5 -14.5t-16.5 -5.5q-12 0 -22.5 5t-11.5 13
q-8 49 -17.5 75t-28 38.5t-52.5 13.5h-129v-474q1 -25 4.5 -40.5t17.5 -26t43 -10.5h6q9 0 13.5 -3.5t5.5 -17.5q0 -9 -4.5 -15.5t-13.5 -6.5q-65 3 -124 3q-55 0 -120 -3q-8 0 -12.5 6.5z" />
    <glyph glyph-name="uni0403" unicode="&#x403;" horiz-adv-x="563" 
d="M55.5 3.5q-4.5 6.5 -4.5 15.5q1 15 6 18t19 3q29 0 43 10.5t17.5 26t4.5 40.5v397q-1 25 -4.5 40.5t-17.5 26t-43 10.5h-6q-10 0 -14 3.5t-5 17.5q0 9 4.5 15.5t12.5 6.5q64 -3 119 -3h309q26 0 26 -24l3 -141q0 -9 -7.5 -14.5t-16.5 -5.5q-12 0 -22.5 5t-11.5 13
q-8 49 -17.5 75t-28 38.5t-52.5 13.5h-129v-474q1 -25 4.5 -40.5t17.5 -26t43 -10.5h6q9 0 13.5 -3.5t5.5 -17.5q0 -9 -4.5 -15.5t-13.5 -6.5q-65 3 -124 3q-55 0 -120 -3q-8 0 -12.5 6.5zM299 690q-10 0 -17.5 7.5t-7.5 16.5q0 7 5 12t39.5 40t66.5 59q16 12 27 18t21 6
q15 0 26 -14q10 -11 10 -23q0 -21 -37 -46q-76 -49 -124 -74q-3 -2 -9 -2z" />
    <glyph glyph-name="uni0490" unicode="&#x490;" horiz-adv-x="563" 
d="M55.5 3.5q-4.5 6.5 -4.5 15.5q1 15 6 18t19 3q29 0 43 10.5t17.5 26t4.5 40.5v397q-1 25 -4.5 40.5t-17.5 26t-43 10.5h-6q-10 0 -14 3.5t-5 17.5q0 9 4.5 15.5t12.5 6.5q64 -3 119 -3h182q34 1 52.5 13.5t28 38.5t17.5 75q1 8 11.5 13t22.5 5q9 0 16.5 -5.5t7.5 -14.5
l-3 -141q0 -24 -26 -24h-256v-474q1 -25 4.5 -40.5t17.5 -26t43 -10.5h6q9 0 13.5 -3.5t5.5 -17.5q0 -9 -4.5 -15.5t-13.5 -6.5q-65 3 -124 3q-55 0 -120 -3q-8 0 -12.5 6.5z" />
    <glyph glyph-name="uni0414" unicode="&#x414;" horiz-adv-x="724" 
d="M28.5 -172q-9.5 7 -9.5 18v165q0 32 33 32h36q62 76 96 212t35 259q-1 25 -4.5 40.5t-17.5 26t-43 10.5h-6q-10 0 -14 3.5t-5 17.5q0 9 4.5 15.5t12.5 6.5q66 -3 119 -3h250q55 0 119 3q9 0 13.5 -6.5t4.5 -15.5q-1 -15 -6.5 -18t-18.5 -3q-29 0 -43 -10.5t-17.5 -26
t-4.5 -40.5v-376q0 -39 4.5 -57.5t21.5 -28t55 -9.5q33 0 33 -32v-165q0 -11 -9 -18t-20 -7q-33 0 -37 22q-10 65 -20.5 96t-32.5 46t-66 15h-287q-44 0 -66 -15t-32.5 -46t-20.5 -96q-4 -22 -34 -22q-13 0 -22.5 7zM406 43q21 0 32.5 4t18 18.5t6.5 44.5v478h-139
q-21 0 -32.5 -4t-18 -18.5t-6.5 -44.5q-6 -159 -33 -278t-89 -200h261z" />
    <glyph glyph-name="uni0415" unicode="&#x415;" horiz-adv-x="594" 
d="M47.5 3.5q-4.5 6.5 -4.5 15.5q1 15 6 18t19 3q29 0 43 10.5t17.5 26t4.5 40.5v397q-1 25 -4.5 40.5t-17.5 26t-43 10.5h-6q-10 0 -14 3.5t-5 17.5q0 9 4.5 15.5t12.5 6.5q66 -3 119 -3h314q26 0 26 -24l3 -140q0 -9 -9 -14.5t-18 -5.5q-12 0 -21 4.5t-10 13.5
q-8 49 -17.5 74.5t-28 38t-52.5 13.5h-134v-254h181q7 -1 11 -7.5t4 -15.5q0 -8 -4 -14t-11 -6h-181v-189q2 -21 5 -33.5t18 -22.5t47 -9h92q35 1 53 11.5t28.5 32.5t25.5 72q7 18 34 14q10 -2 17.5 -8t6.5 -15l-20 -126q-3 -13 -9 -17t-20 -4h-330q-54 0 -120 -3
q-8 0 -12.5 6.5z" />
    <glyph glyph-name="uni0400" unicode="&#x400;" horiz-adv-x="594" 
d="M47.5 3.5q-4.5 6.5 -4.5 15.5q1 15 6 18t19 3q29 0 43 10.5t17.5 26t4.5 40.5v397q-1 25 -4.5 40.5t-17.5 26t-43 10.5h-6q-10 0 -14 3.5t-5 17.5q0 9 4.5 15.5t12.5 6.5q66 -3 119 -3h314q26 0 26 -24l3 -140q0 -9 -9 -14.5t-18 -5.5q-12 0 -21 4.5t-10 13.5
q-8 49 -17.5 74.5t-28 38t-52.5 13.5h-134v-254h181q7 -1 11 -7.5t4 -15.5q0 -8 -4 -14t-11 -6h-181v-189q2 -21 5 -33.5t18 -22.5t47 -9h92q35 1 53 11.5t28.5 32.5t25.5 72q7 18 34 14q10 -2 17.5 -8t6.5 -15l-20 -126q-3 -13 -9 -17t-20 -4h-330q-54 0 -120 -3
q-8 0 -12.5 6.5zM186 750q-37 25 -37 46q0 12 10 23q11 14 26 14q10 0 21.5 -6t26.5 -18q32 -24 66.5 -59t39.5 -40t5 -12q0 -9 -8 -17t-17 -8q-5 0 -9 3q-48 25 -124 74z" />
    <glyph glyph-name="uni0401" unicode="&#x401;" horiz-adv-x="594" 
d="M47.5 3.5q-4.5 6.5 -4.5 15.5q1 15 6 18t19 3q29 0 43 10.5t17.5 26t4.5 40.5v397q-1 25 -4.5 40.5t-17.5 26t-43 10.5h-6q-10 0 -14 3.5t-5 17.5q0 9 4.5 15.5t12.5 6.5q66 -3 119 -3h314q26 0 26 -24l3 -140q0 -9 -9 -14.5t-18 -5.5q-12 0 -21 4.5t-10 13.5
q-8 49 -17.5 74.5t-28 38t-52.5 13.5h-134v-254h181q7 -1 11 -7.5t4 -15.5q0 -8 -4 -14t-11 -6h-181v-189q2 -21 5 -33.5t18 -22.5t47 -9h92q35 1 53 11.5t28.5 32.5t25.5 72q7 18 34 14q10 -2 17.5 -8t6.5 -15l-20 -126q-3 -13 -9 -17t-20 -4h-330q-54 0 -120 -3
q-8 0 -12.5 6.5zM167.5 729q-18.5 18 -18.5 42q0 26 18 43t45 17q26 0 43 -17t17 -43q0 -24 -17.5 -42t-43.5 -18q-25 0 -43.5 18zM359.5 729q-18.5 18 -18.5 42q0 26 18 43t45 17q26 0 43 -17t17 -43q0 -24 -17.5 -42t-43.5 -18q-25 0 -43.5 18z" />
    <glyph glyph-name="uni0416" unicode="&#x416;" horiz-adv-x="1066" 
d="M51 5.5q-29 15.5 -36 47.5v4q0 8 4 13.5t11 5.5q5 0 9 -4t10 -12q9 -12 16.5 -18.5t21.5 -6.5q29 0 48 27t46 88q27 60 49.5 97.5t60 65t90.5 27.5v3q-27 5 -50.5 27.5t-41.5 59.5l-11 25q-18 48 -37.5 76.5t-51.5 28.5q-22 0 -35.5 -19.5t-13.5 -47.5q0 -5 -7 -5
q-11 0 -26 9t-26 26t-11 39q0 34 27 62t72 28q37 -2 63.5 -26t43 -55.5t36.5 -79.5q16 -39 23 -53q42 -82 105 -82h44v158q-1 25 -4.5 40.5t-17.5 26t-43 10.5h-6q-10 0 -14.5 3.5t-5.5 17.5q0 9 5 15.5t13 6.5q64 -3 125 -3q55 0 119 3q9 0 13.5 -6.5t4.5 -15.5
q-1 -15 -6.5 -18t-18.5 -3q-29 0 -43.5 -10.5t-18 -26t-4.5 -40.5v-158h44q63 0 105 82q7 14 23 53q20 48 36.5 79.5t43 55.5t63.5 26q45 0 72 -28t27 -62q0 -22 -11 -39t-26 -26t-26 -9q-7 0 -7 5q0 28 -13.5 47.5t-35.5 19.5q-32 0 -51.5 -28.5t-37.5 -76.5l-11 -25
q-18 -37 -41.5 -59.5t-50.5 -27.5v-3q53 0 90.5 -27.5t60 -65t49.5 -97.5q27 -61 46 -88t48 -27q14 0 22 6.5t16 19.5q1 2 6 8.5t11 6.5h1q9 0 13.5 -7t2.5 -16q-7 -32 -36 -47.5t-62 -15.5q-54 0 -89 23.5t-55.5 57.5t-45.5 91q-21 51 -39 82t-47 51.5t-72 20.5h-23v-199
q1 -25 4.5 -40.5t18 -26t43.5 -10.5h6q9 0 13.5 -3.5t5.5 -17.5q0 -9 -4.5 -15.5t-13.5 -6.5q-64 3 -120 3q-59 0 -124 -3q-8 0 -13 6.5t-5 15.5q1 15 6.5 18t19.5 3q29 0 43 10.5t17.5 26t4.5 40.5v199h-23q-43 0 -72 -20.5t-47 -51.5t-39 -82q-25 -57 -45.5 -91
t-55.5 -57.5t-89 -23.5q-33 0 -62 15.5z" />
    <glyph glyph-name="uni0417" unicode="&#x417;" horiz-adv-x="592" 
d="M123.5 15.5q-64.5 35.5 -64.5 108.5q0 41 26.5 70.5t67.5 29.5q26 0 41.5 -12t16.5 -22q0 -2 -13 -12t-23.5 -25t-10.5 -36q-2 -47 32.5 -72t89.5 -25q63 0 101 39t38 112q0 61 -44 101t-109 42h-37q-7 0 -11 6t-4 14q0 9 4 15.5t11 7.5h37q122 9 122 121
q0 55 -29.5 93.5t-85.5 38.5q-55 0 -87 -38.5t-49 -114.5q-2 -8 -12 -12t-22 -2q-9 2 -17 8.5t-7 15.5l12 146q13 3 39 11q50 14 85.5 20.5t82.5 6.5q59 0 104 -21.5t69 -58.5t24 -82q0 -56 -35 -93t-99 -55v-3q84 -13 125 -58t41 -106q0 -62 -34 -106t-90.5 -66t-122.5 -22
q-98 0 -162.5 35.5z" />
    <glyph glyph-name="uni0418" unicode="&#x418;" horiz-adv-x="784" 
d="M51 19q1 15 6 18t19 3q29 0 43 10.5t17.5 26t4.5 40.5v397q-1 25 -4.5 40.5t-17.5 26t-43 10.5h-6q-10 0 -14 3.5t-5 17.5q0 9 4.5 15.5t13.5 6.5q64 -3 118 -3q60 0 125 3q9 0 13.5 -6.5t4.5 -15.5q-1 -15 -6 -18t-19 -3q-29 0 -43 -10.5t-17.5 -26t-4.5 -40.5v-354
l287 362q38 48 60 70t38.5 30t38.5 10q24 2 51 2q18 0 18 -22q-1 -15 -6 -18t-19 -3q-29 0 -43 -10.5t-17.5 -26t-4.5 -40.5v-397q1 -25 4.5 -40.5t17.5 -26t43 -10.5h6q10 0 14 -3.5t5 -17.5q0 -9 -4.5 -15.5t-13.5 -6.5q-64 3 -118 3q-59 0 -124 -3q-9 0 -13.5 6.5
t-4.5 15.5q1 15 6.5 18t18.5 3q29 0 43 10.5t17.5 26t4.5 40.5v353l-288 -360q-38 -47 -58.5 -68.5t-36 -31t-35.5 -11.5q-33 -3 -58 -2q-18 1 -18 22z" />
    <glyph glyph-name="uni0419" unicode="&#x419;" horiz-adv-x="784" 
d="M51 19q1 15 6 18t19 3q29 0 43 10.5t17.5 26t4.5 40.5v397q-1 25 -4.5 40.5t-17.5 26t-43 10.5h-6q-10 0 -14 3.5t-5 17.5q0 9 4.5 15.5t13.5 6.5q64 -3 118 -3q60 0 125 3q9 0 13.5 -6.5t4.5 -15.5q-1 -15 -6 -18t-19 -3q-29 0 -43 -10.5t-17.5 -26t-4.5 -40.5v-354
l287 362q38 48 60 70t38.5 30t38.5 10q24 2 51 2q18 0 18 -22q-1 -15 -6 -18t-19 -3q-29 0 -43 -10.5t-17.5 -26t-4.5 -40.5v-397q1 -25 4.5 -40.5t17.5 -26t43 -10.5h6q10 0 14 -3.5t5 -17.5q0 -9 -4.5 -15.5t-13.5 -6.5q-64 3 -118 3q-59 0 -124 -3q-9 0 -13.5 6.5
t-4.5 15.5q1 15 6.5 18t18.5 3q29 0 43 10.5t17.5 26t4.5 40.5v353l-288 -360q-38 -47 -58.5 -68.5t-36 -31t-35.5 -11.5q-33 -3 -58 -2q-18 1 -18 22zM570.5 832.5q13.5 -13.5 13.5 -37.5q0 -51 -57 -78.5t-135 -27.5t-135 27.5t-57 78.5q0 24 13.5 37.5t35.5 13.5t35 -14
t26 -42q16 -32 33 -49.5t49 -17.5t49 17.5t33 49.5q13 28 26 42t35 14t35.5 -13.5z" />
    <glyph glyph-name="uni040D" unicode="&#x40d;" horiz-adv-x="784" 
d="M51 19q1 15 6 18t19 3q29 0 43 10.5t17.5 26t4.5 40.5v397q-1 25 -4.5 40.5t-17.5 26t-43 10.5h-6q-10 0 -14 3.5t-5 17.5q0 9 4.5 15.5t13.5 6.5q64 -3 118 -3q60 0 125 3q9 0 13.5 -6.5t4.5 -15.5q-1 -15 -6 -18t-19 -3q-29 0 -43 -10.5t-17.5 -26t-4.5 -40.5v-354
l287 362q38 48 60 70t38.5 30t38.5 10q24 2 51 2q18 0 18 -22q-1 -15 -6 -18t-19 -3q-29 0 -43 -10.5t-17.5 -26t-4.5 -40.5v-397q1 -25 4.5 -40.5t17.5 -26t43 -10.5h6q10 0 14 -3.5t5 -17.5q0 -9 -4.5 -15.5t-13.5 -6.5q-64 3 -118 3q-59 0 -124 -3q-9 0 -13.5 6.5
t-4.5 15.5q1 15 6.5 18t18.5 3q29 0 43 10.5t17.5 26t4.5 40.5v353l-288 -360q-38 -47 -58.5 -68.5t-36 -31t-35.5 -11.5q-33 -3 -58 -2q-18 1 -18 22zM271 750q-37 25 -37 46q0 12 10 23q11 14 26 14q10 0 21.5 -6t26.5 -18q32 -24 66.5 -59t39.5 -40t5 -12q0 -9 -8 -17
t-17 -8q-5 0 -9 3q-48 25 -124 74z" />
    <glyph glyph-name="uni041A" unicode="&#x41a;" horiz-adv-x="736" 
d="M534 13.5q-36 23.5 -57.5 58t-46.5 90.5q-24 52 -42.5 82.5t-48.5 51t-73 20.5h-26v-199q1 -25 4.5 -40.5t17.5 -26t43 -10.5h6q10 0 14.5 -3.5t5.5 -17.5q0 -9 -4.5 -15.5t-13.5 -6.5q-64 3 -124 3q-55 0 -120 -3q-9 0 -13.5 6.5t-4.5 15.5q1 15 6.5 18t18.5 3
q29 0 43 10.5t18 25.5t5 41v397q-1 26 -5 41t-18 25.5t-43 10.5h-6q-9 0 -13.5 3.5t-5.5 17.5q0 9 4.5 15.5t13.5 6.5q64 -3 119 -3q60 0 125 3q9 0 13.5 -6.5t4.5 -15.5q-1 -15 -6.5 -18t-19.5 -3q-29 0 -43 -10.5t-17.5 -26t-4.5 -40.5v-158h47q32 0 62.5 20t52.5 62
q7 14 23 53q20 48 36.5 79.5t43 55.5t63.5 26q45 0 72 -28t27 -62q0 -22 -11.5 -39t-26.5 -26t-25 -9q-8 0 -8 5q0 26 -13 46.5t-32 20.5q-34 0 -53.5 -27t-38.5 -75q-8 -20 -12 -28q-17 -36 -41 -59t-50 -28v-3q53 0 90 -27.5t60 -66t49 -96.5q27 -60 46.5 -87.5
t48.5 -27.5q13 0 21.5 7t16.5 19q9 15 16 15h1q9 0 13.5 -7t2.5 -16q-6 -32 -35.5 -47.5t-62.5 -15.5q-53 0 -89 23.5z" />
    <glyph glyph-name="uni040C" unicode="&#x40c;" horiz-adv-x="736" 
d="M534 13.5q-36 23.5 -57.5 58t-46.5 90.5q-24 52 -42.5 82.5t-48.5 51t-73 20.5h-26v-199q1 -25 4.5 -40.5t17.5 -26t43 -10.5h6q10 0 14.5 -3.5t5.5 -17.5q0 -9 -4.5 -15.5t-13.5 -6.5q-64 3 -124 3q-55 0 -120 -3q-9 0 -13.5 6.5t-4.5 15.5q1 15 6.5 18t18.5 3
q29 0 43 10.5t18 25.5t5 41v397q-1 26 -5 41t-18 25.5t-43 10.5h-6q-9 0 -13.5 3.5t-5.5 17.5q0 9 4.5 15.5t13.5 6.5q64 -3 119 -3q60 0 125 3q9 0 13.5 -6.5t4.5 -15.5q-1 -15 -6.5 -18t-19.5 -3q-29 0 -43 -10.5t-17.5 -26t-4.5 -40.5v-158h47q32 0 62.5 20t52.5 62
q7 14 23 53q20 48 36.5 79.5t43 55.5t63.5 26q45 0 72 -28t27 -62q0 -22 -11.5 -39t-26.5 -26t-25 -9q-8 0 -8 5q0 26 -13 46.5t-32 20.5q-34 0 -53.5 -27t-38.5 -75q-8 -20 -12 -28q-17 -36 -41 -59t-50 -28v-3q53 0 90 -27.5t60 -66t49 -96.5q27 -60 46.5 -87.5
t48.5 -27.5q13 0 21.5 7t16.5 19q9 15 16 15h1q9 0 13.5 -7t2.5 -16q-6 -32 -35.5 -47.5t-62.5 -15.5q-53 0 -89 23.5zM389 690q-10 0 -17.5 7.5t-7.5 16.5q0 7 5 12t39.5 40t66.5 59q16 12 27 18t21 6q15 0 26 -14q10 -11 10 -23q0 -21 -37 -46q-76 -49 -124 -74
q-3 -2 -9 -2z" />
    <glyph glyph-name="uni041B" unicode="&#x41b;" horiz-adv-x="775" 
d="M58 16.5q-31 26.5 -31 66.5q0 33 20.5 54t51.5 21q11 0 18.5 -3t9.5 -6q0 -3 -5.5 -13t-5.5 -24q0 -39 42 -39q37 0 59.5 52t36 137t32.5 252q1 8 1 22q0 31 -13.5 43t-48.5 12h-6q-10 0 -14 3.5t-5 17.5q0 9 4.5 15.5t13.5 6.5q64 -3 118 -3h252q54 0 118 3
q9 0 13.5 -6.5t4.5 -15.5q-1 -15 -6 -18t-19 -3q-37 0 -50.5 -18.5t-14.5 -58.5v-397q1 -25 4.5 -40.5t17.5 -26t43 -10.5h6q10 0 14 -3.5t5 -17.5q0 -9 -4.5 -15.5t-13.5 -6.5q-64 3 -119 3q-59 0 -124 -3q-9 0 -13.5 6.5t-4.5 15.5q1 15 6 18t19 3q29 0 43 10.5t17.5 26
t4.5 40.5v471h-140q-20 0 -30 -4t-16.5 -18.5t-9.5 -44.5q-19 -186 -37 -292t-55.5 -172.5t-102.5 -66.5q-55 0 -86 26.5z" />
    <glyph glyph-name="uni041C" unicode="&#x41c;" horiz-adv-x="889" 
d="M407 5l-225 509h-3l2 -397q1 -27 4 -41.5t16.5 -25t42.5 -10.5h6q10 0 14.5 -3.5t5.5 -17.5q0 -9 -4.5 -15.5t-13.5 -6.5l-25 1q-46 2 -66 2q-34 0 -99 -3q-9 0 -13.5 6.5t-4.5 15.5q1 15 6 18t19 3q29 0 42.5 10.5t16.5 25t4 41.5l2 397q0 31 -7 46.5t-20.5 22
t-39.5 11.5q-4 1 -12 2.5t-10.5 6t-2.5 14.5q0 12 6.5 16t20.5 4q59 0 97 -7.5t66.5 -30.5t47.5 -68l172 -386h3l197 486h57q55 0 119 3q9 0 13.5 -6.5t4.5 -15.5q-1 -15 -6.5 -18t-18.5 -3q-29 0 -43 -10.5t-17.5 -26t-4.5 -40.5v-397q1 -25 4.5 -40.5t17.5 -26t43 -10.5h6
q9 0 13.5 -3.5t5.5 -17.5q0 -9 -4.5 -15.5t-13.5 -6.5q-64 3 -120 3q-58 0 -123 -3q-9 0 -13.5 6.5t-4.5 15.5q1 15 6 18t19 3q29 0 43 10.5t17.5 26t4.5 40.5v397h-3l-206 -509q-4 -10 -20 -10q-15 0 -21 10z" />
    <glyph glyph-name="uni041D" unicode="&#x41d;" horiz-adv-x="777" 
d="M47.5 3.5q-4.5 6.5 -4.5 15.5q1 15 6 18t19 3q29 0 43 10.5t17.5 26t4.5 40.5v397q-1 25 -4.5 40.5t-17.5 26t-43 10.5h-6q-10 0 -14 3.5t-5 17.5q0 9 4.5 15.5t13.5 6.5q65 -3 118 -3q60 0 125 3q9 0 13.5 -6.5t4.5 -15.5q-1 -15 -6 -18t-19 -3q-29 0 -43 -10.5
t-17.5 -26t-4.5 -40.5v-177h314v177q-1 25 -4.5 40.5t-17.5 26t-43 10.5h-6q-10 0 -14.5 3.5t-5.5 17.5q0 9 5 15.5t13 6.5q65 -3 125 -3q55 0 119 3q9 0 13.5 -6.5t4.5 -15.5q-1 -15 -6.5 -18t-18.5 -3q-29 0 -43.5 -10.5t-18 -26t-4.5 -40.5v-397q1 -25 4.5 -40.5t18 -26
t43.5 -10.5h6q9 0 13.5 -3.5t5.5 -17.5q0 -9 -4.5 -15.5t-13.5 -6.5q-64 3 -120 3q-59 0 -124 -3q-8 0 -13 6.5t-5 15.5q1 15 6.5 18t19.5 3q29 0 43 10.5t17.5 26t4.5 40.5v177h-314v-177q1 -25 4.5 -40.5t17.5 -26t43 -10.5h6q10 0 14 -3.5t5 -17.5q0 -9 -4.5 -15.5
t-13.5 -6.5q-64 3 -124 3q-54 0 -119 -3q-9 0 -13.5 6.5z" />
    <glyph glyph-name="uni041E" unicode="&#x41e;" horiz-adv-x="735" 
d="M198.5 25.5q-72.5 45.5 -112 120.5t-39.5 161q0 105 47.5 183t121.5 119.5t150 41.5q96 0 169.5 -45.5t113 -120t39.5 -160.5q0 -105 -48 -183.5t-123 -120t-151 -41.5q-95 0 -167.5 45.5zM478.5 64.5q45.5 40.5 68 109t22.5 151.5q0 77 -23 141.5t-69 103t-112 38.5
q-100 0 -150.5 -84.5t-50.5 -213.5q0 -78 22.5 -143t67.5 -104t111 -39q68 0 113.5 40.5z" />
    <glyph glyph-name="uni041F" unicode="&#x41f;" horiz-adv-x="769" 
d="M55.5 3.5q-4.5 6.5 -4.5 15.5q1 15 6 18t19 3q29 0 43 10.5t17.5 26t4.5 40.5v397q-1 25 -4.5 40.5t-17.5 26t-43 10.5h-6q-10 0 -14 3.5t-5 17.5q0 9 4.5 15.5t13.5 6.5q64 -3 118 -3h389q59 0 124 3q9 0 13.5 -6.5t4.5 -15.5q-1 -15 -6.5 -18t-19.5 -3q-29 0 -43 -10.5
t-17.5 -26t-4.5 -40.5v-397q1 -25 4.5 -40.5t17.5 -26t43 -10.5h6q10 0 14.5 -3.5t5.5 -17.5q0 -9 -4.5 -15.5t-13.5 -6.5q-64 3 -125 3q-54 0 -119 -3q-9 0 -13.5 6.5t-4.5 15.5q1 15 6.5 18t18.5 3q29 0 43 10.5t18 25.5t5 41v474h-224q-32 1 -46 -9t-16.5 -24.5
t-2.5 -43.5v-397q1 -25 4.5 -40.5t17.5 -26t43 -10.5h6q10 0 14 -3.5t5 -17.5q0 -9 -4.5 -15.5t-13.5 -6.5q-65 3 -124 3q-54 0 -119 -3q-9 0 -13.5 6.5z" />
    <glyph glyph-name="uni0420" unicode="&#x420;" horiz-adv-x="604" 
d="M47 3.5q-5 6.5 -5 15.5q1 15 6.5 18t19.5 3q29 0 43 10.5t17.5 26t4.5 40.5v397q-1 25 -4.5 40.5t-17.5 26t-43 10.5h-6q-10 0 -14.5 3.5t-5.5 17.5q0 9 5 15.5t13 6.5q65 -3 120 -3h150q87 0 168.5 -36t81.5 -144q0 -60 -36 -107t-93.5 -73t-119.5 -26q-57 0 -100 16
v-144q1 -25 4.5 -40.5t17.5 -26t43 -10.5h6q10 0 14.5 -3.5t5.5 -17.5q0 -9 -4.5 -15.5t-13.5 -6.5q-64 3 -125 3q-54 0 -119 -3q-8 0 -13 6.5zM376.5 304.5q38.5 14.5 65.5 50t27 93.5q0 88 -56 117t-119 29q-26 0 -39 -5.5t-18.5 -21.5t-5.5 -50v-216q24 -11 71 -11
q36 0 74.5 14.5z" />
    <glyph glyph-name="uni0421" unicode="&#x421;" horiz-adv-x="639" 
d="M202.5 20.5q-70.5 40.5 -112 115.5t-41.5 175q0 101 40 178t114 119.5t173 42.5q86 0 153 -34.5t67 -106.5q1 -45 -27 -76.5t-75 -31.5q-18 0 -30.5 6.5t-18.5 15.5t-5 14q0 2 14 11t25 25t11 39q0 45 -30.5 71.5t-84.5 26.5q-61 0 -108.5 -34.5t-74 -101t-26.5 -158.5
q0 -80 28.5 -145.5t80.5 -104t119 -38.5q54 0 92.5 22.5t69.5 72.5q5 9 14 9q8 0 18 -6q16 -11 16 -22q0 -6 -4 -10q-38 -48 -71.5 -72.5t-72.5 -33.5t-98 -9q-85 0 -155.5 40.5z" />
    <glyph glyph-name="uni0422" unicode="&#x422;" horiz-adv-x="600" 
d="M165.5 3.5q-4.5 6.5 -4.5 15.5q1 15 6 18t19 3q29 0 43 10.5t17.5 26t4.5 40.5v477h-69q-34 -1 -52.5 -14.5t-28 -40t-16.5 -75.5q-1 -8 -12 -13t-23 -5q-9 0 -16.5 5.5t-7.5 14.5l3 141q0 24 27 24h489q26 0 26 -24l4 -141q0 -9 -8 -14.5t-17 -5.5q-12 0 -22.5 5
t-11.5 13q-8 50 -17 76t-28 39.5t-53 14.5h-68v-477q1 -25 4.5 -40.5t17.5 -26t43 -10.5h6q9 0 13.5 -3.5t5.5 -17.5q0 -9 -4.5 -15.5t-13.5 -6.5q-64 3 -118 3q-60 0 -125 -3q-9 0 -13.5 6.5z" />
    <glyph glyph-name="uni0423" unicode="&#x423;" horiz-adv-x="658" 
d="M100.5 9.5q-32.5 26.5 -32.5 67.5q0 36 21.5 58t51.5 22q18 0 30.5 -7.5t12.5 -13.5q0 -2 -9 -12t-9 -30q0 -22 13 -37t38 -15q34 0 60.5 23t48.5 71q-43 77 -122 237q-49 98 -73 142q-16 31 -24.5 44t-20.5 21.5t-33 12.5q-4 1 -12 2.5t-10.5 6t-2.5 14.5q0 13 6 17
t19 4q53 0 83 -8.5t50.5 -30t46.5 -66.5q8 -15 31 -65q57 -120 113 -220h3l129 294q4 9 4 19q0 20 -19 25.5t-56 5.5h-6q-10 0 -14 3.5t-5 17.5q0 9 4.5 15.5t12.5 6.5q65 -3 116 -3q35 0 99 3q9 0 13.5 -6.5t4.5 -15.5q-1 -14 -5 -17.5t-14 -3.5q-28 0 -41.5 -6.5
t-20.5 -17.5t-23 -44l-181 -385q-37 -78 -82.5 -116.5t-107.5 -38.5q-55 0 -87.5 26.5z" />
    <glyph glyph-name="uni040E" unicode="&#x40e;" horiz-adv-x="658" 
d="M100.5 9.5q-32.5 26.5 -32.5 67.5q0 36 21.5 58t51.5 22q18 0 30.5 -7.5t12.5 -13.5q0 -2 -9 -12t-9 -30q0 -22 13 -37t38 -15q34 0 60.5 23t48.5 71q-43 77 -122 237q-49 98 -73 142q-16 31 -24.5 44t-20.5 21.5t-33 12.5q-4 1 -12 2.5t-10.5 6t-2.5 14.5q0 13 6 17
t19 4q53 0 83 -8.5t50.5 -30t46.5 -66.5q8 -15 31 -65q57 -120 113 -220h3l129 294q4 9 4 19q0 20 -19 25.5t-56 5.5h-6q-10 0 -14 3.5t-5 17.5q0 9 4.5 15.5t12.5 6.5q65 -3 116 -3q35 0 99 3q9 0 13.5 -6.5t4.5 -15.5q-1 -14 -5 -17.5t-14 -3.5q-28 0 -41.5 -6.5
t-20.5 -17.5t-23 -44l-181 -385q-37 -78 -82.5 -116.5t-107.5 -38.5q-55 0 -87.5 26.5zM511.5 832.5q13.5 -13.5 13.5 -37.5q0 -51 -57 -78.5t-135 -27.5t-135 27.5t-57 78.5q0 24 13.5 37.5t35.5 13.5t35 -14t26 -42q16 -32 33 -49.5t49 -17.5t49 17.5t33 49.5q13 28 26 42
t35 14t35.5 -13.5z" />
    <glyph glyph-name="uni0424" unicode="&#x424;" horiz-adv-x="819" 
d="M274.5 3.5q-4.5 6.5 -4.5 15.5q1 14 5 17.5t14 3.5q32 0 46.5 7t18 16.5t5.5 31.5q-123 3 -212.5 55.5t-89.5 175.5q0 118 89.5 168.5t212.5 54.5q-2 22 -5 31.5t-16.5 16.5t-42.5 7h-6q-10 0 -14 3.5t-5 17.5q0 9 4.5 15.5t13.5 6.5q65 -3 118 -3q60 0 125 3
q9 0 13.5 -6.5t4.5 -15.5q-1 -14 -5 -17.5t-14 -3.5q-32 0 -46.5 -7t-18 -16.5t-5.5 -31.5q123 -4 212.5 -54.5t89.5 -168.5q0 -123 -89.5 -175.5t-212.5 -55.5q2 -22 5 -31.5t16.5 -16.5t42.5 -7h6q10 0 14 -3.5t5 -17.5q0 -9 -4.5 -15.5t-13.5 -6.5q-64 3 -125 3
q-53 0 -118 -3q-9 0 -13.5 6.5zM360 517q-88 -3 -140.5 -46t-52.5 -145q0 -104 54.5 -149.5t138.5 -49.5v390zM597.5 176.5q54.5 45.5 54.5 149.5q0 102 -52.5 145t-140.5 46v-390q84 4 138.5 49.5z" />
    <glyph glyph-name="uni0425" unicode="&#x425;" horiz-adv-x="653" 
d="M11.5 3.5q-4.5 6.5 -4.5 15.5q1 14 5 17.5t14 3.5q41 0 61.5 13t49.5 55l145 206l-128 201q-24 37 -47 54t-56 24q-4 1 -12 2.5t-10.5 6t-2.5 14.5q0 14 7.5 17t18.5 3h14q70 0 111.5 -23t81.5 -81l82 -134l99 144q12 20 12 29q0 12 -14 16t-42 4h-6q-10 0 -14 3.5
t-5 17.5q0 9 4.5 15.5t12.5 6.5q64 -3 109 -3q37 0 101 3q9 0 13.5 -6.5t4.5 -15.5q-1 -14 -5 -17.5t-14 -3.5q-41 0 -61.5 -13t-49.5 -55l-117 -166l174 -248q22 -33 42 -51t49 -18h6q10 0 14 -3.5t5 -17.5q0 -9 -4.5 -15.5t-12.5 -6.5q-64 3 -120 3q-57 0 -122 -3
q-9 0 -13.5 6.5t-4.5 15.5q1 15 6.5 18t18.5 3q20 0 30.5 7t10.5 19q0 11 -9 23l-128 183l-128 -183q-12 -16 -12 -29q0 -12 14 -16t42 -4h6q10 0 14 -3.5t5 -17.5q0 -9 -4.5 -15.5t-12.5 -6.5q-64 3 -109 3q-36 0 -101 -3q-9 0 -13.5 6.5z" />
    <glyph glyph-name="uni0427" unicode="&#x427;" horiz-adv-x="707" 
d="M381.5 3.5q-4.5 6.5 -4.5 15.5q1 15 6 18t19 3q29 0 43 10.5t17.5 26t4.5 40.5v177q-72 -27 -101 -34t-61 -7q-53 0 -97.5 18t-66.5 47q-15 19 -23 45t-8 71v80q-1 25 -4.5 40.5t-17.5 26t-43 10.5h-6q-10 0 -14.5 3.5t-5.5 17.5q0 9 5 15.5t13 6.5q64 -3 119 -3
q60 0 125 3q9 0 13.5 -6.5t4.5 -15.5q-1 -15 -6.5 -18t-18.5 -3q-29 0 -43 -10.5t-18 -25.5t-5 -41v-69q0 -72 40 -105t106 -33q51 0 113 30v177q-1 25 -4.5 40.5t-17.5 26t-43 10.5h-6q-10 0 -14 3.5t-5 17.5q0 9 4.5 15.5t13.5 6.5q65 -3 125 -3q53 0 118 3q9 0 13.5 -6.5
t4.5 -15.5q-1 -15 -6.5 -18t-18.5 -3q-29 0 -43 -10.5t-17.5 -26t-4.5 -40.5v-397q1 -25 4.5 -40.5t17.5 -26t43 -10.5h6q9 0 13.5 -3.5t5.5 -17.5q0 -9 -4.5 -15.5t-13.5 -6.5q-64 3 -120 3q-58 0 -123 -3q-9 0 -13.5 6.5z" />
    <glyph glyph-name="uni0426" unicode="&#x426;" horiz-adv-x="815" 
d="M254 -228q-8 18 -8 39q0 57 42 84.5t99 27.5q36 0 69 -11t80 -32q48 -21 81 -31.5t68 -10.5q40 0 62.5 21.5t22.5 52.5q0 37 -26 62.5t-80 25.5h-478q-52 0 -117 -3q-9 0 -13.5 6.5t-4.5 15.5q1 15 6.5 18t18.5 3q29 0 43 10.5t17.5 26t4.5 40.5v397q-1 25 -4.5 40.5
t-17.5 26t-43 10.5h-6q-9 0 -13.5 3.5t-5.5 17.5q0 9 4.5 15.5t13.5 6.5q64 -3 116 -3q63 0 128 3q8 0 12.5 -6.5t4.5 -15.5q-1 -15 -6 -18t-19 -3q-29 0 -43 -10.5t-17.5 -26t-4.5 -40.5v-391q0 -49 16 -66t59 -17h229v474q-1 25 -4.5 40.5t-17.5 26t-43 10.5h-6
q-10 0 -14.5 3.5t-5.5 17.5q0 9 5 15.5t13 6.5q65 -3 120 -3q59 0 124 3q9 0 13.5 -6.5t4.5 -15.5q-1 -15 -6.5 -18t-19.5 -3q-29 0 -43 -10.5t-17.5 -26t-4.5 -40.5v-381q0 -32 10.5 -51t26.5 -28.5t42 -20.5q29 -12 47 -23.5t31.5 -34.5t15.5 -62q0 -72 -46.5 -115.5
t-138.5 -43.5q-43 0 -80 13t-88 39q-41 21 -68.5 31.5t-55.5 10.5q-26 0 -40 -12.5t-14 -30.5q0 -10 8 -20t8 -13q0 -7 -6 -12.5t-14 -5.5q-18 0 -26 18z" />
    <glyph glyph-name="uni0428" unicode="&#x428;" horiz-adv-x="1062" 
d="M55.5 3.5q-4.5 6.5 -4.5 15.5q1 15 6 18t19 3q29 0 43 10.5t17.5 26t4.5 40.5v397q-1 25 -4.5 40.5t-17.5 26t-43 10.5h-6q-10 0 -14 3.5t-5 17.5q0 9 4.5 15.5t13.5 6.5q64 -3 118 -3q53 0 118 3q9 0 13.5 -6.5t4.5 -15.5q-1 -15 -6.5 -18t-18.5 -3q-29 0 -41.5 -10.5
t-14 -22.5t-2.5 -44v-391q0 -49 15.5 -66t58.5 -17h167v474q0 5 -0.5 29t-15 36t-43.5 12h-6q-10 0 -14.5 3.5t-5.5 17.5q0 9 5 15.5t13 6.5q64 -3 114 -3q53 0 117 3q9 0 13.5 -6.5t4.5 -15.5q-1 -15 -6 -18t-19 -3q-29 0 -41.5 -10.5t-14 -22.5t-2.5 -44v-391
q0 -49 16 -66t59 -17h167v474q0 4 -0.5 28.5t-15.5 36.5t-44 12h-6q-10 0 -14 3.5t-5 17.5q0 9 4.5 15.5t12.5 6.5q64 -3 115 -3q59 0 124 3q9 0 13.5 -6.5t4.5 -15.5q-1 -15 -6.5 -18t-19.5 -3q-29 0 -43 -10.5t-17.5 -26t-4.5 -40.5v-397q1 -25 4.5 -40.5t17.5 -26
t43 -10.5h6q10 0 14.5 -3.5t5.5 -17.5q0 -9 -4.5 -15.5t-13.5 -6.5q-64 3 -125 3h-680q-54 0 -119 -3q-9 0 -13.5 6.5z" />
    <glyph glyph-name="uni0429" unicode="&#x429;" horiz-adv-x="1114" 
d="M482 -228q-8 18 -8 39q0 57 42 85t99 28q38 0 75 -10.5t89 -30.5q55 -21 97 -32.5t88 -12.5q40 0 62.5 21.5t22.5 52.5q0 37 -26 62.5t-80 25.5h-754q-55 0 -120 -3q-9 0 -13.5 6.5t-4.5 15.5q1 15 6.5 18t18.5 3q29 0 43 10.5t17.5 26t4.5 40.5v397q-1 25 -4.5 40.5
t-17.5 26t-43 10.5h-6q-9 0 -13.5 3.5t-5.5 17.5q0 9 4.5 15.5t13.5 6.5q64 -3 119 -3q52 0 117 3q9 0 13.5 -6.5t4.5 -15.5q-1 -15 -6 -18t-19 -3q-29 0 -41.5 -10.5t-14 -22.5t-2.5 -44v-391q0 -49 16 -66t59 -17h167v474q0 4 -0.5 28.5t-15.5 36.5t-44 12h-6
q-10 0 -14 3.5t-5 17.5q0 9 4.5 15.5t12.5 6.5q64 -3 114 -3q53 0 117 3q9 0 13.5 -6.5t4.5 -15.5q-1 -15 -6 -18t-19 -3q-29 0 -41.5 -10.5t-14 -22.5t-2.5 -44v-391q0 -49 16 -66t59 -17h167v474q0 4 -0.5 28.5t-15.5 36.5t-44 12h-6q-10 0 -14 3.5t-5 17.5q0 9 4.5 15.5
t13.5 6.5q64 -3 114 -3q59 0 124 3q9 0 13.5 -6.5t4.5 -15.5q-1 -15 -6.5 -18t-18.5 -3q-29 0 -43 -10.5t-17.5 -26t-4.5 -40.5v-381q0 -32 10.5 -51t26.5 -28.5t42 -20.5q29 -12 47 -23.5t31.5 -34.5t15.5 -62q-1 -80 -54 -119.5t-144 -39.5q-41 0 -79 12t-93 35
q-50 21 -82.5 32t-68.5 15q-30 2 -45.5 -11t-15.5 -32q0 -10 8 -20t8 -13q0 -7 -6 -12.5t-14 -5.5q-18 0 -26 18z" />
    <glyph glyph-name="uni040F" unicode="&#x40f;" horiz-adv-x="752" 
d="M691 40q10 0 14 -3.5t5 -17.5q0 -9 -4.5 -15.5t-13.5 -6.5q-64 3 -118 3h-181q14 -50 22.5 -102.5t8.5 -85.5q0 -25 -13 -40.5t-35 -15.5q-20 0 -33 15.5t-13 40.5q0 34 8.5 86.5t21.5 101.5h-175q-59 0 -124 -3q-8 0 -13 6.5t-5 15.5q1 15 6.5 18t19.5 3q29 0 43 10.5
t17.5 26t4.5 40.5v397q-1 25 -4.5 40.5t-17.5 26t-43 10.5h-6q-10 0 -14.5 3.5t-5.5 17.5q0 9 5 15.5t13 6.5q65 -3 125 -3q54 0 119 3q9 0 13.5 -6.5t4.5 -15.5q-1 -15 -6.5 -18t-18.5 -3q-29 0 -43 -10.5t-18 -25.5t-5 -41v-474h224q32 -1 46 9t16.5 24.5t2.5 43.5v397
q-1 25 -4.5 40.5t-17.5 26t-43 10.5h-6q-10 0 -14 3.5t-5 17.5q0 9 4.5 15.5t13.5 6.5q65 -3 124 -3q54 0 119 3q9 0 13.5 -6.5t4.5 -15.5q-1 -15 -6 -18t-19 -3q-29 0 -43 -10.5t-17.5 -26t-4.5 -40.5v-397q1 -25 4.5 -40.5t17.5 -26t43 -10.5h6z" />
    <glyph glyph-name="uni042C" unicode="&#x42c;" horiz-adv-x="626" 
d="M55.5 3.5q-4.5 6.5 -4.5 15.5q1 15 6 18t19 3q29 0 43 10.5t17.5 26t4.5 40.5v397q-1 25 -4.5 40.5t-17.5 26t-43 10.5h-6q-10 0 -14 3.5t-5 17.5q0 9 4.5 15.5t13.5 6.5q64 -3 118 -3q60 0 125 3q9 0 13.5 -6.5t4.5 -15.5q-1 -15 -6.5 -18t-18.5 -3q-29 0 -43 -10.5
t-17.5 -26t-4.5 -40.5v-138q55 9 103 9q79 0 134.5 -26t83.5 -69.5t28 -97.5q0 -70 -42 -113t-105 -61t-131 -18h-123q-54 0 -119 -3q-9 0 -13.5 6.5zM431.5 75q46.5 34 46.5 116q0 74 -52 112t-123 38q-39 0 -63 -6v-216q-1 -34 5 -50.5t19 -22.5t39 -6q82 1 128.5 35z" />
    <glyph glyph-name="uni042A" unicode="&#x42a;" horiz-adv-x="705" 
d="M154.5 3.5q-4.5 6.5 -4.5 15.5q1 15 6.5 18t18.5 3q29 0 43 10.5t17.5 26t4.5 40.5v471h-57q-34 -1 -52.5 -14.5t-28 -40t-17.5 -76.5q-1 -9 -10.5 -13.5t-20.5 -4.5q-10 0 -19 5.5t-9 14.5l3 148q0 24 27 24h231q60 0 125 3q8 0 12.5 -6.5t4.5 -15.5q-1 -15 -6 -18
t-19 -3q-29 0 -43 -10.5t-17.5 -26t-4.5 -40.5v-138q57 9 103 9q73 0 124 -26t76.5 -69.5t25.5 -97.5q0 -70 -39 -113t-97.5 -61t-120.5 -18h-123q-55 0 -120 -3q-9 0 -13.5 6.5zM516 75q41 34 41 116q0 75 -43.5 112.5t-111.5 37.5q-39 0 -63 -6v-216q0 -34 5.5 -50.5
t18.5 -22.5t39 -6q73 1 114 35z" />
    <glyph glyph-name="uni042B" unicode="&#x42b;" horiz-adv-x="893" 
d="M47.5 3.5q-4.5 6.5 -4.5 15.5q0 15 5.5 18t19.5 3q29 0 43 10.5t17.5 26t4.5 40.5v397q-1 25 -4.5 40.5t-17.5 26t-43 10.5h-6q-10 0 -14.5 3.5t-4.5 17.5q0 9 4.5 16t13.5 6q43 -3 118 -3l60 1q42 2 65 2q9 0 13.5 -6.5t4.5 -15.5q0 -15 -5.5 -18t-19.5 -3
q-29 0 -43 -10.5t-17.5 -26t-4.5 -40.5v-138q57 9 103 9q73 0 124 -26t76.5 -69.5t25.5 -97.5q0 -70 -39 -113t-97.5 -61t-121.5 -18h-123l-57 -1q-40 -2 -62 -2q-9 0 -13.5 6.5zM576.5 3.5q-4.5 6.5 -4.5 15.5q1 15 6.5 18t18.5 3q29 0 43 10.5t17.5 26t4.5 40.5v397
q-1 25 -4.5 40.5t-17.5 26t-43 10.5h-6q-9 0 -13.5 3.5t-5.5 17.5q0 9 4.5 15.5t13.5 6.5q65 -3 124 -3q55 0 119 3q9 0 13.5 -6.5t4.5 -15.5q-1 -15 -6 -18t-19 -3q-29 0 -43 -10.5t-17.5 -26t-4.5 -40.5v-397q1 -25 4.5 -40.5t17.5 -26t43 -10.5h6q10 0 14 -3.5t5 -17.5
q0 -9 -4.5 -15.5t-13.5 -6.5q-64 3 -118 3q-60 0 -125 -3q-9 0 -13.5 6.5zM408 74q42 34 42 117q0 74 -46 112t-109 38q-39 0 -63 -6v-216q-1 -48 11.5 -63.5t46.5 -15.5q76 0 118 34z" />
    <glyph glyph-name="uni0409" unicode="&#x409;" horiz-adv-x="923" 
d="M824 52.5q-62 -46.5 -150 -54.5q-2 -1 -8 -1h-6h-31v2q-28 1 -82 1l-60 -1q-42 -2 -64 -2q-9 0 -13.5 6.5t-4.5 15.5q0 15 5.5 18t19.5 3q29 0 43 10.5t17.5 26t4.5 40.5v471h-100q-20 0 -30 -4t-16.5 -18.5t-9.5 -44.5q-18 -183 -36.5 -290.5t-56 -174t-102.5 -66.5
q-55 0 -86 26.5t-31 66.5q0 33 20.5 54t51.5 21q11 0 18.5 -3t9.5 -6q0 -3 -5.5 -13t-5.5 -24q0 -39 42 -39q37 0 60.5 52.5t37.5 142t30 246.5q1 8 1 22q0 31 -13.5 43t-48.5 12h-6q-10 0 -14.5 3.5t-4.5 17.5q0 9 4.5 16t13.5 6q43 -3 118 -3h212l57 1q38 2 61 2
q9 0 13.5 -6.5t4.5 -15.5q0 -15 -5.5 -18t-19.5 -3q-37 0 -51 -19t-14 -58v-134q45 5 76 5q69 0 118 -26t73.5 -69.5t24.5 -97.5q0 -93 -62 -139.5zM742 78q33 35 33 113q0 74 -43 112t-102 38q-24 0 -36 -1v-223q1 -24 4 -38.5t15 -25.5t37 -13q59 3 92 38z" />
    <glyph glyph-name="uni040A" unicode="&#x40a;" horiz-adv-x="980" 
d="M47.5 3.5q-4.5 6.5 -4.5 15.5q0 15 5.5 18t19.5 3q29 0 43 10.5t17.5 26t4.5 40.5v397q-1 25 -4.5 40.5t-17.5 26t-43 10.5h-6q-10 0 -14.5 3.5t-4.5 17.5q0 9 4.5 16t13.5 6q43 -3 118 -3l60 1q42 2 65 2q9 0 13.5 -6.5t4.5 -15.5q0 -15 -5.5 -18t-19.5 -3
q-29 0 -43 -10.5t-17.5 -26t-4.5 -40.5v-177h294v177q-1 25 -4.5 40.5t-17.5 26t-43 10.5h-6q-10 0 -14.5 3.5t-5.5 17.5q0 9 5 15.5t13 6.5q64 -3 125 -3q55 0 119 3q9 0 13.5 -6.5t4.5 -15.5q-1 -15 -6.5 -18t-18.5 -3q-29 0 -43.5 -10.5t-18 -26t-4.5 -40.5v-138
q57 9 103 9q69 0 118 -26t73.5 -69.5t24.5 -97.5q0 -70 -37.5 -113t-94 -61t-116.5 -18h-118q-59 0 -124 -3q-8 0 -13 6.5t-5 15.5q1 15 6.5 18t19.5 3q29 0 43 10.5t17.5 26t4.5 40.5v177h-294v-177q1 -25 4.5 -40.5t17.5 -26t43 -10.5h6q10 0 14.5 -3.5t4.5 -17.5
q0 -9 -4.5 -16t-13.5 -6q-43 3 -124 3l-57 -1q-40 -2 -62 -2q-9 0 -13.5 6.5zM795 75q37 34 37 116q0 74 -43 112t-102 38q-39 0 -63 -6v-218q1 -25 4.5 -40.5t18 -26t43.5 -10.5q68 1 105 35z" />
    <glyph glyph-name="uni0405" unicode="&#x405;" horiz-adv-x="545" 
d="M104.5 16.5q-55.5 36.5 -55.5 107.5q0 36 24.5 59.5t63.5 23.5q23 -1 35 -11.5t12 -19.5q0 -1 -10 -7t-18 -18t-8 -33q0 -47 28.5 -72.5t88.5 -25.5q41 0 72 16t47.5 42.5t16.5 55.5q0 36 -20.5 62t-50.5 43.5t-82 40.5q-60 27 -97 49t-63 58.5t-26 90.5q0 87 59.5 130
t156.5 43q76 0 132.5 -32t56.5 -94q0 -36 -24.5 -59.5t-63.5 -23.5q-23 1 -35 11.5t-12 19.5q0 1 13.5 7t24 18t10.5 33q0 37 -28.5 58t-72.5 21q-61 0 -92.5 -28.5t-31.5 -70.5q0 -35 19 -58.5t61 -46.5q34 -18 74 -36q64 -29 101.5 -53t63 -63t25.5 -97q0 -50 -31.5 -90.5
t-85 -63.5t-117.5 -23q-105 0 -160.5 36.5z" />
    <glyph glyph-name="uni0404" unicode="&#x404;" horiz-adv-x="639" 
d="M604 105q0 -6 -4 -10q-38 -48 -71.5 -72.5t-72.5 -33.5t-98 -9q-85 0 -155.5 40.5t-112 115.5t-41.5 175q0 101 40 178t114 119.5t173 42.5q86 0 153 -34.5t67 -106.5q1 -45 -27 -76.5t-75 -31.5q-18 0 -30.5 6.5t-18.5 15.5t-5 14q0 2 14 11t25 25t11 39
q0 45 -30.5 71.5t-84.5 26.5q-59 0 -105 -32t-73.5 -94t-30.5 -148h245q7 -1 11 -7.5t4 -15.5q0 -8 -4 -14t-11 -6h-244q4 -75 33.5 -135t79.5 -95t114 -35q54 0 92.5 22.5t69.5 72.5q5 9 14 9q8 0 18 -6q16 -11 16 -22z" />
    <glyph glyph-name="uni042D" unicode="&#x42d;" horiz-adv-x="673" 
d="M148.5 4q-67.5 24 -85.5 92q-2 14 -2 22q0 44 26.5 75.5t71.5 30.5q26 -1 40.5 -12.5t15.5 -21.5q0 -2 -13 -12t-23.5 -25t-10.5 -36q-1 -31 16.5 -53.5t46 -33.5t59.5 -10q79 4 122.5 43t59.5 96.5t19 134.5h-246q-7 0 -11 6t-4 14q0 9 4 15.5t11 7.5h246
q-2 124 -54 195t-137 71q-68 0 -109 -38t-52 -112q-1 -9 -10.5 -13.5t-20.5 -4.5q-10 0 -19 5.5t-9 14.5l11 148q103 49 202 48q112 0 183 -48.5t102 -120.5t31 -146q0 -138 -53.5 -217.5t-127 -109t-145.5 -29.5q-67 0 -134.5 24z" />
    <glyph glyph-name="uni0406" unicode="&#x406;" horiz-adv-x="364" 
d="M46.5 3.5q-4.5 6.5 -4.5 15.5q1 15 6.5 18t18.5 3q29 0 43 10.5t18 25.5t5 41v397q-1 26 -5 41t-18 25.5t-43 10.5h-6q-9 0 -13.5 3.5t-5.5 17.5q0 9 4.5 15.5t13.5 6.5q65 -3 119 -3q60 0 125 3q9 0 13.5 -6.5t4.5 -15.5q-1 -15 -6.5 -18t-19.5 -3q-29 0 -43 -10.5
t-17.5 -26t-4.5 -40.5v-397q1 -25 4.5 -40.5t17.5 -26t43 -10.5h6q10 0 14.5 -3.5t5.5 -17.5q0 -9 -4.5 -15.5t-13.5 -6.5q-64 3 -124 3q-55 0 -120 -3q-9 0 -13.5 6.5z" />
    <glyph glyph-name="uni0407" unicode="&#x407;" horiz-adv-x="364" 
d="M46.5 3.5q-4.5 6.5 -4.5 15.5q1 15 6.5 18t18.5 3q29 0 43 10.5t18 25.5t5 41v397q-1 26 -5 41t-18 25.5t-43 10.5h-6q-9 0 -13.5 3.5t-5.5 17.5q0 9 4.5 15.5t13.5 6.5q65 -3 119 -3q60 0 125 3q9 0 13.5 -6.5t4.5 -15.5q-1 -15 -6.5 -18t-19.5 -3q-29 0 -43 -10.5
t-17.5 -26t-4.5 -40.5v-397q1 -25 4.5 -40.5t17.5 -26t43 -10.5h6q10 0 14.5 -3.5t5.5 -17.5q0 -9 -4.5 -15.5t-13.5 -6.5q-64 3 -124 3q-55 0 -120 -3q-9 0 -13.5 6.5zM42.5 729q-18.5 18 -18.5 42q0 26 18 43t45 17q26 0 43 -17t17 -43q0 -24 -17.5 -42t-43.5 -18
q-25 0 -43.5 18zM234.5 729q-18.5 18 -18.5 42q0 26 18 43t45 17q26 0 43 -17t17 -43q0 -24 -17.5 -42t-43.5 -18q-25 0 -43.5 18z" />
    <glyph glyph-name="uni0408" unicode="&#x408;" horiz-adv-x="361" 
d="M35 -192q-14 0 -19 17q-1 3 -1 9q0 12 11 16q50 21 74 60t31 96.5t7 155.5v352q-1 25 -4.5 40.5t-17.5 26t-43 10.5h-6q-10 0 -14.5 3.5t-5.5 17.5q0 9 5 15.5t13 6.5q64 -3 119 -3q61 0 125 3q9 0 13.5 -6.5t4.5 -15.5q-1 -15 -6.5 -18t-19.5 -3q-29 0 -43 -10.5
t-17.5 -26t-4.5 -40.5v-386q0 -129 -45.5 -211.5t-151.5 -108.5h-4z" />
    <glyph glyph-name="uni040B" unicode="&#x40b;" horiz-adv-x="803" 
d="M738 40q10 0 15 -3.5t5 -17.5q0 -9 -5 -16t-13 -6q-29 3 -80 3h-39l-60 -1q-42 -2 -65 -2q-9 0 -13.5 6.5t-4.5 15.5q0 15 5.5 18t19.5 3q29 0 43 10.5t18 25.5t5 41v59q0 72 -34.5 105t-91.5 33q-51 0 -113 -30v-167q1 -25 4.5 -40.5t17.5 -26t43 -10.5h6q9 0 13.5 -3.5
t5.5 -17.5q0 -9 -4.5 -15.5t-13.5 -6.5q-64 3 -118 3q-61 0 -125 -3q-9 0 -13.5 6.5t-4.5 15.5q1 15 6 18t19 3q29 0 43 10.5t17.5 26t4.5 40.5v477h-49q-34 -1 -52 -14.5t-27.5 -39.5t-17.5 -76q-1 -8 -12 -13t-23 -5q-9 0 -16.5 5.5t-7.5 14.5l3 141q0 24 27 24h489
q12 0 18.5 -5.5t7.5 -18.5l4 -141q0 -9 -8 -14.5t-17 -5.5q-12 0 -22.5 5t-11.5 13q-8 50 -17.5 76t-28 39.5t-52.5 14.5h-88v-267q72 27 101 34t62 7q84 0 129 -45t45 -136v-70q1 -25 4.5 -40.5t17.5 -26t43 -10.5h6z" />
    <glyph glyph-name="uni042E" unicode="&#x42e;" horiz-adv-x="1044" 
d="M520.5 23q-66.5 43 -102 114.5t-38.5 156.5h-140v-177q1 -25 4.5 -40.5t17.5 -26t43 -10.5h6q9 0 13.5 -3.5t5.5 -17.5q0 -9 -4.5 -15.5t-13.5 -6.5q-65 3 -124 3q-55 0 -120 -3q-8 0 -12.5 6.5t-4.5 15.5q1 15 6 18t19 3q29 0 43 10.5t17.5 26t4.5 40.5v397
q-1 25 -4.5 40.5t-17.5 26t-43 10.5h-6q-10 0 -14 3.5t-5 17.5q0 9 4.5 15.5t12.5 6.5q64 -3 119 -3q60 0 125 3q9 0 13.5 -6.5t4.5 -15.5q-1 -15 -6.5 -18t-18.5 -3q-29 0 -43 -10.5t-17.5 -26t-4.5 -40.5v-177h141q6 97 49.5 168t109.5 108.5t138 37.5q96 0 164.5 -45
t103 -119.5t34.5 -161.5q0 -106 -43.5 -184t-113 -119.5t-145.5 -41.5q-91 0 -157.5 43zM818.5 107q42.5 83 42.5 218q0 125 -43.5 204t-140.5 79q-179 0 -179 -298q0 -127 42 -206.5t137 -79.5q99 0 141.5 83z" />
    <glyph glyph-name="uni042F" unicode="&#x42f;" horiz-adv-x="732" 
d="M58 5.5q-29 15.5 -36 47.5v4q0 8 4 13.5t11 5.5q5 0 9 -4t10 -12q9 -12 16.5 -18.5t21.5 -6.5q29 0 50 25.5t50 79.5l27 47q24 40 52 68t65 42v3q-83 2 -148 52q-50 43 -50 110q0 94 71 132t156 38l21 -1h155q56 0 120 3q9 0 13.5 -6.5t4.5 -15.5q-1 -15 -6.5 -18
t-19.5 -3q-29 0 -43 -10.5t-17.5 -26t-4.5 -40.5v-397q1 -25 4.5 -40.5t17.5 -26t43 -10.5h6q10 0 14.5 -3.5t5.5 -17.5q0 -9 -4.5 -15.5t-13.5 -6.5q-64 3 -119 3q-60 0 -125 -3q-9 0 -13.5 6.5t-4.5 15.5q1 15 6.5 18t18.5 3q29 0 43 10.5t18 25.5t5 41v168h-24
q-38 0 -64.5 -17t-44 -43t-38.5 -68q-28 -56 -48.5 -88.5t-58 -55.5t-94.5 -23q-33 0 -62 15.5zM492 322v192q0 36 -6 52t-21 20.5t-46 4.5q-80 0 -123.5 -35.5t-43.5 -100.5q0 -85 57.5 -109t131.5 -24h51z" />
    <glyph glyph-name="uni0402" unicode="&#x402;" horiz-adv-x="733" 
d="M622 328q55 -46 55 -127q0 -55 -25.5 -101.5t-71 -74.5t-103.5 -28q-10 0 -14.5 3t-4.5 12q0 11 3.5 15.5t13.5 6.5q46 11 68.5 54.5t22.5 102.5q0 77 -34 104.5t-93 27.5q-52 0 -109 -19v-187q1 -39 8.5 -58t36.5 -19h6q9 0 13.5 -3.5t5.5 -17.5q0 -9 -4.5 -15.5
t-13.5 -6.5q-54 3 -98 3q-61 0 -125 -3q-9 0 -13.5 6.5t-4.5 15.5q1 15 6 18t19 3q29 0 43 10.5t17.5 26t4.5 40.5v477h-49q-34 -1 -52 -14.5t-27.5 -39.5t-17.5 -76q-1 -8 -12 -13t-23 -5q-9 0 -16.5 5.5t-7.5 14.5l3 141q0 24 27 24h489q12 0 18.5 -5.5t7.5 -18.5l4 -121
q0 -9 -8 -14.5t-17 -5.5q-12 0 -22.5 5t-11.5 13q-8 42 -17.5 64.5t-28 33.5t-52.5 12h-88v-256q77 36 152 36q85 0 140 -46z" />
    <glyph glyph-name="uni0462" unicode="&#x462;" horiz-adv-x="716" 
d="M567.5 359q55.5 -26 83.5 -69.5t28 -97.5q0 -70 -42 -113t-105 -61t-131 -18h-123q-55 0 -119 -3q-9 0 -13.5 6.5t-4.5 15.5q1 15 6 18t19 3q29 0 43 10.5t17.5 26t4.5 40.5v437h-49q-34 -1 -52 -14.5t-27.5 -39.5t-17.5 -76q-1 -8 -12 -13t-23 -5q-9 0 -16.5 5.5
t-7.5 14.5l3 141q0 24 27 24h175v13q-1 25 -4.5 40.5t-17.5 26t-43 10.5h-6q-10 0 -14.5 3.5t-4.5 17.5q0 9 4.5 16t13.5 6q43 -3 118 -3l60 1q42 2 65 2q9 0 13.5 -6.5t4.5 -15.5q0 -15 -5.5 -18t-19.5 -3q-29 0 -43 -10.5t-17.5 -26t-4.5 -40.5v-13h215q12 0 18.5 -5.5
t7.5 -18.5l4 -121q0 -9 -8 -14.5t-17 -5.5q-12 0 -22.5 5t-11.5 13q-7 42 -16.5 64t-28.5 33.5t-53 12.5h-88v-178q56 9 103 9q79 0 134.5 -26zM521.5 75q46.5 34 46.5 116q0 74 -52 112t-123 38q-39 0 -63 -6v-216q-1 -34 5 -50.5t19 -22.5t39 -6q82 1 128.5 35z" />
    <glyph glyph-name="uni046A" unicode="&#x46a;" horiz-adv-x="933" 
d="M913 36q5 -4 5 -17q0 -10 -4.5 -16t-13.5 -6l-44 2l-42 1h-64l-74 200q-18 49 -57 73t-98 27q-1 -5 -1 -16v-167q1 -25 4.5 -40.5t18 -26t43.5 -10.5h6q9 0 13.5 -3.5t5.5 -17.5q0 -9 -4.5 -15.5t-13.5 -6.5q-64 3 -120 3q-59 0 -124 -3q-8 0 -13 6.5t-5 15.5
q1 15 6.5 18t19.5 3q42 0 53.5 20t11.5 57v183q-69 -2 -104 -25.5t-53 -75.5l-67 -199h-74l-43 -1l-44 -2q-18 0 -18 22q0 12 5.5 17t19.5 5q32 0 53.5 17t35.5 59l31 91q23 69 81.5 99t155.5 30h12q-20 38 -102 151l-19 27q-31 45 -45 59.5t-38 18.5q-14 2 -19.5 7.5
t-5.5 15.5q0 20 30 20q10 0 40 -2q57 -3 73 -3h345q37 0 67 2q9 1 24 1q19 0 19 -21q0 -22 -26 -22q-46 0 -95 -68l-120 -168q-8 -12 -11 -18h2q87 0 153.5 -30.5t91.5 -98.5l34 -91q15 -42 34.5 -59.5t47.5 -17.5q15 0 20 -4zM406 532l100 -153l150 212h-295q20 -18 45 -59
z" />
    <glyph glyph-name="uni0472" unicode="&#x472;" horiz-adv-x="765" 
d="M550.5 605.5q73.5 -45.5 113 -120t39.5 -160.5q0 -105 -48 -183.5t-123 -120t-151 -41.5q-95 0 -167.5 45.5t-112 120.5t-39.5 161q0 105 47.5 183t121.5 119.5t150 41.5q96 0 169.5 -45.5zM232.5 528q-50.5 -80 -53.5 -204q30 27 66 43.5t72 16.5q24 0 47 -7t53 -20
q36 -15 55.5 -21t42.5 -6q45 0 69 8q-2 75 -25.5 136t-69 97.5t-109.5 36.5q-97 0 -147.5 -80zM527 102.5q52 78.5 57 199.5q-46 -29 -94 -29q-24 0 -44.5 6.5t-58.5 21.5q-5 2 -26.5 10t-40.5 12t-35 4q-66 0 -106 -35q4 -116 55.5 -192t145.5 -76q95 0 147 78.5z" />
    <glyph glyph-name="uni0474" unicode="&#x474;" horiz-adv-x="748" 
d="M708 622q19 -20 19 -55q0 -28 -17 -46.5t-37 -18.5q-13 0 -15 7q0 3 4 8.5t4 15.5q0 12 -8.5 20t-24.5 8q-42 0 -64 -62l-183 -509h-47q-30 82 -95 261t-95 259q-17 43 -33 60t-47 23q-4 1 -12 2.5t-10.5 6t-2.5 14.5q0 12 6.5 16t20.5 4q75 0 114 -23t62 -82l145 -390h3
l138 391q21 58 49.5 84t69.5 26q37 0 56 -20z" />
    <glyph glyph-name="uni0492" unicode="&#x492;" horiz-adv-x="569" 
d="M531 466q0 -9 -7.5 -14.5t-16.5 -5.5q-12 0 -22.5 5t-11.5 13q-8 49 -17.5 75t-28 38.5t-52.5 13.5h-129v-252h108q11 0 17 -6t6 -16t-6 -16t-17 -6h-108v-178q1 -25 4.5 -40.5t17.5 -26t43 -10.5h6q9 0 13.5 -3.5t5.5 -17.5q0 -9 -4.5 -15.5t-13.5 -6.5q-64 3 -124 3
q-55 0 -120 -3q-8 0 -12.5 6.5t-4.5 15.5q1 15 6 18t19 3q29 0 43 10.5t17.5 26t4.5 40.5v178h-62q-11 0 -17 6t-6 16t6 16t17 6h62v175q-1 25 -4.5 40.5t-17.5 26t-43 10.5h-6q-10 0 -14 3.5t-5 17.5q0 9 4.5 15.5t12.5 6.5q65 -3 119 -3h309q26 0 26 -24z" />
    <glyph glyph-name="uni0494" unicode="&#x494;" horiz-adv-x="614" 
d="M460.5 328q44.5 -26 70 -73t25.5 -106q0 -74 -29 -129t-75 -84t-96 -29q-10 0 -14.5 3t-4.5 12q0 12 4 16t13 6q47 8 71 60t24 136q0 81 -38 122t-93 41q-40 0 -86 -12v-174q1 -25 4.5 -40.5t17.5 -26t43 -10.5h6q9 0 13.5 -3.5t5.5 -17.5q0 -9 -4.5 -15.5t-13.5 -6.5
q-64 3 -124 3q-55 0 -120 -3q-8 0 -12.5 6.5t-4.5 15.5q1 15 6 18t19 3q29 0 43 10.5t17.5 26t4.5 40.5v397q-1 25 -4.5 40.5t-17.5 26t-43 10.5h-6q-10 0 -14 3.5t-5 17.5q0 9 4.5 15.5t12.5 6.5q65 -3 119 -3h309q26 0 26 -24l3 -141q0 -9 -7.5 -14.5t-16.5 -5.5
q-12 0 -22.5 5t-11.5 13q-8 49 -17.5 75t-28 38.5t-52.5 13.5h-129v-263q64 26 129 26q55 0 99.5 -26z" />
    <glyph glyph-name="uni0496" unicode="&#x496;" horiz-adv-x="1120" 
d="M1070 41q5 -7 3 -17q-14 -121 -25 -180q-5 -22 -28 -22q-40 0 -38 35l1 30q0 97 -48 107q-36 10 -62 34.5t-42 55t-36 77.5q-22 52 -40 82.5t-47 51.5t-72 21h-23v-199q1 -25 4.5 -40.5t18 -26t43.5 -10.5h6q9 0 13.5 -3.5t5.5 -17.5q0 -9 -4.5 -15.5t-13.5 -6.5
q-64 3 -120 3q-59 0 -124 -3q-8 0 -13 6.5t-5 15.5q1 15 6.5 18t19.5 3q29 0 43 10.5t17.5 26t4.5 40.5v199h-23q-43 0 -72 -20.5t-47 -51.5t-39 -82q-25 -57 -45.5 -91t-55.5 -57.5t-89 -23.5q-33 0 -62 15.5t-36 47.5v4q0 8 4 13.5t11 5.5q5 0 9 -4t10 -12
q9 -12 16.5 -18.5t21.5 -6.5q29 0 48 27t46 88q27 60 49.5 97.5t60 65t90.5 27.5v3q-27 5 -50.5 27.5t-41.5 59.5l-11 25q-18 48 -37.5 76.5t-51.5 28.5q-22 0 -35.5 -19.5t-13.5 -47.5q0 -5 -7 -5q-11 0 -26 9t-26 26t-11 39q0 34 27 62t72 28q37 -2 63.5 -26t43 -55.5
t36.5 -79.5q16 -39 23 -53q42 -82 105 -82h44v158q-1 25 -4.5 40.5t-17.5 26t-43 10.5h-6q-10 0 -14.5 3.5t-5.5 17.5q0 9 5 15.5t13 6.5q64 -3 125 -3q55 0 119 3q9 0 13.5 -6.5t4.5 -15.5q-1 -15 -6.5 -18t-18.5 -3q-29 0 -43.5 -10.5t-18 -26t-4.5 -40.5v-158h44
q63 0 105 82q7 14 23 53q20 48 36.5 79.5t43 55.5t63.5 26q45 0 72 -28t27 -62q0 -22 -11 -39t-26 -26t-26 -9q-7 0 -7 5q0 28 -13.5 47.5t-35.5 19.5q-32 0 -51.5 -28.5t-37.5 -76.5l-11 -25q-18 -37 -41.5 -59.5t-50.5 -27.5v-3q54 0 91.5 -27.5t59.5 -65t49 -96.5
q26 -58 45 -85t47 -27q9 0 21 4q12 5 24 5t17 -7z" />
    <glyph glyph-name="uni0498" unicode="&#x498;" horiz-adv-x="592" 
d="M478.5 41.5q-58.5 -49.5 -148.5 -59.5l-11 -136q-1 -26 -33 -26q-31 0 -33 23q-4 72 -13 105t-24 37h2q-71 12 -113 46.5t-42 92.5q0 41 26.5 70.5t67.5 29.5q26 0 41.5 -12t16.5 -22q0 -2 -13 -12t-23.5 -25t-10.5 -36q-2 -47 32.5 -72t89.5 -25q63 0 101 39t38 112
q0 61 -44 101t-109 42h-37q-7 0 -11 6t-4 14q0 9 4 15.5t11 7.5h37q122 9 122 121q0 55 -29.5 93.5t-85.5 38.5q-55 0 -87 -38.5t-49 -114.5q-2 -8 -12 -12t-22 -2q-9 2 -17 8.5t-7 15.5l12 146q13 3 39 11q50 14 85.5 20.5t82.5 6.5q59 0 104 -21.5t69 -58.5t24 -82
q0 -56 -35 -93t-99 -55v-3q84 -13 125 -58t41 -106q0 -83 -58.5 -132.5z" />
    <glyph glyph-name="uni049A" unicode="&#x49a;" horiz-adv-x="741" 
d="M715 24l-3 -28q-12 -103 -22 -152q-5 -22 -28 -22q-20 0 -30 9.5t-8 25.5q1 11 1 33q0 94 -48 104q-39 8 -66.5 32.5t-45 55.5t-38.5 80q-23 52 -41.5 82.5t-47.5 51t-72 20.5h-26v-199q1 -25 4.5 -40.5t17.5 -26t43 -10.5h6q10 0 14.5 -3.5t5.5 -17.5q0 -9 -4.5 -15.5
t-13.5 -6.5q-64 3 -124 3q-55 0 -120 -3q-9 0 -13.5 6.5t-4.5 15.5q1 15 6.5 18t18.5 3q29 0 43 10.5t18 25.5t5 41v397q-1 26 -5 41t-18 25.5t-43 10.5h-6q-9 0 -13.5 3.5t-5.5 17.5q0 9 4.5 15.5t13.5 6.5q64 -3 119 -3q60 0 125 3q9 0 13.5 -6.5t4.5 -15.5
q-1 -15 -6.5 -18t-19.5 -3q-29 0 -43 -10.5t-17.5 -26t-4.5 -40.5v-158h47q32 0 62.5 20t52.5 62q7 14 23 53q20 48 36.5 79.5t43 55.5t63.5 26q45 0 72 -28t27 -62q0 -22 -11.5 -39t-26.5 -26t-25 -9q-8 0 -8 5q0 26 -13 46.5t-32 20.5q-34 0 -53.5 -27t-38.5 -75
q-8 -20 -12 -28q-17 -36 -41 -59t-50 -28v-3q56 0 94.5 -29t62 -68t50.5 -100q24 -54 40.5 -79t39.5 -25q9 0 29 5q14 4 21 4q25 0 22 -24z" />
    <glyph glyph-name="uni049C" unicode="&#x49c;" horiz-adv-x="748" 
d="M705 76q9 0 13.5 -7t2.5 -16q-6 -32 -35.5 -47.5t-62.5 -15.5q-53 0 -88.5 23.5t-57 57.5t-47.5 91q-24 51 -42 80.5t-43 48.5v-75q0 -11 -6 -17t-16 -6t-16 6.5t-6 16.5v96q-15 4 -35 4h-26v-199q1 -25 4.5 -40.5t17.5 -26t43 -10.5h6q10 0 14.5 -3.5t5.5 -17.5
q0 -9 -4.5 -15.5t-13.5 -6.5q-64 3 -124 3q-55 0 -120 -3q-9 0 -13.5 6.5t-4.5 15.5q1 15 6.5 18t18.5 3q29 0 43 10.5t18 25.5t5 41v397q-1 26 -5 41t-18 25.5t-43 10.5h-6q-9 0 -13.5 3.5t-5.5 17.5q0 9 4.5 15.5t13.5 6.5q64 -3 119 -3q60 0 125 3q9 0 13.5 -6.5
t4.5 -15.5q-1 -15 -6.5 -18t-19.5 -3q-29 0 -43 -10.5t-17.5 -26t-4.5 -40.5v-158h47q9 0 14 1v78q0 10 6 16.5t16 6.5t16 -6t6 -17v-62q34 21 57 65q7 14 23 53q20 48 36.5 79.5t43 55.5t63.5 26q45 0 72 -28t27 -62q0 -22 -11.5 -39t-26.5 -26t-25 -9q-8 0 -8 5
q0 26 -13 46.5t-32 20.5q-34 0 -53.5 -27t-38.5 -75q-8 -20 -12 -28q-17 -36 -41 -59t-50 -28v-3q53 0 90 -27.5t60 -66t49 -96.5q27 -60 46.5 -87.5t48.5 -27.5q13 0 21.5 7t16.5 19q9 15 16 15h1z" />
    <glyph glyph-name="uni04A0" unicode="&#x4a0;" horiz-adv-x="863" 
d="M661 13.5q-36 23.5 -57.5 58t-46.5 90.5q-24 52 -42.5 82.5t-48.5 51t-73 20.5h-26v-199q1 -25 4.5 -40.5t17.5 -26t43 -10.5h6q10 0 14.5 -3.5t5.5 -17.5q0 -9 -4.5 -15.5t-13.5 -6.5q-64 3 -124 3q-55 0 -120 -3q-9 0 -13.5 6.5t-4.5 15.5q1 15 6.5 18t18.5 3
q29 0 43 10.5t18 25.5t5 41v397q-4 80 -56 80h-31q-34 0 -52 -13.5t-27.5 -39.5t-17.5 -77q-3 -18 -34 -18q-25 0 -25 20l3 141q0 24 27 24h259q61 0 125 3q9 0 13.5 -6.5t4.5 -15.5q-1 -15 -6.5 -18t-19.5 -3q-29 0 -43 -10.5t-17.5 -26t-4.5 -40.5v-158h47q32 0 62.5 20
t52.5 62q7 14 23 53q20 48 36.5 79.5t43 55.5t63.5 26q45 0 72 -28t27 -62q0 -22 -11.5 -39t-26.5 -26t-25 -9q-8 0 -8 5q0 26 -13 46.5t-32 20.5q-34 0 -53.5 -27t-38.5 -75q-8 -20 -12 -28q-17 -36 -41 -59t-50 -28v-3q53 0 90 -27.5t60 -66t49 -96.5q27 -60 46.5 -87.5
t48.5 -27.5q13 0 21.5 7t16.5 19q9 15 16 15h1q9 0 13.5 -7t2.5 -16q-6 -32 -35.5 -47.5t-62.5 -15.5q-53 0 -89 23.5z" />
    <glyph glyph-name="uni04A2" unicode="&#x4a2;" horiz-adv-x="777" 
d="M758 11v-165q0 -11 -9 -18t-20 -7q-33 0 -37 22q-10 64 -20 95t-31 46t-62 16q-50 0 -106 -3q-8 0 -13 6.5t-5 15.5q1 15 6.5 18t19.5 3q29 0 43 10.5t17.5 26t4.5 40.5v177h-314v-177q1 -25 4.5 -40.5t17.5 -26t43 -10.5h6q10 0 14 -3.5t5 -17.5q0 -9 -4.5 -15.5
t-13.5 -6.5q-64 3 -124 3q-54 0 -119 -3q-9 0 -13.5 6.5t-4.5 15.5q1 15 6 18t19 3q29 0 43 10.5t17.5 26t4.5 40.5v397q-1 25 -4.5 40.5t-17.5 26t-43 10.5h-6q-10 0 -14 3.5t-5 17.5q0 9 4.5 15.5t13.5 6.5q65 -3 118 -3q60 0 125 3q9 0 13.5 -6.5t4.5 -15.5
q-1 -15 -6 -18t-19 -3q-29 0 -43 -10.5t-17.5 -26t-4.5 -40.5v-177h314v177q-1 25 -4.5 40.5t-17.5 26t-43 10.5h-6q-10 0 -14.5 3.5t-5.5 17.5q0 9 5 15.5t13 6.5q65 -3 125 -3q55 0 119 3q9 0 13.5 -6.5t4.5 -15.5q-1 -15 -6.5 -18t-18.5 -3q-29 0 -43.5 -10.5t-18 -26
t-4.5 -40.5v-376q0 -39 4.5 -57.5t21.5 -28t55 -9.5q33 0 33 -32z" />
    <glyph glyph-name="uni04AA" unicode="&#x4aa;" horiz-adv-x="675" 
d="M619 105q0 -6 -4 -10q-46 -58 -86.5 -82.5t-97.5 -30.5l-11 -136q-1 -26 -33 -26q-31 0 -33 23q-5 70 -13 103.5t-22 37.5q-72 12 -130 55t-91.5 113t-33.5 159q0 101 40 178t114 119.5t173 42.5q86 0 153 -34.5t67 -106.5q1 -45 -27 -76.5t-75 -31.5q-18 0 -30.5 6.5
t-18.5 15.5t-5 14q0 2 14 11t25 25t11 39q0 45 -30.5 71.5t-84.5 26.5q-61 0 -108.5 -34.5t-74 -101t-26.5 -158.5q0 -80 28.5 -145.5t80.5 -104t119 -38.5q54 0 92.5 22.5t69.5 72.5q5 9 14 9q8 0 18 -6q16 -11 16 -22z" />
    <glyph glyph-name="uni04AE" unicode="&#x4ae;" horiz-adv-x="621" 
d="M176.5 3.5q-4.5 6.5 -4.5 15.5q1 15 6.5 18t18.5 3q29 0 43 10.5t17.5 26t4.5 40.5v125q0 16 -49.5 116.5t-80.5 156.5q-20 36 -44 53.5t-59 24.5q-4 1 -12 2.5t-10.5 6t-2.5 14.5q0 12 6.5 16t20.5 4q80 0 125 -21.5t80 -82.5q17 -33 47 -95q44 -88 58 -114h3l111 219
q9 20 9 29q0 12 -12.5 16t-40.5 4h-6q-10 0 -14 3.5t-5 17.5q0 9 4.5 15.5t12.5 6.5q65 -3 109 -3q37 0 101 3q9 0 13.5 -6.5t4.5 -15.5q-1 -14 -5 -17.5t-14 -3.5q-41 0 -66 -15.5t-45 -52.5l-113 -213q-3 -6 -12 -24.5t-12 -34t-3 -37.5v-97q1 -25 4.5 -40.5t17.5 -26
t43 -10.5h6q10 0 14 -3.5t5 -17.5q0 -9 -4.5 -15.5t-12.5 -6.5q-64 3 -120 3q-59 0 -124 -3q-9 0 -13.5 6.5z" />
    <glyph glyph-name="uni04B0" unicode="&#x4b0;" horiz-adv-x="621" 
d="M626.5 627.5q4.5 -6.5 4.5 -15.5q-1 -14 -5 -17.5t-14 -3.5q-41 0 -66 -15.5t-45 -52.5l-113 -213q-2 -3 -10 -20t-12 -31h69q11 0 17 -6t6 -16t-6 -16t-17 -6h-74v-1v-97q1 -25 4.5 -40.5t17.5 -26t43 -10.5h6q10 0 14 -3.5t5 -17.5q0 -9 -4.5 -15.5t-12.5 -6.5
q-64 3 -120 3q-59 0 -124 -3q-9 0 -13.5 6.5t-4.5 15.5q1 15 6.5 18t18.5 3q29 0 43 10.5t17.5 26t4.5 40.5v98h-76q-11 0 -17 6t-6 16t6 16t17 6h72q-13 37 -56.5 123.5t-69.5 132.5q-20 36 -44 53.5t-59 24.5q-4 1 -12 2.5t-10.5 6t-2.5 14.5q0 12 6.5 16t20.5 4
q80 0 125 -21.5t80 -82.5q17 -33 47 -95q44 -88 58 -114h3l111 219q9 20 9 29q0 12 -12.5 16t-40.5 4h-6q-10 0 -14 3.5t-5 17.5q0 9 4.5 15.5t12.5 6.5q65 -3 109 -3q37 0 101 3q9 0 13.5 -6.5z" />
    <glyph glyph-name="uni04B6" unicode="&#x4b6;" horiz-adv-x="707" 
d="M680 11v-165q0 -11 -9 -18t-20 -7q-33 0 -37 22q-10 64 -20 95t-31 46t-62 16q-51 0 -106 -3q-9 0 -13.5 6.5t-4.5 15.5q1 15 6 18t19 3q29 0 43 10.5t17.5 26t4.5 40.5v177q-72 -27 -101 -34t-61 -7q-53 0 -97.5 18t-66.5 47q-15 19 -23 45t-8 71v80q-1 25 -4.5 40.5
t-17.5 26t-43 10.5h-6q-10 0 -14.5 3.5t-5.5 17.5q0 9 5 15.5t13 6.5q64 -3 119 -3q60 0 125 3q9 0 13.5 -6.5t4.5 -15.5q-1 -15 -6.5 -18t-18.5 -3q-29 0 -43 -10.5t-18 -25.5t-5 -41v-69q0 -72 40 -105t106 -33q51 0 113 30v177q-1 25 -4.5 40.5t-17.5 26t-43 10.5h-6
q-10 0 -14 3.5t-5 17.5q0 9 4.5 15.5t13.5 6.5q65 -3 125 -3q53 0 118 3q9 0 13.5 -6.5t4.5 -15.5q-1 -15 -6.5 -18t-18.5 -3q-29 0 -43 -10.5t-17.5 -26t-4.5 -40.5v-376q0 -39 4.5 -57.5t21.5 -28t55 -9.5q33 0 33 -32z" />
    <glyph glyph-name="uni04B8" unicode="&#x4b8;" horiz-adv-x="707" 
d="M637 40q9 0 13.5 -3.5t5.5 -17.5q0 -9 -4.5 -15.5t-13.5 -6.5q-64 3 -120 3q-58 0 -123 -3q-9 0 -13.5 6.5t-4.5 15.5q1 15 6 18t19 3q29 0 43 10.5t17.5 26t4.5 40.5v177q-56 -21 -80 -28v-77q0 -11 -6 -17t-16 -6t-16 6.5t-6 16.5v67q-10 -2 -17.5 -2.5t-12.5 -0.5
q-55 -1 -102 17t-70 48q-15 19 -23 45t-8 71v80q-1 25 -4.5 40.5t-17.5 26t-43 10.5h-6q-10 0 -14.5 3.5t-5.5 17.5q0 9 5 15.5t13 6.5q64 -3 119 -3q60 0 125 3q9 0 13.5 -6.5t4.5 -15.5q-1 -15 -6.5 -18t-18.5 -3q-29 0 -43 -10.5t-18 -25.5t-5 -41v-69q0 -69 37 -102.5
t98 -35.5v101q0 10 6 16.5t16 6.5t16 -6t6 -17v-98q37 5 80 27v177q-1 25 -4.5 40.5t-17.5 26t-43 10.5h-6q-10 0 -14 3.5t-5 17.5q0 9 4.5 15.5t13.5 6.5q65 -3 125 -3q53 0 118 3q9 0 13.5 -6.5t4.5 -15.5q-1 -15 -6.5 -18t-18.5 -3q-29 0 -43 -10.5t-17.5 -26t-4.5 -40.5
v-397q1 -25 4.5 -40.5t17.5 -26t43 -10.5h6z" />
    <glyph glyph-name="uni04BA" unicode="&#x4ba;" horiz-adv-x="707" 
d="M325.5 627.5q4.5 -6.5 4.5 -15.5q-1 -15 -6 -18t-19 -3q-29 0 -43 -10.5t-17.5 -26t-4.5 -40.5v-177q72 27 101 34t61 7q53 0 97.5 -18t66.5 -47q15 -19 23 -45t8 -71v-80q1 -25 4.5 -40.5t17.5 -26t43 -10.5h6q10 0 14.5 -3.5t5.5 -17.5q0 -9 -4.5 -15.5t-13.5 -6.5
q-64 3 -119 3q-60 0 -125 -3q-9 0 -13.5 6.5t-4.5 15.5q1 15 6.5 18t18.5 3q29 0 43 10.5t18 25.5t5 41v69q0 72 -40 105t-106 33q-51 0 -113 -30v-177q1 -25 4.5 -40.5t17.5 -26t43 -10.5h6q10 0 14 -3.5t5 -17.5q0 -9 -4.5 -15.5t-13.5 -6.5q-65 3 -125 3q-53 0 -118 -3
q-9 0 -13.5 6.5t-4.5 15.5q1 15 6.5 18t18.5 3q29 0 43 10.5t17.5 26t4.5 40.5v397q-1 25 -4.5 40.5t-17.5 26t-43 10.5h-6q-9 0 -13.5 3.5t-5.5 17.5q0 9 4.5 15.5t13.5 6.5q64 -3 120 -3q58 0 123 3q9 0 13.5 -6.5z" />
    <glyph glyph-name="uni04C0" unicode="&#x4c0;" horiz-adv-x="364" 
d="M46.5 3.5q-4.5 6.5 -4.5 15.5q1 15 6.5 18t18.5 3q29 0 43 10.5t18 25.5t5 41v397q-1 26 -5 41t-18 25.5t-43 10.5h-6q-9 0 -13.5 3.5t-5.5 17.5q0 9 4.5 15.5t13.5 6.5q65 -3 119 -3q60 0 125 3q9 0 13.5 -6.5t4.5 -15.5q-1 -15 -6.5 -18t-19.5 -3q-29 0 -43 -10.5
t-17.5 -26t-4.5 -40.5v-397q1 -25 4.5 -40.5t17.5 -26t43 -10.5h6q10 0 14.5 -3.5t5.5 -17.5q0 -9 -4.5 -15.5t-13.5 -6.5q-64 3 -124 3q-55 0 -120 -3q-9 0 -13.5 6.5z" />
    <glyph glyph-name="uni04C1" unicode="&#x4c1;" horiz-adv-x="1066" 
d="M51 5.5q-29 15.5 -36 47.5v4q0 8 4 13.5t11 5.5q5 0 9 -4t10 -12q9 -12 16.5 -18.5t21.5 -6.5q29 0 48 27t46 88q27 60 49.5 97.5t60 65t90.5 27.5v3q-27 5 -50.5 27.5t-41.5 59.5l-11 25q-18 48 -37.5 76.5t-51.5 28.5q-22 0 -35.5 -19.5t-13.5 -47.5q0 -5 -7 -5
q-11 0 -26 9t-26 26t-11 39q0 34 27 62t72 28q37 -2 63.5 -26t43 -55.5t36.5 -79.5q16 -39 23 -53q42 -82 105 -82h44v158q-1 25 -4.5 40.5t-17.5 26t-43 10.5h-6q-10 0 -14.5 3.5t-5.5 17.5q0 9 5 15.5t13 6.5q64 -3 125 -3q55 0 119 3q9 0 13.5 -6.5t4.5 -15.5
q-1 -15 -6.5 -18t-18.5 -3q-29 0 -43.5 -10.5t-18 -26t-4.5 -40.5v-158h44q63 0 105 82q7 14 23 53q20 48 36.5 79.5t43 55.5t63.5 26q45 0 72 -28t27 -62q0 -22 -11 -39t-26 -26t-26 -9q-7 0 -7 5q0 28 -13.5 47.5t-35.5 19.5q-32 0 -51.5 -28.5t-37.5 -76.5l-11 -25
q-18 -37 -41.5 -59.5t-50.5 -27.5v-3q53 0 90.5 -27.5t60 -65t49.5 -97.5q27 -61 46 -88t48 -27q14 0 22 6.5t16 19.5q1 2 6 8.5t11 6.5h1q9 0 13.5 -7t2.5 -16q-7 -32 -36 -47.5t-62 -15.5q-54 0 -89 23.5t-55.5 57.5t-45.5 91q-21 51 -39 82t-47 51.5t-72 20.5h-23v-199
q1 -25 4.5 -40.5t18 -26t43.5 -10.5h6q9 0 13.5 -3.5t5.5 -17.5q0 -9 -4.5 -15.5t-13.5 -6.5q-64 3 -120 3q-59 0 -124 -3q-8 0 -13 6.5t-5 15.5q1 15 6.5 18t19.5 3q29 0 43 10.5t17.5 26t4.5 40.5v199h-23q-43 0 -72 -20.5t-47 -51.5t-39 -82q-25 -57 -45.5 -91
t-55.5 -57.5t-89 -23.5q-33 0 -62 15.5zM711.5 835.5q13.5 -13.5 13.5 -37.5q0 -51 -57 -78.5t-135 -27.5t-135 27.5t-57 78.5q0 24 13.5 37.5t35.5 13.5t35 -14t26 -42q16 -32 33 -49.5t49 -17.5t49 17.5t33 49.5q13 28 26 42t35 14t35.5 -13.5z" />
    <glyph glyph-name="uni04CB" unicode="&#x4cb;" horiz-adv-x="733" 
d="M638 40q9 0 13.5 -3.5t5.5 -17.5q0 -9 -4.5 -15.5t-13.5 -6.5q-60 3 -112 3q-42 0 -63.5 -15t-32 -46t-20.5 -96q-4 -22 -37 -22q-11 0 -20 7t-9 18v165q0 32 33 32q38 0 55 9.5t21.5 28t4.5 57.5l9 -17v173q-72 -27 -101 -34t-61 -7q-53 0 -97.5 18t-66.5 47
q-15 19 -23 45t-8 71v80q-1 25 -4.5 40.5t-17.5 26t-43 10.5h-6q-10 0 -14.5 3.5t-5.5 17.5q0 9 5 15.5t13 6.5q65 -3 119 -3q60 0 125 3q9 0 13.5 -6.5t4.5 -15.5q-1 -15 -6.5 -18t-18.5 -3q-29 0 -43 -10.5t-18 -25.5t-5 -41v-69q0 -72 40 -105t106 -33q51 0 113 30v177
q-1 25 -4.5 40.5t-17.5 26t-43 10.5h-6q-10 0 -14 3.5t-5 17.5q0 9 4.5 15.5t13.5 6.5q65 -3 125 -3q53 0 118 3q9 0 13.5 -6.5t4.5 -15.5q-1 -15 -6.5 -18t-18.5 -3q-29 0 -43 -10.5t-17.5 -26t-4.5 -40.5v-397q1 -25 4.5 -40.5t17.5 -26t43 -10.5h6z" />
    <glyph glyph-name="uni04D0" unicode="&#x4d0;" horiz-adv-x="653" 
d="M457.5 832.5q12.5 -13.5 12.5 -37.5q0 -51 -51.5 -78.5t-121.5 -27.5q-71 0 -122 27.5t-51 78.5q0 24 12.5 37.5t31.5 13.5q20 0 31 -13.5t24 -42.5q16 -34 30.5 -50.5t43.5 -16.5t44 17t30 51q13 28 24 41.5t30 13.5q20 0 32.5 -13.5zM-7.5 3.5q-4.5 6.5 -4.5 15.5
q1 15 6 18t12 3h9q30 0 44 15.5t22.5 35t11.5 26.5l175 414q6 15 6 24q0 18 -14 26t-39 13q-17 3 -21 6t-4 17q0 12 6.5 16t20.5 4q50 0 79.5 -7.5t51.5 -30t41 -68.5l168 -414q15 -38 29 -57t42 -20h6q10 0 14 -3.5t5 -17.5q0 -9 -4.5 -15.5t-13.5 -6.5q-64 3 -110 3
q-60 0 -124 -3q-9 0 -13.5 6.5t-4.5 15.5q1 14 5 17.5t14 3.5q34 0 48 6.5t14 23.5q0 13 -12 47l-34 83h-247q-25 -62 -28.5 -72t-3.5 -11q-12 -38 -12 -49q0 -17 15 -22.5t57 -5.5h6q10 0 14 -3.5t5 -17.5q0 -9 -4.5 -15.5t-13.5 -6.5q-64 3 -109 3q-32 0 -97 -3
q-9 0 -13.5 6.5zM196 243h210l-101 257h-3z" />
    <glyph glyph-name="uni04D2" unicode="&#x4d2;" horiz-adv-x="653" 
d="M-7.5 3.5q-4.5 6.5 -4.5 15.5q1 15 6 18t12 3h9q30 0 44 15.5t22.5 35t11.5 26.5l175 414q6 15 6 24q0 18 -14 26t-39 13q-17 3 -21 6t-4 17q0 12 6.5 16t20.5 4q50 0 79.5 -7.5t51.5 -30t41 -68.5l168 -414q15 -38 29 -57t42 -20h6q10 0 14 -3.5t5 -17.5
q0 -9 -4.5 -15.5t-13.5 -6.5q-64 3 -110 3q-60 0 -124 -3q-9 0 -13.5 6.5t-4.5 15.5q1 14 5 17.5t14 3.5q34 0 48 6.5t14 23.5q0 13 -12 47l-34 83h-247q-25 -62 -28.5 -72t-3.5 -11q-12 -38 -12 -49q0 -17 15 -22.5t57 -5.5h6q10 0 14 -3.5t5 -17.5q0 -9 -4.5 -15.5
t-13.5 -6.5q-64 3 -109 3q-32 0 -97 -3q-9 0 -13.5 6.5zM196 243h210l-101 257h-3zM157.5 729q-18.5 18 -18.5 42q0 26 18 43t45 17q26 0 43 -17t17 -43q0 -24 -17.5 -42t-43.5 -18q-25 0 -43.5 18zM349.5 729q-18.5 18 -18.5 42q0 26 18 43t45 17q26 0 43 -17t17 -43
q0 -24 -17.5 -42t-43.5 -18q-25 0 -43.5 18z" />
    <glyph glyph-name="uni04D6" unicode="&#x4d6;" horiz-adv-x="594" 
d="M47.5 3.5q-4.5 6.5 -4.5 15.5q1 15 6 18t19 3q29 0 43 10.5t17.5 26t4.5 40.5v397q-1 25 -4.5 40.5t-17.5 26t-43 10.5h-6q-10 0 -14 3.5t-5 17.5q0 9 4.5 15.5t12.5 6.5q66 -3 119 -3h314q26 0 26 -24l3 -140q0 -9 -9 -14.5t-18 -5.5q-12 0 -21 4.5t-10 13.5
q-8 49 -17.5 74.5t-28 38t-52.5 13.5h-134v-254h181q7 -1 11 -7.5t4 -15.5q0 -8 -4 -14t-11 -6h-181v-189q2 -21 5 -33.5t18 -22.5t47 -9h92q35 1 53 11.5t28.5 32.5t25.5 72q7 18 34 14q10 -2 17.5 -8t6.5 -15l-20 -126q-3 -13 -9 -17t-20 -4h-330q-54 0 -120 -3
q-8 0 -12.5 6.5zM485.5 832.5q13.5 -13.5 13.5 -37.5q0 -51 -57 -78.5t-135 -27.5t-135 27.5t-57 78.5q0 24 13.5 37.5t35.5 13.5t35 -14t26 -42q16 -32 33 -49.5t49 -17.5t49 17.5t33 49.5q13 28 26 42t35 14t35.5 -13.5z" />
    <glyph glyph-name="uni04D8" unicode="&#x4d8;" horiz-adv-x="697" 
d="M498 605q74 -46 113 -123t39 -168q0 -85 -36.5 -161.5t-106 -124.5t-165.5 -48q-86 0 -153.5 38t-104.5 101.5t-37 136.5q0 14 8 22t22 8h451q2 144 -48.5 232t-157.5 88q-77 0 -120 -34t-60 -114q-3 -15 -28 -15q-14 0 -22.5 7t-7.5 19l12 144q55 20 109.5 29t119.5 9
q99 0 173 -46zM470 81.5q49 57.5 57 161.5h-359q0 -56 20.5 -106t60 -81.5t93.5 -31.5q79 0 128 57.5z" />
    <glyph glyph-name="uni04DC" unicode="&#x4dc;" horiz-adv-x="1066" 
d="M51 5.5q-29 15.5 -36 47.5v4q0 8 4 13.5t11 5.5q5 0 9 -4t10 -12q9 -12 16.5 -18.5t21.5 -6.5q29 0 48 27t46 88q27 60 49.5 97.5t60 65t90.5 27.5v3q-27 5 -50.5 27.5t-41.5 59.5l-11 25q-18 48 -37.5 76.5t-51.5 28.5q-22 0 -35.5 -19.5t-13.5 -47.5q0 -5 -7 -5
q-11 0 -26 9t-26 26t-11 39q0 34 27 62t72 28q37 -2 63.5 -26t43 -55.5t36.5 -79.5q16 -39 23 -53q42 -82 105 -82h44v158q-1 25 -4.5 40.5t-17.5 26t-43 10.5h-6q-10 0 -14.5 3.5t-5.5 17.5q0 9 5 15.5t13 6.5q64 -3 125 -3q55 0 119 3q9 0 13.5 -6.5t4.5 -15.5
q-1 -15 -6.5 -18t-18.5 -3q-29 0 -43.5 -10.5t-18 -26t-4.5 -40.5v-158h44q63 0 105 82q7 14 23 53q20 48 36.5 79.5t43 55.5t63.5 26q45 0 72 -28t27 -62q0 -22 -11 -39t-26 -26t-26 -9q-7 0 -7 5q0 28 -13.5 47.5t-35.5 19.5q-32 0 -51.5 -28.5t-37.5 -76.5l-11 -25
q-18 -37 -41.5 -59.5t-50.5 -27.5v-3q53 0 90.5 -27.5t60 -65t49.5 -97.5q27 -61 46 -88t48 -27q14 0 22 6.5t16 19.5q1 2 6 8.5t11 6.5h1q9 0 13.5 -7t2.5 -16q-7 -32 -36 -47.5t-62 -15.5q-54 0 -89 23.5t-55.5 57.5t-45.5 91q-21 51 -39 82t-47 51.5t-72 20.5h-23v-199
q1 -25 4.5 -40.5t18 -26t43.5 -10.5h6q9 0 13.5 -3.5t5.5 -17.5q0 -9 -4.5 -15.5t-13.5 -6.5q-64 3 -120 3q-59 0 -124 -3q-8 0 -13 6.5t-5 15.5q1 15 6.5 18t19.5 3q29 0 43 10.5t17.5 26t4.5 40.5v199h-23q-43 0 -72 -20.5t-47 -51.5t-39 -82q-25 -57 -45.5 -91
t-55.5 -57.5t-89 -23.5q-33 0 -62 15.5zM393.5 732q-18.5 18 -18.5 42q0 26 18 43t45 17q26 0 43 -17t17 -43q0 -24 -17.5 -42t-43.5 -18q-25 0 -43.5 18zM585.5 732q-18.5 18 -18.5 42q0 26 18 43t45 17q26 0 43 -17t17 -43q0 -24 -17.5 -42t-43.5 -18q-25 0 -43.5 18z" />
    <glyph glyph-name="uni04DE" unicode="&#x4de;" horiz-adv-x="592" 
d="M123.5 15.5q-64.5 35.5 -64.5 108.5q0 41 26.5 70.5t67.5 29.5q26 0 41.5 -12t16.5 -22q0 -2 -13 -12t-23.5 -25t-10.5 -36q-2 -47 32.5 -72t89.5 -25q63 0 101 39t38 112q0 61 -44 101t-109 42h-37q-7 0 -11 6t-4 14q0 9 4 15.5t11 7.5h37q122 9 122 121
q0 55 -29.5 93.5t-85.5 38.5q-55 0 -87 -38.5t-49 -114.5q-2 -8 -12 -12t-22 -2q-9 2 -17 8.5t-7 15.5l12 146q13 3 39 11q50 14 85.5 20.5t82.5 6.5q59 0 104 -21.5t69 -58.5t24 -82q0 -56 -35 -93t-99 -55v-3q84 -13 125 -58t41 -106q0 -62 -34 -106t-90.5 -66t-122.5 -22
q-98 0 -162.5 35.5zM152.5 729q-18.5 18 -18.5 42q0 26 18 43t45 17q26 0 43 -17t17 -43q0 -24 -17.5 -42t-43.5 -18q-25 0 -43.5 18zM344.5 729q-18.5 18 -18.5 42q0 26 18 43t45 17q26 0 43 -17t17 -43q0 -24 -17.5 -42t-43.5 -18q-25 0 -43.5 18z" />
    <glyph glyph-name="uni04E2" unicode="&#x4e2;" horiz-adv-x="784" 
d="M51 19q1 15 6 18t19 3q29 0 43 10.5t17.5 26t4.5 40.5v397q-1 25 -4.5 40.5t-17.5 26t-43 10.5h-6q-10 0 -14 3.5t-5 17.5q0 9 4.5 15.5t13.5 6.5q64 -3 118 -3q60 0 125 3q9 0 13.5 -6.5t4.5 -15.5q-1 -15 -6 -18t-19 -3q-29 0 -43 -10.5t-17.5 -26t-4.5 -40.5v-354
l287 362q38 48 60 70t38.5 30t38.5 10q24 2 51 2q18 0 18 -22q-1 -15 -6 -18t-19 -3q-29 0 -43 -10.5t-17.5 -26t-4.5 -40.5v-397q1 -25 4.5 -40.5t17.5 -26t43 -10.5h6q10 0 14 -3.5t5 -17.5q0 -9 -4.5 -15.5t-13.5 -6.5q-64 3 -118 3q-59 0 -124 -3q-9 0 -13.5 6.5
t-4.5 15.5q1 15 6.5 18t18.5 3q29 0 43 10.5t17.5 26t4.5 40.5v353l-288 -360q-38 -47 -58.5 -68.5t-36 -31t-35.5 -11.5q-33 -3 -58 -2q-18 1 -18 22zM246.5 766.5q-6.5 8.5 -6.5 18.5q0 11 6.5 19t16.5 8h238q10 0 16.5 -8t6.5 -19q0 -10 -6.5 -18.5t-16.5 -8.5h-238
q-10 0 -16.5 8.5z" />
    <glyph glyph-name="uni04E4" unicode="&#x4e4;" horiz-adv-x="784" 
d="M51 19q1 15 6 18t19 3q29 0 43 10.5t17.5 26t4.5 40.5v397q-1 25 -4.5 40.5t-17.5 26t-43 10.5h-6q-10 0 -14 3.5t-5 17.5q0 9 4.5 15.5t13.5 6.5q64 -3 118 -3q60 0 125 3q9 0 13.5 -6.5t4.5 -15.5q-1 -15 -6 -18t-19 -3q-29 0 -43 -10.5t-17.5 -26t-4.5 -40.5v-354
l287 362q38 48 60 70t38.5 30t38.5 10q24 2 51 2q18 0 18 -22q-1 -15 -6 -18t-19 -3q-29 0 -43 -10.5t-17.5 -26t-4.5 -40.5v-397q1 -25 4.5 -40.5t17.5 -26t43 -10.5h6q10 0 14 -3.5t5 -17.5q0 -9 -4.5 -15.5t-13.5 -6.5q-64 3 -118 3q-59 0 -124 -3q-9 0 -13.5 6.5
t-4.5 15.5q1 15 6.5 18t18.5 3q29 0 43 10.5t17.5 26t4.5 40.5v353l-288 -360q-38 -47 -58.5 -68.5t-36 -31t-35.5 -11.5q-33 -3 -58 -2q-18 1 -18 22zM252.5 729q-18.5 18 -18.5 42q0 26 18 43t45 17q26 0 43 -17t17 -43q0 -24 -17.5 -42t-43.5 -18q-25 0 -43.5 18z
M444.5 729q-18.5 18 -18.5 42q0 26 18 43t45 17q26 0 43 -17t17 -43q0 -24 -17.5 -42t-43.5 -18q-25 0 -43.5 18z" />
    <glyph glyph-name="uni04E6" unicode="&#x4e6;" horiz-adv-x="735" 
d="M198.5 25.5q-72.5 45.5 -112 120.5t-39.5 161q0 105 47.5 183t121.5 119.5t150 41.5q96 0 169.5 -45.5t113 -120t39.5 -160.5q0 -105 -48 -183.5t-123 -120t-151 -41.5q-95 0 -167.5 45.5zM478.5 64.5q45.5 40.5 68 109t22.5 151.5q0 77 -23 141.5t-69 103t-112 38.5
q-100 0 -150.5 -84.5t-50.5 -213.5q0 -78 22.5 -143t67.5 -104t111 -39q68 0 113.5 40.5zM228.5 729q-18.5 18 -18.5 42q0 26 18 43t45 17q26 0 43 -17t17 -43q0 -24 -17.5 -42t-43.5 -18q-25 0 -43.5 18zM420.5 729q-18.5 18 -18.5 42q0 26 18 43t45 17q26 0 43 -17t17 -43
q0 -24 -17.5 -42t-43.5 -18q-25 0 -43.5 18z" />
    <glyph glyph-name="uni04E8" unicode="&#x4e8;" horiz-adv-x="735" 
d="M535.5 605.5q73.5 -45.5 113 -120t39.5 -160.5q0 -105 -48 -183.5t-123 -120t-151 -41.5q-95 0 -167.5 45.5t-112 120.5t-39.5 161q0 105 47.5 183t121.5 119.5t150 41.5q96 0 169.5 -45.5zM220 532.5q-50 -75.5 -55 -194.5h404q-2 75 -25.5 136t-69 97.5t-109.5 36.5
q-95 0 -145 -75.5zM510.5 100q51.5 76 57.5 194h-404q4 -116 55.5 -193t145.5 -77t145.5 76z" />
    <glyph glyph-name="uni04EE" unicode="&#x4ee;" horiz-adv-x="658" 
d="M100.5 9.5q-32.5 26.5 -32.5 67.5q0 36 21.5 58t51.5 22q18 0 30.5 -7.5t12.5 -13.5q0 -2 -9 -12t-9 -30q0 -22 13 -37t38 -15q34 0 60.5 23t48.5 71q-43 77 -122 237q-49 98 -73 142q-16 31 -24.5 44t-20.5 21.5t-33 12.5q-4 1 -12 2.5t-10.5 6t-2.5 14.5q0 13 6 17
t19 4q53 0 83 -8.5t50.5 -30t46.5 -66.5q8 -15 31 -65q57 -120 113 -220h3l129 294q4 9 4 19q0 20 -19 25.5t-56 5.5h-6q-10 0 -14 3.5t-5 17.5q0 9 4.5 15.5t12.5 6.5q65 -3 116 -3q35 0 99 3q9 0 13.5 -6.5t4.5 -15.5q-1 -14 -5 -17.5t-14 -3.5q-28 0 -41.5 -6.5
t-20.5 -17.5t-23 -44l-181 -385q-37 -78 -82.5 -116.5t-107.5 -38.5q-55 0 -87.5 26.5zM187.5 766.5q-6.5 8.5 -6.5 18.5q0 11 6.5 19t16.5 8h238q10 0 16.5 -8t6.5 -19q0 -10 -6.5 -18.5t-16.5 -8.5h-238q-10 0 -16.5 8.5z" />
    <glyph glyph-name="uni04F0" unicode="&#x4f0;" horiz-adv-x="658" 
d="M100.5 9.5q-32.5 26.5 -32.5 67.5q0 36 21.5 58t51.5 22q18 0 30.5 -7.5t12.5 -13.5q0 -2 -9 -12t-9 -30q0 -22 13 -37t38 -15q34 0 60.5 23t48.5 71q-43 77 -122 237q-49 98 -73 142q-16 31 -24.5 44t-20.5 21.5t-33 12.5q-4 1 -12 2.5t-10.5 6t-2.5 14.5q0 13 6 17
t19 4q53 0 83 -8.5t50.5 -30t46.5 -66.5q8 -15 31 -65q57 -120 113 -220h3l129 294q4 9 4 19q0 20 -19 25.5t-56 5.5h-6q-10 0 -14 3.5t-5 17.5q0 9 4.5 15.5t12.5 6.5q65 -3 116 -3q35 0 99 3q9 0 13.5 -6.5t4.5 -15.5q-1 -14 -5 -17.5t-14 -3.5q-28 0 -41.5 -6.5
t-20.5 -17.5t-23 -44l-181 -385q-37 -78 -82.5 -116.5t-107.5 -38.5q-55 0 -87.5 26.5zM193.5 729q-18.5 18 -18.5 42q0 26 18 43t45 17q26 0 43 -17t17 -43q0 -24 -17.5 -42t-43.5 -18q-25 0 -43.5 18zM385.5 729q-18.5 18 -18.5 42q0 26 18 43t45 17q26 0 43 -17t17 -43
q0 -24 -17.5 -42t-43.5 -18q-25 0 -43.5 18z" />
    <glyph glyph-name="uni04F2" unicode="&#x4f2;" horiz-adv-x="658" 
d="M100.5 9.5q-32.5 26.5 -32.5 67.5q0 36 21.5 58t51.5 22q18 0 30.5 -7.5t12.5 -13.5q0 -2 -9 -12t-9 -30q0 -22 13 -37t38 -15q34 0 60.5 23t48.5 71q-43 77 -122 237q-49 98 -73 142q-16 31 -24.5 44t-20.5 21.5t-33 12.5q-4 1 -12 2.5t-10.5 6t-2.5 14.5q0 13 6 17
t19 4q53 0 83 -8.5t50.5 -30t46.5 -66.5q8 -15 31 -65q57 -120 113 -220h3l129 294q4 9 4 19q0 20 -19 25.5t-56 5.5h-6q-10 0 -14 3.5t-5 17.5q0 9 4.5 15.5t12.5 6.5q65 -3 116 -3q35 0 99 3q9 0 13.5 -6.5t4.5 -15.5q-1 -14 -5 -17.5t-14 -3.5q-28 0 -41.5 -6.5
t-20.5 -17.5t-23 -44l-181 -385q-37 -78 -82.5 -116.5t-107.5 -38.5q-55 0 -87.5 26.5zM213 670q-10 0 -17.5 7.5t-7.5 16.5q0 7 5 12t39.5 40t66.5 59q15 12 26.5 18t21.5 6q15 0 26 -14q10 -11 10 -23q0 -21 -37 -46q-76 -49 -124 -74q-3 -2 -9 -2zM403 670
q-10 0 -17.5 7.5t-7.5 16.5q0 7 5 12t39.5 40t66.5 59q16 12 27 18t21 6q15 0 26 -14q10 -11 10 -23q0 -21 -37 -46q-76 -49 -124 -74q-3 -2 -9 -2z" />
    <glyph glyph-name="uni04F4" unicode="&#x4f4;" horiz-adv-x="707" 
d="M381.5 3.5q-4.5 6.5 -4.5 15.5q1 15 6 18t19 3q29 0 43 10.5t17.5 26t4.5 40.5v177q-72 -27 -101 -34t-61 -7q-53 0 -97.5 18t-66.5 47q-15 19 -23 45t-8 71v80q-1 25 -4.5 40.5t-17.5 26t-43 10.5h-6q-10 0 -14.5 3.5t-5.5 17.5q0 9 5 15.5t13 6.5q64 -3 119 -3
q60 0 125 3q9 0 13.5 -6.5t4.5 -15.5q-1 -15 -6.5 -18t-18.5 -3q-29 0 -43 -10.5t-18 -25.5t-5 -41v-69q0 -72 40 -105t106 -33q51 0 113 30v177q-1 25 -4.5 40.5t-17.5 26t-43 10.5h-6q-10 0 -14 3.5t-5 17.5q0 9 4.5 15.5t13.5 6.5q65 -3 125 -3q53 0 118 3q9 0 13.5 -6.5
t4.5 -15.5q-1 -15 -6.5 -18t-18.5 -3q-29 0 -43 -10.5t-17.5 -26t-4.5 -40.5v-397q1 -25 4.5 -40.5t17.5 -26t43 -10.5h6q9 0 13.5 -3.5t5.5 -17.5q0 -9 -4.5 -15.5t-13.5 -6.5q-64 3 -120 3q-58 0 -123 -3q-9 0 -13.5 6.5zM211.5 732q-18.5 18 -18.5 42q0 26 18 43t45 17
q26 0 43 -17t17 -43q0 -24 -17.5 -42t-43.5 -18q-25 0 -43.5 18zM403.5 732q-18.5 18 -18.5 42q0 26 18 43t45 17q26 0 43 -17t17 -43q0 -24 -17.5 -42t-43.5 -18q-25 0 -43.5 18z" />
    <glyph glyph-name="uni04F6" unicode="&#x4f6;" horiz-adv-x="563" 
d="M525 466q0 -9 -7.5 -14.5t-16.5 -5.5q-12 0 -22.5 5t-11.5 13q-8 49 -17.5 75t-28 38.5t-52.5 13.5h-129v-453q0 -39 4.5 -57.5t21.5 -28t55 -9.5q33 0 33 -32v-165q0 -11 -9 -18t-20 -7q-33 0 -37 22q-10 64 -20 95t-31.5 46t-62.5 16q-49 0 -106 -3q-8 0 -12.5 6.5
t-4.5 15.5q1 15 6 18t19 3q29 0 43 10.5t17.5 26t4.5 40.5v397q-1 25 -4.5 40.5t-17.5 26t-43 10.5h-6q-10 0 -14 3.5t-5 17.5q0 9 4.5 15.5t12.5 6.5q64 -3 119 -3h309q26 0 26 -24z" />
    <glyph glyph-name="uni04F8" unicode="&#x4f8;" horiz-adv-x="893" 
d="M47.5 3.5q-4.5 6.5 -4.5 15.5q0 15 5.5 18t19.5 3q29 0 43 10.5t17.5 26t4.5 40.5v397q-1 25 -4.5 40.5t-17.5 26t-43 10.5h-6q-10 0 -14.5 3.5t-4.5 17.5q0 9 4.5 16t13.5 6q43 -3 118 -3l60 1q42 2 65 2q9 0 13.5 -6.5t4.5 -15.5q0 -15 -5.5 -18t-19.5 -3
q-29 0 -43 -10.5t-17.5 -26t-4.5 -40.5v-138q57 9 103 9q73 0 124 -26t76.5 -69.5t25.5 -97.5q0 -70 -39 -113t-97.5 -61t-121.5 -18h-123l-57 -1q-40 -2 -62 -2q-9 0 -13.5 6.5zM576.5 3.5q-4.5 6.5 -4.5 15.5q1 15 6.5 18t18.5 3q29 0 43 10.5t17.5 26t4.5 40.5v397
q-1 25 -4.5 40.5t-17.5 26t-43 10.5h-6q-9 0 -13.5 3.5t-5.5 17.5q0 9 4.5 15.5t13.5 6.5q65 -3 124 -3q55 0 119 3q9 0 13.5 -6.5t4.5 -15.5q-1 -15 -6 -18t-19 -3q-29 0 -43 -10.5t-17.5 -26t-4.5 -40.5v-397q1 -25 4.5 -40.5t17.5 -26t43 -10.5h6q10 0 14 -3.5t5 -17.5
q0 -9 -4.5 -15.5t-13.5 -6.5q-64 3 -118 3q-60 0 -125 -3q-9 0 -13.5 6.5zM408 74q42 34 42 117q0 74 -46 112t-109 38q-39 0 -63 -6v-216q-1 -48 11.5 -63.5t46.5 -15.5q76 0 118 34zM297.5 729q-18.5 18 -18.5 42q0 26 18 43t45 17q26 0 43 -17t17 -43q0 -24 -17.5 -42
t-43.5 -18q-25 0 -43.5 18zM489.5 729q-18.5 18 -18.5 42q0 26 18 43t45 17q26 0 43 -17t17 -43q0 -24 -17.5 -42t-43.5 -18q-25 0 -43.5 18z" />
    <glyph glyph-name="uni051A" unicode="&#x51a;" horiz-adv-x="737" 
d="M623 -189q-32 11 -56 27.5t-62 46.5q-30 25 -53.5 42t-50.5 31q-32 16 -76 26q-105 24 -153 61q-59 46 -91.5 115t-32.5 147q0 105 47.5 183t121.5 119.5t150 41.5q96 0 170 -45.5t113.5 -120t39.5 -160.5q0 -112 -56.5 -195.5t-149.5 -120.5q-16 -7 -41 -8v-2
q27 -3 49 -14q39 -19 105 -67q49 -35 79 -51.5t59 -16.5q18 2 26.5 11.5t8.5 23.5q0 24 -18.5 44.5t-47.5 21.5q-3 16 12 31t45 15q13 0 29.5 -9t29 -27t12.5 -44q0 -30 -20.5 -56.5t-52 -43t-63.5 -17.5q-41 0 -73 11zM480 62.5q46 41.5 68.5 110.5t22.5 152
q0 77 -23 141.5t-69.5 103t-112.5 38.5q-100 0 -150 -84.5t-50 -213.5q0 -78 22.5 -144t67.5 -105.5t110 -39.5q68 0 114 41.5z" />
    <glyph glyph-name="uni051C" unicode="&#x51c;" horiz-adv-x="934" 
d="M113 510q-17 43 -33 60t-47 23q-4 1 -12 2.5t-10.5 6t-2.5 14.5q0 12 6.5 16t20.5 4q75 0 114 -23t62 -82l114 -366h4l122 466h52l163 -466h3l113 377q4 15 4 26q0 14 -10 18.5t-38 4.5h-6q-10 0 -14 3.5t-5 17.5q0 9 4.5 15.5t12.5 6.5q65 -3 109 -3q19 0 73 2l21 1
q9 0 13.5 -6.5t4.5 -15.5q-1 -14 -5 -17.5t-14 -3.5q-44 0 -68.5 -14.5t-35.5 -53.5l-164 -533h-47l-162 477l-129 -477h-47z" />
    <glyph glyph-name="uni0430" unicode="&#x430;" horiz-adv-x="501" 
d="M71 22q-37 34 -37 85q0 63 42 94.5t100 41t150 14.5v79q0 49 -24.5 74.5t-78.5 25.5q-31 0 -54 -19t-23 -51q0 -16 7.5 -26.5t16 -17.5t8.5 -8q0 -6 -12.5 -15.5t-30.5 -9.5q-30 0 -47.5 22t-17.5 52q0 52 46.5 77t112.5 25q82 0 133.5 -31t51.5 -115v-233q1 -21 13 -40
t39 -19q8 0 11.5 -3t3.5 -13q0 -12 -18.5 -17.5t-36.5 -5.5q-38 0 -67 22t-33 59q-21 -39 -64.5 -60t-93.5 -21q-60 0 -97 34zM263 59q29 17 46 46.5t17 65.5v57q-105 -8 -148 -34t-43 -84q0 -68 65 -68q34 0 63 17z" />
    <glyph glyph-name="uni0431" unicode="&#x431;" horiz-adv-x="560" 
d="M111.5 74q-54.5 86 -54.5 223q2 119 30.5 194.5t85 116t145.5 54.5q36 5 68 7q42 4 58 10.5t19 31.5q2 13 15 13q15 0 15 -16q-6 -59 -25.5 -86.5t-51.5 -37.5t-101 -19q-74 -9 -119 -27t-76 -76t-31 -172h3q24 86 70.5 130.5t126.5 44.5q68 0 119 -32t78 -85.5
t27 -114.5q0 -69 -30.5 -125.5t-80.5 -88t-107 -31.5q-129 0 -183.5 86zM384 81.5q27 56.5 27 151.5q0 195 -122 195q-68 0 -94 -55.5t-26 -150.5q0 -197 120 -197q68 0 95 56.5z" />
    <glyph glyph-name="uni0432" unicode="&#x432;" horiz-adv-x="536" 
d="M39.5 3q-4.5 6 -4.5 14q1 13 5.5 15.5t17.5 2.5q26 0 37 9t13 21t2 38v247q0 26 -2 38t-13 21t-37 9h-6q-8 0 -12 3t-5 15q0 8 4.5 14t11.5 6q59 -3 104 -3h146q80 0 123 -22t43 -81q0 -44 -32.5 -70.5t-72.5 -36.5v-2q39 -2 69.5 -20t46.5 -45.5t16 -57.5
q0 -59 -59.5 -89t-138.5 -30h-24q-21 1 -117 1q-45 0 -104 -3q-7 0 -11.5 6zM234 256q53 0 92 15t39 71q0 38 -23.5 60t-69.5 22h-70v-168h32zM359 55q31 26 31 67q0 45 -38 74.5t-118 29.5h-32v-140q0 -33 19 -45t54 -12q53 0 84 26z" />
    <glyph glyph-name="uni0433" unicode="&#x433;" horiz-adv-x="453" 
d="M40 3q-4 6 -4 14q1 13 5.5 15.5t17.5 2.5q26 0 37 9t12.5 21t1.5 38v247q0 26 -1.5 38t-12.5 21t-37 9h-6q-9 0 -12.5 3t-4.5 15q0 8 4 14t11 6q59 -3 104 -3h245q23 0 23 -23l3 -127q0 -8 -6.5 -13t-15.5 -5q-11 0 -19.5 4t-9.5 12q-7 47 -15 71t-25 36.5t-48 12.5h-85
v-318v-29.5t10.5 -31t33.5 -7.5h5q8 0 12 -3t5 -15q0 -8 -4.5 -14t-11.5 -6q-57 3 -97 3q-45 0 -104 -3q-7 0 -11 6z" />
    <glyph glyph-name="uni0453" unicode="&#x453;" horiz-adv-x="453" 
d="M40 3q-4 6 -4 14q1 13 5.5 15.5t17.5 2.5q26 0 37 9t12.5 21t1.5 38v247q0 26 -1.5 38t-12.5 21t-37 9h-6q-9 0 -12.5 3t-4.5 15q0 8 4 14t11 6q59 -3 104 -3h245q23 0 23 -23l3 -127q0 -8 -6.5 -13t-15.5 -5q-11 0 -19.5 4t-9.5 12q-7 47 -15 71t-25 36.5t-48 12.5h-85
v-318v-29.5t10.5 -31t33.5 -7.5h5q8 0 12 -3t5 -15q0 -8 -4.5 -14t-11.5 -6q-57 3 -97 3q-45 0 -104 -3q-7 0 -11 6zM218 536.5q-3 5.5 -3 12.5q0 6 4 13l75 137q11 23 36 23q7 0 19 -5q11 -6 18 -16t7 -21q0 -12 -9 -23l-102 -119q-11 -12 -24 -12q-7 0 -13 3q-5 2 -8 7.5z
" />
    <glyph glyph-name="uni0491" unicode="&#x491;" horiz-adv-x="453" 
d="M40 3q-4 6 -4 14q1 13 5.5 15.5t17.5 2.5q26 0 37 9t12.5 21t1.5 38v247q0 26 -1.5 38t-12.5 21t-37 9h-6q-9 0 -12.5 3t-4.5 15q0 8 4 14t11 6q59 -3 104 -3h132q31 0 47.5 12.5t24 36t16.5 71.5q1 8 9.5 12t19.5 4q9 0 15.5 -4.5t6.5 -13.5l-3 -127q0 -23 -23 -23h-198
v-318v-29.5t10.5 -31t33.5 -7.5h5q8 0 12 -3t5 -15q0 -8 -4.5 -14t-11.5 -6q-57 3 -97 3q-45 0 -104 -3q-7 0 -11 6z" />
    <glyph glyph-name="uni0434" unicode="&#x434;" horiz-adv-x="557" 
d="M12.5 -124.5q-6.5 4.5 -6.5 13.5v127q0 23 23 23h26q51 57 72.5 133.5t26.5 173.5q0 26 -2 38t-13 21t-37 9h-6q-8 0 -12 3t-5 15q0 9 4 16.5t12 7.5q58 -3 103 -3h197q46 0 104 3q8 0 12 -7.5t4 -16.5q-1 -13 -5.5 -15.5t-17.5 -2.5q-26 0 -37 -9t-13 -21t-2 -38v-238
q0 -29 3 -42t15.5 -20t40.5 -7q23 0 23 -23v-127q0 -9 -6.5 -13.5t-15.5 -4.5q-11 0 -19.5 4t-9.5 12q-7 47 -14.5 69t-23.5 33t-48 11h-242q-32 0 -48 -11t-23.5 -33t-14.5 -69q-1 -8 -9.5 -12t-19.5 -4q-9 0 -15.5 4.5zM308 39q22 0 31.5 9t9.5 40v333h-95
q-33 0 -41.5 -14t-8.5 -31.5v-22.5q-6 -110 -25 -185t-66 -129h195z" />
    <glyph glyph-name="uni0435" unicode="&#x435;" horiz-adv-x="502" 
d="M147.5 20q-52.5 32 -79.5 87t-27 122q0 59 27.5 113.5t78.5 88.5t117 34q89 0 137 -45.5t55 -122.5q0 -33 -18 -45t-52 -12h-243q0 -93 38.5 -147.5t119.5 -54.5q43 0 73 18.5t57 62.5q5 5 10 5q7 0 12 -4q10 -6 10 -18q0 -6 -2 -9q-31 -50 -78.5 -77.5t-107.5 -27.5
q-75 0 -127.5 32zM306 278q51 0 54 42q0 46 -25 78t-71 32q-51 0 -84 -40.5t-37 -111.5h163z" />
    <glyph glyph-name="uni0450" unicode="&#x450;" horiz-adv-x="502" 
d="M147.5 20q-52.5 32 -79.5 87t-27 122q0 59 27.5 113.5t78.5 88.5t117 34q89 0 137 -45.5t55 -122.5q0 -33 -18 -45t-52 -12h-243q0 -93 38.5 -147.5t119.5 -54.5q43 0 73 18.5t57 62.5q5 5 10 5q7 0 12 -4q10 -6 10 -18q0 -6 -2 -9q-31 -50 -78.5 -77.5t-107.5 -27.5
q-75 0 -127.5 32zM306 278q51 0 54 42q0 46 -25 78t-71 32q-51 0 -84 -40.5t-37 -111.5h163zM277 506q-14 0 -25 12l-102 119q-9 11 -9 23q0 11 7 21t18 16q12 5 19 5q24 0 36 -23l75 -137q4 -7 4 -13q0 -7 -3 -12.5t-8 -7.5q-5 -3 -12 -3z" />
    <glyph glyph-name="uni0451" unicode="&#x451;" horiz-adv-x="502" 
d="M147.5 20q-52.5 32 -79.5 87t-27 122q0 59 27.5 113.5t78.5 88.5t117 34q89 0 137 -45.5t55 -122.5q0 -33 -18 -45t-52 -12h-243q0 -93 38.5 -147.5t119.5 -54.5q43 0 73 18.5t57 62.5q5 5 10 5q7 0 12 -4q10 -6 10 -18q0 -6 -2 -9q-31 -50 -78.5 -77.5t-107.5 -27.5
q-75 0 -127.5 32zM306 278q51 0 54 42q0 46 -25 78t-71 32q-51 0 -84 -40.5t-37 -111.5h163zM131.5 565q-18.5 18 -18.5 42q0 26 18 43t45 17q26 0 43 -17t17 -43q0 -24 -17.5 -42t-43.5 -18q-25 0 -43.5 18zM304.5 565q-18.5 18 -18.5 42q0 26 18 43t45 17q26 0 43 -17
t17 -43q0 -24 -17.5 -42t-43.5 -18q-25 0 -43.5 18z" />
    <glyph glyph-name="uni0436" unicode="&#x436;" horiz-adv-x="848" 
d="M50 7q-26 14 -31 41v4q0 7 3.5 11.5t9.5 4.5q8 0 15 -13q7 -11 14 -16.5t20 -5.5q17 0 28.5 17.5t26.5 54.5q18 42 34 69.5t43.5 48t68.5 22.5v2q-28 13 -53 58q-4 8 -13.5 31t-24.5 37.5t-37 14.5q-17 0 -27 -14.5t-10 -35.5q0 -4 -2.5 -5t-5.5 -1q-9 0 -21.5 7.5
t-22 20.5t-9.5 31q0 29 22.5 51.5t59.5 22.5q30 -2 50.5 -18t32.5 -37t26 -55q4 -8 8.5 -19t11.5 -24q30 -58 73 -58h38v96q0 6 -0.5 29t-10.5 31.5t-33 7.5h-6q-8 0 -11.5 3t-4.5 15q0 8 4 14t11 6q57 -3 97 -3q47 0 105 3q8 0 12 -6t4 -14q-1 -13 -5.5 -15.5t-17.5 -2.5
q-26 0 -37 -9t-13 -21t-2 -38v-96h38q43 0 73 58q7 13 11.5 24t8.5 19q14 34 26 55t32.5 37t50.5 18q37 0 59.5 -22.5t22.5 -51.5q0 -18 -9.5 -31t-22 -20.5t-21.5 -7.5q-3 0 -5.5 1t-2.5 5q0 21 -10 35.5t-27 14.5q-26 0 -40.5 -18t-22.5 -37.5t-12 -27.5q-25 -45 -53 -58
v-2q41 -2 69 -22.5t44 -48t33 -68.5q16 -38 28 -55.5t30 -17.5q10 0 16.5 5.5t14.5 17.5t13 12h1q8 0 12 -6t2 -14q-5 -27 -31 -41t-54 -14q-38 0 -63.5 17t-40.5 41t-32 64q-17 38 -29.5 59t-33.5 35.5t-52 14.5h-23v-121q0 -26 2 -38t13 -21t37 -9h6q8 0 12 -3t5 -15
q0 -8 -4 -14t-12 -6q-58 3 -105 3q-40 0 -97 -3q-7 0 -11 6t-4 14q1 13 5.5 15.5t16.5 2.5q23 -1 32 6.5t10 17.5t2 44v121h-23q-31 0 -52 -15t-33.5 -36.5t-29.5 -59.5q-17 -40 -32 -64.5t-40 -40.5t-64 -15q-28 0 -54 14z" />
    <glyph glyph-name="uni0437" unicode="&#x437;" horiz-adv-x="471" 
d="M93.5 21q-48.5 32 -48.5 83q0 30 18.5 48t51.5 18q21 0 34.5 -9t13.5 -18q0 -2 -10 -11t-17.5 -20t-7.5 -26q0 -29 24 -46t66 -17q48 0 76 24t28 74q0 44 -29.5 72t-84.5 28h-21q-10 0 -15 5.5t-5 13.5q0 7 5 12.5t15 6.5h21q36 0 67 23.5t31 62.5q0 83 -81 83
q-48 0 -74.5 -26t-37.5 -78q-4 -12 -22 -12l-9 1q-9 2 -15.5 7.5t-5.5 13.5l5 50q1 22 5 52q40 14 73.5 21.5t80.5 7.5q90 0 137.5 -33t47.5 -84q0 -38 -31 -65.5t-83 -38.5v-2q60 -5 95 -39t35 -75q0 -47 -31 -78.5t-76.5 -46t-91.5 -14.5q-85 0 -133.5 32z" />
    <glyph glyph-name="uni0438" unicode="&#x438;" horiz-adv-x="607" 
d="M40 3q-4 6 -4 14q1 13 5.5 15.5t17.5 2.5q26 0 37 9t12.5 20.5t1.5 38.5v247v25.5t-12.5 32t-38.5 10.5h-6q-9 0 -12.5 3t-4.5 15q0 8 4 14t12 6q57 -3 104 -3q39 0 96 3q8 0 12 -6t4 -14q-1 -13 -5.5 -15.5t-16.5 -2.5q-23 1 -32 -6.5t-10 -17.5t-2 -44v-235l190 259
q36 45 63.5 61t55.5 19l44 2q8 0 12 -6t4 -14q-1 -13 -5.5 -15.5t-17.5 -2.5q-26 0 -37 -9t-13 -21t-2 -38v-247q0 -26 2 -38t13 -21t37 -9h6q8 0 12 -3t5 -15q0 -8 -4 -14t-12 -6q-58 3 -104 3q-40 0 -97 -3q-7 0 -11 6t-4 14q1 13 5.5 15.5t16.5 2.5q23 -1 32 6.5t10 17.5
t2 44v222l-191 -257q-27 -34 -57 -50.5t-56 -18.5q-32 -2 -49 -2q-8 0 -12 6z" />
    <glyph glyph-name="uni0439" unicode="&#x439;" horiz-adv-x="607" 
d="M40 3q-4 6 -4 14q1 13 5.5 15.5t17.5 2.5q26 0 37 9t12.5 20.5t1.5 38.5v247v25.5t-12.5 32t-38.5 10.5h-6q-9 0 -12.5 3t-4.5 15q0 8 4 14t12 6q57 -3 104 -3q39 0 96 3q8 0 12 -6t4 -14q-1 -13 -5.5 -15.5t-16.5 -2.5q-23 1 -32 -6.5t-10 -17.5t-2 -44v-235l190 259
q36 45 63.5 61t55.5 19l44 2q8 0 12 -6t4 -14q-1 -13 -5.5 -15.5t-17.5 -2.5q-26 0 -37 -9t-13 -21t-2 -38v-247q0 -26 2 -38t13 -21t37 -9h6q8 0 12 -3t5 -15q0 -8 -4 -14t-12 -6q-58 3 -104 3q-40 0 -97 -3q-7 0 -11 6t-4 14q1 13 5.5 15.5t16.5 2.5q23 -1 32 6.5t10 17.5
t2 44v222l-191 -257q-27 -34 -57 -50.5t-56 -18.5q-32 -2 -49 -2q-8 0 -12 6zM211.5 564.5q-48.5 25.5 -48.5 67.5q0 19 13.5 31.5t38.5 12.5q15 0 21 -9.5t11 -29.5q6 -21 12 -33.5t21.5 -22t43.5 -9.5q38 0 52 16.5t21 46.5q6 21 12.5 31t21.5 10q24 0 38 -12.5t14 -31.5
q0 -42 -48 -67.5t-111 -25.5q-64 0 -112.5 25.5z" />
    <glyph glyph-name="uni045D" unicode="&#x45d;" horiz-adv-x="607" 
d="M40 3q-4 6 -4 14q1 13 5.5 15.5t17.5 2.5q26 0 37 9t12.5 20.5t1.5 38.5v247v25.5t-12.5 32t-38.5 10.5h-6q-9 0 -12.5 3t-4.5 15q0 8 4 14t12 6q57 -3 104 -3q39 0 96 3q8 0 12 -6t4 -14q-1 -13 -5.5 -15.5t-16.5 -2.5q-23 1 -32 -6.5t-10 -17.5t-2 -44v-235l190 259
q36 45 63.5 61t55.5 19l44 2q8 0 12 -6t4 -14q-1 -13 -5.5 -15.5t-17.5 -2.5q-26 0 -37 -9t-13 -21t-2 -38v-247q0 -26 2 -38t13 -21t37 -9h6q8 0 12 -3t5 -15q0 -8 -4 -14t-12 -6q-58 3 -104 3q-40 0 -97 -3q-7 0 -11 6t-4 14q1 13 5.5 15.5t16.5 2.5q23 -1 32 6.5t10 17.5
t2 44v222l-191 -257q-27 -34 -57 -50.5t-56 -18.5q-32 -2 -49 -2q-8 0 -12 6zM339 506q-14 0 -25 12l-102 119q-9 11 -9 23q0 11 7 21t18 16q12 5 19 5q24 0 36 -23l75 -137q4 -7 4 -13q0 -7 -3 -12.5t-8 -7.5q-5 -3 -12 -3z" />
    <glyph glyph-name="uni043A" unicode="&#x43a;" horiz-adv-x="580" 
d="M412 8q-25 16 -40 40.5t-32 64.5q-17 38 -29.5 59.5t-33.5 36.5t-52 15h-31v-121q0 -26 2 -38t13 -21t37 -9h6q8 0 12 -3t5 -15q0 -8 -4 -14t-12 -6q-58 3 -105 3q-40 0 -97 -3q-7 0 -11 6t-4 14q1 13 5.5 15.5t16.5 2.5q23 -1 32 6.5t10 17.5t2 44v247q0 6 -0.5 29
t-10.5 31.5t-33 7.5h-6q-8 0 -11.5 3t-4.5 15q0 8 4 14t11 6q57 -3 97 -3q46 0 105 3q8 0 12 -6t4 -14q-1 -13 -5.5 -15.5t-17.5 -2.5q-26 0 -37 -9t-13 -21t-2 -38v-96h46q43 0 73 58q7 13 11.5 24t8.5 19q14 34 26 55t32.5 37t50.5 18q37 0 59.5 -22.5t22.5 -51.5
q0 -18 -9.5 -31t-22 -20.5t-21.5 -7.5q-3 0 -5.5 1t-2.5 5q0 21 -10 35.5t-27 14.5q-26 0 -40.5 -18t-22.5 -37.5t-12 -27.5q-25 -45 -53 -58v-2q41 -2 68.5 -22.5t43.5 -48t34 -69.5q15 -37 26.5 -54.5t28.5 -17.5q13 0 20 6t14.5 17.5t12.5 11.5h1q8 0 12 -6t2 -14
q-5 -27 -31 -41t-54 -14q-39 -1 -64 15z" />
    <glyph glyph-name="uni045C" unicode="&#x45c;" horiz-adv-x="580" 
d="M412 8q-25 16 -40 40.5t-32 64.5q-17 38 -29.5 59.5t-33.5 36.5t-52 15h-31v-121q0 -26 2 -38t13 -21t37 -9h6q8 0 12 -3t5 -15q0 -8 -4 -14t-12 -6q-58 3 -105 3q-40 0 -97 -3q-7 0 -11 6t-4 14q1 13 5.5 15.5t16.5 2.5q23 -1 32 6.5t10 17.5t2 44v247q0 6 -0.5 29
t-10.5 31.5t-33 7.5h-6q-8 0 -11.5 3t-4.5 15q0 8 4 14t11 6q57 -3 97 -3q46 0 105 3q8 0 12 -6t4 -14q-1 -13 -5.5 -15.5t-17.5 -2.5q-26 0 -37 -9t-13 -21t-2 -38v-96h46q43 0 73 58q7 13 11.5 24t8.5 19q14 34 26 55t32.5 37t50.5 18q37 0 59.5 -22.5t22.5 -51.5
q0 -18 -9.5 -31t-22 -20.5t-21.5 -7.5q-3 0 -5.5 1t-2.5 5q0 21 -10 35.5t-27 14.5q-26 0 -40.5 -18t-22.5 -37.5t-12 -27.5q-25 -45 -53 -58v-2q41 -2 68.5 -22.5t43.5 -48t34 -69.5q15 -37 26.5 -54.5t28.5 -17.5q13 0 20 6t14.5 17.5t12.5 11.5h1q8 0 12 -6t2 -14
q-5 -27 -31 -41t-54 -14q-39 -1 -64 15zM273 541.5q-3 5.5 -3 12.5q0 6 4 13l75 137q11 23 36 23q7 0 19 -5q11 -6 18 -16t7 -21q0 -12 -9 -23l-102 -119q-11 -12 -24 -12q-7 0 -13 3q-5 2 -8 7.5z" />
    <glyph glyph-name="uni043B" unicode="&#x43b;" horiz-adv-x="617" 
d="M42.5 21.5q-27.5 28.5 -27.5 65.5q0 25 15.5 42.5t41.5 17.5q10 0 16 -2t7 -5q0 -2 -3 -10t-3 -19q0 -17 13 -32t33 -15q41 0 58.5 62t23.5 133q3 35 3 100q0 28 -9.5 41.5t-42.5 13.5h-6q-8 0 -12 3t-5 15q0 9 4 16.5t12 7.5q59 -3 103 -3h197q45 0 104 3q8 0 12 -7.5
t4 -16.5q-1 -13 -5.5 -15.5t-17.5 -2.5q-26 0 -37 -9t-13 -21t-2 -38v-243q0 -26 2 -38t13 -21t37 -9h6q8 0 12 -3t5 -15q0 -8 -4 -14t-12 -6q-58 3 -104 3q-40 0 -96 -3q-8 0 -12 6t-4 14q1 13 5.5 15.5t16.5 2.5q23 -1 32 6.5t10 17.5t2 44v318h-97q-33 0 -41.5 -14
t-8.5 -31.5v-22.5q-4 -108 -13 -164q-14 -86 -44 -141t-103 -55q-38 0 -65.5 28.5z" />
    <glyph glyph-name="uni043C" unicode="&#x43c;" horiz-adv-x="723" 
d="M39.5 3q-4.5 6 -4.5 14q1 13 6 15.5t18 2.5q26 0 37 9t13 21.5t2 37.5l2 247q0 28 -5 40.5t-15.5 17.5t-33.5 10q-3 1 -11 2.5t-10 5.5t-2 13q0 11 6 14.5t18 3.5q54 0 88 -6.5t61.5 -27.5t49.5 -62l119 -225h2l131 317h57q45 0 104 3q7 0 11 -6t4 -14q-1 -13 -5.5 -15.5
t-17.5 -2.5q-26 0 -37 -9t-12.5 -21t-1.5 -38v-247q0 -26 1.5 -38t12.5 -21t37 -9h6q9 0 12.5 -3t4.5 -15q0 -8 -4 -14t-11 -6q-58 3 -104 3q-40 0 -97 -3q-7 0 -11.5 6t-4.5 14q1 13 5.5 15.5t16.5 2.5q23 -1 32.5 6.5t10.5 17.5t2 44v265h-3l-151 -368h-26l-188 368h-2
l1 -265q0 -26 1.5 -38t12.5 -21t37 -9h6q9 0 13 -3t5 -15q0 -8 -4.5 -14t-11.5 -6l-26 1q-28 2 -40 2h-28q-13 0 -41 -2l-26 -1q-7 0 -11.5 6z" />
    <glyph glyph-name="uni043D" unicode="&#x43d;" horiz-adv-x="617" 
d="M40 3q-4 6 -4 14q1 13 5.5 15.5t17.5 2.5q26 0 37 9t12.5 20.5t1.5 38.5v247v25.5t-12.5 32t-38.5 10.5h-6q-9 0 -12.5 3t-4.5 15q0 8 4 14t12 6q57 -3 104 -3q39 0 96 3q8 0 12 -6t4 -14q-1 -13 -5.5 -15.5t-16.5 -2.5q-23 1 -32 -6.5t-10 -17.5t-2 -44v-91h213v91
q0 6 -0.5 29t-10.5 31.5t-33 7.5h-6q-8 0 -11.5 3t-4.5 15q0 8 4 14t11 6q57 -3 97 -3q45 0 104 3q8 0 12 -6t4 -14q-1 -13 -5.5 -15.5t-17.5 -2.5q-26 0 -37 -9t-13 -21t-2 -38v-247q0 -26 2 -38t13 -21t37 -9h6q8 0 12 -3t5 -15q0 -8 -4 -14t-12 -6q-58 3 -104 3
q-40 0 -97 -3q-7 0 -11 6t-4 14q1 13 5.5 15.5t16.5 2.5q23 -1 32 6.5t10 17.5t2 44v117h-213v-117q0 -6 0.5 -29t10.5 -31.5t33 -7.5h5q8 0 12 -3t5 -15q0 -8 -4 -14t-12 -6q-57 3 -96 3q-47 0 -104 -3q-8 0 -12 6z" />
    <glyph glyph-name="uni043E" unicode="&#x43e;" horiz-adv-x="548" 
d="M153 20.5q-53 32.5 -82.5 86t-29.5 113.5q0 75 35 130.5t89 85t109 29.5q68 0 121 -32.5t82.5 -86t29.5 -113.5q0 -75 -35.5 -130.5t-89.5 -85t-108 -29.5q-68 0 -121 32.5zM373.5 83q31.5 58 31.5 150q0 86 -32.5 140.5t-98.5 54.5q-69 0 -100 -57t-31 -149
q0 -86 32 -141.5t99 -55.5q68 0 99.5 58z" />
    <glyph glyph-name="uni043F" unicode="&#x43f;" horiz-adv-x="606" 
d="M40 3q-4 6 -4 14q1 13 5.5 15.5t17.5 2.5q26 0 37 9t12.5 20.5t1.5 38.5v247v26t-12.5 31.5t-38.5 10.5h-6q-9 0 -12.5 3t-4.5 15q0 8 4 14t12 6q57 -3 104 -3h294q46 0 103 3q7 0 11.5 -6t4.5 -14q-1 -13 -5.5 -15.5t-16.5 -2.5q-34 0 -42.5 -14t-8.5 -31.5v-22.5v-247
q0 -26 2 -38t13 -21t37 -9h6q8 0 12 -3t5 -15q0 -8 -4 -14t-12 -6q-58 3 -104 3q-40 0 -97 -3q-7 0 -11 6t-4 14q1 13 5.5 15.5t16.5 2.5q23 -1 32 6.5t10 17.5t2 44v318h-153q-33 0 -41.5 -14t-8.5 -31v-23v-250q0 -6 0.5 -29t10.5 -31.5t33 -7.5h5q8 0 12 -3t5 -15
q0 -8 -4 -14t-12 -6q-57 3 -96 3q-47 0 -104 -3q-8 0 -12 6z" />
    <glyph glyph-name="uni0440" unicode="&#x440;" horiz-adv-x="584" 
d="M27.5 -202q-4.5 6 -4.5 14q1 13 5.5 15.5t17.5 2.5q25 0 36 9t13.5 22t2.5 37v434q0 26 -1.5 38t-12.5 21t-37 9q-12 0 -18 3.5t-6 16.5q0 6 4 11.5t12 6.5q65 10 107 26q17 5 23 6h3q16 0 16 -19v-48h3q29 27 68 44.5t74 17.5q60 0 107.5 -30t74.5 -84.5t27 -123.5
q0 -70 -32 -124.5t-85 -84.5t-112 -30q-41 0 -69 8.5t-51 22.5h-4v-121q0 -24 2.5 -37t13.5 -22t36 -9h6q8 0 12 -3t5 -15q0 -8 -4 -14t-12 -6q-58 3 -105 3q-45 0 -104 -3q-7 0 -11.5 6zM407.5 84q32.5 62 32.5 140t-36 134.5t-107 56.5q-35 0 -59.5 -13.5t-48.5 -38.5
v-268q12 -30 42.5 -51.5t73.5 -21.5q70 0 102.5 62z" />
    <glyph glyph-name="uni0441" unicode="&#x441;" horiz-adv-x="475" 
d="M99 53q-58 65 -58 174q2 68 33.5 121.5t84.5 84t117 32.5q64 0 110.5 -24t46.5 -80q0 -31 -18.5 -54.5t-49.5 -23.5q-19 0 -32.5 10t-13.5 17q0 1 9 9t16.5 19.5t7.5 26.5q0 31 -22.5 47t-54.5 16q-77 0 -104.5 -56.5t-27.5 -141.5q0 -84 38 -138t101 -54q43 0 73.5 18.5
t55.5 56.5q3 5 10 5q5 0 11 -3q5 -2 8 -7t3 -10q0 -3 -3 -8q-33 -47 -82 -74.5t-99 -27.5q-102 0 -160 65z" />
    <glyph glyph-name="uni0442" unicode="&#x442;" horiz-adv-x="501" 
d="M134.5 3q-4.5 6 -4.5 14q1 13 5.5 15.5t17.5 2.5q26 0 37 9t13 21t2 38v318h-44q-31 0 -47 -12.5t-23 -36t-14 -71.5q-1 -8 -10 -12t-20 -4q-8 0 -15 5t-7 13l3 127q0 23 24 23h397q24 0 24 -23l3 -127q0 -8 -7 -13t-15 -5q-11 0 -20 4t-10 12q-7 46 -15 70.5t-25 37
t-48 12.5h-40v-318q0 -6 0.5 -29t10.5 -31.5t33 -7.5h6q8 0 11.5 -3t4.5 -15q0 -8 -4 -14t-11 -6q-57 3 -97 3q-45 0 -104 -3q-7 0 -11.5 6z" />
    <glyph glyph-name="uni0443" unicode="&#x443;" horiz-adv-x="552" 
d="M19.5 -190.5q-33.5 27.5 -33.5 65.5q0 45 25 57.5t39 12.5q17 0 28 -7t11 -13q0 -2 -8 -10t-8 -28t12.5 -35t35.5 -15q63 0 123 129q4 14 4 21q0 10 -5 25q-20 45 -67 167q-41 109 -67 166q-17 39 -32 53.5t-44 18.5q-3 1 -11 2t-10 5t-2 14q0 12 6.5 15t16 3.5t12.5 0.5
q61 3 96 -17.5t58 -71.5q22 -51 39 -97q40 -108 65 -158h3l98 262q5 17 5 24q0 11 -10 15t-33 4h-6q-8 0 -11.5 3t-4.5 15q0 7 3.5 13.5t10.5 6.5q57 -3 97 -3q16 0 62 2l21 1q7 0 11 -6.5t4 -13.5q-1 -12 -5 -15t-12 -3q-37 0 -57 -12t-34 -47q-23 -57 -74 -183t-76 -186
q-36 -86 -84 -147t-115 -61q-43 0 -76.5 27.5z" />
    <glyph glyph-name="uni045E" unicode="&#x45e;" horiz-adv-x="552" 
d="M19.5 -190.5q-33.5 27.5 -33.5 65.5q0 45 25 57.5t39 12.5q17 0 28 -7t11 -13q0 -2 -8 -10t-8 -28t12.5 -35t35.5 -15q63 0 123 129q4 14 4 21q0 10 -5 25q-20 45 -67 167q-41 109 -67 166q-17 39 -32 53.5t-44 18.5q-3 1 -11 2t-10 5t-2 14q0 12 6.5 15t16 3.5t12.5 0.5
q61 3 96 -17.5t58 -71.5q22 -51 39 -97q40 -108 65 -158h3l98 262q5 17 5 24q0 11 -10 15t-33 4h-6q-8 0 -11.5 3t-4.5 15q0 7 3.5 13.5t10.5 6.5q57 -3 97 -3q16 0 62 2l21 1q7 0 11 -6.5t4 -13.5q-1 -12 -5 -15t-12 -3q-37 0 -57 -12t-34 -47q-23 -57 -74 -183t-76 -186
q-36 -86 -84 -147t-115 -61q-43 0 -76.5 27.5zM164.5 564.5q-48.5 25.5 -48.5 67.5q0 19 13.5 31.5t38.5 12.5q15 0 21 -9.5t11 -29.5q6 -21 12 -33.5t21.5 -22t43.5 -9.5q38 0 52 16.5t21 46.5q6 21 12.5 31t21.5 10q24 0 38 -12.5t14 -31.5q0 -42 -48 -67.5t-111 -25.5
q-64 0 -112.5 25.5z" />
    <glyph glyph-name="uni0444" unicode="&#x444;" horiz-adv-x="733" 
d="M250.5 -202q-4.5 6 -4.5 14q1 13 5.5 15.5t17.5 2.5q26 0 37 9t13 21t2 38v91q-9 -1 -26 -1q-73 0 -130 32t-88.5 88t-31.5 124q3 66 34.5 119.5t87 84t127.5 30.5q18 0 27 -1v126q0 26 -2 38t-13 21t-37 9q-11 0 -17 3.5t-6 16.5q0 6 4 11.5t12 6.5l141 32h3q6 0 6 -7
v-257q9 1 27 1q72 0 127.5 -30.5t87 -84t34.5 -119.5q0 -68 -31.5 -124t-88.5 -88t-130 -32q-17 0 -26 1v-91q0 -26 2 -38t13 -21t37 -9h6q8 0 12 -3t5 -15q0 -8 -4 -14t-12 -6q-58 3 -105 3q-46 0 -104 -3q-7 0 -11.5 6zM321 26v402q-13 1 -34 1q-73 0 -105 -52.5
t-34 -144.5q0 -96 32 -151.5t107 -55.5q21 0 34 1zM553 80.5q32 55.5 32 151.5q-2 92 -34 144.5t-105 52.5q-21 0 -34 -1v-402q13 -1 34 -1q75 0 107 55.5z" />
    <glyph glyph-name="uni0445" unicode="&#x445;" horiz-adv-x="541" 
d="M21 3.5q-4 6.5 -4 13.5q1 12 5 15t12 3q22 0 36 6t24 16t32 37q25 28 101 122l-114 161q-13 17 -27.5 26.5t-35.5 13.5q-3 1 -11 2t-10 5t-2 14q0 12 6.5 15t16 3.5t12.5 0.5q102 5 148 -56l19 -28q26 -44 57 -85l67 87q17 23 17 32q0 6 -9 8t-33 3h-6q-8 0 -11.5 3
t-4.5 15q0 7 3.5 13.5t10.5 6.5q57 -3 84 -3q28 0 86 3q7 0 11 -6.5t4 -13.5q-1 -11 -5 -14t-9.5 -3.5t-7.5 -0.5q-29 -1 -43.5 -11.5t-43.5 -47.5q-10 -11 -32 -40q-39 -49 -52 -65q82 -106 122 -160q19 -27 38 -43t42 -16h6q8 0 12 -3t5 -15q0 -8 -4.5 -14t-11.5 -6
q-59 3 -96 3q-47 0 -106 -3q-7 0 -11.5 6t-4.5 14q1 13 5.5 15.5t17.5 2.5q21 0 21 14q0 10 -14 29l-78 104l-86 -104q-17 -22 -17 -30q0 -7 10 -10t32 -3h6q8 0 11.5 -3t4.5 -15q0 -7 -3.5 -13.5t-10.5 -6.5q-57 3 -84 3t-86 -3q-7 0 -11 6.5z" />
    <glyph glyph-name="uni0447" unicode="&#x447;" horiz-adv-x="568" 
d="M304.5 3q-4.5 6 -4.5 14q1 13 6 15.5t17 2.5q23 -1 32 6.5t10 17.5t2 44v94q-49 -20 -76 -27.5t-64 -7.5q-76 0 -110.5 28t-34.5 90v70q0 26 -1.5 38t-12.5 21t-37 9h-6q-9 0 -12.5 3t-4.5 15q0 8 4 14t11 6q59 -3 104 -3q40 0 97 3q7 0 11.5 -6t4.5 -14
q-1 -13 -5.5 -15.5t-16.5 -2.5q-23 1 -33 -6.5t-12 -20t-3 -41.5v-47q0 -49 20.5 -70.5t70.5 -21.5q52 0 106 18v121q0 6 -0.5 29t-10.5 31.5t-33 7.5h-6q-8 0 -12 3t-5 15q0 8 4.5 14t11.5 6q57 -3 97 -3q45 0 104 3q7 0 11.5 -6t4.5 -14q-1 -13 -6 -15.5t-18 -2.5
q-26 0 -37 -9t-12.5 -21t-1.5 -38v-247q0 -26 1.5 -38t12.5 -21t37 -9h6q9 0 13 -3t5 -15q0 -8 -4.5 -14t-11.5 -6q-58 3 -104 3q-40 0 -97 -3q-7 0 -11.5 6z" />
    <glyph glyph-name="uni0446" unicode="&#x446;" horiz-adv-x="640" 
d="M215 -208.5q-7 15.5 -7 32.5q0 46 29 72.5t78 26.5q25 0 47.5 -7.5t55.5 -22.5q37 -16 57.5 -22.5t44.5 -7.5q29 0 45.5 21t16.5 49t-17 47.5t-49 19.5h-361q-45 0 -104 -3q-7 0 -11.5 6t-4.5 14q1 13 5.5 15.5t17.5 2.5q26 0 37 9t13 21t2 38v247q0 34 -9 51t-43 17h-6
q-8 0 -12 3t-5 15q0 8 4.5 14t11.5 6q59 -3 104 -3q35 0 91 3q8 0 12 -6t4 -14q-1 -13 -5.5 -15.5t-16.5 -2.5q-20 1 -28 -6.5t-9 -18t-2 -43.5v-246q1 -27 3 -40.5t11.5 -21t29.5 -6.5h169v314v25.5t-11.5 32t-34.5 10.5h-6q-8 0 -12 3t-5 15q0 8 4 14t12 6q58 -3 99 -3
q39 0 96 3q8 0 12 -6t4 -14q-1 -13 -5.5 -15.5t-16.5 -2.5q-20 1 -29.5 -6.5t-11.5 -21t-3 -40.5v-247q1 -34 15 -48.5t42 -27.5q32 -14 48 -32.5t16 -63.5q0 -37 -18.5 -70t-53.5 -53.5t-82 -20.5q-27 1 -50 10t-59 26q-28 14 -45 20.5t-34 8.5q-23 2 -36 -7.5t-11 -26.5
q0 -8 7.5 -16.5t7.5 -10.5q0 -7 -4.5 -11t-12.5 -4q-14 0 -21 15.5z" />
    <glyph glyph-name="uni0448" unicode="&#x448;" horiz-adv-x="873" 
d="M40 3q-4 6 -4 14q1 13 5.5 15.5t17.5 2.5q26 0 37 9t13 21t2 38v247q0 33 -9.5 50.5t-42.5 17.5h-6q-9 0 -12.5 3t-4.5 15q0 8 4 14t12 6q59 -3 104 -3q34 0 91 3q8 0 12 -6t4 -14q-1 -13 -5.5 -15.5t-16.5 -2.5q-20 1 -28 -6.5t-9 -18t-2 -43.5v-246q0 -6 0.5 -29
t10.5 -31.5t33 -7.5h146v314q0 26 -1.5 38t-11.5 21t-33 9h-6q-9 0 -12.5 3t-4.5 15q0 8 4 14t11 6q58 -3 99 -3q35 0 91 3q8 0 12 -6t4 -14q-1 -13 -5.5 -15.5t-16.5 -2.5q-20 1 -28 -6.5t-9 -18t-2 -43.5v-246q0 -6 0.5 -29t10.5 -31.5t33 -7.5h146v314q0 26 -1.5 38
t-11.5 21t-33 9h-6q-8 0 -12 3t-5 15q0 8 4 14t12 6q59 -3 98 -3q40 0 97 3q8 0 12 -6t4 -14q-1 -13 -5.5 -15.5t-16.5 -2.5q-20 1 -29.5 -6.5t-11.5 -21t-3 -40.5v-247v-25.5t12.5 -32t38.5 -10.5h6q9 0 12.5 -3t4.5 -15q0 -8 -4 -14t-12 -6q-57 3 -103 3h-564
q-46 0 -104 -3q-8 0 -12 6z" />
    <glyph glyph-name="uni0449" unicode="&#x449;" horiz-adv-x="899" 
d="M405 -208.5q-7 15.5 -7 32.5q0 46 36 72.5t96 26.5q30 0 60.5 -8t73.5 -24q41 -14 66 -21t49 -7q29 0 45.5 21t16.5 49t-17 47.5t-49 19.5h-619q-46 0 -104 -3q-8 0 -12 6t-4 14q1 13 5.5 15.5t17.5 2.5q26 0 37 9t13 21t2 38v247q0 34 -9 51t-43 17h-6q-8 0 -12 3t-5 15
q0 8 4 14t12 6q59 -3 104 -3q34 0 91 3q8 0 12 -6t4 -14q-1 -13 -5.5 -15.5t-16.5 -2.5q-20 1 -28 -6.5t-9 -18t-2 -43.5v-246q1 -27 3 -40.5t11.5 -21t29.5 -6.5h146v314q0 26 -1.5 38t-11.5 21t-33 9h-6q-9 0 -12.5 3t-4.5 15q0 8 4 14t12 6q57 -3 98 -3q35 0 92 3
q7 0 11 -6t4 -14q-1 -13 -5.5 -15.5t-16.5 -2.5q-20 1 -28 -6.5t-9 -18t-2 -43.5v-246q1 -39 8.5 -54t36.5 -14h145v314v25.5t-11.5 32t-34.5 10.5h-6q-8 0 -12 3t-5 15q0 8 4 14t12 6q59 -3 99 -3q39 0 96 3q8 0 12 -6t4 -14q-1 -13 -5.5 -15.5t-16.5 -2.5
q-20 1 -29.5 -6.5t-11.5 -21t-3 -40.5v-247q1 -34 15 -48.5t42 -27.5q32 -14 48 -32.5t16 -63.5q0 -37 -18.5 -70t-53.5 -53.5t-82 -20.5q-34 0 -64.5 8.5t-71.5 25.5q-38 15 -60.5 22t-47.5 9q-60 0 -60 -34q0 -8 7.5 -16.5t7.5 -10.5q0 -7 -4.5 -11t-12.5 -4
q-14 0 -21 15.5z" />
    <glyph glyph-name="uni045F" unicode="&#x45f;" horiz-adv-x="605" 
d="M548 35q9 0 12.5 -3t4.5 -15q0 -8 -4 -14t-12 -6q-57 3 -104 3h-146q12 -45 20 -93t8 -75q0 -21 -11.5 -34t-33.5 -13q-20 0 -31.5 13t-11.5 34q0 27 7.5 75.5t19.5 92.5h-115q-46 0 -103 -3q-7 0 -11.5 6t-4.5 14q1 13 5.5 15.5t16.5 2.5q34 0 42.5 14t8.5 31.5v22.5
v247q0 26 -2 38t-13 21t-37 9h-6q-8 0 -12 3t-5 15q0 8 4 14t12 6q59 -3 104 -3q40 0 97 3q7 0 11 -6t4 -14q-1 -13 -5.5 -15.5t-16.5 -2.5q-23 1 -32 -6.5t-10 -17.5t-2 -44v-318h153q33 0 41.5 14t8.5 31v23v250q0 6 -0.5 29t-10.5 31.5t-33 7.5h-5q-8 0 -12 3t-5 15
q0 8 4 14t12 6q57 -3 96 -3q47 0 104 3q8 0 12 -6t4 -14q-1 -13 -5.5 -15.5t-17.5 -2.5q-26 0 -37 -9t-12.5 -20.5t-1.5 -38.5v-247v-26t12.5 -31.5t38.5 -10.5h6z" />
    <glyph glyph-name="uni044C" unicode="&#x44c;" horiz-adv-x="517" 
d="M40 3q-4 6 -4 14q1 13 5.5 15.5t17.5 2.5q26 0 37 9t12.5 20.5t1.5 38.5v247v25.5t-12.5 32t-38.5 10.5h-6q-9 0 -12.5 3t-4.5 15q0 8 4 14t12 6q57 -3 103 -3q40 0 97 3q8 0 12 -6t4 -14q-1 -13 -5.5 -15.5t-16.5 -2.5q-30 1 -37 -10.5t-7 -31v-26.5v-58l22 1q15 1 54 1
q103 0 159 -35.5t56 -108.5q0 -74 -57.5 -112t-137.5 -38h-143q-46 0 -103 -3q-8 0 -12 6zM359 61.5q31 33.5 31 81.5q0 49 -32 84.5t-91 35.5q-20 0 -39 -1.5t-26 -1.5v-189q0 -22 16.5 -32.5t55.5 -10.5q54 0 85 33.5z" />
    <glyph glyph-name="uni044A" unicode="&#x44a;" horiz-adv-x="591" 
d="M134.5 3q-4.5 6 -4.5 14q1 13 5.5 15.5t17.5 2.5q26 0 37 9t13 21t2 38v311h-40q-32 0 -48 -10.5t-23.5 -33t-16.5 -69.5q-1 -8 -10 -12t-20 -4q-8 0 -15 5t-7 13l4 127q1 23 23 23h198q40 0 97 3q7 0 11 -6t4 -14q-1 -13 -5.5 -15.5t-16.5 -2.5q-23 1 -32 -6.5
t-10 -17.5t-2 -44v-58l23 1q15 1 54 1q93 0 143.5 -35.5t50.5 -108.5q0 -74 -51.5 -112t-122.5 -38h-143q-45 0 -104 -3q-7 0 -11.5 6zM440 56q24 28 24 87q0 58 -28 89t-75 31q-19 0 -38 -1.5t-27 -1.5v-189q0 -22 16.5 -32.5t56.5 -10.5q47 0 71 28z" />
    <glyph glyph-name="uni044B" unicode="&#x44b;" horiz-adv-x="751" 
d="M40 3q-4 6 -4 14q0 13 5 15.5t18 2.5q26 0 37 9t12.5 20.5t1.5 38.5v247v25.5t-12.5 32t-38.5 10.5h-6q-9 0 -13 3t-4 15q0 8 4 14.5t12 5.5q38 -3 103 -3l46 1q32 2 51 2q8 0 12 -6t4 -14q0 -11 -4.5 -14.5t-12.5 -3.5q-33 0 -41 -11.5t-8 -30.5v-26v-58q52 2 66 2
q93 0 144 -35t51 -109t-51.5 -112t-123.5 -38h-133l-49 -1q-34 -2 -54 -2q-8 0 -12 6zM487 3q-4 6 -4 14q1 13 5.5 15.5t16.5 2.5q23 -1 32 6.5t10 17.5t2 44v247q0 6 -0.5 29t-10.5 31.5t-33 7.5h-5q-8 0 -12 3t-5 15q0 8 4 14t12 6q57 -3 96 -3q46 0 104 3q8 0 12 -6
t4 -14q-1 -13 -5.5 -15.5t-17.5 -2.5q-26 0 -37 -9t-12.5 -20.5t-1.5 -38.5v-247v-25.5t12.5 -32t38.5 -10.5h6q9 0 12.5 -3t4.5 -15q0 -8 -4 -14t-12 -6q-58 3 -104 3q-39 0 -96 -3q-8 0 -12 6zM335.5 58q24.5 30 24.5 85t-26 87.5t-77 32.5q-17 0 -33 -1.5t-22 -1.5v-189
q0 -22 14 -32.5t48 -10.5q47 0 71.5 30z" />
    <glyph glyph-name="uni0459" unicode="&#x459;" horiz-adv-x="761" 
d="M686 259q51 -35 51 -109q0 -51 -28.5 -87t-75.5 -53t-101 -13h-7q-51 3 -94 3q-40 0 -96 -3q-8 0 -12 6t-4 14q1 13 5.5 15.5t16.5 2.5q23 -1 32 6.5t10 17.5t2 44v318h-67q-33 0 -41.5 -14t-8.5 -31.5v-22.5q-4 -108 -13 -164q-14 -86 -44 -141t-103 -55
q-38 0 -65.5 28.5t-27.5 65.5q0 25 15.5 42.5t41.5 17.5q10 0 16 -2t7 -5q0 -3 -3 -10.5t-3 -17.5q0 -17 12.5 -32.5t33.5 -15.5q41 0 58.5 62t23.5 133q3 35 3 100q0 28 -9.5 41.5t-42.5 13.5h-6q-8 0 -12.5 3.5t-4.5 14.5q0 9 4 17t12 7q26 -3 69 -3h34h167q46 0 104 3
q8 0 12 -7.5t4 -16.5q-1 -13 -5.5 -15.5t-17.5 -2.5q-26 0 -37 -9t-13 -21t-2 -38v-54q52 2 66 2q93 0 144 -35zM612.5 62q21.5 27 21.5 81q0 55 -26 87.5t-77 32.5q-17 0 -33 -1.5t-22 -1.5v-157v-25v18q1 -33 13 -46.5t44 -14.5h3h2q53 0 74.5 27zM476 96v5v-5z" />
    <glyph glyph-name="uni045A" unicode="&#x45a;" horiz-adv-x="791" 
d="M716 259q51 -35 51 -109q0 -51 -28.5 -87t-75.5 -53t-101 -13l-24 1q-54 2 -77 2q-40 0 -97 -3q-7 0 -11 6t-4 14q1 13 5.5 15.5t16.5 2.5q23 -1 32 6.5t10 17.5t2 44v117h-213v-117q0 -6 0.5 -29t10.5 -31.5t33 -7.5h5q8 0 12 -3t5 -15q0 -8 -4 -14t-12 -6q-57 3 -96 3
q-47 0 -104 -3q-8 0 -12 6t-4 14q1 13 5.5 15.5t17.5 2.5q26 0 37 9t12.5 20.5t1.5 38.5v247v25.5t-12.5 32t-38.5 10.5h-6q-9 0 -12.5 3t-4.5 15q0 8 4 14t12 6q57 -3 104 -3q39 0 96 3q8 0 12 -6t4 -14q-1 -13 -5.5 -15.5t-16.5 -2.5q-23 1 -32 -6.5t-10 -17.5t-2 -44v-91
h213v91q0 6 -0.5 29t-10.5 31.5t-33 7.5h-6q-8 0 -11.5 3t-4.5 15q0 8 4 14t11 6q57 -3 97 -3q45 0 104 3q8 0 12 -6t4 -14q-1 -13 -5.5 -15.5t-17.5 -2.5q-26 0 -37 -9t-13 -21t-2 -38v-58q52 2 66 2q93 0 144 -35zM642.5 62q21.5 27 21.5 81q0 55 -26 87.5t-77 32.5
q-17 0 -33 -1.5t-22 -1.5v-157v-2v0q0 -36 12 -50.5t45 -15.5h3h2q53 0 74.5 27z" />
    <glyph glyph-name="uni0455" unicode="&#x455;" horiz-adv-x="443" 
d="M88 16q-50 28 -50 79q0 29 17.5 47t45.5 18q16 0 28.5 -9t12.5 -14q0 -1 -11.5 -13t-11.5 -34q0 -30 27.5 -47.5t79.5 -17.5q47 0 73.5 20.5t26.5 57.5q0 25 -15 41t-37.5 25t-62.5 21q-49 14 -80 28t-53 42t-22 73q0 42 26 72t67.5 45t87.5 15q59 0 102.5 -25t43.5 -70
q0 -27 -16.5 -46t-43.5 -19q-16 0 -28.5 9t-12.5 14q0 1 8 8t14.5 16.5t6.5 22.5q-2 27 -27 42t-59 15q-38 0 -66.5 -17.5t-28.5 -48.5q0 -28 12 -44.5t36 -26.5t76 -27q53 -17 83 -31.5t47.5 -39t17.5 -64.5q0 -41 -24 -74.5t-66 -52t-94 -18.5q-80 0 -130 28z" />
    <glyph glyph-name="uni0454" unicode="&#x454;" horiz-adv-x="475" 
d="M440 108q3 -5 3 -10q0 -3 -3 -8q-33 -47 -82 -74.5t-99 -27.5q-102 0 -160 65t-58 174q2 68 33.5 121.5t84.5 84t117 32.5q64 0 110.5 -24t46.5 -80q0 -31 -18.5 -54.5t-49.5 -23.5q-19 0 -32.5 10t-13.5 17q0 1 9 9t16.5 19.5t7.5 26.5q0 31 -22.5 47t-54.5 16
q-123 0 -131 -169h174q8 -1 13 -7.5t5 -13.5t-5 -12.5t-14 -5.5h-174q2 -80 40 -131t99 -51q43 0 73.5 18.5t55.5 56.5q3 5 10 5q5 0 11 -3q5 -2 8 -7z" />
    <glyph glyph-name="uni044D" unicode="&#x44d;" horiz-adv-x="506" 
d="M100 17q-50 28 -50 79q0 31 19 52.5t51 21.5q20 0 34 -10t14 -17q0 -1 -9.5 -9t-17.5 -19.5t-8 -26.5q0 -27 23 -43t55 -16q71 0 108.5 51t35.5 140h-177q-9 0 -14 5.5t-5 12.5t5 13.5t13 7.5h178q-5 75 -38.5 122t-84.5 47q-53 0 -85 -29t-41 -78q-4 -12 -22 -12l-9 1
q-9 2 -15.5 7.5t-5.5 13.5l5 50q1 22 5 52q33 13 79.5 22.5t90.5 8.5q78 0 128.5 -34.5t73.5 -85.5t23 -103q0 -86 -35.5 -142.5t-90.5 -83t-115 -26.5q-68 0 -118 28z" />
    <glyph glyph-name="uni0456" unicode="&#x456;" horiz-adv-x="296" 
d="M37.5 3q-4.5 6 -4.5 14q1 13 6 15.5t18 2.5q26 0 37 9t12.5 21t1.5 38v229q0 26 -1.5 38t-12.5 21t-37 9q-12 0 -18 3.5t-6 16.5q0 6 4 11.5t12 6.5q63 9 108 26q14 5 23 6h3q16 0 16 -19v-348q0 -26 2 -38t13 -21t37 -9h6q8 0 12 -3t5 -15q0 -8 -4 -14t-12 -6
q-58 3 -105 3q-45 0 -104 -3q-7 0 -11.5 6zM101 598.5q-19 17.5 -19 43.5q0 23 23 41t52 18q25 0 41 -17.5t16 -44.5q0 -24 -19 -41t-47 -17t-47 17.5z" />
    <glyph glyph-name="uni0457" unicode="&#x457;" horiz-adv-x="296" 
d="M37.5 3q-4.5 6 -4.5 14q1 13 6 15.5t18 2.5q26 0 37 9t12.5 21t1.5 38v229q0 26 -1.5 38t-12.5 21t-37 9q-12 0 -18 3.5t-6 16.5q0 6 4 11.5t12 6.5q63 9 108 26q14 5 23 6h3q16 0 16 -19v-348q0 -26 2 -38t13 -21t37 -9h6q8 0 12 -3t5 -15q0 -8 -4 -14t-12 -6
q-58 3 -105 3q-45 0 -104 -3q-7 0 -11.5 6zM18.5 565q-18.5 18 -18.5 42q0 26 18 43t45 17q26 0 43 -17t17 -43q0 -24 -17.5 -42t-43.5 -18q-25 0 -43.5 18zM191.5 565q-18.5 18 -18.5 42q0 26 18 43t45 17q26 0 43 -17t17 -43q0 -24 -17.5 -42t-43.5 -18q-25 0 -43.5 18z
" />
    <glyph glyph-name="uni0458" unicode="&#x458;" horiz-adv-x="300" 
d="M33 -205q-9 0 -15 14q-1 3 -1 10q0 10 9 14q47 20 69.5 57.5t29.5 92.5t7 148v201q0 26 -1.5 38t-12.5 21t-37 9q-12 0 -18 3.5t-6 16.5q0 6 4 11.5t12 6.5q63 9 108 26q14 5 23 6h3q16 0 16 -19v-352q0 -123 -42.5 -201.5t-142.5 -102.5h-5zM123 598.5
q-19 17.5 -19 43.5q0 23 23 41t52 18q25 0 41 -17.5t16 -44.5q0 -24 -19 -41t-47 -17t-47 17.5z" />
    <glyph glyph-name="uni045B" unicode="&#x45b;" horiz-adv-x="592" 
d="M561 35q9 0 12.5 -3t4.5 -15q0 -8 -4 -14t-11 -6q-58 3 -105 3t-104 -3q-8 0 -12 6t-4 14q1 13 5.5 15.5t17.5 2.5q26 0 37 9t12.5 20.5t1.5 38.5v162q0 46 -28.5 70.5t-66.5 24.5q-46 0 -79.5 -23t-44.5 -46v-188q0 -26 1.5 -38t12.5 -21t37 -9h6q9 0 12.5 -3t4.5 -15
q0 -8 -4 -14t-11 -6q-58 3 -105 3q-46 0 -104 -3q-8 0 -12 6t-4 14q1 13 5.5 15.5t17.5 2.5q26 0 37 9t13 21t2 38v396h-75q-11 0 -17 6t-6 16t6 16t17 6h75v48q0 26 -1.5 38t-12.5 21t-37 9q-12 0 -18 3.5t-6 16.5q0 6 4 11.5t12 6.5q63 9 108 26q14 5 23 6h3q16 0 16 -19
v-167h143q11 0 17 -6t6 -16t-6 -16t-17 -6h-143v-161h2q29 27 47 41.5t46.5 25t67.5 10.5q68 0 108 -41t40 -108v-163q0 -26 1.5 -38t12.5 -21t37 -9h6z" />
    <glyph glyph-name="uni044E" unicode="&#x44e;" horiz-adv-x="800" 
d="M410 20.5q-51 32.5 -79 85.5t-28 114h-102v-117q0 -6 0.5 -29t10.5 -31.5t33 -7.5h6q8 0 12 -3t5 -15q0 -8 -4.5 -14t-11.5 -6q-57 3 -97 3q-45 0 -104 -3q-7 0 -11.5 6t-4.5 14q1 13 6 15.5t18 2.5q26 0 37 9t12.5 21t1.5 38v247q0 26 -1.5 38t-12.5 21t-37 9h-6
q-9 0 -13 3t-5 15q0 8 4.5 14t11.5 6q59 -3 104 -3q40 0 97 3q7 0 11.5 -6t4.5 -14q-1 -13 -6 -15.5t-17 -2.5q-23 1 -32 -6.5t-10 -17.5t-2 -44v-91h104q9 64 43 110.5t82.5 71t98.5 24.5q68 0 119 -32.5t78.5 -85.5t27.5 -114q0 -75 -33.5 -130.5t-85.5 -85t-106 -29.5
q-68 0 -119 32.5zM622.5 85.5q33.5 60.5 33.5 143.5q0 81 -33.5 140t-93.5 59q-40 0 -69 -29t-43.5 -75.5t-14.5 -98.5q0 -81 33.5 -140.5t93.5 -59.5t93.5 60.5z" />
    <glyph glyph-name="uni044F" unicode="&#x44f;" horiz-adv-x="593" 
d="M50 2.5q-20 9.5 -31.5 23.5t-11.5 26q0 16 16 16q7 0 16 -13q7 -10 14 -16t18 -6q20 0 34.5 17t36.5 54q6 9 11 17.5t9 14.5q21 32 44 49.5t57 26.5v2q-30 1 -60 11t-52 28q-37 31 -37 79q0 61 49.5 91t133.5 30h141q46 0 104 3q7 0 11 -6t4 -14q-1 -13 -5.5 -15.5
t-17.5 -2.5q-26 0 -37 -9t-12.5 -21t-1.5 -38v-247q0 -26 1.5 -38t12.5 -21t37 -9h6q9 0 12.5 -3t4.5 -15q0 -8 -4 -14t-11 -6q-58 3 -104 3q-40 0 -97 -3q-8 0 -12 6t-4 14q1 13 5.5 15.5t16.5 2.5q30 -1 37 10.5t7 31v26.5v102h-23q-44 0 -69.5 -24.5t-53.5 -73.5
q-22 -39 -39 -61t-44 -37.5t-67 -15.5q-25 0 -45 9.5zM391 233v153q0 21 -16.5 27t-53.5 6q-50 0 -79 -24t-29 -70t40 -73q33 -19 94 -19h44z" />
    <glyph glyph-name="uni0452" unicode="&#x452;" horiz-adv-x="572" 
d="M282 -186q-11 0 -14 15q-1 3 -1 10q0 10 9 14q79 15 118 106.5t39 207.5q0 91 -32.5 142t-84.5 51q-46 0 -79.5 -23t-44.5 -46v-188q0 -26 1.5 -38t12.5 -21t37 -9h6q9 0 12.5 -3t4.5 -15q0 -8 -4 -14t-11 -6q-58 3 -105 3q-46 0 -104 -3q-8 0 -12 6t-4 14q1 13 5.5 15.5
t17.5 2.5q26 0 37 9t13 21t2 38v396h-75q-11 0 -17 6t-6 16t6 16t17 6h75v48q0 26 -1.5 38t-12.5 21t-37 9q-12 0 -18 3.5t-6 16.5q0 6 4 11.5t12 6.5q63 9 108 26q14 5 23 6h3q16 0 16 -19v-167h143q11 0 17 -6t6 -16t-6 -16t-17 -6h-143v-161h2q29 27 47 41.5t46.5 25
t67.5 10.5q78 0 124 -67.5t46 -179.5q0 -78 -27.5 -155.5t-81.5 -132t-128 -65.5z" />
    <glyph glyph-name="uni0463" unicode="&#x463;" horiz-adv-x="605" 
d="M525 231q56 -33 56 -101q0 -64 -57.5 -97t-137.5 -33h-143q-46 0 -103 -3q-8 0 -12 6t-4 14q1 13 5.5 15.5t17.5 2.5q26 0 37 9t12.5 20.5t1.5 38.5l1 318h-38q-31 0 -46 -12t-22 -34t-16 -74q-1 -8 -10 -12t-20 -4q-8 0 -15 5t-7 13l3 127q0 23 24 23h147v138
q0 26 -1.5 38t-12.5 21t-37 9q-12 0 -18 3.5t-6 16.5q0 6 4 11.5t12 6.5q58 10 105 25q15 5 26 7h3q16 0 16 -19v-257h159q24 0 24 -23l3 -117q0 -8 -7 -13t-15 -5q-11 0 -20 4t-10 12q-8 44 -16 66t-24.5 33t-47.5 11h-46v-159l22 1q15 1 54 1q103 0 159 -33zM447 55.5
q31 27.5 31 67.5q0 45 -32 77.5t-91 32.5q-20 0 -39 -1.5t-26 -1.5v-159q0 -22 16.5 -32.5t55.5 -10.5q54 0 85 27.5z" />
    <glyph glyph-name="uni046B" unicode="&#x46b;" horiz-adv-x="770" 
d="M751 17q0 -9 -4 -14.5t-11 -5.5l-45 1l-46 2h-49l-51 136q-28 78 -115 85v-17v-120q1 -27 9.5 -41t38.5 -14h3q7 0 10.5 -2.5t4.5 -12.5q0 -7 -3.5 -11.5t-9.5 -4.5q-62 2 -95 2q-40 0 -102 -2q-6 0 -9.5 5t-3.5 11q1 10 4.5 12.5t11.5 2.5q32 0 41 14t9 41v137
q-49 -3 -75 -22t-41 -63l-47 -136h-42l-101 -2q-14 0 -14 19q0 18 19 18q25 0 38.5 10t25.5 39l23 54q25 59 78.5 83t127.5 27q-18 34 -54 77t-40 48q-23 27 -37 38t-31 13q-19 3 -19 19q0 15 21 15q9 0 35 -2q48 -3 57 -3h288q24 0 43 1.5t28 1.5q14 0 14 -15
q0 -16 -19 -16q-29 0 -74 -49l-98 -113q-6 -7 -9 -15q78 -3 130.5 -27t77.5 -83l23 -54q12 -30 26 -39.5t38 -9.5q20 0 20 -18zM328 383l82 -114l127 156h-248q17 -12 39 -42z" />
    <glyph glyph-name="uni0473" unicode="&#x473;" horiz-adv-x="548" 
d="M395 432.5q53 -32.5 82.5 -86t29.5 -113.5q0 -75 -35.5 -130.5t-89.5 -85t-108 -29.5q-68 0 -121 32.5t-82.5 86t-29.5 113.5q0 75 35 130.5t89 85t109 29.5q68 0 121 -32.5zM178 377.5q-31 -50.5 -35 -133.5q47 34 95 34q16 0 30.5 -4.5t35.5 -14.5q17 -8 29 -12.5
t24 -4.5q26 0 47 13q-4 77 -36 125t-94 48q-65 0 -96 -50.5zM371 79q32 54 34 141q-45 -32 -87 -32q-14 0 -25.5 4.5t-25.5 12.5q-17 11 -33 16.5t-39 5.5q-25 0 -52 -20q2 -80 34 -131t97 -51t97 54z" />
    <glyph glyph-name="uni0475" unicode="&#x475;" horiz-adv-x="563" 
d="M532 445q19 -16 19 -45q0 -27 -13 -41.5t-32 -14.5q-13 0 -15 7q0 3 4.5 10t4.5 17q0 12 -7.5 20.5t-22.5 8.5q-34 0 -58 -86l-110 -331h-55q-26 56 -73 179q-4 10 -27.5 72t-44.5 104q-17 39 -32 53.5t-44 18.5q-3 1 -11 2t-10 5t-2 14q0 12 6.5 15t16 3.5t12.5 0.5
q61 3 96 -17.5t58 -71.5q1 -2 39 -96q46 -117 66 -159h3l79 250q16 52 40 75t64 23q30 0 49 -16z" />
    <glyph glyph-name="uni0493" unicode="&#x493;" horiz-adv-x="453" 
d="M426 303q0 -8 -6.5 -13t-15.5 -5q-11 0 -19.5 4t-9.5 12q-7 47 -15 71t-25 36.5t-48 12.5h-85v-170h99q11 0 17 -6t6 -16t-6 -16t-17 -6h-99v-104v-29.5t10.5 -31t33.5 -7.5h5q8 0 12 -3t5 -15q0 -8 -4.5 -14t-11.5 -6q-57 3 -97 3q-45 0 -104 -3q-7 0 -11 6t-4 14
q1 13 5.5 15.5t17.5 2.5q26 0 37 9t12.5 21t1.5 38v104h-58q-11 0 -17 6t-6 16t6 16t17 6h58v99q0 26 -1.5 38t-12.5 21t-37 9h-6q-9 0 -12.5 3t-4.5 15q0 8 4 14t11 6q59 -3 104 -3h245q23 0 23 -23z" />
    <glyph glyph-name="uni0495" unicode="&#x495;" horiz-adv-x="514" 
d="M435 186q43 -52 43 -148q0 -54 -27.5 -107.5t-81.5 -91t-128 -45.5l-6 -1q-11 0 -14 15q-1 3 -1 10q0 10 9 14q79 10 118 69.5t39 135.5q0 74 -28 110t-80 36q-32 0 -76 -14v-66v-29.5t10.5 -31t33.5 -7.5h5q8 0 12 -3t5 -15q0 -8 -4.5 -14t-11.5 -6q-57 3 -97 3
q-45 0 -104 -3q-7 0 -11 6t-4 14q1 13 5.5 15.5t17.5 2.5q26 0 37 9t12.5 21t1.5 38v247q0 26 -1.5 38t-12.5 21t-37 9h-6q-9 0 -12.5 3t-4.5 15q0 8 4 14t11 6q59 -3 104 -3h245q23 0 23 -23l3 -107q0 -8 -6.5 -13t-15.5 -5q-11 0 -19.5 4t-9.5 12q-7 39 -15 59t-25 30.5
t-48 10.5h-85v-210q63 27 116 27q74 0 117 -52z" />
    <glyph glyph-name="uni0497" unicode="&#x497;" horiz-adv-x="856" 
d="M841 17l-14 -135q-1 -8 -8.5 -13t-16.5 -5q-7 0 -12.5 4t-6.5 12l-2 22q-5 56 -11 74t-24 17h1q-35 2 -58.5 19t-37 41t-30.5 62t-29.5 59t-33.5 35.5t-52 14.5h-23v-121q0 -26 2 -38t13 -21t37 -9h6q8 0 12 -3t5 -15q0 -8 -4 -14t-12 -6q-58 3 -105 3q-40 0 -97 -3
q-7 0 -11 6t-4 14q1 13 5.5 15.5t16.5 2.5q23 -1 32 6.5t10 17.5t2 44v121h-23q-31 0 -52 -15t-33.5 -36.5t-29.5 -59.5q-17 -40 -32 -64.5t-40 -40.5t-64 -15q-28 0 -54 14t-31 41v4q0 7 3.5 11.5t9.5 4.5q8 0 15 -13q7 -11 14 -16.5t20 -5.5q17 0 28.5 17.5t26.5 54.5
q18 42 34 69.5t43.5 48t68.5 22.5v2q-28 13 -53 58q-4 8 -13.5 31t-24.5 37.5t-37 14.5q-17 0 -27 -14.5t-10 -35.5q0 -4 -2.5 -5t-5.5 -1q-9 0 -21.5 7.5t-22 20.5t-9.5 31q0 29 22.5 51.5t59.5 22.5q30 -2 50.5 -18t32.5 -37t26 -55q4 -8 8.5 -19t11.5 -24q30 -58 73 -58
h38v96q0 6 -0.5 29t-10.5 31.5t-33 7.5h-6q-8 0 -11.5 3t-4.5 15q0 8 4 14t11 6q57 -3 97 -3q47 0 105 3q8 0 12 -6t4 -14q-1 -13 -5.5 -15.5t-17.5 -2.5q-26 0 -37 -9t-13 -21t-2 -38v-96h38q43 0 73 58q7 13 11.5 24t8.5 19q14 34 26 55t32.5 37t50.5 18q37 0 59.5 -22.5
t22.5 -51.5q0 -18 -9.5 -31t-22 -20.5t-21.5 -7.5q-3 0 -5.5 1t-2.5 5q0 21 -10 35.5t-27 14.5q-26 0 -40.5 -18t-22.5 -37.5t-12 -27.5q-25 -45 -53 -58v-2q42 -2 71 -24t46 -51t35 -72q15 -36 26 -53t26 -17q10 0 23.5 2.5t19.5 2.5q15 0 15 -16z" />
    <glyph glyph-name="uni0499" unicode="&#x499;" horiz-adv-x="471" 
d="M383 37.5q-43 -33.5 -106 -44.5l-12 -111q-1 -8 -8.5 -13t-16.5 -5q-7 0 -12.5 4t-6.5 12q-5 61 -9 82t-14 28q-72 5 -112.5 36t-40.5 78q0 30 18.5 48t51.5 18q21 0 34.5 -9t13.5 -18q0 -2 -10 -11t-17.5 -20t-7.5 -26q0 -29 24 -46t66 -17q48 0 76 24t28 74
q0 44 -29.5 72t-84.5 28h-21q-10 0 -15 5.5t-5 13.5q0 7 5 12.5t15 6.5h21q36 0 67 23.5t31 62.5q0 83 -81 83q-48 0 -74.5 -26t-37.5 -78q-4 -12 -22 -12l-9 1q-9 2 -15.5 7.5t-5.5 13.5l5 50q1 22 5 52q40 14 73.5 21.5t80.5 7.5q90 0 137.5 -33t47.5 -84q0 -38 -31 -65.5
t-83 -38.5v-2q60 -5 95 -39t35 -75q0 -57 -43 -90.5z" />
    <glyph glyph-name="uni049B" unicode="&#x49b;" horiz-adv-x="571" 
d="M554 14l-14 -132q0 -8 -8 -13t-17 -5q-7 0 -12.5 4t-6.5 12q-4 65 -9.5 88.5t-22.5 24.5h-2h-3h1q-33 2 -55.5 19t-36 40.5t-29.5 60.5q-17 38 -29.5 59.5t-33.5 36.5t-52 15h-31v-121q0 -26 2 -38t13 -21t37 -9h6q8 0 12 -3t5 -15q0 -8 -4 -14t-12 -6q-58 3 -105 3
q-40 0 -97 -3q-7 0 -11 6t-4 14q1 13 5.5 15.5t16.5 2.5q23 -1 32 6.5t10 17.5t2 44v247q0 6 -0.5 29t-10.5 31.5t-33 7.5h-6q-8 0 -11.5 3t-4.5 15q0 8 4 14t11 6q57 -3 97 -3q46 0 105 3q8 0 12 -6t4 -14q-1 -13 -5.5 -15.5t-17.5 -2.5q-26 0 -37 -9t-13 -21t-2 -38v-96
h46q43 0 73 58q7 13 11.5 24t8.5 19q14 34 26 55t32.5 37t50.5 18q37 0 59.5 -22.5t22.5 -51.5q0 -18 -9.5 -31t-22 -20.5t-21.5 -7.5q-3 0 -5.5 1t-2.5 5q0 21 -10 35.5t-27 14.5q-26 0 -40.5 -18t-22.5 -37.5t-12 -27.5q-25 -45 -53 -58v-2q42 -2 69.5 -23.5t43 -49
t33.5 -71.5q15 -38 26 -55.5t27 -17.5q10 0 24 2.5t20 2.5q14 0 14 -16v-3z" />
    <glyph glyph-name="uni049D" unicode="&#x49d;" horiz-adv-x="580" 
d="M547 68q8 0 12 -6t2 -14q-5 -27 -31 -41t-54 -14q-39 -1 -64 15t-40 40.5t-32 64.5q-17 38 -30.5 61t-34.5 36v-68q0 -11 -6 -17t-16 -6t-16 6.5t-6 16.5v82h-6h-31v-121q0 -26 2 -38t13 -21t37 -9h6q8 0 12 -3t5 -15q0 -8 -4 -14t-12 -6q-58 3 -105 3q-40 0 -97 -3
q-7 0 -11 6t-4 14q1 13 5.5 15.5t16.5 2.5q23 -1 32 6.5t10 17.5t2 44v247q0 6 -0.5 29t-10.5 31.5t-33 7.5h-6q-8 0 -11.5 3t-4.5 15q0 8 4 14t11 6q57 -3 97 -3q46 0 105 3q8 0 12 -6t4 -14q-1 -13 -5.5 -15.5t-17.5 -2.5q-26 0 -37 -9t-13 -21t-2 -38v-96h37v67
q0 10 6 16.5t16 6.5t16 -6t6 -17v-56q19 12 38 47q7 13 11.5 24t8.5 19q14 34 26 55t32.5 37t50.5 18q37 0 59.5 -22.5t22.5 -51.5q0 -18 -9.5 -31t-22 -20.5t-21.5 -7.5q-3 0 -5.5 1t-2.5 5q0 21 -10 35.5t-27 14.5q-26 0 -40.5 -18t-22.5 -37.5t-12 -27.5q-25 -45 -53 -58
v-2q41 -2 68.5 -22.5t43.5 -48t34 -69.5q15 -37 26.5 -54.5t28.5 -17.5q13 0 20 6t14.5 17.5t12.5 11.5h1z" />
    <glyph glyph-name="uni04A1" unicode="&#x4a1;" horiz-adv-x="703" 
d="M535 8q-25 16 -40 40.5t-32 64.5q-17 38 -29.5 59.5t-33.5 36.5t-52 15h-31v-121q0 -26 2 -38t13 -21t37 -9h6q8 0 12 -3t5 -15q0 -8 -4 -14t-12 -6q-58 3 -105 3q-40 0 -97 -3q-7 0 -11 6t-4 14q1 13 5.5 15.5t16.5 2.5q23 -1 32 6.5t10 17.5t2 44v247q-1 38 -8 54.5
t-31 16.5h-25q-31 0 -46 -12t-22 -34t-16 -74q-1 -8 -10 -12t-20 -4q-8 0 -15 5t-7 13l3 127q0 23 24 23h219q46 0 105 3q8 0 12 -6t4 -14q-1 -13 -5.5 -15.5t-17.5 -2.5q-26 0 -37 -9t-13 -21t-2 -38v-96h46q43 0 73 58q7 13 11.5 24t8.5 19q14 34 26 55t32.5 37t50.5 18
q37 0 59.5 -22.5t22.5 -51.5q0 -18 -9.5 -31t-22 -20.5t-21.5 -7.5q-3 0 -5.5 1t-2.5 5q0 21 -10 35.5t-27 14.5q-26 0 -40.5 -18t-22.5 -37.5t-12 -27.5q-25 -45 -53 -58v-2q41 -2 68.5 -22.5t43.5 -48t34 -69.5q15 -37 26.5 -54.5t28.5 -17.5q13 0 20 6t14.5 17.5
t12.5 11.5h1q8 0 12 -6t2 -14q-5 -27 -31 -41t-54 -14q-39 -1 -64 15z" />
    <glyph glyph-name="uni04A3" unicode="&#x4a3;" horiz-adv-x="617" 
d="M588 16v-127q0 -9 -6.5 -13.5t-15.5 -4.5q-11 0 -19.5 4t-9.5 12q-7 46 -14.5 68.5t-23.5 33.5t-47 11q-35 0 -88 -3q-7 0 -11 6t-4 14q1 13 5.5 15.5t16.5 2.5q23 -1 32 6.5t10 17.5t2 44v117h-213v-117q0 -6 0.5 -29t10.5 -31.5t33 -7.5h5q8 0 12 -3t5 -15q0 -8 -4 -14
t-12 -6q-57 3 -96 3q-47 0 -104 -3q-8 0 -12 6t-4 14q1 13 5.5 15.5t17.5 2.5q26 0 37 9t12.5 20.5t1.5 38.5v247v25.5t-12.5 32t-38.5 10.5h-6q-9 0 -12.5 3t-4.5 15q0 8 4 14t12 6q57 -3 104 -3q39 0 96 3q8 0 12 -6t4 -14q-1 -13 -5.5 -15.5t-16.5 -2.5q-23 1 -32 -6.5
t-10 -17.5t-2 -44v-91h213v91q0 6 -0.5 29t-10.5 31.5t-33 7.5h-6q-8 0 -11.5 3t-4.5 15q0 8 4 14t11 6q57 -3 97 -3q45 0 104 3q8 0 12 -6t4 -14q-1 -13 -5.5 -15.5t-17.5 -2.5q-26 0 -37 -9t-13 -21t-2 -38v-242q0 -29 3 -42t15.5 -20t40.5 -7q23 0 23 -23z" />
    <glyph glyph-name="uni04AB" unicode="&#x4ab;" horiz-adv-x="489" 
d="M446 108q3 -5 3 -10q0 -3 -3 -8q-27 -38 -64 -63.5t-79 -34.5l-11 -110q-1 -8 -8.5 -13t-16.5 -5q-7 0 -12.5 4t-6.5 12q-2 18 -2 24q-4 46 -8.5 64t-14.5 23l-10 2h-2h1q-78 16 -121.5 78t-43.5 156q2 68 33.5 121.5t84.5 84t117 32.5q64 0 110.5 -24t46.5 -80
q0 -31 -18.5 -54.5t-49.5 -23.5q-19 0 -32.5 10t-13.5 17q0 1 9 9t16.5 19.5t7.5 26.5q0 31 -22.5 47t-54.5 16q-77 0 -104.5 -56.5t-27.5 -141.5q0 -84 38 -138t101 -54q43 0 73.5 18.5t55.5 56.5q3 5 10 5q5 0 11 -3q5 -2 8 -7z" />
    <glyph glyph-name="uni04AF" unicode="&#x4af;" horiz-adv-x="548" 
d="M151.5 -202q-4.5 6 -4.5 14q0 13 5 15.5t18 2.5q25 0 36 9t13.5 22t2.5 37v152q-40 103 -43 111q-57 143 -76 184q-17 39 -32 53.5t-44 18.5q-3 1 -11 2t-10 5t-2 14q0 12 6.5 15t16 3.5t12.5 0.5q61 3 96 -17.5t58 -71.5q1 -2 39 -96q46 -117 66 -159h3l99 262
q5 17 5 24q0 11 -10 15t-33 4h-6q-8 0 -11.5 3t-4.5 15q0 7 3.5 13.5t10.5 6.5q57 -3 97 -3q16 0 62 2l21 1q7 0 11 -6.5t4 -13.5q-1 -12 -5 -15t-12 -3q-37 0 -57 -12t-34 -47t-52 -129t-76 -186v-146q0 -24 2.5 -37t13.5 -22t36 -9h6q8 0 12.5 -3.5t4.5 -14.5
q0 -8 -4 -14.5t-12 -5.5q-26 3 -70 3h-35l-50 -1q-34 -2 -54 -2q-7 0 -11.5 6z" />
    <glyph glyph-name="uni04B1" unicode="&#x4b1;" horiz-adv-x="548" 
d="M545 449.5q4 -6.5 4 -13.5q-1 -12 -5 -15t-12 -3q-37 0 -57 -12t-34 -47t-52 -129t-76 -186v-22h83q11 0 17 -6t6 -16t-6 -16t-17 -6h-83v-80q0 -24 2.5 -37t13.5 -22t36 -9h6q8 0 12.5 -3.5t4.5 -14.5q0 -8 -4 -14.5t-12 -5.5q-26 3 -70 3h-35l-50 -1q-34 -2 -54 -2
q-7 0 -11.5 6t-4.5 14q0 13 5 15.5t18 2.5q25 0 36 9t13.5 22t2.5 37v80h-75q-11 0 -17 6t-6 16t6 16t17 6h75v28q-40 103 -43 111q-57 143 -76 184q-17 39 -32 53.5t-44 18.5q-3 1 -11 2t-10 5t-2 14q0 12 6.5 15t16 3.5t12.5 0.5q61 3 96 -17.5t58 -71.5q1 -2 39 -96
q46 -117 66 -159h3l99 262q5 17 5 24q0 11 -10 15t-33 4h-6q-8 0 -11.5 3t-4.5 15q0 7 3.5 13.5t10.5 6.5q57 -3 97 -3q16 0 62 2l21 1q7 0 11 -6.5z" />
    <glyph glyph-name="uni04B7" unicode="&#x4b7;" horiz-adv-x="568" 
d="M540 16v-127q0 -9 -6.5 -13.5t-15.5 -4.5q-11 0 -19.5 4t-9.5 12q-7 46 -14.5 68.5t-23.5 33.5t-47 11q-35 0 -88 -3q-7 0 -11.5 6t-4.5 14q1 13 6 15.5t17 2.5q23 -1 32 6.5t10 17.5t2 44v94q-49 -20 -76 -27.5t-64 -7.5q-76 0 -110.5 28t-34.5 90v70q0 26 -1.5 38
t-12.5 21t-37 9h-6q-9 0 -12.5 3t-4.5 15q0 8 4 14t11 6q59 -3 104 -3q40 0 97 3q7 0 11.5 -6t4.5 -14q-1 -13 -5.5 -15.5t-16.5 -2.5q-23 1 -33 -6.5t-12 -20t-3 -41.5v-47q0 -49 20.5 -70.5t70.5 -21.5q52 0 106 18v121q0 6 -0.5 29t-10.5 31.5t-33 7.5h-6q-8 0 -12 3
t-5 15q0 8 4.5 14t11.5 6q57 -3 97 -3q45 0 104 3q7 0 11.5 -6t4.5 -14q-1 -13 -6 -15.5t-18 -2.5q-26 0 -37 -9t-12.5 -21t-1.5 -38v-242q0 -29 3 -42t15.5 -20t40.5 -7q23 0 23 -23z" />
    <glyph glyph-name="uni04B9" unicode="&#x4b9;" horiz-adv-x="568" 
d="M515 35q9 0 13 -3t5 -15q0 -8 -4.5 -14t-11.5 -6q-58 3 -104 3q-40 0 -97 -3q-7 0 -11.5 6t-4.5 14q1 13 6 15.5t17 2.5q23 -1 32 6.5t10 17.5t2 44v94q-24 -10 -47 -18.5t-43 -11.5v-66q0 -11 -6 -17t-16 -6t-16 6.5t-6 16.5v61h-6q-76 0 -110.5 28t-34.5 90v70
q0 26 -1.5 38t-12.5 21t-37 9h-6q-9 0 -12.5 3t-4.5 15q0 8 4 14t11 6q59 -3 104 -3q40 0 97 3q7 0 11.5 -6t4.5 -14q-1 -13 -5.5 -15.5t-16.5 -2.5q-23 1 -33 -6.5t-12 -20t-3 -41.5v-47q0 -42 14.5 -63.5t48.5 -26.5v67q0 10 6 16.5t16 6.5t16 -6t6 -17v-69q48 4 90 18
v121q0 6 -0.5 29t-10.5 31.5t-33 7.5h-6q-8 0 -12 3t-5 15q0 8 4.5 14t11.5 6q57 -3 97 -3q45 0 104 3q7 0 11.5 -6t4.5 -14q-1 -13 -6 -15.5t-18 -2.5q-26 0 -37 -9t-12.5 -21t-1.5 -38v-247q0 -26 1.5 -38t12.5 -21t37 -9h6z" />
    <glyph glyph-name="uni04BB" unicode="&#x4bb;" horiz-adv-x="589" 
d="M27 3q-4 6 -4 14q1 13 5.5 15.5t17.5 2.5q26 0 37 9t13 21t2 38v488q0 26 -1.5 38t-12.5 21t-37 9q-12 0 -18 3.5t-6 16.5q0 6 4 11.5t12 6.5q50 7 75.5 15.5t29.5 9.5q19 7 26 7q19 0 19 -19v-322h2q29 27 47 41.5t46.5 25t67.5 10.5q68 0 108 -41t40 -108v-213
q0 -26 1.5 -38t12.5 -21t37 -9h6q9 0 12.5 -3t4.5 -15q0 -8 -4 -14t-11 -6q-59 3 -105 3q-47 0 -104 -3q-8 0 -12 6t-4 14q1 13 5.5 15.5t17.5 2.5q26 0 37 9t12.5 20.5t1.5 38.5v212q0 46 -28.5 70.5t-66.5 24.5q-46 0 -79.5 -23t-44.5 -46v-238q0 -26 1.5 -38t12.5 -21
t37 -9h6q9 0 12.5 -3t4.5 -15q0 -8 -4 -14t-11 -6q-58 3 -105 3q-45 0 -104 -3q-8 0 -12 6z" />
    <glyph glyph-name="uni04CF" unicode="&#x4cf;" horiz-adv-x="285" 
d="M31 3q-4 6 -4 14q1 13 5.5 15.5t17.5 2.5q26 0 37 9t12.5 20.5t1.5 38.5v522v25.5t-12.5 32t-38.5 10.5h-6q-9 0 -13 3t-4 15q0 8 4 14.5t12 5.5q38 -3 104 -3l45 1q32 2 51 2q8 0 12 -6t4 -14q0 -11 -4.5 -14.5t-12.5 -3.5q-25 0 -35 -7t-11.5 -17.5t-2.5 -43.5v-522
q0 -6 0.5 -29t10.5 -31.5t33 -7.5h5q8 0 12 -3t5 -15q0 -8 -4 -14t-12 -6q-57 3 -96 3q-47 0 -104 -3q-8 0 -12 6z" />
    <glyph glyph-name="uni04C2" unicode="&#x4c2;" horiz-adv-x="848" 
d="M50 7q-26 14 -31 41v4q0 7 3.5 11.5t9.5 4.5q8 0 15 -13q7 -11 14 -16.5t20 -5.5q17 0 28.5 17.5t26.5 54.5q18 42 34 69.5t43.5 48t68.5 22.5v2q-28 13 -53 58q-4 8 -13.5 31t-24.5 37.5t-37 14.5q-17 0 -27 -14.5t-10 -35.5q0 -4 -2.5 -5t-5.5 -1q-9 0 -21.5 7.5
t-22 20.5t-9.5 31q0 29 22.5 51.5t59.5 22.5q30 -2 50.5 -18t32.5 -37t26 -55q4 -8 8.5 -19t11.5 -24q30 -58 73 -58h38v96q0 6 -0.5 29t-10.5 31.5t-33 7.5h-6q-8 0 -11.5 3t-4.5 15q0 8 4 14t11 6q57 -3 97 -3q47 0 105 3q8 0 12 -6t4 -14q-1 -13 -5.5 -15.5t-17.5 -2.5
q-26 0 -37 -9t-13 -21t-2 -38v-96h38q43 0 73 58q7 13 11.5 24t8.5 19q14 34 26 55t32.5 37t50.5 18q37 0 59.5 -22.5t22.5 -51.5q0 -18 -9.5 -31t-22 -20.5t-21.5 -7.5q-3 0 -5.5 1t-2.5 5q0 21 -10 35.5t-27 14.5q-26 0 -40.5 -18t-22.5 -37.5t-12 -27.5q-25 -45 -53 -58
v-2q41 -2 69 -22.5t44 -48t33 -68.5q16 -38 28 -55.5t30 -17.5q10 0 16.5 5.5t14.5 17.5t13 12h1q8 0 12 -6t2 -14q-5 -27 -31 -41t-54 -14q-38 0 -63.5 17t-40.5 41t-32 64q-17 38 -29.5 59t-33.5 35.5t-52 14.5h-23v-121q0 -26 2 -38t13 -21t37 -9h6q8 0 12 -3t5 -15
q0 -8 -4 -14t-12 -6q-58 3 -105 3q-40 0 -97 -3q-7 0 -11 6t-4 14q1 13 5.5 15.5t16.5 2.5q23 -1 32 6.5t10 17.5t2 44v121h-23q-31 0 -52 -15t-33.5 -36.5t-29.5 -59.5q-17 -40 -32 -64.5t-40 -40.5t-64 -15q-28 0 -54 14zM312.5 564.5q-48.5 25.5 -48.5 67.5
q0 19 13.5 31.5t38.5 12.5q15 0 21 -9.5t11 -29.5q6 -21 12 -33.5t21.5 -22t43.5 -9.5q38 0 52 16.5t21 46.5q6 21 12.5 31t21.5 10q24 0 38 -12.5t14 -31.5q0 -42 -48 -67.5t-111 -25.5q-64 0 -112.5 25.5z" />
    <glyph glyph-name="uni04CC" unicode="&#x4cc;" horiz-adv-x="568" 
d="M515 35q9 0 13 -3t5 -15q0 -8 -4.5 -14t-11.5 -6l-65 3q-33 -2 -51 -13.5t-26.5 -34t-16.5 -65.5q-1 -8 -9.5 -12t-19.5 -4q-9 0 -15.5 4.5t-6.5 13.5v111q-7 7 -7 17q1 18 15 18q5 4 15 4q16 0 22 1q10 5 12 15.5t2.5 25t0.5 22.5v94q-49 -20 -76 -27.5t-64 -7.5
q-76 0 -110.5 28t-34.5 90v70q0 26 -1.5 38t-12.5 21t-37 9h-6q-9 0 -12.5 3t-4.5 15q0 8 4 14t11 6q59 -3 104 -3q40 0 97 3q7 0 11.5 -6t4.5 -14q-1 -13 -5.5 -15.5t-16.5 -2.5q-23 1 -33 -6.5t-12 -20t-3 -41.5v-47q0 -49 20.5 -70.5t70.5 -21.5q52 0 106 18v121
q0 6 -0.5 29t-10.5 31.5t-33 7.5h-6q-8 0 -12 3t-5 15q0 8 4.5 14t11.5 6q57 -3 97 -3q45 0 104 3q7 0 11.5 -6t4.5 -14q-1 -13 -6 -15.5t-18 -2.5q-26 0 -37 -9t-12.5 -21t-1.5 -38v-247q0 -26 1.5 -38t12.5 -21t37 -9h6z" />
    <glyph glyph-name="uni04D1" unicode="&#x4d1;" horiz-adv-x="501" 
d="M71 22q-37 34 -37 85q0 63 42 94.5t100 41t150 14.5v79q0 49 -24.5 74.5t-78.5 25.5q-31 0 -54 -19t-23 -51q0 -16 7.5 -26.5t16 -17.5t8.5 -8q0 -6 -12.5 -15.5t-30.5 -9.5q-30 0 -47.5 22t-17.5 52q0 52 46.5 77t112.5 25q82 0 133.5 -31t51.5 -115v-233q1 -21 13 -40
t39 -19q8 0 11.5 -3t3.5 -13q0 -12 -18.5 -17.5t-36.5 -5.5q-38 0 -67 22t-33 59q-21 -39 -64.5 -60t-93.5 -21q-60 0 -97 34zM263 59q29 17 46 46.5t17 65.5v57q-105 -8 -148 -34t-43 -84q0 -68 65 -68q34 0 63 17zM119.5 564.5q-48.5 25.5 -48.5 67.5q0 19 13.5 31.5
t38.5 12.5q15 0 21 -9.5t11 -29.5q6 -21 12 -33.5t21.5 -22t43.5 -9.5q38 0 52 16.5t21 46.5q6 21 12.5 31t21.5 10q24 0 38 -12.5t14 -31.5q0 -42 -48 -67.5t-111 -25.5q-64 0 -112.5 25.5z" />
    <glyph glyph-name="uni04D3" unicode="&#x4d3;" horiz-adv-x="501" 
d="M71 22q-37 34 -37 85q0 63 42 94.5t100 41t150 14.5v79q0 49 -24.5 74.5t-78.5 25.5q-31 0 -54 -19t-23 -51q0 -16 7.5 -26.5t16 -17.5t8.5 -8q0 -6 -12.5 -15.5t-30.5 -9.5q-30 0 -47.5 22t-17.5 52q0 52 46.5 77t112.5 25q82 0 133.5 -31t51.5 -115v-233q1 -21 13 -40
t39 -19q8 0 11.5 -3t3.5 -13q0 -12 -18.5 -17.5t-36.5 -5.5q-38 0 -67 22t-33 59q-21 -39 -64.5 -60t-93.5 -21q-60 0 -97 34zM263 59q29 17 46 46.5t17 65.5v57q-105 -8 -148 -34t-43 -84q0 -68 65 -68q34 0 63 17zM101.5 565q-18.5 18 -18.5 42q0 26 18 43t45 17
q26 0 43 -17t17 -43q0 -24 -17.5 -42t-43.5 -18q-25 0 -43.5 18zM274.5 565q-18.5 18 -18.5 42q0 26 18 43t45 17q26 0 43 -17t17 -43q0 -24 -17.5 -42t-43.5 -18q-25 0 -43.5 18z" />
    <glyph glyph-name="uni04D7" unicode="&#x4d7;" horiz-adv-x="502" 
d="M147.5 20q-52.5 32 -79.5 87t-27 122q0 59 27.5 113.5t78.5 88.5t117 34q89 0 137 -45.5t55 -122.5q0 -33 -18 -45t-52 -12h-243q0 -93 38.5 -147.5t119.5 -54.5q43 0 73 18.5t57 62.5q5 5 10 5q7 0 12 -4q10 -6 10 -18q0 -6 -2 -9q-31 -50 -78.5 -77.5t-107.5 -27.5
q-75 0 -127.5 32zM306 278q51 0 54 42q0 46 -25 78t-71 32q-51 0 -84 -40.5t-37 -111.5h163zM149.5 564.5q-48.5 25.5 -48.5 67.5q0 19 13.5 31.5t38.5 12.5q15 0 21 -9.5t11 -29.5q6 -21 12 -33.5t21.5 -22t43.5 -9.5q38 0 52 16.5t21 46.5q6 21 12.5 31t21.5 10
q24 0 38 -12.5t14 -31.5q0 -42 -48 -67.5t-111 -25.5q-64 0 -112.5 25.5z" />
    <glyph glyph-name="uni04D9" unicode="&#x4d9;" horiz-adv-x="497" 
d="M99.5 34.5q-51.5 46.5 -58.5 121.5q0 33 18 45t52 12h243q0 96 -34 155.5t-101 59.5q-44 0 -76 -27.5t-42 -76.5q-4 -12 -21 -12q-7 0 -10 1q-9 2 -15.5 7.5t-5.5 13.5l10 102q44 16 83 22.5t86 6.5q68 0 120 -32.5t80 -87.5t28 -119q0 -61 -25.5 -115.5t-76 -88.5
t-120.5 -34q-83 0 -134.5 46.5zM317 63.5q33 40.5 37 111.5h-163q-51 0 -54 -42q0 -46 25 -78t71 -32q51 0 84 40.5z" />
    <glyph glyph-name="uni04DD" unicode="&#x4dd;" horiz-adv-x="848" 
d="M50 7q-26 14 -31 41v4q0 7 3.5 11.5t9.5 4.5q8 0 15 -13q7 -11 14 -16.5t20 -5.5q17 0 28.5 17.5t26.5 54.5q18 42 34 69.5t43.5 48t68.5 22.5v2q-28 13 -53 58q-4 8 -13.5 31t-24.5 37.5t-37 14.5q-17 0 -27 -14.5t-10 -35.5q0 -4 -2.5 -5t-5.5 -1q-9 0 -21.5 7.5
t-22 20.5t-9.5 31q0 29 22.5 51.5t59.5 22.5q30 -2 50.5 -18t32.5 -37t26 -55q4 -8 8.5 -19t11.5 -24q30 -58 73 -58h38v96q0 6 -0.5 29t-10.5 31.5t-33 7.5h-6q-8 0 -11.5 3t-4.5 15q0 8 4 14t11 6q57 -3 97 -3q47 0 105 3q8 0 12 -6t4 -14q-1 -13 -5.5 -15.5t-17.5 -2.5
q-26 0 -37 -9t-13 -21t-2 -38v-96h38q43 0 73 58q7 13 11.5 24t8.5 19q14 34 26 55t32.5 37t50.5 18q37 0 59.5 -22.5t22.5 -51.5q0 -18 -9.5 -31t-22 -20.5t-21.5 -7.5q-3 0 -5.5 1t-2.5 5q0 21 -10 35.5t-27 14.5q-26 0 -40.5 -18t-22.5 -37.5t-12 -27.5q-25 -45 -53 -58
v-2q41 -2 69 -22.5t44 -48t33 -68.5q16 -38 28 -55.5t30 -17.5q10 0 16.5 5.5t14.5 17.5t13 12h1q8 0 12 -6t2 -14q-5 -27 -31 -41t-54 -14q-38 0 -63.5 17t-40.5 41t-32 64q-17 38 -29.5 59t-33.5 35.5t-52 14.5h-23v-121q0 -26 2 -38t13 -21t37 -9h6q8 0 12 -3t5 -15
q0 -8 -4 -14t-12 -6q-58 3 -105 3q-40 0 -97 -3q-7 0 -11 6t-4 14q1 13 5.5 15.5t16.5 2.5q23 -1 32 6.5t10 17.5t2 44v121h-23q-31 0 -52 -15t-33.5 -36.5t-29.5 -59.5q-17 -40 -32 -64.5t-40 -40.5t-64 -15q-28 0 -54 14zM294.5 565q-18.5 18 -18.5 42q0 26 18 43t45 17
q26 0 43 -17t17 -43q0 -24 -17.5 -42t-43.5 -18q-25 0 -43.5 18zM467.5 565q-18.5 18 -18.5 42q0 26 18 43t45 17q26 0 43 -17t17 -43q0 -24 -17.5 -42t-43.5 -18q-25 0 -43.5 18z" />
    <glyph glyph-name="uni04DF" unicode="&#x4df;" horiz-adv-x="471" 
d="M93.5 21q-48.5 32 -48.5 83q0 30 18.5 48t51.5 18q21 0 34.5 -9t13.5 -18q0 -2 -10 -11t-17.5 -20t-7.5 -26q0 -29 24 -46t66 -17q48 0 76 24t28 74q0 44 -29.5 72t-84.5 28h-21q-10 0 -15 5.5t-5 13.5q0 7 5 12.5t15 6.5h21q36 0 67 23.5t31 62.5q0 83 -81 83
q-48 0 -74.5 -26t-37.5 -78q-4 -12 -22 -12l-9 1q-9 2 -15.5 7.5t-5.5 13.5l5 50q1 22 5 52q40 14 73.5 21.5t80.5 7.5q90 0 137.5 -33t47.5 -84q0 -38 -31 -65.5t-83 -38.5v-2q60 -5 95 -39t35 -75q0 -47 -31 -78.5t-76.5 -46t-91.5 -14.5q-85 0 -133.5 32zM96.5 565
q-18.5 18 -18.5 42q0 26 18 43t45 17q26 0 43 -17t17 -43q0 -24 -17.5 -42t-43.5 -18q-25 0 -43.5 18zM269.5 565q-18.5 18 -18.5 42q0 26 18 43t45 17q26 0 43 -17t17 -43q0 -24 -17.5 -42t-43.5 -18q-25 0 -43.5 18z" />
    <glyph glyph-name="uni04E3" unicode="&#x4e3;" horiz-adv-x="607" 
d="M40 3q-4 6 -4 14q1 13 5.5 15.5t17.5 2.5q26 0 37 9t12.5 20.5t1.5 38.5v247v25.5t-12.5 32t-38.5 10.5h-6q-9 0 -12.5 3t-4.5 15q0 8 4 14t12 6q57 -3 104 -3q39 0 96 3q8 0 12 -6t4 -14q-1 -13 -5.5 -15.5t-16.5 -2.5q-23 1 -32 -6.5t-10 -17.5t-2 -44v-235l190 259
q36 45 63.5 61t55.5 19l44 2q8 0 12 -6t4 -14q-1 -13 -5.5 -15.5t-17.5 -2.5q-26 0 -37 -9t-13 -21t-2 -38v-247q0 -26 2 -38t13 -21t37 -9h6q8 0 12 -3t5 -15q0 -8 -4 -14t-12 -6q-58 3 -104 3q-40 0 -97 -3q-7 0 -11 6t-4 14q1 13 5.5 15.5t16.5 2.5q23 -1 32 6.5t10 17.5
t2 44v222l-191 -257q-27 -34 -57 -50.5t-56 -18.5q-32 -2 -49 -2q-8 0 -12 6zM177.5 588.5q-6.5 8.5 -6.5 18.5q0 11 6.5 19t16.5 8h238q10 0 16.5 -8t6.5 -19q0 -10 -6.5 -18.5t-16.5 -8.5h-238q-10 0 -16.5 8.5z" />
    <glyph glyph-name="uni04E5" unicode="&#x4e5;" horiz-adv-x="607" 
d="M40 3q-4 6 -4 14q1 13 5.5 15.5t17.5 2.5q26 0 37 9t12.5 20.5t1.5 38.5v247v25.5t-12.5 32t-38.5 10.5h-6q-9 0 -12.5 3t-4.5 15q0 8 4 14t12 6q57 -3 104 -3q39 0 96 3q8 0 12 -6t4 -14q-1 -13 -5.5 -15.5t-16.5 -2.5q-23 1 -32 -6.5t-10 -17.5t-2 -44v-235l190 259
q36 45 63.5 61t55.5 19l44 2q8 0 12 -6t4 -14q-1 -13 -5.5 -15.5t-17.5 -2.5q-26 0 -37 -9t-13 -21t-2 -38v-247q0 -26 2 -38t13 -21t37 -9h6q8 0 12 -3t5 -15q0 -8 -4 -14t-12 -6q-58 3 -104 3q-40 0 -97 -3q-7 0 -11 6t-4 14q1 13 5.5 15.5t16.5 2.5q23 -1 32 6.5t10 17.5
t2 44v222l-191 -257q-27 -34 -57 -50.5t-56 -18.5q-32 -2 -49 -2q-8 0 -12 6zM193.5 565q-18.5 18 -18.5 42q0 26 18 43t45 17q26 0 43 -17t17 -43q0 -24 -17.5 -42t-43.5 -18q-25 0 -43.5 18zM366.5 565q-18.5 18 -18.5 42q0 26 18 43t45 17q26 0 43 -17t17 -43
q0 -24 -17.5 -42t-43.5 -18q-25 0 -43.5 18z" />
    <glyph glyph-name="uni04E7" unicode="&#x4e7;" horiz-adv-x="548" 
d="M153 20.5q-53 32.5 -82.5 86t-29.5 113.5q0 75 35 130.5t89 85t109 29.5q68 0 121 -32.5t82.5 -86t29.5 -113.5q0 -75 -35.5 -130.5t-89.5 -85t-108 -29.5q-68 0 -121 32.5zM373.5 83q31.5 58 31.5 150q0 86 -32.5 140.5t-98.5 54.5q-69 0 -100 -57t-31 -149
q0 -86 32 -141.5t99 -55.5q68 0 99.5 58zM144.5 565q-18.5 18 -18.5 42q0 26 18 43t45 17q26 0 43 -17t17 -43q0 -24 -17.5 -42t-43.5 -18q-25 0 -43.5 18zM317.5 565q-18.5 18 -18.5 42q0 26 18 43t45 17q26 0 43 -17t17 -43q0 -24 -17.5 -42t-43.5 -18q-25 0 -43.5 18z
" />
    <glyph glyph-name="uni04E9" unicode="&#x4e9;" horiz-adv-x="548" 
d="M395 432.5q53 -32.5 82.5 -86t29.5 -113.5q0 -75 -35.5 -130.5t-89.5 -85t-108 -29.5q-68 0 -121 32.5t-82.5 86t-29.5 113.5q0 75 35 130.5t89 85t109 29.5q68 0 121 -32.5zM182 382.5q-31 -45.5 -38 -121.5h260q-5 75 -37 121t-93 46t-92 -45.5zM371 78.5
q32 53.5 34 138.5h-262q1 -84 33 -138t98 -54q65 0 97 53.5z" />
    <glyph glyph-name="uni04EF" unicode="&#x4ef;" horiz-adv-x="552" 
d="M19.5 -190.5q-33.5 27.5 -33.5 65.5q0 45 25 57.5t39 12.5q17 0 28 -7t11 -13q0 -2 -8 -10t-8 -28t12.5 -35t35.5 -15q63 0 123 129q4 14 4 21q0 10 -5 25q-20 45 -67 167q-41 109 -67 166q-17 39 -32 53.5t-44 18.5q-3 1 -11 2t-10 5t-2 14q0 12 6.5 15t16 3.5t12.5 0.5
q61 3 96 -17.5t58 -71.5q22 -51 39 -97q40 -108 65 -158h3l98 262q5 17 5 24q0 11 -10 15t-33 4h-6q-8 0 -11.5 3t-4.5 15q0 7 3.5 13.5t10.5 6.5q57 -3 97 -3q16 0 62 2l21 1q7 0 11 -6.5t4 -13.5q-1 -12 -5 -15t-12 -3q-37 0 -57 -12t-34 -47q-23 -57 -74 -183t-76 -186
q-36 -86 -84 -147t-115 -61q-43 0 -76.5 27.5zM130.5 588.5q-6.5 8.5 -6.5 18.5q0 11 6.5 19t16.5 8h238q10 0 16.5 -8t6.5 -19q0 -10 -6.5 -18.5t-16.5 -8.5h-238q-10 0 -16.5 8.5z" />
    </font>
</defs>
</svg>
